999
dxfrw 0.6.3
  0
SECTION
  2
HEADER
  9
$ACADVER
  1
AC1021
  9
$DWGCODEPAGE
  3
ANSI_1252
  9
$INSBASE
 10
0
 20
0
 30
0
  9
$EXTMIN
 10
0
 20
0
 30
0
  9
$EXTMAX
 10
1189
 20
840
 30
0
  9
$LIMMIN
 10
0
 20
0
  9
$LIMMAX
 10
12
 20
9
  9
$ORTHOMODE
 70
    0
  9
$REGENMODE
 70
    1
  9
$FILLMODE
 70
    1
  9
$QTEXTMODE
 70
    0
  9
$MIRRTEXT
 70
    1
  9
$LTSCALE
 40
12.7
  9
$ATTMODE
 70
    1
  9
$TEXTSIZE
 40
3.5
  9
$TRACEWID
 40
0.05
  9
$TEXTSTYLE
  7
ONSHAPE-STANDARD
  9
$CLAYER
  8
0
  9
$CELTYPE
  6
BYLAYER
  9
$CECOLOR
 62
  256
  9
$CELTSCALE
 40
1
  9
$DISPSILH
 70
    0
  9
$DIMSCALE
 40
1
  9
$DIMASZ
 40
2.5
  9
$DIMEXO
 40
0.625
  9
$DIMDLI
 40
3.75
  9
$DIMRND
 40
0
  9
$DIMDLE
 40
0
  9
$DIMEXE
 40
1.25
  9
$DIMTP
 40
0
  9
$DIMTM
 40
0
  9
$DIMTXT
 40
3.5
  9
$DIMCEN
 40
2.5
  9
$DIMTSZ
 40
0
  9
$DIMTOL
 70
    0
  9
$DIMLIM
 70
    0
  9
$DIMTIH
 70
    0
  9
$DIMTOH
 70
    0
  9
$DIMSE1
 70
    0
  9
$DIMSE2
 70
    0
  9
$DIMTAD
 70
    1
  9
$DIMZIN
 70
    8
  9
$DIMBLK
  1

  9
$DIMASO
 70
    1
  9
$DIMSHO
 70
    1
  9
$DIMPOST
  1

  9
$DIMAPOST
  1

  9
$DIMALT
 70
    0
  9
$DIMALTD
 70
    3
  9
$DIMALTF
 40
0.03937
  9
$DIMLFAC
 40
1
  9
$DIMTOFL
 70
    1
  9
$DIMTVP
 40
0
  9
$DIMTIX
 70
    0
  9
$DIMSOXD
 70
    0
  9
$DIMSAH
 70
    0
  9
$DIMBLK1
  1

  9
$DIMBLK2
  1

  9
$DIMSTYLE
  2
ONSHAPE-ISO-25
  9
$DIMCLRD
 70
    7
  9
$DIMCLRE
 70
    7
  9
$DIMCLRT
 70
    7
  9
$DIMTFAC
 40
1
  9
$DIMGAP
 40
0.625
  9
$DIMJUST
 70
    0
  9
$DIMSD1
 70
    0
  9
$DIMSD2
 70
    0
  9
$DIMTOLJ
 70
    0
  9
$DIMTZIN
 70
    8
  9
$DIMALTZ
 70
    8
  9
$DIMALTTZ
 70
    0
  9
$DIMUPT
 70
    1
  9
$DIMDEC
 70
    2
  9
$DIMTDEC
 70
    2
  9
$DIMALTU
 70
    2
  9
$DIMALTTD
 70
    3
  9
$DIMTXSTY
  7
ONSHAPE-STANDARD-DIMENSION
  9
$DIMAUNIT
 70
    0
  9
$DIMADEC
 70
    1
  9
$DIMALTRND
 40
0
  9
$DIMAZIN
 70
    0
  9
$DIMDSEP
 70
   44
  9
$DIMATFIT
 70
    3
  9
$DIMFRAC
 70
    0
  9
$DIMLDRBLK
  1
STANDARD
  9
$DIMLUNIT
 70
    2
  9
$DIMLWD
 70
   -2
  9
$DIMLWE
 70
   -2
  9
$DIMTMOVE
 70
    0
  9
$DIMFXL
 40
1
  9
$DIMFXLON
 70
    0
  9
$DIMJOGANG
 40
0.7854
  9
$DIMTFILL
 70
    0
  9
$DIMTFILLCLR
 70
    0
  9
$DIMARCSYM
 70
    0
  9
$DIMLTYPE
  6

  9
$DIMLTEX1
  6

  9
$DIMLTEX2
  6

  9
$LUNITS
 70
    2
  9
$LUPREC
 70
    4
  9
$SKETCHINC
 40
0.1
  9
$FILLETRAD
 40
0.5
  9
$AUNITS
 70
    0
  9
$AUPREC
 70
    0
  9
$MENU
  1
.
  9
$ELEVATION
 40
0
  9
$PELEVATION
 40
0
  9
$THICKNESS
 40
0
  9
$LIMCHECK
 70
    0
  9
$CHAMFERA
 40
0
  9
$CHAMFERB
 40
0
  9
$CHAMFERC
 40
0
  9
$CHAMFERD
 40
0
  9
$SKPOLY
 70
    0
  9
$USRTIMER
 70
    1
  9
$ANGBASE
 50
0
  9
$ANGDIR
 70
    0
  9
$PDMODE
 70
   33
  9
$PDSIZE
 40
1
  9
$PLINEWID
 40
0
  9
$SPLFRAME
 70
    0
  9
$SPLINETYPE
 70
    6
  9
$SPLINESEGS
 70
    8
  9
$HANDSEED
  5
20000
  9
$SURFTAB1
 70
    6
  9
$SURFTAB2
 70
    6
  9
$SURFTYPE
 70
    6
  9
$SURFU
 70
    6
  9
$SURFV
 70
    6
  9
$UCSBASE
  2

  9
$UCSNAME
  2

  9
$UCSORG
 10
0
 20
0
 30
0
  9
$UCSXDIR
 10
1
 20
0
 30
0
  9
$UCSYDIR
 10
0
 20
1
 30
0
  9
$UCSORTHOREF
  2

  9
$UCSORTHOVIEW
 70
    0
  9
$UCSORGTOP
 10
0
 20
0
 30
0
  9
$UCSORGBOTTOM
 10
0
 20
0
 30
0
  9
$UCSORGLEFT
 10
0
 20
0
 30
0
  9
$UCSORGRIGHT
 10
0
 20
0
 30
0
  9
$UCSORGFRONT
 10
0
 20
0
 30
0
  9
$UCSORGBACK
 10
0
 20
0
 30
0
  9
$PUCSBASE
  2

  9
$PUCSNAME
  2

  9
$PUCSORG
 10
0
 20
0
 30
0
  9
$PUCSXDIR
 10
1
 20
0
 30
0
  9
$PUCSYDIR
 10
0
 20
1
 30
0
  9
$PUCSORTHOREF
  2

  9
$PUCSORTHOVIEW
 70
    0
  9
$PUCSORGTOP
 10
0
 20
0
 30
0
  9
$PUCSORGBOTTOM
 10
0
 20
0
 30
0
  9
$PUCSORGLEFT
 10
0
 20
0
 30
0
  9
$PUCSORGRIGHT
 10
0
 20
0
 30
0
  9
$PUCSORGFRONT
 10
0
 20
0
 30
0
  9
$PUCSORGBACK
 10
0
 20
0
 30
0
  9
$USERI1
 70
    0
  9
$USERI2
 70
    0
  9
$USERI3
 70
    0
  9
$USERI4
 70
    0
  9
$USERI5
 70
    0
  9
$USERR1
 40
0
  9
$USERR2
 40
0
  9
$USERR3
 40
0
  9
$USERR4
 40
0
  9
$USERR5
 40
0
  9
$WORLDVIEW
 70
    1
  9
$SHADEDGE
 70
    3
  9
$SHADEDIF
 70
   70
  9
$TILEMODE
 70
    1
  9
$MAXACTVP
 70
   64
  9
$PINSBASE
 10
0
 20
0
 30
0
  9
$PLIMCHECK
 70
    0
  9
$PEXTMIN
 10
1e+20
 20
1e+20
 30
1e+20
  9
$PEXTMAX
 10
-1e+20
 20
-1e+20
 30
-1e+20
  9
$GRIDMODE
 70
    0
  9
$SNAPSTYLE
 70
    0
  9
$PLIMMIN
 10
0
 20
0
  9
$PLIMMAX
 10
12
 20
9
  9
$UNITMODE
 70
    0
  9
$VISRETAIN
 70
    1
  9
$PLINEGEN
 70
    0
  9
$PSLTSCALE
 70
    1
  9
$TREEDEPTH
 70
 3020
  9
$CMLSTYLE
  2
STANDARD
  9
$CMLJUST
 70
    0
  9
$CMLSCALE
 40
1
  9
$PROXYGRAPHICS
 70
    1
  9
$MEASUREMENT
 70
    1
  9
$CELWEIGHT
370
   -1
  9
$ENDCAPS
280
    0
  9
$JOINSTYLE
280
    0
  9
$LWDISPLAY
290
    0
  9
$INSUNITS
 70
    4
  9
$HYPERLINKBASE
  1

  9
$STYLESHEET
  1

  9
$XEDIT
290
    1
  9
$CEPSNTYPE
380
    0
  9
$PSTYLEMODE
290
    1
  9
$EXTNAMES
290
    1
  9
$PSVPSCALE
 40
1
  9
$OLESTARTUP
290
    0
  9
$SORTENTS
280
  127
  9
$INDEXCTL
280
    0
  9
$HIDETEXT
280
    1
  9
$XCLIPFRAME
290
    0
  9
$HALOGAP
280
    0
  9
$OBSCOLOR
 70
  257
  9
$OBSLTYPE
280
    0
  9
$INTERSECTIONDISPLAY
280
    0
  9
$INTERSECTIONCOLOR
 70
  257
  9
$DIMASSOC
280
    1
  9
$PROJECTNAME
  1

  9
$CAMERADISPLAY
290
    0
  9
$LENSLENGTH
 40
50
  9
$CAMERAHEIGHT
 40
0
  9
$STEPSPERSEC
 40
2
  9
$STEPSIZE
 40
50
  9
$3DDWFPREC
 40
2
  9
$PSOLWIDTH
 40
5
  9
$PSOLHEIGHT
 40
80
  9
$LOFTANG1
 40
1.570796326794897
  9
$LOFTANG2
 40
1.570796326794897
  9
$LOFTMAG1
 40
0
  9
$LOFTMAG2
 40
0
  9
$LOFTPARAM
 70
    7
  9
$LOFTNORMALS
280
    1
  9
$LATITUDE
 40
1
  9
$LONGITUDE
 40
1
  9
$NORTHDIRECTION
 40
0
  9
$TIMEZONE
 70
-8000
  9
$LIGHTGLYPHDISPLAY
280
    1
  9
$TILEMODELIGHTSYNCH
280
    1
  9
$SOLIDHIST
280
    1
  9
$SHOWHIST
280
    1
  9
$DWFFRAME
280
    2
  9
$DGNFRAME
280
    0
  9
$REALWORLDSCALE
290
    1
  9
$INTERFERECOLOR
 62
    1
  9
$CSHADOW
280
    0
  9
$SHADOWPLANELOCATION
 40
0
  0
ENDSEC
  0
SECTION
  2
CLASSES
  0
ENDSEC
  0
SECTION
  2
TABLES
  0
TABLE
  2
VPORT
  5
8
330
0
100
AcDbSymbolTable
 70
    1
  0
VPORT
  5
31
330
2
100
AcDbSymbolTableRecord
100
AcDbViewportTableRecord
  2
*ACTIVE
 70
    0
 10
0
 20
0
 11
1
 21
1
 12
414.1731220642346
 22
197.257575320282
 13
0
 23
0
 14
10
 24
10
 15
10
 25
10
 16
0
 26
0
 36
1
 17
0
 27
0
 37
0
 40
110.4913566227009
 41
1.931288343558282
 42
50
 43
0
 44
0
 50
0
 51
0
 71
    0
 72
  100
 73
    1
 74
    3
 75
    0
 76
    0
 77
    0
 78
    0
281
    0
 65
    1
110
0
120
0
130
0
111
1
121
0
131
0
112
0
122
1
132
0
 79
    0
146
0
348
10020
 60
    7
 61
    5
292
1
282
    1
141
0
142
0
 63
  250
421
3358443
  0
ENDTAB
  0
TABLE
  2
LTYPE
  5
5
330
0
100
AcDbSymbolTable
 70
    4
  0
LTYPE
  5
14
330
5
100
AcDbSymbolTableRecord
100
AcDbLinetypeTableRecord
  2
ByBlock
 70
    0
  3

 72
   65
 73
    0
 40
0
  0
LTYPE
  5
15
330
5
100
AcDbSymbolTableRecord
100
AcDbLinetypeTableRecord
  2
ByLayer
 70
    0
  3

 72
   65
 73
    0
 40
0
  0
LTYPE
  5
16
330
5
100
AcDbSymbolTableRecord
100
AcDbLinetypeTableRecord
  2
Continuous
 70
    0
  3
Solid line
 72
   65
 73
    0
 40
0
  0
LTYPE
  5
32
330
5
100
AcDbSymbolTableRecord
100
AcDbLinetypeTableRecord
  2
DOT
 70
    0
  3
Dot . . . . . . . . . . . . . . . . . . . . . .
 72
   65
 73
    2
 40
6.35
 49
0
 74
    0
 49
-6.35
 74
    0
  0
LTYPE
  5
33
330
5
100
AcDbSymbolTableRecord
100
AcDbLinetypeTableRecord
  2
DOTTINY
 70
    0
  3
Dot (.15x) .....................................
 72
   65
 73
    2
 40
0.9525
 49
0
 74
    0
 49
-0.9525
 74
    0
  0
LTYPE
  5
34
330
5
100
AcDbSymbolTableRecord
100
AcDbLinetypeTableRecord
  2
DOT2
 70
    0
  3
Dot (.5x) .....................................
 72
   65
 73
    2
 40
3.175
 49
0
 74
    0
 49
-3.175
 74
    0
  0
LTYPE
  5
35
330
5
100
AcDbSymbolTableRecord
100
AcDbLinetypeTableRecord
  2
DOTX2
 70
    0
  3
Dot (2x) .  .  .  .  .  .  .  .  .  .  .  .  .
 72
   65
 73
    2
 40
12.7
 49
0
 74
    0
 49
-12.7
 74
    0
  0
LTYPE
  5
36
330
5
100
AcDbSymbolTableRecord
100
AcDbLinetypeTableRecord
  2
DASHED
 70
    0
  3
Dashed _ _ _ _ _ _ _ _ _ _ _ _ _ _ _ _ _
 72
   65
 73
    2
 40
19.05
 49
12.7
 74
    0
 49
-6.35
 74
    0
  0
LTYPE
  5
37
330
5
100
AcDbSymbolTableRecord
100
AcDbLinetypeTableRecord
  2
DASHEDTINY
 70
    0
  3
Dashed (.15x) _ _ _ _ _ _ _ _ _ _ _ _ _ _ _ _ _
 72
   65
 73
    2
 40
2.8575
 49
1.905
 74
    0
 49
-0.9525
 74
    0
  0
LTYPE
  5
38
330
5
100
AcDbSymbolTableRecord
100
AcDbLinetypeTableRecord
  2
DASHED2
 70
    0
  3
Dashed (.5x) _ _ _ _ _ _ _ _ _ _ _ _ _ _ _ _ _
 72
   65
 73
    2
 40
9.524999999999999
 49
6.35
 74
    0
 49
-3.175
 74
    0
  0
LTYPE
  5
39
330
5
100
AcDbSymbolTableRecord
100
AcDbLinetypeTableRecord
  2
DASHEDX2
 70
    0
  3
Dashed (2x) ____  ____  ____  ____  ____  ___
 72
   65
 73
    2
 40
38.09999999999999
 49
25.4
 74
    0
 49
-12.7
 74
    0
  0
LTYPE
  5
3A
330
5
100
AcDbSymbolTableRecord
100
AcDbLinetypeTableRecord
  2
DASHDOT
 70
    0
  3
Dash dot __ . __ . __ . __ . __ . __ . __ . __
 72
   65
 73
    4
 40
25.4
 49
12.7
 74
    0
 49
-6.35
 74
    0
 49
0
 74
    0
 49
-6.35
 74
    0
  0
LTYPE
  5
3B
330
5
100
AcDbSymbolTableRecord
100
AcDbLinetypeTableRecord
  2
DASHDOTTINY
 70
    0
  3
Dash dot (.15x) _._._._._._._._._._._._._._._.
 72
   65
 73
    4
 40
3.81
 49
1.905
 74
    0
 49
-0.9525
 74
    0
 49
0
 74
    0
 49
-0.9525
 74
    0
  0
LTYPE
  5
3C
330
5
100
AcDbSymbolTableRecord
100
AcDbLinetypeTableRecord
  2
DASHDOT2
 70
    0
  3
Dash dot (.5x) _._._._._._._._._._._._._._._.
 72
   65
 73
    4
 40
12.7
 49
6.35
 74
    0
 49
-3.175
 74
    0
 49
0
 74
    0
 49
-3.175
 74
    0
  0
LTYPE
  5
3D
330
5
100
AcDbSymbolTableRecord
100
AcDbLinetypeTableRecord
  2
DASHDOTX2
 70
    0
  3
Dash dot (2x) ____  .  ____  .  ____  .  ___
 72
   65
 73
    4
 40
50.8
 49
25.4
 74
    0
 49
-12.7
 74
    0
 49
0
 74
    0
 49
-12.7
 74
    0
  0
LTYPE
  5
3E
330
5
100
AcDbSymbolTableRecord
100
AcDbLinetypeTableRecord
  2
DIVIDE
 70
    0
  3
Divide ____ . . ____ . . ____ . . ____ . . ____
 72
   65
 73
    6
 40
31.75
 49
12.7
 74
    0
 49
-6.35
 74
    0
 49
0
 74
    0
 49
-6.35
 74
    0
 49
0
 74
    0
 49
-6.35
 74
    0
  0
LTYPE
  5
3F
330
5
100
AcDbSymbolTableRecord
100
AcDbLinetypeTableRecord
  2
DIVIDETINY
 70
    0
  3
Divide (.15x) __..__..__..__..__..__..__..__.._
 72
   65
 73
    6
 40
4.7625
 49
1.905
 74
    0
 49
-0.9525
 74
    0
 49
0
 74
    0
 49
-0.9525
 74
    0
 49
0
 74
    0
 49
-0.9525
 74
    0
  0
LTYPE
  5
40
330
5
100
AcDbSymbolTableRecord
100
AcDbLinetypeTableRecord
  2
DIVIDE2
 70
    0
  3
Divide (.5x) __..__..__..__..__..__..__..__.._
 72
   65
 73
    6
 40
15.875
 49
6.35
 74
    0
 49
-3.175
 74
    0
 49
0
 74
    0
 49
-3.175
 74
    0
 49
0
 74
    0
 49
-3.175
 74
    0
  0
LTYPE
  5
41
330
5
100
AcDbSymbolTableRecord
100
AcDbLinetypeTableRecord
  2
DIVIDEX2
 70
    0
  3
Divide (2x) ________  .  .  ________  .  .  _
 72
   65
 73
    6
 40
63.5
 49
25.4
 74
    0
 49
-12.7
 74
    0
 49
0
 74
    0
 49
-12.7
 74
    0
 49
0
 74
    0
 49
-12.7
 74
    0
  0
LTYPE
  5
42
330
5
100
AcDbSymbolTableRecord
100
AcDbLinetypeTableRecord
  2
BORDER
 70
    0
  3
Border __ __ . __ __ . __ __ . __ __ . __ __ .
 72
   65
 73
    6
 40
44.45
 49
12.7
 74
    0
 49
-6.35
 74
    0
 49
12.7
 74
    0
 49
-6.35
 74
    0
 49
0
 74
    0
 49
-6.35
 74
    0
  0
LTYPE
  5
43
330
5
100
AcDbSymbolTableRecord
100
AcDbLinetypeTableRecord
  2
BORDERTINY
 70
    0
  3
Border (.15x) __.__.__.__.__.__.__.__.__.__.__.
 72
   65
 73
    6
 40
6.6675
 49
1.905
 74
    0
 49
-0.9525
 74
    0
 49
1.905
 74
    0
 49
-0.9525
 74
    0
 49
0
 74
    0
 49
-0.9525
 74
    0
  0
LTYPE
  5
44
330
5
100
AcDbSymbolTableRecord
100
AcDbLinetypeTableRecord
  2
BORDER2
 70
    0
  3
Border (.5x) __.__.__.__.__.__.__.__.__.__.__.
 72
   65
 73
    6
 40
22.225
 49
6.35
 74
    0
 49
-3.175
 74
    0
 49
6.35
 74
    0
 49
-3.175
 74
    0
 49
0
 74
    0
 49
-3.175
 74
    0
  0
LTYPE
  5
45
330
5
100
AcDbSymbolTableRecord
100
AcDbLinetypeTableRecord
  2
BORDERX2
 70
    0
  3
Border (2x) ____  ____  .  ____  ____  .  ___
 72
   65
 73
    6
 40
88.89999999999999
 49
25.4
 74
    0
 49
-12.7
 74
    0
 49
25.4
 74
    0
 49
-12.7
 74
    0
 49
0
 74
    0
 49
-12.7
 74
    0
  0
LTYPE
  5
46
330
5
100
AcDbSymbolTableRecord
100
AcDbLinetypeTableRecord
  2
CENTER
 70
    0
  3
Center ____ _ ____ _ ____ _ ____ _ ____ _ ____
 72
   65
 73
    4
 40
50.8
 49
31.75
 74
    0
 49
-6.35
 74
    0
 49
6.35
 74
    0
 49
-6.35
 74
    0
  0
LTYPE
  5
47
330
5
100
AcDbSymbolTableRecord
100
AcDbLinetypeTableRecord
  2
CENTERTINY
 70
    0
  3
Center (.15x) ___ _ ___ _ ___ _ ___ _ ___ _ ___
 72
   65
 73
    4
 40
7.619999999999999
 49
4.7625
 74
    0
 49
-0.9525
 74
    0
 49
0.9525
 74
    0
 49
-0.9525
 74
    0
  0
LTYPE
  5
48
330
5
100
AcDbSymbolTableRecord
100
AcDbLinetypeTableRecord
  2
CENTER2
 70
    0
  3
Center (.5x) ___ _ ___ _ ___ _ ___ _ ___ _ ___
 72
   65
 73
    4
 40
28.575
 49
19.05
 74
    0
 49
-3.175
 74
    0
 49
3.175
 74
    0
 49
-3.175
 74
    0
  0
LTYPE
  5
49
330
5
100
AcDbSymbolTableRecord
100
AcDbLinetypeTableRecord
  2
CENTERX2
 70
    0
  3
Center (2x) ________  __  ________  __  _____
 72
   65
 73
    4
 40
101.6
 49
63.5
 74
    0
 49
-12.7
 74
    0
 49
12.7
 74
    0
 49
-12.7
 74
    0
  0
ENDTAB
  0
TABLE
  2
LAYER
  5
2
330
0
100
AcDbSymbolTable
 70
    1
  0
LAYER
  5
10
330
2
100
AcDbSymbolTableRecord
100
AcDbLayerTableRecord
  2
0
 70
    0
 62
    7
  6
CONTINUOUS
370
   -3
390
F
  0
LAYER
  5
4A
330
2
100
AcDbSymbolTableRecord
100
AcDbLayerTableRecord
  2
ANNOTATION_TEXT
 70
    0
 62
    7
  6
CONTINUOUS
370
   -3
390
F
  0
LAYER
  5
4B
330
2
100
AcDbSymbolTableRecord
100
AcDbLayerTableRecord
  2
BORDER_FRAME
 70
    0
 62
    7
  6
CONTINUOUS
370
   -3
390
F
  0
LAYER
  5
4C
330
2
100
AcDbSymbolTableRecord
100
AcDbLayerTableRecord
  2
BORDER_ZONES
 70
    0
 62
    7
  6
CONTINUOUS
370
   -3
390
F
  0
LAYER
  5
4D
330
2
100
AcDbSymbolTableRecord
100
AcDbLayerTableRecord
  2
MODELSKETCH_CONSTRUCTION
 70
    0
 62
    7
  6
CENTER
370
   -3
390
F
  0
LAYER
  5
4E
330
2
100
AcDbSymbolTableRecord
100
AcDbLayerTableRecord
  2
MODELSKETCH_VISIBLE
 70
    0
 62
    7
  6
CONTINUOUS
370
   -3
390
F
  0
LAYER
  5
4F
330
2
100
AcDbSymbolTableRecord
100
AcDbLayerTableRecord
  2
TITLE_BLOCK
 70
    0
 62
    7
  6
CONTINUOUS
370
   -3
390
F
  0
LAYER
  5
50
330
2
100
AcDbSymbolTableRecord
100
AcDbLayerTableRecord
  2
VISIBLE
 70
    0
 62
    7
  6
CONTINUOUS
370
   -3
390
F
  0
ENDTAB
  0
TABLE
  2
STYLE
  5
3
330
0
100
AcDbSymbolTable
 70
    3
  0
STYLE
  5
51
330
2
100
AcDbSymbolTableRecord
100
AcDbTextStyleTableRecord
  2
ONSHAPE-STANDARD-FIELDS
 70
    0
 40
0
 41
1
 50
0
 71
    0
 42
1
  3
ONSHAPE-STANDARD-FIELDS
  4

  0
STYLE
  5
52
330
2
100
AcDbSymbolTableRecord
100
AcDbTextStyleTableRecord
  2
ONSHAPE-STANDARD-VIEW-LABE
 70
    0
 40
0
 41
1
 50
0
 71
    0
 42
1
  3
ONSHAPE-STANDARD-VIEW-LABE
  4

  0
STYLE
  5
53
330
2
100
AcDbSymbolTableRecord
100
AcDbTextStyleTableRecord
  2
ONSHAPE-STANDARD
 70
    0
 40
0
 41
1
 50
0
 71
    0
 42
1
  3
ONSHAPE-STANDARD
  4

  0
STYLE
  5
54
330
2
100
AcDbSymbolTableRecord
100
AcDbTextStyleTableRecord
  2
Standard
 70
    0
 40
0
 41
1
 50
0
 71
    0
 42
1
  3
txt
  4

  0
ENDTAB
  0
TABLE
  2
VIEW
  5
6
330
0
100
AcDbSymbolTable
 70
    0
  0
ENDTAB
  0
TABLE
  2
UCS
  5
7
330
0
100
AcDbSymbolTable
 70
    0
  0
ENDTAB
  0
TABLE
  2
APPID
  5
9
330
0
100
AcDbSymbolTable
 70
    1
  0
APPID
  5
12
330
9
100
AcDbSymbolTableRecord
100
AcDbRegAppTableRecord
  2
ACAD
 70
    0
  0
APPID
  5
55
330
9
100
AcDbSymbolTableRecord
100
AcDbRegAppTableRecord
  2
LibreCad
 70
    0
  0
ENDTAB
  0
TABLE
  2
DIMSTYLE
  5
A
330
0
100
AcDbSymbolTable
 70
    1
100
AcDbDimStyleTable
 71
    1
  0
DIMSTYLE
105
56
330
A
100
AcDbSymbolTableRecord
100
AcDbDimStyleTableRecord
  2
Standard
 70
    0
 40
1
 41
2.5
 42
0.625
 43
0.38
 44
1.25
 45
0
 46
0
 47
0
 48
0
 49
1
140
3.5
141
0.09
142
0
143
25.4
144
1
145
0
146
1
147
0.625
148
0
 71
    0
 72
    0
 73
    0
 74
    1
 75
    0
 76
    0
 77
    0
 78
    8
 79
    0
170
    0
171
    2
172
    0
173
    0
174
    0
175
    0
176
    7
177
    7
178
    7
179
    1
271
    2
272
    4
273
    2
274
    2
275
    0
276
    0
277
    2
278
    0
279
    0
280
    0
281
    0
282
    0
283
    1
284
    0
285
    0
286
    0
288
    0
289
    3
340
ONSHAPE-STANDARD-DIMENSION
341

371
   -2
372
   -2
  0
ENDTAB
  0
TABLE
  2
BLOCK_RECORD
  5
1
330
0
100
AcDbSymbolTable
 70
    2
  0
BLOCK_RECORD
  5
1F
330
1
100
AcDbSymbolTableRecord
100
AcDbBlockTableRecord
  2
*Model_Space
 70
    0
280
    1
281
    0
  0
BLOCK_RECORD
  5
1E
330
1
100
AcDbSymbolTableRecord
100
AcDbBlockTableRecord
  2
*Paper_Space
 70
    0
280
    1
281
    0
  0
ENDTAB
  0
ENDSEC
  0
SECTION
  2
BLOCKS
  0
BLOCK
  5
20
330
1F
100
AcDbEntity
  8
0
100
AcDbBlockBegin
  2
*Model_Space
 70
    0
 10
0
 20
0
 30
0
  3
*Model_Space
  1

  0
ENDBLK
  5
21
330
1F
100
AcDbEntity
  8
0
100
AcDbBlockEnd
  0
BLOCK
  5
1C
330
1B
100
AcDbEntity
  8
0
100
AcDbBlockBegin
  2
*Paper_Space
 70
    0
 10
0
 20
0
 30
0
  3
*Paper_Space
  1

  0
ENDBLK
  5
1D
330
1F
100
AcDbEntity
  8
0
100
AcDbBlockEnd
  0
ENDSEC
  0
SECTION
  2
ENTITIES
  0
ARC
  5
57
100
AcDbEntity
  8
VISIBLE
  6
ByLayer
 62
  256
370
   -1
100
AcDbCircle
 10
710.6973117414506
 20
642.4214921009187
 40
0.499999999999976
100
AcDbArc
 50
180
 51
270
  0
LINE
  5
58
100
AcDbEntity
  8
VISIBLE
  6
ByLayer
 62
  256
370
   -1
100
AcDbLine
 10
710.1973117414504
 20
644.7214921009187
 11
710.1973117414506
 21
642.4214921009187
  0
ARC
  5
59
100
AcDbEntity
  8
VISIBLE
  6
ByLayer
 62
  256
370
   -1
100
AcDbCircle
 10
709.6973117414504
 20
644.7214921009187
 40
0.5
100
AcDbArc
 50
0
 51
90
  0
LINE
  5
5A
100
AcDbEntity
  8
VISIBLE
  6
ByLayer
 62
  256
370
   -1
100
AcDbLine
 10
703.6973117414504
 20
645.2214921009187
 11
709.6973117414504
 21
645.2214921009187
  0
ARC
  5
5B
100
AcDbEntity
  8
VISIBLE
  6
ByLayer
 62
  256
370
   -1
100
AcDbCircle
 10
703.6973117414504
 20
644.7214921009187
 40
0.5
100
AcDbArc
 50
90
 51
270
  0
LINE
  5
5C
100
AcDbEntity
  8
VISIBLE
  6
ByLayer
 62
  256
370
   -1
100
AcDbLine
 10
706.4973117414505
 20
644.2214921009187
 11
703.6973117414504
 21
644.2214921009187
  0
ARC
  5
5D
100
AcDbEntity
  8
VISIBLE
  6
ByLayer
 62
  256
370
   -1
100
AcDbCircle
 10
706.4973117414505
 20
643.7214921009187
 40
0.5
100
AcDbArc
 50
0
 51
90
  0
LINE
  5
5E
100
AcDbEntity
  8
VISIBLE
  6
ByLayer
 62
  256
370
   -1
100
AcDbLine
 10
706.9973117414505
 20
637.4214921009186
 11
706.9973117414505
 21
643.7214921009187
  0
ARC
  5
5F
100
AcDbEntity
  8
VISIBLE
  6
ByLayer
 62
  256
370
   -1
100
AcDbCircle
 10
707.4973117414505
 20
637.4214921009186
 40
0.5
100
AcDbArc
 50
180
 51
270
  0
LINE
  5
60
100
AcDbEntity
  8
VISIBLE
  6
ByLayer
 62
  256
370
   -1
100
AcDbLine
 10
718.8973117414505
 20
636.9214921009186
 11
707.4973117414505
 21
636.9214921009186
  0
ARC
  5
61
100
AcDbEntity
  8
VISIBLE
  6
ByLayer
 62
  256
370
   -1
100
AcDbCircle
 10
718.8973117414505
 20
637.4214921009186
 40
0.5
100
AcDbArc
 50
270
 51
0
  0
LINE
  5
62
100
AcDbEntity
  8
VISIBLE
  6
ByLayer
 62
  256
370
   -1
100
AcDbLine
 10
719.3973117414505
 20
637.4214921009186
 11
719.3973117414505
 21
643.7214921009187
  0
ARC
  5
63
100
AcDbEntity
  8
VISIBLE
  6
ByLayer
 62
  256
370
   -1
100
AcDbCircle
 10
719.8973117414505
 20
643.7214921009187
 40
0.5
100
AcDbArc
 50
90
 51
180
  0
LINE
  5
64
100
AcDbEntity
  8
VISIBLE
  6
ByLayer
 62
  256
370
   -1
100
AcDbLine
 10
719.8973117414505
 20
644.2214921009187
 11
722.6973117414504
 21
644.2214921009187
  0
ARC
  5
65
100
AcDbEntity
  8
VISIBLE
  6
ByLayer
 62
  256
370
   -1
100
AcDbCircle
 10
722.6973117414504
 20
644.7214921009187
 40
0.5
100
AcDbArc
 50
270
 51
90
  0
LINE
  5
66
100
AcDbEntity
  8
VISIBLE
  6
ByLayer
 62
  256
370
   -1
100
AcDbLine
 10
722.6973117414504
 20
645.2214921009187
 11
716.6973117414504
 21
645.2214921009187
  0
ARC
  5
67
100
AcDbEntity
  8
VISIBLE
  6
ByLayer
 62
  256
370
   -1
100
AcDbCircle
 10
716.6973117414504
 20
644.7214921009187
 40
0.5
100
AcDbArc
 50
90
 51
180
  0
LINE
  5
68
100
AcDbEntity
  8
VISIBLE
  6
ByLayer
 62
  256
370
   -1
100
AcDbLine
 10
716.1973117414504
 20
644.7214921009187
 11
716.1973117414504
 21
642.4214921009187
  0
ARC
  5
69
100
AcDbEntity
  8
VISIBLE
  6
ByLayer
 62
  256
370
   -1
100
AcDbCircle
 10
715.6973117414504
 20
642.4214921009187
 40
0.4999999999999449
100
AcDbArc
 50
270
 51
0
  0
LINE
  5
6A
100
AcDbEntity
  8
VISIBLE
  6
ByLayer
 62
  256
370
   -1
100
AcDbLine
 10
710.6973117414506
 20
641.9214921009187
 11
715.6973117414504
 21
641.9214921009187
  0
LINE
  5
6B
100
AcDbEntity
  8
VISIBLE
  6
ByLayer
 62
  256
370
   -1
100
AcDbLine
 10
754.4473117414504
 20
401.1214921009187
 11
752.6973117414504
 21
401.1214921009187
  0
ARC
  5
6C
100
AcDbEntity
  8
VISIBLE
  6
ByLayer
 62
  256
370
   -1
100
AcDbCircle
 10
752.6973117414504
 20
399.8214921009187
 40
1.3
100
AcDbArc
 50
90
 51
270
  0
LINE
  5
6D
100
AcDbEntity
  8
VISIBLE
  6
ByLayer
 62
  256
370
   -1
100
AcDbLine
 10
754.4473117414504
 20
398.5214921009187
 11
752.6973117414504
 21
398.5214921009187
  0
LINE
  5
6E
100
AcDbEntity
  8
VISIBLE
  6
ByLayer
 62
  256
370
   -1
100
AcDbLine
 10
754.4473117414504
 20
398.5214921009187
 11
754.4473117414504
 21
371.1214921009187
  0
LINE
  5
6F
100
AcDbEntity
  8
VISIBLE
  6
ByLayer
 62
  256
370
   -1
100
AcDbLine
 10
754.4473117414504
 20
371.1214921009187
 11
752.6973117414504
 21
371.1214921009187
  0
ARC
  5
70
100
AcDbEntity
  8
VISIBLE
  6
ByLayer
 62
  256
370
   -1
100
AcDbCircle
 10
752.6973117414504
 20
369.8214921009187
 40
1.3
100
AcDbArc
 50
90
 51
270
  0
LINE
  5
71
100
AcDbEntity
  8
VISIBLE
  6
ByLayer
 62
  256
370
   -1
100
AcDbLine
 10
754.4473117414504
 20
368.5214921009187
 11
752.6973117414504
 21
368.5214921009187
  0
LINE
  5
72
100
AcDbEntity
  8
VISIBLE
  6
ByLayer
 62
  256
370
   -1
100
AcDbLine
 10
754.4473117414504
 20
368.5214921009187
 11
754.4473117414504
 21
341.1214921009187
  0
LINE
  5
73
100
AcDbEntity
  8
VISIBLE
  6
ByLayer
 62
  256
370
   -1
100
AcDbLine
 10
754.4473117414504
 20
341.1214921009187
 11
752.6973117414504
 21
341.1214921009187
  0
ARC
  5
74
100
AcDbEntity
  8
VISIBLE
  6
ByLayer
 62
  256
370
   -1
100
AcDbCircle
 10
752.6973117414504
 20
339.8214921009187
 40
1.3
100
AcDbArc
 50
90
 51
270
  0
LINE
  5
75
100
AcDbEntity
  8
VISIBLE
  6
ByLayer
 62
  256
370
   -1
100
AcDbLine
 10
754.4473117414504
 20
338.5214921009186
 11
752.6973117414504
 21
338.5214921009186
  0
LINE
  5
76
100
AcDbEntity
  8
VISIBLE
  6
ByLayer
 62
  256
370
   -1
100
AcDbLine
 10
754.4473117414504
 20
338.5214921009186
 11
754.4473117414504
 21
321.0714921009187
  0
ARC
  5
77
100
AcDbEntity
  8
VISIBLE
  6
ByLayer
 62
  256
370
   -1
100
AcDbCircle
 10
753.4473117414504
 20
321.0714921009187
 40
1
100
AcDbArc
 50
270
 51
0
  0
LINE
  5
78
100
AcDbEntity
  8
VISIBLE
  6
ByLayer
 62
  256
370
   -1
100
AcDbLine
 10
753.4473117414504
 20
320.0714921009187
 11
672.9473117414504
 21
320.0714921009187
  0
ARC
  5
79
100
AcDbEntity
  8
VISIBLE
  6
ByLayer
 62
  256
370
   -1
100
AcDbCircle
 10
672.9473117414504
 20
321.0714921009187
 40
1
100
AcDbArc
 50
180
 51
270
  0
LINE
  5
7A
100
AcDbEntity
  8
VISIBLE
  6
ByLayer
 62
  256
370
   -1
100
AcDbLine
 10
671.9473117414504
 20
338.5214921009186
 11
671.9473117414504
 21
321.0714921009187
  0
LINE
  5
7B
100
AcDbEntity
  8
VISIBLE
  6
ByLayer
 62
  256
370
   -1
100
AcDbLine
 10
671.9473117414504
 20
338.5214921009186
 11
673.6973117414504
 21
338.5214921009186
  0
ARC
  5
7C
100
AcDbEntity
  8
VISIBLE
  6
ByLayer
 62
  256
370
   -1
100
AcDbCircle
 10
673.6973117414504
 20
339.8214921009187
 40
1.3
100
AcDbArc
 50
270
 51
90
  0
LINE
  5
7D
100
AcDbEntity
  8
VISIBLE
  6
ByLayer
 62
  256
370
   -1
100
AcDbLine
 10
671.9473117414504
 20
341.1214921009187
 11
673.6973117414504
 21
341.1214921009187
  0
LINE
  5
7E
100
AcDbEntity
  8
VISIBLE
  6
ByLayer
 62
  256
370
   -1
100
AcDbLine
 10
671.9473117414504
 20
368.5214921009187
 11
671.9473117414504
 21
341.1214921009187
  0
LINE
  5
7F
100
AcDbEntity
  8
VISIBLE
  6
ByLayer
 62
  256
370
   -1
100
AcDbLine
 10
671.9473117414504
 20
368.5214921009187
 11
673.6973117414504
 21
368.5214921009187
  0
ARC
  5
80
100
AcDbEntity
  8
VISIBLE
  6
ByLayer
 62
  256
370
   -1
100
AcDbCircle
 10
673.6973117414504
 20
369.8214921009187
 40
1.3
100
AcDbArc
 50
270
 51
90
  0
LINE
  5
81
100
AcDbEntity
  8
VISIBLE
  6
ByLayer
 62
  256
370
   -1
100
AcDbLine
 10
671.9473117414504
 20
371.1214921009187
 11
673.6973117414504
 21
371.1214921009187
  0
LINE
  5
82
100
AcDbEntity
  8
VISIBLE
  6
ByLayer
 62
  256
370
   -1
100
AcDbLine
 10
671.9473117414504
 20
398.5214921009187
 11
671.9473117414504
 21
371.1214921009187
  0
LINE
  5
83
100
AcDbEntity
  8
VISIBLE
  6
ByLayer
 62
  256
370
   -1
100
AcDbLine
 10
671.9473117414504
 20
398.5214921009187
 11
673.6973117414504
 21
398.5214921009187
  0
ARC
  5
84
100
AcDbEntity
  8
VISIBLE
  6
ByLayer
 62
  256
370
   -1
100
AcDbCircle
 10
673.6973117414504
 20
399.8214921009187
 40
1.3
100
AcDbArc
 50
270
 51
90
  0
LINE
  5
85
100
AcDbEntity
  8
VISIBLE
  6
ByLayer
 62
  256
370
   -1
100
AcDbLine
 10
671.9473117414504
 20
401.1214921009187
 11
673.6973117414504
 21
401.1214921009187
  0
LINE
  5
86
100
AcDbEntity
  8
VISIBLE
  6
ByLayer
 62
  256
370
   -1
100
AcDbLine
 10
671.9473117414504
 20
452.2714921009187
 11
671.9473117414504
 21
401.1214921009187
  0
LINE
  5
87
100
AcDbEntity
  8
VISIBLE
  6
ByLayer
 62
  256
370
   -1
100
AcDbLine
 10
671.9473117414504
 20
452.2714921009187
 11
673.6973117414504
 21
452.2714921009187
  0
ARC
  5
88
100
AcDbEntity
  8
VISIBLE
  6
ByLayer
 62
  256
370
   -1
100
AcDbCircle
 10
673.6973117414504
 20
453.5714921009187
 40
1.3
100
AcDbArc
 50
270
 51
90
  0
LINE
  5
89
100
AcDbEntity
  8
VISIBLE
  6
ByLayer
 62
  256
370
   -1
100
AcDbLine
 10
671.9473117414504
 20
454.8714921009187
 11
673.6973117414504
 21
454.8714921009187
  0
LINE
  5
8A
100
AcDbEntity
  8
VISIBLE
  6
ByLayer
 62
  256
370
   -1
100
AcDbLine
 10
671.9473117414504
 20
482.2714921009187
 11
671.9473117414504
 21
454.8714921009187
  0
LINE
  5
8B
100
AcDbEntity
  8
VISIBLE
  6
ByLayer
 62
  256
370
   -1
100
AcDbLine
 10
671.9473117414504
 20
482.2714921009187
 11
673.6973117414504
 21
482.2714921009187
  0
ARC
  5
8C
100
AcDbEntity
  8
VISIBLE
  6
ByLayer
 62
  256
370
   -1
100
AcDbCircle
 10
673.6973117414504
 20
483.5714921009187
 40
1.3
100
AcDbArc
 50
270
 51
90
  0
LINE
  5
8D
100
AcDbEntity
  8
VISIBLE
  6
ByLayer
 62
  256
370
   -1
100
AcDbLine
 10
671.9473117414504
 20
484.8714921009187
 11
673.6973117414504
 21
484.8714921009187
  0
LINE
  5
8E
100
AcDbEntity
  8
VISIBLE
  6
ByLayer
 62
  256
370
   -1
100
AcDbLine
 10
671.9473117414504
 20
512.2714921009186
 11
671.9473117414504
 21
484.8714921009187
  0
LINE
  5
8F
100
AcDbEntity
  8
VISIBLE
  6
ByLayer
 62
  256
370
   -1
100
AcDbLine
 10
671.9473117414504
 20
512.2714921009186
 11
673.6973117414504
 21
512.2714921009186
  0
ARC
  5
90
100
AcDbEntity
  8
VISIBLE
  6
ByLayer
 62
  256
370
   -1
100
AcDbCircle
 10
673.6973117414504
 20
513.5714921009187
 40
1.3
100
AcDbArc
 50
270
 51
90
  0
LINE
  5
91
100
AcDbEntity
  8
VISIBLE
  6
ByLayer
 62
  256
370
   -1
100
AcDbLine
 10
671.9473117414504
 20
514.8714921009187
 11
673.6973117414504
 21
514.8714921009187
  0
LINE
  5
92
100
AcDbEntity
  8
VISIBLE
  6
ByLayer
 62
  256
370
   -1
100
AcDbLine
 10
671.9473117414504
 20
566.0214921009187
 11
671.9473117414504
 21
514.8714921009187
  0
LINE
  5
93
100
AcDbEntity
  8
VISIBLE
  6
ByLayer
 62
  256
370
   -1
100
AcDbLine
 10
671.9473117414504
 20
566.0214921009187
 11
673.6973117414504
 21
566.0214921009187
  0
ARC
  5
94
100
AcDbEntity
  8
VISIBLE
  6
ByLayer
 62
  256
370
   -1
100
AcDbCircle
 10
673.6973117414504
 20
567.3214921009187
 40
1.3
100
AcDbArc
 50
270
 51
90
  0
LINE
  5
95
100
AcDbEntity
  8
VISIBLE
  6
ByLayer
 62
  256
370
   -1
100
AcDbLine
 10
671.9473117414504
 20
568.6214921009187
 11
673.6973117414504
 21
568.6214921009187
  0
LINE
  5
96
100
AcDbEntity
  8
VISIBLE
  6
ByLayer
 62
  256
370
   -1
100
AcDbLine
 10
671.9473117414504
 20
596.0214921009186
 11
671.9473117414504
 21
568.6214921009187
  0
LINE
  5
97
100
AcDbEntity
  8
VISIBLE
  6
ByLayer
 62
  256
370
   -1
100
AcDbLine
 10
671.9473117414504
 20
596.0214921009186
 11
673.6973117414504
 21
596.0214921009186
  0
ARC
  5
98
100
AcDbEntity
  8
VISIBLE
  6
ByLayer
 62
  256
370
   -1
100
AcDbCircle
 10
673.6973117414504
 20
597.3214921009187
 40
1.3
100
AcDbArc
 50
270
 51
90
  0
LINE
  5
99
100
AcDbEntity
  8
VISIBLE
  6
ByLayer
 62
  256
370
   -1
100
AcDbLine
 10
671.9473117414504
 20
598.6214921009187
 11
673.6973117414504
 21
598.6214921009187
  0
LINE
  5
9A
100
AcDbEntity
  8
VISIBLE
  6
ByLayer
 62
  256
370
   -1
100
AcDbLine
 10
671.9473117414504
 20
626.0214921009186
 11
671.9473117414504
 21
598.6214921009187
  0
LINE
  5
9B
100
AcDbEntity
  8
VISIBLE
  6
ByLayer
 62
  256
370
   -1
100
AcDbLine
 10
671.9473117414504
 20
626.0214921009186
 11
673.6973117414504
 21
626.0214921009186
  0
ARC
  5
9C
100
AcDbEntity
  8
VISIBLE
  6
ByLayer
 62
  256
370
   -1
100
AcDbCircle
 10
673.6973117414504
 20
627.3214921009187
 40
1.3
100
AcDbArc
 50
270
 51
90
  0
LINE
  5
9D
100
AcDbEntity
  8
VISIBLE
  6
ByLayer
 62
  256
370
   -1
100
AcDbLine
 10
671.9473117414504
 20
628.6214921009187
 11
673.6973117414504
 21
628.6214921009187
  0
LINE
  5
9E
100
AcDbEntity
  8
VISIBLE
  6
ByLayer
 62
  256
370
   -1
100
AcDbLine
 10
671.9473117414504
 20
646.0714921009187
 11
671.9473117414504
 21
628.6214921009187
  0
ARC
  5
9F
100
AcDbEntity
  8
VISIBLE
  6
ByLayer
 62
  256
370
   -1
100
AcDbCircle
 10
672.9473117414504
 20
646.0714921009187
 40
1
100
AcDbArc
 50
90
 51
180
  0
LINE
  5
A0
100
AcDbEntity
  8
VISIBLE
  6
ByLayer
 62
  256
370
   -1
100
AcDbLine
 10
753.4473117414504
 20
647.0714921009187
 11
672.9473117414504
 21
647.0714921009187
  0
ARC
  5
A1
100
AcDbEntity
  8
VISIBLE
  6
ByLayer
 62
  256
370
   -1
100
AcDbCircle
 10
753.4473117414504
 20
646.0714921009187
 40
1
100
AcDbArc
 50
0
 51
90
  0
LINE
  5
A2
100
AcDbEntity
  8
VISIBLE
  6
ByLayer
 62
  256
370
   -1
100
AcDbLine
 10
754.4473117414504
 20
646.0714921009187
 11
754.4473117414504
 21
628.6214921009187
  0
LINE
  5
A3
100
AcDbEntity
  8
VISIBLE
  6
ByLayer
 62
  256
370
   -1
100
AcDbLine
 10
754.4473117414504
 20
628.6214921009187
 11
752.6973117414504
 21
628.6214921009187
  0
ARC
  5
A4
100
AcDbEntity
  8
VISIBLE
  6
ByLayer
 62
  256
370
   -1
100
AcDbCircle
 10
752.6973117414504
 20
627.3214921009187
 40
1.3
100
AcDbArc
 50
90
 51
270
  0
LINE
  5
A5
100
AcDbEntity
  8
VISIBLE
  6
ByLayer
 62
  256
370
   -1
100
AcDbLine
 10
754.4473117414504
 20
626.0214921009186
 11
752.6973117414504
 21
626.0214921009186
  0
LINE
  5
A6
100
AcDbEntity
  8
VISIBLE
  6
ByLayer
 62
  256
370
   -1
100
AcDbLine
 10
754.4473117414504
 20
626.0214921009186
 11
754.4473117414504
 21
598.6214921009187
  0
LINE
  5
A7
100
AcDbEntity
  8
VISIBLE
  6
ByLayer
 62
  256
370
   -1
100
AcDbLine
 10
754.4473117414504
 20
598.6214921009187
 11
752.6973117414504
 21
598.6214921009187
  0
ARC
  5
A8
100
AcDbEntity
  8
VISIBLE
  6
ByLayer
 62
  256
370
   -1
100
AcDbCircle
 10
752.6973117414504
 20
597.3214921009187
 40
1.3
100
AcDbArc
 50
90
 51
270
  0
LINE
  5
A9
100
AcDbEntity
  8
VISIBLE
  6
ByLayer
 62
  256
370
   -1
100
AcDbLine
 10
754.4473117414504
 20
596.0214921009186
 11
752.6973117414504
 21
596.0214921009186
  0
LINE
  5
AA
100
AcDbEntity
  8
VISIBLE
  6
ByLayer
 62
  256
370
   -1
100
AcDbLine
 10
754.4473117414504
 20
596.0214921009186
 11
754.4473117414504
 21
568.6214921009187
  0
LINE
  5
AB
100
AcDbEntity
  8
VISIBLE
  6
ByLayer
 62
  256
370
   -1
100
AcDbLine
 10
754.4473117414504
 20
568.6214921009187
 11
752.6973117414504
 21
568.6214921009187
  0
ARC
  5
AC
100
AcDbEntity
  8
VISIBLE
  6
ByLayer
 62
  256
370
   -1
100
AcDbCircle
 10
752.6973117414504
 20
567.3214921009187
 40
1.3
100
AcDbArc
 50
90
 51
270
  0
LINE
  5
AD
100
AcDbEntity
  8
VISIBLE
  6
ByLayer
 62
  256
370
   -1
100
AcDbLine
 10
754.4473117414504
 20
566.0214921009187
 11
752.6973117414504
 21
566.0214921009187
  0
LINE
  5
AE
100
AcDbEntity
  8
VISIBLE
  6
ByLayer
 62
  256
370
   -1
100
AcDbLine
 10
754.4473117414504
 20
566.0214921009187
 11
754.4473117414504
 21
514.8714921009187
  0
LINE
  5
AF
100
AcDbEntity
  8
VISIBLE
  6
ByLayer
 62
  256
370
   -1
100
AcDbLine
 10
754.4473117414504
 20
514.8714921009187
 11
752.6973117414504
 21
514.8714921009187
  0
ARC
  5
B0
100
AcDbEntity
  8
VISIBLE
  6
ByLayer
 62
  256
370
   -1
100
AcDbCircle
 10
752.6973117414504
 20
513.5714921009187
 40
1.3
100
AcDbArc
 50
90
 51
270
  0
LINE
  5
B1
100
AcDbEntity
  8
VISIBLE
  6
ByLayer
 62
  256
370
   -1
100
AcDbLine
 10
754.4473117414504
 20
512.2714921009186
 11
752.6973117414504
 21
512.2714921009186
  0
LINE
  5
B2
100
AcDbEntity
  8
VISIBLE
  6
ByLayer
 62
  256
370
   -1
100
AcDbLine
 10
754.4473117414504
 20
512.2714921009186
 11
754.4473117414504
 21
484.8714921009187
  0
LINE
  5
B3
100
AcDbEntity
  8
VISIBLE
  6
ByLayer
 62
  256
370
   -1
100
AcDbLine
 10
754.4473117414504
 20
484.8714921009187
 11
752.6973117414504
 21
484.8714921009187
  0
ARC
  5
B4
100
AcDbEntity
  8
VISIBLE
  6
ByLayer
 62
  256
370
   -1
100
AcDbCircle
 10
752.6973117414504
 20
483.5714921009187
 40
1.3
100
AcDbArc
 50
90
 51
270
  0
LINE
  5
B5
100
AcDbEntity
  8
VISIBLE
  6
ByLayer
 62
  256
370
   -1
100
AcDbLine
 10
754.4473117414504
 20
482.2714921009187
 11
752.6973117414504
 21
482.2714921009187
  0
LINE
  5
B6
100
AcDbEntity
  8
VISIBLE
  6
ByLayer
 62
  256
370
   -1
100
AcDbLine
 10
754.4473117414504
 20
482.2714921009187
 11
754.4473117414504
 21
454.8714921009187
  0
LINE
  5
B7
100
AcDbEntity
  8
VISIBLE
  6
ByLayer
 62
  256
370
   -1
100
AcDbLine
 10
754.4473117414504
 20
454.8714921009187
 11
752.6973117414504
 21
454.8714921009187
  0
ARC
  5
B8
100
AcDbEntity
  8
VISIBLE
  6
ByLayer
 62
  256
370
   -1
100
AcDbCircle
 10
752.6973117414504
 20
453.5714921009187
 40
1.3
100
AcDbArc
 50
90
 51
270
  0
LINE
  5
B9
100
AcDbEntity
  8
VISIBLE
  6
ByLayer
 62
  256
370
   -1
100
AcDbLine
 10
754.4473117414504
 20
452.2714921009187
 11
752.6973117414504
 21
452.2714921009187
  0
LINE
  5
BA
100
AcDbEntity
  8
VISIBLE
  6
ByLayer
 62
  256
370
   -1
100
AcDbLine
 10
754.4473117414504
 20
452.2714921009187
 11
754.4473117414504
 21
401.1214921009187
  0
ARC
  5
BB
100
AcDbEntity
  8
VISIBLE
  6
ByLayer
 62
  256
370
   -1
100
AcDbCircle
 10
719.1973117414504
 20
442.9714921009187
 40
0.5
100
AcDbArc
 50
0
 51
90
  0
LINE
  5
BC
100
AcDbEntity
  8
VISIBLE
  6
ByLayer
 62
  256
370
   -1
100
AcDbLine
 10
719.1973117414504
 20
443.4714921009187
 11
707.1973117414504
 21
443.4714921009187
  0
ARC
  5
BD
100
AcDbEntity
  8
VISIBLE
  6
ByLayer
 62
  256
370
   -1
100
AcDbCircle
 10
707.1973117414504
 20
442.9714921009187
 40
0.5
100
AcDbArc
 50
90
 51
180
  0
LINE
  5
BE
100
AcDbEntity
  8
VISIBLE
  6
ByLayer
 62
  256
370
   -1
100
AcDbLine
 10
706.6973117414504
 20
437.9714921009187
 11
706.6973117414504
 21
442.9714921009187
  0
ARC
  5
BF
100
AcDbEntity
  8
VISIBLE
  6
ByLayer
 62
  256
370
   -1
100
AcDbCircle
 10
707.1973117414504
 20
437.9714921009187
 40
0.5
100
AcDbArc
 50
180
 51
270
  0
LINE
  5
C0
100
AcDbEntity
  8
VISIBLE
  6
ByLayer
 62
  256
370
   -1
100
AcDbLine
 10
719.1973117414504
 20
437.4714921009187
 11
707.1973117414504
 21
437.4714921009187
  0
ARC
  5
C1
100
AcDbEntity
  8
VISIBLE
  6
ByLayer
 62
  256
370
   -1
100
AcDbCircle
 10
719.1973117414504
 20
437.9714921009187
 40
0.5
100
AcDbArc
 50
270
 51
0
  0
LINE
  5
C2
100
AcDbEntity
  8
VISIBLE
  6
ByLayer
 62
  256
370
   -1
100
AcDbLine
 10
719.6973117414504
 20
437.9714921009187
 11
719.6973117414504
 21
442.9714921009187
  0
CIRCLE
  5
C3
100
AcDbEntity
  8
VISIBLE
  6
ByLayer
 62
  256
370
   -1
100
AcDbCircle
 10
713.1973117414504
 20
322.6214921009187
 40
1.5
  0
CIRCLE
  5
C4
100
AcDbEntity
  8
VISIBLE
  6
ByLayer
 62
  256
370
   -1
100
AcDbCircle
 10
713.1973117414504
 20
644.5214921009187
 40
1.5
  0
CIRCLE
  5
C5
100
AcDbEntity
  8
VISIBLE
  6
ByLayer
 62
  256
370
   -1
100
AcDbCircle
 10
696.6973117414504
 20
576.8214921009187
 40
1.2
  0
CIRCLE
  5
C6
100
AcDbEntity
  8
VISIBLE
  6
ByLayer
 62
  256
370
   -1
100
AcDbCircle
 10
729.6973117414504
 20
576.8214921009187
 40
1.2
  0
CIRCLE
  5
C7
100
AcDbEntity
  8
VISIBLE
  6
ByLayer
 62
  256
370
   -1
100
AcDbCircle
 10
729.6973117414504
 20
616.8214921009187
 40
1.2
  0
CIRCLE
  5
C8
100
AcDbEntity
  8
VISIBLE
  6
ByLayer
 62
  256
370
   -1
100
AcDbCircle
 10
696.6973117414504
 20
616.8214921009187
 40
1.2
  0
CIRCLE
  5
C9
100
AcDbEntity
  8
VISIBLE
  6
ByLayer
 62
  256
370
   -1
100
AcDbCircle
 10
696.6973117414504
 20
463.5714921009187
 40
1.2
  0
CIRCLE
  5
CA
100
AcDbEntity
  8
VISIBLE
  6
ByLayer
 62
  256
370
   -1
100
AcDbCircle
 10
729.6973117414504
 20
463.5714921009187
 40
1.2
  0
CIRCLE
  5
CB
100
AcDbEntity
  8
VISIBLE
  6
ByLayer
 62
  256
370
   -1
100
AcDbCircle
 10
729.6973117414504
 20
503.5714921009187
 40
1.2
  0
CIRCLE
  5
CC
100
AcDbEntity
  8
VISIBLE
  6
ByLayer
 62
  256
370
   -1
100
AcDbCircle
 10
696.6973117414504
 20
503.5714921009187
 40
1.2
  0
CIRCLE
  5
CD
100
AcDbEntity
  8
VISIBLE
  6
ByLayer
 62
  256
370
   -1
100
AcDbCircle
 10
696.6973117414504
 20
390.3214921009187
 40
1.2
  0
CIRCLE
  5
CE
100
AcDbEntity
  8
VISIBLE
  6
ByLayer
 62
  256
370
   -1
100
AcDbCircle
 10
729.6973117414504
 20
390.3214921009187
 40
1.2
  0
CIRCLE
  5
CF
100
AcDbEntity
  8
VISIBLE
  6
ByLayer
 62
  256
370
   -1
100
AcDbCircle
 10
729.6973117414504
 20
350.3214921009187
 40
1.2
  0
CIRCLE
  5
D0
100
AcDbEntity
  8
VISIBLE
  6
ByLayer
 62
  256
370
   -1
100
AcDbCircle
 10
696.6973117414504
 20
350.3214921009187
 40
1.2
  0
ARC
  5
D1
100
AcDbEntity
  8
VISIBLE
  6
ByLayer
 62
  256
370
   -1
100
AcDbCircle
 10
707.1973117414504
 20
529.1714921009187
 40
0.5
100
AcDbArc
 50
90
 51
180
  0
LINE
  5
D2
100
AcDbEntity
  8
VISIBLE
  6
ByLayer
 62
  256
370
   -1
100
AcDbLine
 10
706.6973117414504
 20
529.1714921009187
 11
706.6973117414504
 21
524.1714921009187
  0
ARC
  5
D3
100
AcDbEntity
  8
VISIBLE
  6
ByLayer
 62
  256
370
   -1
100
AcDbCircle
 10
707.1973117414504
 20
524.1714921009187
 40
0.5
100
AcDbArc
 50
180
 51
270
  0
LINE
  5
D4
100
AcDbEntity
  8
VISIBLE
  6
ByLayer
 62
  256
370
   -1
100
AcDbLine
 10
719.6973117414504
 20
529.1714921009187
 11
719.6973117414504
 21
524.1714921009187
  0
LINE
  5
D5
100
AcDbEntity
  8
VISIBLE
  6
ByLayer
 62
  256
370
   -1
100
AcDbLine
 10
710.6973117414506
 20
325.2214921009187
 11
715.6973117414504
 21
325.2214921009187
  0
ARC
  5
D6
100
AcDbEntity
  8
VISIBLE
  6
ByLayer
 62
  256
370
   -1
100
AcDbCircle
 10
715.6973117414504
 20
324.7214921009187
 40
0.4999999999999449
100
AcDbArc
 50
0
 51
90
  0
LINE
  5
D7
100
AcDbEntity
  8
VISIBLE
  6
ByLayer
 62
  256
370
   -1
100
AcDbLine
 10
716.1973117414504
 20
322.4214921009187
 11
716.1973117414504
 21
324.7214921009187
  0
ARC
  5
D8
100
AcDbEntity
  8
VISIBLE
  6
ByLayer
 62
  256
370
   -1
100
AcDbCircle
 10
716.6973117414504
 20
322.4214921009187
 40
0.5
100
AcDbArc
 50
180
 51
270
  0
LINE
  5
D9
100
AcDbEntity
  8
VISIBLE
  6
ByLayer
 62
  256
370
   -1
100
AcDbLine
 10
722.6973117414504
 20
321.9214921009187
 11
716.6973117414504
 21
321.9214921009187
  0
ARC
  5
DA
100
AcDbEntity
  8
VISIBLE
  6
ByLayer
 62
  256
370
   -1
100
AcDbCircle
 10
722.6973117414504
 20
322.4214921009187
 40
0.5
100
AcDbArc
 50
270
 51
90
  0
LINE
  5
DB
100
AcDbEntity
  8
VISIBLE
  6
ByLayer
 62
  256
370
   -1
100
AcDbLine
 10
719.8973117414505
 20
322.9214921009187
 11
722.6973117414504
 21
322.9214921009187
  0
ARC
  5
DC
100
AcDbEntity
  8
VISIBLE
  6
ByLayer
 62
  256
370
   -1
100
AcDbCircle
 10
719.8973117414505
 20
323.4214921009187
 40
0.5
100
AcDbArc
 50
180
 51
270
  0
LINE
  5
DD
100
AcDbEntity
  8
VISIBLE
  6
ByLayer
 62
  256
370
   -1
100
AcDbLine
 10
719.3973117414505
 20
329.7214921009187
 11
719.3973117414505
 21
323.4214921009187
  0
LINE
  5
DE
100
AcDbEntity
  8
VISIBLE
  6
ByLayer
 62
  256
370
   -1
100
AcDbLine
 10
718.8973117414505
 20
330.2214921009187
 11
707.4973117414505
 21
330.2214921009187
  0
ARC
  5
DF
100
AcDbEntity
  8
VISIBLE
  6
ByLayer
 62
  256
370
   -1
100
AcDbCircle
 10
707.4973117414505
 20
329.7214921009187
 40
0.5
100
AcDbArc
 50
90
 51
180
  0
LINE
  5
E0
100
AcDbEntity
  8
VISIBLE
  6
ByLayer
 62
  256
370
   -1
100
AcDbLine
 10
706.9973117414505
 20
329.7214921009187
 11
706.9973117414505
 21
323.4214921009187
  0
ARC
  5
E1
100
AcDbEntity
  8
VISIBLE
  6
ByLayer
 62
  256
370
   -1
100
AcDbCircle
 10
706.4973117414505
 20
323.4214921009187
 40
0.5
100
AcDbArc
 50
270
 51
0
  0
LINE
  5
E2
100
AcDbEntity
  8
VISIBLE
  6
ByLayer
 62
  256
370
   -1
100
AcDbLine
 10
706.4973117414505
 20
322.9214921009187
 11
703.6973117414504
 21
322.9214921009187
  0
ARC
  5
E3
100
AcDbEntity
  8
VISIBLE
  6
ByLayer
 62
  256
370
   -1
100
AcDbCircle
 10
703.6973117414504
 20
322.4214921009187
 40
0.5
100
AcDbArc
 50
90
 51
270
  0
LINE
  5
E4
100
AcDbEntity
  8
VISIBLE
  6
ByLayer
 62
  256
370
   -1
100
AcDbLine
 10
703.6973117414504
 20
321.9214921009187
 11
709.6973117414504
 21
321.9214921009187
  0
ARC
  5
E5
100
AcDbEntity
  8
VISIBLE
  6
ByLayer
 62
  256
370
   -1
100
AcDbCircle
 10
709.6973117414504
 20
322.4214921009187
 40
0.5
100
AcDbArc
 50
270
 51
0
  0
LINE
  5
E6
100
AcDbEntity
  8
VISIBLE
  6
ByLayer
 62
  256
370
   -1
100
AcDbLine
 10
710.1973117414504
 20
322.4214921009187
 11
710.1973117414506
 21
324.7214921009187
  0
ARC
  5
E7
100
AcDbEntity
  8
VISIBLE
  6
ByLayer
 62
  256
370
   -1
100
AcDbCircle
 10
710.6973117414506
 20
324.7214921009187
 40
0.499999999999976
100
AcDbArc
 50
90
 51
180
  0
LINE
  5
E8
100
AcDbEntity
  8
VISIBLE
  6
ByLayer
 62
  256
370
   -1
100
AcDbLine
 10
719.1973117414504
 20
529.6714921009187
 11
707.1973117414504
 21
529.6714921009187
  0
ARC
  5
E9
100
AcDbEntity
  8
VISIBLE
  6
ByLayer
 62
  256
370
   -1
100
AcDbCircle
 10
718.8973117414505
 20
329.7214921009187
 40
0.5
100
AcDbArc
 50
0
 51
90
  0
LINE
  5
EA
100
AcDbEntity
  8
VISIBLE
  6
ByLayer
 62
  256
370
   -1
100
AcDbLine
 10
719.1973117414504
 20
523.6714921009187
 11
707.1973117414504
 21
523.6714921009187
  0
ARC
  5
EB
100
AcDbEntity
  8
VISIBLE
  6
ByLayer
 62
  256
370
   -1
100
AcDbCircle
 10
719.1973117414504
 20
524.1714921009187
 40
0.5
100
AcDbArc
 50
270
 51
0
  0
ARC
  5
EC
100
AcDbEntity
  8
VISIBLE
  6
ByLayer
 62
  256
370
   -1
100
AcDbCircle
 10
719.1973117414504
 20
529.1714921009187
 40
0.5
100
AcDbArc
 50
0
 51
90
  0
LINE
  5
ED
100
AcDbEntity
  8
MODELSKETCH_VISIBLE
  6
ByLayer
 62
  256
370
   -1
100
AcDbLine
 10
686.7213117414518
 20
395.8029921009216
 11
683.6733117414517
 21
392.7549921009215
  0
CIRCLE
  5
EE
100
AcDbEntity
  8
MODELSKETCH_VISIBLE
  6
ByLayer
 62
  256
370
   -1
100
AcDbCircle
 10
713.1973117414504
 20
477.5289921009187
 40
1
  0
LINE
  5
EF
100
AcDbEntity
  8
MODELSKETCH_VISIBLE
  6
ByLayer
 62
  256
370
   -1
100
AcDbLine
 10
683.6733117414504
 20
601.7029921009189
 11
686.7213117414507
 21
598.6549921009185
  0
LINE
  5
F0
100
AcDbEntity
  8
MODELSKETCH_VISIBLE
  6
ByLayer
 62
  256
370
   -1
100
AcDbLine
 10
686.7213117414508
 20
551.7029921009189
 11
683.6733117414504
 21
548.6549921009187
  0
CIRCLE
  5
F1
100
AcDbEntity
  8
MODELSKETCH_VISIBLE
  6
ByLayer
 62
  256
370
   -1
100
AcDbCircle
 10
735.1973117414504
 20
537.4994921009186
 40
1
  0
LINE
  5
F2
100
AcDbEntity
  8
MODELSKETCH_VISIBLE
  6
ByLayer
 62
  256
370
   -1
100
AcDbLine
 10
748.1947893184248
 20
525.246969677893
 11
746.199834164476
 21
523.2520145239444
  0
CIRCLE
  5
F3
100
AcDbEntity
  8
MODELSKETCH_VISIBLE
  6
ByLayer
 62
  256
370
   -1
100
AcDbCircle
 10
729.6973117414504
 20
576.8214921009187
 40
1.875
  0
LINE
  5
F4
100
AcDbEntity
  8
MODELSKETCH_VISIBLE
  6
ByLayer
 62
  256
370
   -1
100
AcDbLine
 10
748.1947893184248
 20
626.5020145239444
 11
746.1998341644761
 21
628.496969677893
  0
LINE
  5
F5
100
AcDbEntity
  8
MODELSKETCH_VISIBLE
  6
ByLayer
 62
  256
370
   -1
100
AcDbLine
 10
748.1947893184248
 20
608.496969677893
 11
746.1998341644761
 21
606.5020145239444
  0
LINE
  5
F6
100
AcDbEntity
  8
MODELSKETCH_VISIBLE
  6
ByLayer
 62
  256
370
   -1
100
AcDbLine
 10
711.6733117414504
 20
601.7029921009187
 11
714.7213117414506
 21
598.6549921009185
  0
LINE
  5
F7
100
AcDbEntity
  8
MODELSKETCH_VISIBLE
  6
ByLayer
 62
  256
370
   -1
100
AcDbLine
 10
742.1582411093025
 20
360.4605627330666
 11
740.2363823735984
 21
362.3824214687708
  0
LINE
  5
F8
100
AcDbEntity
  8
MODELSKETCH_VISIBLE
  6
ByLayer
 62
  256
370
   -1
100
AcDbLine
 10
748.1582411093025
 20
380.4605627330666
 11
746.2363823735984
 21
382.3824214687708
  0
LINE
  5
F9
100
AcDbEntity
  8
MODELSKETCH_VISIBLE
  6
ByLayer
 62
  256
370
   -1
100
AcDbLine
 10
663.2973117414505
 20
463.0714921009187
 11
763.0973117414505
 21
463.0714921009187
  0
LINE
  5
FA
100
AcDbEntity
  8
MODELSKETCH_VISIBLE
  6
ByLayer
 62
  256
370
   -1
100
AcDbLine
 10
763.0973117414505
 20
431.4214921009187
 11
763.0973117414505
 21
429.8214921009187
  0
LINE
  5
FB
100
AcDbEntity
  8
MODELSKETCH_VISIBLE
  6
ByLayer
 62
  256
370
   -1
100
AcDbLine
 10
763.0973117414505
 20
391.4214921009187
 11
763.0973117414505
 21
389.8214921009187
  0
LINE
  5
FC
100
AcDbEntity
  8
MODELSKETCH_VISIBLE
  6
ByLayer
 62
  256
370
   -1
100
AcDbLine
 10
763.0973117414505
 20
351.4214921009187
 11
763.0973117414505
 21
349.8214921009187
  0
LINE
  5
FD
100
AcDbEntity
  8
MODELSKETCH_VISIBLE
  6
ByLayer
 62
  256
370
   -1
100
AcDbLine
 10
736.1582411093025
 20
340.6385627330666
 11
734.2363823735984
 21
342.5604214687708
  0
LINE
  5
FE
100
AcDbEntity
  8
MODELSKETCH_VISIBLE
  6
ByLayer
 62
  256
370
   -1
100
AcDbLine
 10
663.2973117414505
 20
567.3214921009187
 11
763.0973117414504
 21
567.3214921009187
  0
LINE
  5
FF
100
AcDbEntity
  8
MODELSKETCH_VISIBLE
  6
ByLayer
 62
  256
370
   -1
100
AcDbLine
 10
748.1947893184248
 20
578.496969677893
 11
746.1998341644761
 21
576.5020145239444
  0
LINE
  5
100
100
AcDbEntity
  8
MODELSKETCH_VISIBLE
  6
ByLayer
 62
  256
370
   -1
100
AcDbLine
 10
708.3642814634684
 20
643.3214921009187
 11
678.1973117414504
 21
643.3214921009187
  0
LINE
  5
101
100
AcDbEntity
  8
MODELSKETCH_VISIBLE
  6
ByLayer
 62
  256
370
   -1
100
AcDbLine
 10
736.1947893184248
 20
566.5020145239444
 11
734.1998341644761
 21
568.496969677893
  0
LINE
  5
102
100
AcDbEntity
  8
MODELSKETCH_VISIBLE
  6
ByLayer
 62
  256
370
   -1
100
AcDbLine
 10
711.6733117414504
 20
425.8029921009187
 11
714.7213117414506
 21
422.7549921009186
  0
LINE
  5
103
100
AcDbEntity
  8
MODELSKETCH_VISIBLE
  6
ByLayer
 62
  256
370
   -1
100
AcDbLine
 10
742.1947893184248
 20
626.5020145239444
 11
740.1998341644761
 21
628.496969677893
  0
LINE
  5
104
100
AcDbEntity
  8
MODELSKETCH_VISIBLE
  6
ByLayer
 62
  256
370
   -1
100
AcDbLine
 10
736.1947893184248
 20
453.8520145239443
 11
734.1998341644761
 21
455.8469696778931
  0
LINE
  5
105
100
AcDbEntity
  8
MODELSKETCH_VISIBLE
  6
ByLayer
 62
  256
370
   -1
100
AcDbLine
 10
742.1947893184248
 20
473.6740145239443
 11
740.1998341644761
 21
475.6689696778931
  0
LINE
  5
106
100
AcDbEntity
  8
MODELSKETCH_VISIBLE
  6
ByLayer
 62
  256
370
   -1
100
AcDbLine
 10
663.2973117414506
 20
351.4214921009186
 11
763.0973117414505
 21
351.4214921009187
  0
LINE
  5
107
100
AcDbEntity
  8
MODELSKETCH_VISIBLE
  6
ByLayer
 62
  256
370
   -1
100
AcDbLine
 10
683.6733117414525
 20
355.8029921009208
 11
686.7213117414526
 21
352.7549921009207
  0
LINE
  5
108
100
AcDbEntity
  8
MODELSKETCH_VISIBLE
  6
ByLayer
 62
  256
370
   -1
100
AcDbLine
 10
683.6733117414525
 20
405.8029921009208
 11
686.7213117414526
 21
402.7549921009207
  0
LINE
  5
109
100
AcDbEntity
  8
MODELSKETCH_VISIBLE
  6
ByLayer
 62
  256
370
   -1
100
AcDbLine
 10
748.1582411093025
 20
360.4605627330666
 11
746.2363823735984
 21
362.3824214687708
  0
CIRCLE
  5
10A
100
AcDbEntity
  8
MODELSKETCH_VISIBLE
  6
ByLayer
 62
  256
370
   -1
100
AcDbCircle
 10
741.1973117414504
 20
381.4214921009187
 40
1
  0
LINE
  5
10B
100
AcDbEntity
  8
MODELSKETCH_VISIBLE
  6
ByLayer
 62
  256
370
   -1
100
AcDbLine
 10
663.2973117414505
 20
617.3214921009187
 11
663.2973117414505
 21
615.7214921009187
  0
LINE
  5
10C
100
AcDbEntity
  8
MODELSKETCH_VISIBLE
  6
ByLayer
 62
  256
370
   -1
100
AcDbLine
 10
683.6733117414504
 20
479.0529921009187
 11
686.7213117414504
 21
476.0049921009187
  0
CIRCLE
  5
10D
100
AcDbEntity
  8
MODELSKETCH_VISIBLE
  6
ByLayer
 62
  256
370
   -1
100
AcDbCircle
 10
735.1973117414504
 20
391.5994921009187
 40
1
  0
LINE
  5
10E
100
AcDbEntity
  8
MODELSKETCH_VISIBLE
  6
ByLayer
 62
  256
370
   -1
100
AcDbLine
 10
663.2973117414505
 20
577.3214921009187
 11
663.2973117414505
 21
575.7214921009187
  0
LINE
  5
10F
100
AcDbEntity
  8
MODELSKETCH_VISIBLE
  6
ByLayer
 62
  256
370
   -1
100
AcDbLine
 10
763.0973117414505
 20
474.6714921009187
 11
763.0973117414505
 21
473.0714921009187
  0
CIRCLE
  5
110
100
AcDbEntity
  8
MODELSKETCH_VISIBLE
  6
ByLayer
 62
  256
370
   -1
100
AcDbCircle
 10
696.6973117414504
 20
576.8214921009187
 40
1.875
  0
LINE
  5
111
100
AcDbEntity
  8
MODELSKETCH_VISIBLE
  6
ByLayer
 62
  256
370
   -1
100
AcDbLine
 10
663.2973117414505
 20
429.8214921009187
 11
763.0973117414505
 21
429.8214921009187
  0
LINE
  5
112
100
AcDbEntity
  8
MODELSKETCH_VISIBLE
  6
ByLayer
 62
  256
370
   -1
100
AcDbLine
 10
663.2973117414506
 20
391.4214921009187
 11
763.0973117414505
 21
391.4214921009187
  0
LINE
  5
113
100
AcDbEntity
  8
MODELSKETCH_VISIBLE
  6
ByLayer
 62
  256
370
   -1
100
AcDbLine
 10
683.6733117414517
 20
345.8029921009216
 11
686.7213117414518
 21
342.7549921009215
  0
LINE
  5
114
100
AcDbEntity
  8
MODELSKETCH_VISIBLE
  6
ByLayer
 62
  256
370
   -1
100
AcDbLine
 10
683.6733117414504
 20
541.7029921009189
 11
686.7213117414508
 21
538.6549921009185
  0
CIRCLE
  5
115
100
AcDbEntity
  8
MODELSKETCH_VISIBLE
  6
ByLayer
 62
  256
370
   -1
100
AcDbCircle
 10
741.1973117414504
 20
494.2494921009193
 40
1
  0
LINE
  5
116
100
AcDbEntity
  8
MODELSKETCH_VISIBLE
  6
ByLayer
 62
  256
370
   -1
100
AcDbLine
 10
663.2973117414505
 20
615.7214921009187
 11
763.0973117414504
 21
615.7214921009187
  0
LINE
  5
117
100
AcDbEntity
  8
MODELSKETCH_VISIBLE
  6
ByLayer
 62
  256
370
   -1
100
AcDbLine
 10
742.1947893184248
 20
576.5020145239444
 11
740.1998341644761
 21
578.496969677893
  0
CIRCLE
  5
118
100
AcDbEntity
  8
MODELSKETCH_VISIBLE
  6
ByLayer
 62
  256
370
   -1
100
AcDbCircle
 10
735.1973117414504
 20
557.4994921009187
 40
1
  0
CIRCLE
  5
119
100
AcDbEntity
  8
MODELSKETCH_VISIBLE
  6
ByLayer
 62
  256
370
   -1
100
AcDbCircle
 10
696.6973117414504
 20
616.8214921009187
 40
1.875
  0
LINE
  5
11A
100
AcDbEntity
  8
MODELSKETCH_VISIBLE
  6
ByLayer
 62
  256
370
   -1
100
AcDbLine
 10
748.1947893184248
 20
546.5020145239444
 11
746.1998341644761
 21
548.496969677893
  0
LINE
  5
11B
100
AcDbEntity
  8
MODELSKETCH_VISIBLE
  6
ByLayer
 62
  256
370
   -1
100
AcDbLine
 10
663.2973117414505
 20
627.3214921009187
 11
663.2973117414505
 21
625.7214921009187
  0
LINE
  5
11C
100
AcDbEntity
  8
MODELSKETCH_VISIBLE
  6
ByLayer
 62
  256
370
   -1
100
AcDbLine
 10
748.1947893184248
 20
538.496969677893
 11
746.199834164476
 21
536.5020145239444
  0
LINE
  5
11D
100
AcDbEntity
  8
MODELSKETCH_VISIBLE
  6
ByLayer
 62
  256
370
   -1
100
AcDbLine
 10
763.0973117414505
 20
627.3214921009187
 11
763.0973117414505
 21
625.7214921009187
  0
LINE
  5
11E
100
AcDbEntity
  8
MODELSKETCH_VISIBLE
  6
ByLayer
 62
  256
370
   -1
100
AcDbLine
 10
663.2973117414505
 20
627.3214921009187
 11
763.0973117414504
 21
627.3214921009187
  0
LINE
  5
11F
100
AcDbEntity
  8
MODELSKETCH_VISIBLE
  6
ByLayer
 62
  256
370
   -1
100
AcDbLine
 10
683.6733117414525
 20
395.8029921009208
 11
686.7213117414526
 21
392.7549921009207
  0
LINE
  5
120
100
AcDbEntity
  8
MODELSKETCH_VISIBLE
  6
ByLayer
 62
  256
370
   -1
100
AcDbLine
 10
711.6733117414504
 20
479.0529921009187
 11
714.7213117414506
 21
476.0049921009186
  0
LINE
  5
121
100
AcDbEntity
  8
MODELSKETCH_VISIBLE
  6
ByLayer
 62
  256
370
   -1
100
AcDbLine
 10
663.2973117414505
 20
625.7214921009187
 11
763.0973117414504
 21
625.7214921009187
  0
LINE
  5
122
100
AcDbEntity
  8
MODELSKETCH_VISIBLE
  6
ByLayer
 62
  256
370
   -1
100
AcDbLine
 10
763.0973117414505
 20
637.3214921009187
 11
763.0973117414505
 21
635.7214921009187
  0
LINE
  5
123
100
AcDbEntity
  8
MODELSKETCH_VISIBLE
  6
ByLayer
 62
  256
370
   -1
100
AcDbLine
 10
683.6733117414504
 20
551.7029921009189
 11
686.7213117414508
 21
548.6549921009185
  0
LINE
  5
124
100
AcDbEntity
  8
MODELSKETCH_VISIBLE
  6
ByLayer
 62
  256
370
   -1
100
AcDbLine
 10
748.1582411093025
 20
432.3824214687708
 11
746.2363823735984
 21
430.4605627330668
  0
LINE
  5
125
100
AcDbEntity
  8
MODELSKETCH_VISIBLE
  6
ByLayer
 62
  256
370
   -1
100
AcDbLine
 10
742.1947893184248
 20
523.2520145239444
 11
740.1998341644761
 21
525.246969677893
  0
LINE
  5
126
100
AcDbEntity
  8
MODELSKETCH_VISIBLE
  6
ByLayer
 62
  256
370
   -1
100
AcDbLine
 10
714.7213117414506
 20
541.7029921009187
 11
711.6733117414504
 21
538.6549921009185
  0
LINE
  5
127
100
AcDbEntity
  8
MODELSKETCH_VISIBLE
  6
ByLayer
 62
  256
370
   -1
100
AcDbLine
 10
742.1947893184248
 20
598.496969677893
 11
740.1998341644761
 21
596.5020145239444
  0
CIRCLE
  5
128
100
AcDbEntity
  8
MODELSKETCH_VISIBLE
  6
ByLayer
 62
  256
370
   -1
100
AcDbCircle
 10
747.1973117414504
 20
577.4994921009187
 40
1
  0
CIRCLE
  5
129
100
AcDbEntity
  8
MODELSKETCH_VISIBLE
  6
ByLayer
 62
  256
370
   -1
100
AcDbCircle
 10
741.1973117414504
 20
567.4994921009187
 40
1
  0
LINE
  5
12A
100
AcDbEntity
  8
MODELSKETCH_VISIBLE
  6
ByLayer
 62
  256
370
   -1
100
AcDbLine
 10
663.2973117414505
 20
637.3214921009187
 11
763.0973117414504
 21
637.3214921009187
  0
LINE
  5
12B
100
AcDbEntity
  8
MODELSKETCH_VISIBLE
  6
ByLayer
 62
  256
370
   -1
100
AcDbLine
 10
763.0973117414505
 20
607.3214921009187
 11
763.0973117414505
 21
605.7214921009187
  0
LINE
  5
12C
100
AcDbEntity
  8
MODELSKETCH_VISIBLE
  6
ByLayer
 62
  256
370
   -1
100
AcDbLine
 10
663.2973117414505
 20
607.3214921009187
 11
763.0973117414504
 21
607.3214921009187
  0
LINE
  5
12D
100
AcDbEntity
  8
MODELSKETCH_VISIBLE
  6
ByLayer
 62
  256
370
   -1
100
AcDbLine
 10
663.2973117414505
 20
605.7214921009187
 11
763.0973117414504
 21
605.7214921009187
  0
LINE
  5
12E
100
AcDbEntity
  8
MODELSKETCH_VISIBLE
  6
ByLayer
 62
  256
370
   -1
100
AcDbLine
 10
663.2973117414505
 20
522.4714921009187
 11
763.0973117414505
 21
522.4714921009187
  0
LINE
  5
12F
100
AcDbEntity
  8
MODELSKETCH_VISIBLE
  6
ByLayer
 62
  256
370
   -1
100
AcDbLine
 10
742.1582411093025
 20
330.4605627330666
 11
740.2363823735984
 21
332.3824214687708
  0
CIRCLE
  5
130
100
AcDbEntity
  8
MODELSKETCH_VISIBLE
  6
ByLayer
 62
  256
370
   -1
100
AcDbCircle
 10
680.8107617414505
 20
596.8214921009187
 40
1
  0
LINE
  5
131
100
AcDbEntity
  8
MODELSKETCH_VISIBLE
  6
ByLayer
 62
  256
370
   -1
100
AcDbLine
 10
663.2973117414505
 20
537.3214921009186
 11
663.2973117414505
 21
535.7214921009186
  0
LINE
  5
132
100
AcDbEntity
  8
MODELSKETCH_VISIBLE
  6
ByLayer
 62
  256
370
   -1
100
AcDbLine
 10
736.1582411093025
 20
330.6385627330666
 11
734.2363823735984
 21
332.5604214687708
  0
LINE
  5
133
100
AcDbEntity
  8
MODELSKETCH_VISIBLE
  6
ByLayer
 62
  256
370
   -1
100
AcDbLine
 10
736.1582411093025
 20
332.5604214687708
 11
734.2363823735984
 21
330.6385627330666
  0
LINE
  5
134
100
AcDbEntity
  8
MODELSKETCH_VISIBLE
  6
ByLayer
 62
  256
370
   -1
100
AcDbLine
 10
663.2973117414505
 20
524.0714921009187
 11
763.0973117414505
 21
524.0714921009187
  0
LINE
  5
135
100
AcDbEntity
  8
MODELSKETCH_VISIBLE
  6
ByLayer
 62
  256
370
   -1
100
AcDbLine
 10
663.2973117414506
 20
431.4214921009187
 11
663.2973117414506
 21
429.8214921009187
  0
LINE
  5
136
100
AcDbEntity
  8
MODELSKETCH_VISIBLE
  6
ByLayer
 62
  256
370
   -1
100
AcDbLine
 10
663.2973117414505
 20
389.8214921009187
 11
763.0973117414505
 21
389.8214921009187
  0
LINE
  5
137
100
AcDbEntity
  8
MODELSKETCH_VISIBLE
  6
ByLayer
 62
  256
370
   -1
100
AcDbLine
 10
663.2973117414505
 20
565.7214921009187
 11
763.0973117414504
 21
565.7214921009187
  0
LINE
  5
138
100
AcDbEntity
  8
MODELSKETCH_VISIBLE
  6
ByLayer
 62
  256
370
   -1
100
AcDbLine
 10
714.7213117414506
 20
561.7029921009187
 11
711.6733117414504
 21
558.6549921009185
  0
LINE
  5
139
100
AcDbEntity
  8
MODELSKETCH_VISIBLE
  6
ByLayer
 62
  256
370
   -1
100
AcDbLine
 10
711.6733117414504
 20
375.8029921009187
 11
714.7213117414506
 21
372.7549921009186
  0
LINE
  5
13A
100
AcDbEntity
  8
MODELSKETCH_VISIBLE
  6
ByLayer
 62
  256
370
   -1
100
AcDbLine
 10
742.1582411093025
 20
410.4605627330666
 11
740.2363823735984
 21
412.3824214687708
  0
LINE
  5
13B
100
AcDbEntity
  8
MODELSKETCH_VISIBLE
  6
ByLayer
 62
  256
370
   -1
100
AcDbLine
 10
742.1947893184248
 20
465.6689696778931
 11
740.1998341644761
 21
463.6740145239443
  0
CIRCLE
  5
13C
100
AcDbEntity
  8
MODELSKETCH_VISIBLE
  6
ByLayer
 62
  256
370
   -1
100
AcDbCircle
 10
735.1973117414504
 20
607.4994921009187
 40
1
  0
LINE
  5
13D
100
AcDbEntity
  8
MODELSKETCH_VISIBLE
  6
ByLayer
 62
  256
370
   -1
100
AcDbLine
 10
663.2973117414506
 20
361.4214921009186
 11
663.2973117414506
 21
359.8214921009187
  0
LINE
  5
13E
100
AcDbEntity
  8
MODELSKETCH_VISIBLE
  6
ByLayer
 62
  256
370
   -1
100
AcDbLine
 10
742.1582411093025
 20
342.3824214687708
 11
740.2363823735984
 21
340.4605627330666
  0
LINE
  5
13F
100
AcDbEntity
  8
MODELSKETCH_VISIBLE
  6
ByLayer
 62
  256
370
   -1
100
AcDbLine
 10
736.1582411093025
 20
362.5604214687708
 11
734.2363823735984
 21
360.6385627330666
  0
CIRCLE
  5
140
100
AcDbEntity
  8
MODELSKETCH_VISIBLE
  6
ByLayer
 62
  256
370
   -1
100
AcDbCircle
 10
735.1973117414504
 20
637.4994921009187
 40
1
  0
LINE
  5
141
100
AcDbEntity
  8
MODELSKETCH_VISIBLE
  6
ByLayer
 62
  256
370
   -1
100
AcDbLine
 10
748.1582411093025
 20
372.3824214687708
 11
746.2363823735984
 21
370.4605627330666
  0
LINE
  5
142
100
AcDbEntity
  8
MODELSKETCH_VISIBLE
  6
ByLayer
 62
  256
370
   -1
100
AcDbLine
 10
736.1582411093025
 20
390.6385627330666
 11
734.2363823735984
 21
392.5604214687708
  0
LINE
  5
143
100
AcDbEntity
  8
MODELSKETCH_VISIBLE
  6
ByLayer
 62
  256
370
   -1
100
AcDbLine
 10
763.0973117414505
 20
577.3214921009187
 11
763.0973117414505
 21
575.7214921009187
  0
LINE
  5
144
100
AcDbEntity
  8
MODELSKETCH_VISIBLE
  6
ByLayer
 62
  256
370
   -1
100
AcDbLine
 10
663.2973117414506
 20
474.6714921009187
 11
663.2973117414506
 21
473.0714921009186
  0
CIRCLE
  5
145
100
AcDbEntity
  8
MODELSKETCH_VISIBLE
  6
ByLayer
 62
  256
370
   -1
100
AcDbCircle
 10
685.1973117414504
 20
630.1789921009188
 40
1
  0
LINE
  5
146
100
AcDbEntity
  8
MODELSKETCH_VISIBLE
  6
ByLayer
 62
  256
370
   -1
100
AcDbLine
 10
736.1947893184248
 20
596.5020145239444
 11
734.1998341644761
 21
598.496969677893
  0
CIRCLE
  5
147
100
AcDbEntity
  8
MODELSKETCH_VISIBLE
  6
ByLayer
 62
  256
370
   -1
100
AcDbCircle
 10
685.1973117414504
 20
344.2789921009187
 40
1
  0
LINE
  5
148
100
AcDbEntity
  8
MODELSKETCH_VISIBLE
  6
ByLayer
 62
  256
370
   -1
100
AcDbLine
 10
690.0233117414505
 20
449.0529921009187
 11
693.0713117414506
 21
446.0049921009186
  0
LINE
  5
149
100
AcDbEntity
  8
MODELSKETCH_VISIBLE
  6
ByLayer
 62
  256
370
   -1
100
AcDbLine
 10
714.7213117414504
 20
479.0529921009187
 11
711.6733117414504
 21
476.0049921009187
  0
LINE
  5
14A
100
AcDbEntity
  8
MODELSKETCH_VISIBLE
  6
ByLayer
 62
  256
370
   -1
100
AcDbLine
 10
711.6733117414504
 20
469.0529921009187
 11
714.7213117414506
 21
466.0049921009186
  0
CIRCLE
  5
14B
100
AcDbEntity
  8
MODELSKETCH_VISIBLE
  6
ByLayer
 62
  256
370
   -1
100
AcDbCircle
 10
735.1973117414504
 20
431.5994921009188
 40
1
  0
LINE
  5
14C
100
AcDbEntity
  8
MODELSKETCH_VISIBLE
  6
ByLayer
 62
  256
370
   -1
100
AcDbLine
 10
748.1947893184248
 20
523.2520145239444
 11
746.1998341644761
 21
525.246969677893
  0
LINE
  5
14D
100
AcDbEntity
  8
MODELSKETCH_VISIBLE
  6
ByLayer
 62
  256
370
   -1
100
AcDbLine
 10
711.6733117414504
 20
541.7029921009187
 11
714.7213117414506
 21
538.6549921009184
  0
LINE
  5
14E
100
AcDbEntity
  8
MODELSKETCH_VISIBLE
  6
ByLayer
 62
  256
370
   -1
100
AcDbLine
 10
742.1947893184248
 20
596.5020145239444
 11
740.1998341644761
 21
598.496969677893
  0
LINE
  5
14F
100
AcDbEntity
  8
MODELSKETCH_VISIBLE
  6
ByLayer
 62
  256
370
   -1
100
AcDbLine
 10
675.6973117414504
 20
640.8214921009187
 11
675.6973117414504
 21
326.3214921009182
  0
LINE
  5
150
100
AcDbEntity
  8
MODELSKETCH_VISIBLE
  6
ByLayer
 62
  256
370
   -1
100
AcDbLine
 10
748.1947893184248
 20
566.5020145239444
 11
746.1998341644761
 21
568.496969677893
  0
LINE
  5
151
100
AcDbEntity
  8
MODELSKETCH_VISIBLE
  6
ByLayer
 62
  256
370
   -1
100
AcDbLine
 10
711.6733117414504
 20
561.7029921009187
 11
714.7213117414506
 21
558.6549921009185
  0
CIRCLE
  5
152
100
AcDbEntity
  8
MODELSKETCH_VISIBLE
  6
ByLayer
 62
  256
370
   -1
100
AcDbCircle
 10
713.1973117414504
 20
384.2789921009186
 40
1
  0
LINE
  5
153
100
AcDbEntity
  8
MODELSKETCH_VISIBLE
  6
ByLayer
 62
  256
370
   -1
100
AcDbLine
 10
748.1947893184248
 20
628.496969677893
 11
746.1998341644761
 21
626.5020145239444
  0
LINE
  5
154
100
AcDbEntity
  8
MODELSKETCH_VISIBLE
  6
ByLayer
 62
  256
370
   -1
100
AcDbLine
 10
736.1947893184248
 20
616.5020145239444
 11
734.1998341644761
 21
618.496969677893
  0
CIRCLE
  5
155
100
AcDbEntity
  8
MODELSKETCH_VISIBLE
  6
ByLayer
 62
  256
370
   -1
100
AcDbCircle
 10
735.1973117414504
 20
454.8494921009187
 40
1
  0
LINE
  5
156
100
AcDbEntity
  8
MODELSKETCH_VISIBLE
  6
ByLayer
 62
  256
370
   -1
100
AcDbLine
 10
742.1582411093025
 20
412.3824214687708
 11
740.2363823735984
 21
410.4605627330666
  0
LINE
  5
157
100
AcDbEntity
  8
MODELSKETCH_VISIBLE
  6
ByLayer
 62
  256
370
   -1
100
AcDbLine
 10
742.1947893184248
 20
453.6740145239443
 11
740.1998341644761
 21
455.6689696778931
  0
LINE
  5
158
100
AcDbEntity
  8
MODELSKETCH_VISIBLE
  6
ByLayer
 62
  256
370
   -1
100
AcDbLine
 10
748.1947893184248
 20
465.6689696778931
 11
746.1998341644761
 21
463.6740145239443
  0
LINE
  5
159
100
AcDbEntity
  8
MODELSKETCH_VISIBLE
  6
ByLayer
 62
  256
370
   -1
100
AcDbLine
 10
763.0973117414505
 20
361.4214921009187
 11
763.0973117414505
 21
359.8214921009187
  0
LINE
  5
15A
100
AcDbEntity
  8
MODELSKETCH_VISIBLE
  6
ByLayer
 62
  256
370
   -1
100
AcDbLine
 10
748.1582411093025
 20
340.4605627330666
 11
746.2363823735984
 21
342.3824214687708
  0
LINE
  5
15B
100
AcDbEntity
  8
MODELSKETCH_VISIBLE
  6
ByLayer
 62
  256
370
   -1
100
AcDbLine
 10
748.1947893184248
 20
443.6740145239443
 11
746.1998341644761
 21
445.6689696778931
  0
LINE
  5
15C
100
AcDbEntity
  8
MODELSKETCH_VISIBLE
  6
ByLayer
 62
  256
370
   -1
100
AcDbLine
 10
663.2973117414505
 20
537.3214921009186
 11
763.0973117414504
 21
537.3214921009186
  0
LINE
  5
15D
100
AcDbEntity
  8
MODELSKETCH_VISIBLE
  6
ByLayer
 62
  256
370
   -1
100
AcDbLine
 10
663.2973117414506
 20
431.4214921009187
 11
763.0973117414505
 21
431.4214921009187
  0
CIRCLE
  5
15E
100
AcDbEntity
  8
MODELSKETCH_VISIBLE
  6
ByLayer
 62
  256
370
   -1
100
AcDbCircle
 10
741.1973117414504
 20
361.4214921009187
 40
1
  0
CIRCLE
  5
15F
100
AcDbEntity
  8
MODELSKETCH_VISIBLE
  6
ByLayer
 62
  256
370
   -1
100
AcDbCircle
 10
735.1973117414504
 20
371.5994921009187
 40
1
  0
CIRCLE
  5
160
100
AcDbEntity
  8
MODELSKETCH_VISIBLE
  6
ByLayer
 62
  256
370
   -1
100
AcDbCircle
 10
747.1973117414504
 20
391.4214921009187
 40
1
  0
CIRCLE
  5
161
100
AcDbEntity
  8
MODELSKETCH_VISIBLE
  6
ByLayer
 62
  256
370
   -1
100
AcDbCircle
 10
735.1973117414504
 20
577.4994921009187
 40
1
  0
LINE
  5
162
100
AcDbEntity
  8
MODELSKETCH_VISIBLE
  6
ByLayer
 62
  256
370
   -1
100
AcDbLine
 10
663.2973117414506
 20
474.6714921009187
 11
763.0973117414505
 21
474.6714921009187
  0
CIRCLE
  5
163
100
AcDbEntity
  8
MODELSKETCH_VISIBLE
  6
ByLayer
 62
  256
370
   -1
100
AcDbCircle
 10
685.1973117414504
 20
384.2789921009187
 40
1
  0
LINE
  5
164
100
AcDbEntity
  8
MODELSKETCH_VISIBLE
  6
ByLayer
 62
  256
370
   -1
100
AcDbLine
 10
763.0973117414505
 20
401.4214921009187
 11
763.0973117414505
 21
399.8214921009187
  0
LINE
  5
165
100
AcDbEntity
  8
MODELSKETCH_VISIBLE
  6
ByLayer
 62
  256
370
   -1
100
AcDbLine
 10
714.7213117414506
 20
435.8029921009188
 11
711.6733117414504
 21
432.7549921009187
  0
CIRCLE
  5
166
100
AcDbEntity
  8
MODELSKETCH_VISIBLE
  6
ByLayer
 62
  256
370
   -1
100
AcDbCircle
 10
729.6973117414506
 20
390.3214921009187
 40
1.875
  0
LINE
  5
167
100
AcDbEntity
  8
MODELSKETCH_VISIBLE
  6
ByLayer
 62
  256
370
   -1
100
AcDbLine
 10
683.6733117414504
 20
469.0529921009187
 11
686.7213117414504
 21
466.0049921009187
  0
LINE
  5
168
100
AcDbEntity
  8
MODELSKETCH_VISIBLE
  6
ByLayer
 62
  256
370
   -1
100
AcDbLine
 10
686.7213117414518
 20
385.8029921009216
 11
683.6733117414517
 21
382.7549921009215
  0
CIRCLE
  5
169
100
AcDbEntity
  8
MODELSKETCH_VISIBLE
  6
ByLayer
 62
  256
370
   -1
100
AcDbCircle
 10
685.1973117414504
 20
434.2789921009187
 40
1
  0
LINE
  5
16A
100
AcDbEntity
  8
MODELSKETCH_VISIBLE
  6
ByLayer
 62
  256
370
   -1
100
AcDbLine
 10
714.7213117414504
 20
469.0529921009187
 11
711.6733117414504
 21
466.0049921009187
  0
LINE
  5
16B
100
AcDbEntity
  8
MODELSKETCH_VISIBLE
  6
ByLayer
 62
  256
370
   -1
100
AcDbLine
 10
686.7213117414508
 20
611.7029921009189
 11
683.6733117414504
 21
608.6549921009187
  0
LINE
  5
16C
100
AcDbEntity
  8
MODELSKETCH_VISIBLE
  6
ByLayer
 62
  256
370
   -1
100
AcDbLine
 10
686.7213117414508
 20
561.7029921009189
 11
683.6733117414504
 21
558.6549921009187
  0
LINE
  5
16D
100
AcDbEntity
  8
MODELSKETCH_VISIBLE
  6
ByLayer
 62
  256
370
   -1
100
AcDbLine
 10
736.1582411093025
 20
430.6385627330667
 11
734.2363823735984
 21
432.5604214687708
  0
LINE
  5
16E
100
AcDbEntity
  8
MODELSKETCH_VISIBLE
  6
ByLayer
 62
  256
370
   -1
100
AcDbLine
 10
736.1947893184248
 20
525.246969677893
 11
734.1998341644761
 21
523.2520145239444
  0
CIRCLE
  5
16F
100
AcDbEntity
  8
MODELSKETCH_VISIBLE
  6
ByLayer
 62
  256
370
   -1
100
AcDbCircle
 10
741.1973117414504
 20
524.2494921009187
 40
1
  0
CIRCLE
  5
170
100
AcDbEntity
  8
MODELSKETCH_VISIBLE
  6
ByLayer
 62
  256
370
   -1
100
AcDbCircle
 10
713.1973117414504
 20
467.5289921009187
 40
1
  0
LINE
  5
171
100
AcDbEntity
  8
MODELSKETCH_VISIBLE
  6
ByLayer
 62
  256
370
   -1
100
AcDbLine
 10
742.1947893184248
 20
515.2469696778933
 11
740.1998341644761
 21
513.2520145239446
  0
CIRCLE
  5
172
100
AcDbEntity
  8
MODELSKETCH_VISIBLE
  6
ByLayer
 62
  256
370
   -1
100
AcDbCircle
 10
713.1973117414504
 20
540.1789921009185
 40
1
  0
LINE
  5
173
100
AcDbEntity
  8
MODELSKETCH_VISIBLE
  6
ByLayer
 62
  256
370
   -1
100
AcDbLine
 10
736.1947893184248
 20
598.496969677893
 11
734.1998341644761
 21
596.5020145239444
  0
LINE
  5
174
100
AcDbEntity
  8
MODELSKETCH_VISIBLE
  6
ByLayer
 62
  256
370
   -1
100
AcDbLine
 10
750.6973117414504
 20
640.8214921009187
 11
750.6973117414504
 21
326.3214921009185
  0
LINE
  5
175
100
AcDbEntity
  8
MODELSKETCH_VISIBLE
  6
ByLayer
 62
  256
370
   -1
100
AcDbLine
 10
742.1947893184248
 20
568.496969677893
 11
740.1998341644761
 21
566.5020145239444
  0
CIRCLE
  5
176
100
AcDbEntity
  8
MODELSKETCH_VISIBLE
  6
ByLayer
 62
  256
370
   -1
100
AcDbCircle
 10
747.1973117414504
 20
547.4994921009187
 40
1
  0
CIRCLE
  5
177
100
AcDbEntity
  8
MODELSKETCH_VISIBLE
  6
ByLayer
 62
  256
370
   -1
100
AcDbCircle
 10
713.1973117414504
 20
560.1789921009185
 40
1
  0
LINE
  5
178
100
AcDbEntity
  8
MODELSKETCH_VISIBLE
  6
ByLayer
 62
  256
370
   -1
100
AcDbLine
 10
714.7213117414506
 20
385.8029921009187
 11
711.6733117414504
 21
382.7549921009186
  0
LINE
  5
179
100
AcDbEntity
  8
MODELSKETCH_VISIBLE
  6
ByLayer
 62
  256
370
   -1
100
AcDbLine
 10
663.2973117414506
 20
401.4214921009186
 11
663.2973117414506
 21
399.8214921009187
  0
CIRCLE
  5
17A
100
AcDbEntity
  8
MODELSKETCH_VISIBLE
  6
ByLayer
 62
  256
370
   -1
100
AcDbCircle
 10
741.1973117414504
 20
464.6714921009187
 40
1
  0
CIRCLE
  5
17B
100
AcDbEntity
  8
MODELSKETCH_VISIBLE
  6
ByLayer
 62
  256
370
   -1
100
AcDbCircle
 10
713.1973117414504
 20
610.1789921009187
 40
1
  0
LINE
  5
17C
100
AcDbEntity
  8
MODELSKETCH_VISIBLE
  6
ByLayer
 62
  256
370
   -1
100
AcDbLine
 10
663.2973117414505
 20
359.8214921009187
 11
763.0973117414505
 21
359.8214921009187
  0
LINE
  5
17D
100
AcDbEntity
  8
MODELSKETCH_VISIBLE
  6
ByLayer
 62
  256
370
   -1
100
AcDbLine
 10
736.1582411093025
 20
342.5604214687708
 11
734.2363823735984
 21
340.6385627330666
  0
LINE
  5
17E
100
AcDbEntity
  8
MODELSKETCH_VISIBLE
  6
ByLayer
 62
  256
370
   -1
100
AcDbLine
 10
742.1947893184248
 20
445.6689696778931
 11
740.1998341644761
 21
443.6740145239443
  0
LINE
  5
17F
100
AcDbEntity
  8
MODELSKETCH_VISIBLE
  6
ByLayer
 62
  256
370
   -1
100
AcDbLine
 10
663.2973117414505
 20
535.7214921009186
 11
763.0973117414504
 21
535.7214921009186
  0
LINE
  5
180
100
AcDbEntity
  8
MODELSKETCH_VISIBLE
  6
ByLayer
 62
  256
370
   -1
100
AcDbLine
 10
736.1582411093025
 20
370.6385627330666
 11
734.2363823735984
 21
372.5604214687708
  0
LINE
  5
181
100
AcDbEntity
  8
MODELSKETCH_VISIBLE
  6
ByLayer
 62
  256
370
   -1
100
AcDbLine
 10
742.1582411093025
 20
390.4605627330666
 11
740.2363823735984
 21
392.3824214687708
  0
LINE
  5
182
100
AcDbEntity
  8
MODELSKETCH_VISIBLE
  6
ByLayer
 62
  256
370
   -1
100
AcDbLine
 10
663.2973117414505
 20
473.0714921009187
 11
763.0973117414505
 21
473.0714921009187
  0
LINE
  5
183
100
AcDbEntity
  8
MODELSKETCH_VISIBLE
  6
ByLayer
 62
  256
370
   -1
100
AcDbLine
 10
663.2973117414506
 20
444.6714921009187
 11
663.2973117414506
 21
443.0714921009187
  0
LINE
  5
184
100
AcDbEntity
  8
MODELSKETCH_VISIBLE
  6
ByLayer
 62
  256
370
   -1
100
AcDbLine
 10
663.2973117414505
 20
399.8214921009187
 11
763.0973117414505
 21
399.8214921009187
  0
LINE
  5
185
100
AcDbEntity
  8
MODELSKETCH_VISIBLE
  6
ByLayer
 62
  256
370
   -1
100
AcDbLine
 10
663.2973117414505
 20
494.0714921009186
 11
663.2973117414505
 21
492.4714921009186
  0
LINE
  5
186
100
AcDbEntity
  8
MODELSKETCH_VISIBLE
  6
ByLayer
 62
  256
370
   -1
100
AcDbLine
 10
711.6733117414504
 20
435.8029921009186
 11
714.7213117414506
 21
432.7549921009185
  0
LINE
  5
187
100
AcDbEntity
  8
MODELSKETCH_VISIBLE
  6
ByLayer
 62
  256
370
   -1
100
AcDbLine
 10
663.2973117414505
 20
349.8214921009187
 11
763.0973117414505
 21
349.8214921009187
  0
CIRCLE
  5
188
100
AcDbEntity
  8
MODELSKETCH_VISIBLE
  6
ByLayer
 62
  256
370
   -1
100
AcDbCircle
 10
696.6973117414506
 20
390.3214921009187
 40
1.875
  0
LINE
  5
189
100
AcDbEntity
  8
MODELSKETCH_VISIBLE
  6
ByLayer
 62
  256
370
   -1
100
AcDbLine
 10
748.1582411093025
 20
410.4605627330666
 11
746.2363823735984
 21
412.3824214687708
  0
CIRCLE
  5
18A
100
AcDbEntity
  8
MODELSKETCH_VISIBLE
  6
ByLayer
 62
  256
370
   -1
100
AcDbCircle
 10
685.1973117414504
 20
467.5289921009187
 40
1
  0
LINE
  5
18B
100
AcDbEntity
  8
MODELSKETCH_VISIBLE
  6
ByLayer
 62
  256
370
   -1
100
AcDbLine
 10
683.6733117414525
 20
385.8029921009208
 11
686.7213117414526
 21
382.7549921009207
  0
LINE
  5
18C
100
AcDbEntity
  8
MODELSKETCH_VISIBLE
  6
ByLayer
 62
  256
370
   -1
100
AcDbLine
 10
686.7213117414518
 20
435.8029921009216
 11
683.6733117414517
 21
432.7549921009215
  0
CIRCLE
  5
18D
100
AcDbEntity
  8
MODELSKETCH_VISIBLE
  6
ByLayer
 62
  256
370
   -1
100
AcDbCircle
 10
713.1973117414504
 20
457.5289921009187
 40
1
  0
LINE
  5
18E
100
AcDbEntity
  8
MODELSKETCH_VISIBLE
  6
ByLayer
 62
  256
370
   -1
100
AcDbLine
 10
683.6733117414504
 20
561.7029921009189
 11
686.7213117414507
 21
558.6549921009185
  0
LINE
  5
18F
100
AcDbEntity
  8
MODELSKETCH_VISIBLE
  6
ByLayer
 62
  256
370
   -1
100
AcDbLine
 10
736.1947893184248
 20
515.2469696778933
 11
734.199834164476
 21
513.2520145239445
  0
LINE
  5
190
100
AcDbEntity
  8
MODELSKETCH_VISIBLE
  6
ByLayer
 62
  256
370
   -1
100
AcDbLine
 10
714.7213117414506
 20
551.7029921009187
 11
711.6733117414504
 21
548.6549921009185
  0
LINE
  5
191
100
AcDbEntity
  8
MODELSKETCH_VISIBLE
  6
ByLayer
 62
  256
370
   -1
100
AcDbLine
 10
748.1947893184248
 20
598.496969677893
 11
746.1998341644761
 21
596.5020145239444
  0
CIRCLE
  5
192
100
AcDbEntity
  8
MODELSKETCH_VISIBLE
  6
ByLayer
 62
  256
370
   -1
100
AcDbCircle
 10
735.1973117414504
 20
494.2494921009193
 40
1
  0
LINE
  5
193
100
AcDbEntity
  8
MODELSKETCH_VISIBLE
  6
ByLayer
 62
  256
370
   -1
100
AcDbLine
 10
736.1947893184248
 20
586.5020145239444
 11
734.1998341644761
 21
588.496969677893
  0
LINE
  5
194
100
AcDbEntity
  8
MODELSKETCH_VISIBLE
  6
ByLayer
 62
  256
370
   -1
100
AcDbLine
 10
708.3642814634654
 20
323.8214921009186
 11
678.1973117414504
 21
323.8214921009186
  0
LINE
  5
195
100
AcDbEntity
  8
MODELSKETCH_VISIBLE
  6
ByLayer
 62
  256
370
   -1
100
AcDbLine
 10
742.1947893184248
 20
566.5020145239444
 11
740.1998341644761
 21
568.496969677893
  0
CIRCLE
  5
196
100
AcDbEntity
  8
MODELSKETCH_VISIBLE
  6
ByLayer
 62
  256
370
   -1
100
AcDbCircle
 10
735.1973117414504
 20
547.4994921009187
 40
1
  0
LINE
  5
197
100
AcDbEntity
  8
MODELSKETCH_VISIBLE
  6
ByLayer
 62
  256
370
   -1
100
AcDbLine
 10
714.7213117414506
 20
571.7029921009187
 11
711.6733117414504
 21
568.6549921009185
  0
LINE
  5
198
100
AcDbEntity
  8
MODELSKETCH_VISIBLE
  6
ByLayer
 62
  256
370
   -1
100
AcDbLine
 10
711.6733117414504
 20
385.8029921009187
 11
714.7213117414506
 21
382.7549921009186
  0
CIRCLE
  5
199
100
AcDbEntity
  8
MODELSKETCH_VISIBLE
  6
ByLayer
 62
  256
370
   -1
100
AcDbCircle
 10
735.1973117414504
 20
627.4994921009187
 40
1
  0
LINE
  5
19A
100
AcDbEntity
  8
MODELSKETCH_VISIBLE
  6
ByLayer
 62
  256
370
   -1
100
AcDbLine
 10
736.1582411093025
 20
412.5604214687708
 11
734.2363823735984
 21
410.6385627330666
  0
LINE
  5
19B
100
AcDbEntity
  8
MODELSKETCH_VISIBLE
  6
ByLayer
 62
  256
370
   -1
100
AcDbLine
 10
748.1582411093025
 20
422.3824214687708
 11
746.2363823735984
 21
420.4605627330666
  0
LINE
  5
19C
100
AcDbEntity
  8
MODELSKETCH_VISIBLE
  6
ByLayer
 62
  256
370
   -1
100
AcDbLine
 10
736.1947893184248
 20
465.8469696778931
 11
734.1998341644761
 21
463.8520145239443
  0
LINE
  5
19D
100
AcDbEntity
  8
MODELSKETCH_VISIBLE
  6
ByLayer
 62
  256
370
   -1
100
AcDbLine
 10
714.7213117414506
 20
621.7029921009187
 11
711.6733117414504
 21
618.6549921009185
  0
LINE
  5
19E
100
AcDbEntity
  8
MODELSKETCH_VISIBLE
  6
ByLayer
 62
  256
370
   -1
100
AcDbLine
 10
663.2973117414506
 20
361.4214921009187
 11
763.0973117414505
 21
361.4214921009187
  0
LINE
  5
19F
100
AcDbEntity
  8
MODELSKETCH_VISIBLE
  6
ByLayer
 62
  256
370
   -1
100
AcDbLine
 10
742.1947893184248
 20
443.6740145239443
 11
740.1998341644761
 21
445.6689696778931
  0
LINE
  5
1A0
100
AcDbEntity
  8
MODELSKETCH_VISIBLE
  6
ByLayer
 62
  256
370
   -1
100
AcDbLine
 10
742.1582411093025
 20
392.3824214687708
 11
740.2363823735984
 21
390.4605627330666
  0
LINE
  5
1A1
100
AcDbEntity
  8
MODELSKETCH_VISIBLE
  6
ByLayer
 62
  256
370
   -1
100
AcDbLine
 10
693.0713117414506
 20
335.8029921009187
 11
690.0233117414505
 21
332.7549921009186
  0
LINE
  5
1A2
100
AcDbEntity
  8
MODELSKETCH_VISIBLE
  6
ByLayer
 62
  256
370
   -1
100
AcDbLine
 10
663.2973117414505
 20
587.3214921009187
 11
663.2973117414505
 21
585.7214921009187
  0
LINE
  5
1A3
100
AcDbEntity
  8
MODELSKETCH_VISIBLE
  6
ByLayer
 62
  256
370
   -1
100
AcDbLine
 10
663.2973117414505
 20
547.3214921009187
 11
663.2973117414505
 21
545.7214921009187
  0
LINE
  5
1A4
100
AcDbEntity
  8
MODELSKETCH_VISIBLE
  6
ByLayer
 62
  256
370
   -1
100
AcDbLine
 10
763.0973117414505
 20
444.6714921009187
 11
763.0973117414505
 21
443.0714921009187
  0
CIRCLE
  5
1A5
100
AcDbEntity
  8
MODELSKETCH_VISIBLE
  6
ByLayer
 62
  256
370
   -1
100
AcDbCircle
 10
713.1973117414504
 20
630.1789921009187
 40
1
  0
LINE
  5
1A6
100
AcDbEntity
  8
MODELSKETCH_VISIBLE
  6
ByLayer
 62
  256
370
   -1
100
AcDbLine
 10
663.2973117414506
 20
401.4214921009187
 11
763.0973117414505
 21
401.4214921009187
  0
CIRCLE
  5
1A7
100
AcDbEntity
  8
MODELSKETCH_VISIBLE
  6
ByLayer
 62
  256
370
   -1
100
AcDbCircle
 10
713.1973117414506
 20
434.2789921009186
 40
1
  0
LINE
  5
1A8
100
AcDbEntity
  8
MODELSKETCH_VISIBLE
  6
ByLayer
 62
  256
370
   -1
100
AcDbLine
 10
748.1947893184248
 20
616.5020145239444
 11
746.1998341644761
 21
618.496969677893
  0
CIRCLE
  5
1A9
100
AcDbEntity
  8
MODELSKETCH_VISIBLE
  6
ByLayer
 62
  256
370
   -1
100
AcDbCircle
 10
696.6973117414506
 20
350.3214921009187
 40
1.875
  0
LINE
  5
1AA
100
AcDbEntity
  8
MODELSKETCH_VISIBLE
  6
ByLayer
 62
  256
370
   -1
100
AcDbLine
 10
663.2973117414506
 20
371.4214921009187
 11
663.2973117414506
 21
369.8214921009187
  0
LINE
  5
1AB
100
AcDbEntity
  8
MODELSKETCH_VISIBLE
  6
ByLayer
 62
  256
370
   -1
100
AcDbLine
 10
736.1947893184248
 20
445.8469696778931
 11
734.1998341644761
 21
443.8520145239443
  0
LINE
  5
1AC
100
AcDbEntity
  8
MODELSKETCH_VISIBLE
  6
ByLayer
 62
  256
370
   -1
100
AcDbLine
 10
663.2973117414506
 20
331.4214921009186
 11
663.2973117414506
 21
329.8214921009187
  0
LINE
  5
1AD
100
AcDbEntity
  8
MODELSKETCH_VISIBLE
  6
ByLayer
 62
  256
370
   -1
100
AcDbLine
 10
686.7213117414504
 20
518.4531921009188
 11
683.6733117414506
 21
515.405192100919
  0
LINE
  5
1AE
100
AcDbEntity
  8
MODELSKETCH_VISIBLE
  6
ByLayer
 62
  256
370
   -1
100
AcDbLine
 10
663.2973117414505
 20
504.0714921009186
 11
763.0973117414505
 21
504.0714921009186
  0
LINE
  5
1AF
100
AcDbEntity
  8
MODELSKETCH_VISIBLE
  6
ByLayer
 62
  256
370
   -1
100
AcDbLine
 10
763.0973117414505
 20
587.3214921009187
 11
763.0973117414505
 21
585.7214921009187
  0
LINE
  5
1B0
100
AcDbEntity
  8
MODELSKETCH_VISIBLE
  6
ByLayer
 62
  256
370
   -1
100
AcDbLine
 10
763.0973117414505
 20
547.3214921009187
 11
763.0973117414505
 21
545.7214921009187
  0
LINE
  5
1B1
100
AcDbEntity
  8
MODELSKETCH_VISIBLE
  6
ByLayer
 62
  256
370
   -1
100
AcDbLine
 10
663.2973117414506
 20
444.6714921009187
 11
763.0973117414505
 21
444.6714921009187
  0
LINE
  5
1B2
100
AcDbEntity
  8
MODELSKETCH_VISIBLE
  6
ByLayer
 62
  256
370
   -1
100
AcDbLine
 10
663.2973117414506
 20
411.4214921009187
 11
663.2973117414506
 21
409.8214921009187
  0
LINE
  5
1B3
100
AcDbEntity
  8
MODELSKETCH_VISIBLE
  6
ByLayer
 62
  256
370
   -1
100
AcDbLine
 10
748.1947893184248
 20
513.2520145239446
 11
746.1998341644761
 21
515.2469696778933
  0
LINE
  5
1B4
100
AcDbEntity
  8
MODELSKETCH_VISIBLE
  6
ByLayer
 62
  256
370
   -1
100
AcDbLine
 10
711.6733117414504
 20
551.7029921009187
 11
714.7213117414506
 21
548.6549921009184
  0
LINE
  5
1B5
100
AcDbEntity
  8
MODELSKETCH_VISIBLE
  6
ByLayer
 62
  256
370
   -1
100
AcDbLine
 10
711.6733117414504
 20
459.0529921009187
 11
714.7213117414506
 21
456.0049921009186
  0
LINE
  5
1B6
100
AcDbEntity
  8
MODELSKETCH_VISIBLE
  6
ByLayer
 62
  256
370
   -1
100
AcDbLine
 10
686.7213117414506
 20
479.0529921009187
 11
683.6733117414504
 21
476.0049921009187
  0
CIRCLE
  5
1B7
100
AcDbEntity
  8
MODELSKETCH_VISIBLE
  6
ByLayer
 62
  256
370
   -1
100
AcDbCircle
 10
685.1973117414506
 20
610.1789921009188
 40
1
  0
LINE
  5
1B8
100
AcDbEntity
  8
MODELSKETCH_VISIBLE
  6
ByLayer
 62
  256
370
   -1
100
AcDbLine
 10
748.1973117414504
 20
643.3214921009187
 11
718.0303420195094
 21
643.3214921009187
  0
LINE
  5
1B9
100
AcDbEntity
  8
MODELSKETCH_VISIBLE
  6
ByLayer
 62
  256
370
   -1
100
AcDbLine
 10
736.1947893184248
 20
568.496969677893
 11
734.1998341644761
 21
566.5020145239444
  0
LINE
  5
1BA
100
AcDbEntity
  8
MODELSKETCH_VISIBLE
  6
ByLayer
 62
  256
370
   -1
100
AcDbLine
 10
742.1582411093025
 20
430.4605627330668
 11
740.2363823735984
 21
432.3824214687708
  0
CIRCLE
  5
1BB
100
AcDbEntity
  8
MODELSKETCH_VISIBLE
  6
ByLayer
 62
  256
370
   -1
100
AcDbCircle
 10
747.1973117414504
 20
524.2494921009187
 40
1
  0
LINE
  5
1BC
100
AcDbEntity
  8
MODELSKETCH_VISIBLE
  6
ByLayer
 62
  256
370
   -1
100
AcDbLine
 10
742.1947893184248
 20
618.496969677893
 11
740.1998341644761
 21
616.5020145239444
  0
LINE
  5
1BD
100
AcDbEntity
  8
MODELSKETCH_VISIBLE
  6
ByLayer
 62
  256
370
   -1
100
AcDbLine
 10
748.1582411093025
 20
352.3824214687708
 11
746.2363823735984
 21
350.4605627330666
  0
CIRCLE
  5
1BE
100
AcDbEntity
  8
MODELSKETCH_VISIBLE
  6
ByLayer
 62
  256
370
   -1
100
AcDbCircle
 10
747.1973117414504
 20
597.4994921009187
 40
1
  0
LINE
  5
1BF
100
AcDbEntity
  8
MODELSKETCH_VISIBLE
  6
ByLayer
 62
  256
370
   -1
100
AcDbLine
 10
736.1947893184248
 20
473.8520145239443
 11
734.1998341644761
 21
475.8469696778931
  0
CIRCLE
  5
1C0
100
AcDbEntity
  8
MODELSKETCH_VISIBLE
  6
ByLayer
 62
  256
370
   -1
100
AcDbCircle
 10
741.1973117414504
 20
587.4994921009187
 40
1
  0
LINE
  5
1C1
100
AcDbEntity
  8
MODELSKETCH_VISIBLE
  6
ByLayer
 62
  256
370
   -1
100
AcDbLine
 10
711.6733117414504
 20
365.8029921009187
 11
714.7213117414506
 21
362.7549921009186
  0
CIRCLE
  5
1C2
100
AcDbEntity
  8
MODELSKETCH_VISIBLE
  6
ByLayer
 62
  256
370
   -1
100
AcDbCircle
 10
747.1973117414504
 20
464.6714921009187
 40
1
  0
CIRCLE
  5
1C3
100
AcDbEntity
  8
MODELSKETCH_VISIBLE
  6
ByLayer
 62
  256
370
   -1
100
AcDbCircle
 10
747.1973117414504
 20
454.6714921009187
 40
1
  0
LINE
  5
1C4
100
AcDbEntity
  8
MODELSKETCH_VISIBLE
  6
ByLayer
 62
  256
370
   -1
100
AcDbLine
 10
663.2973117414505
 20
597.3214921009187
 11
763.0973117414504
 21
597.3214921009187
  0
CIRCLE
  5
1C5
100
AcDbEntity
  8
MODELSKETCH_VISIBLE
  6
ByLayer
 62
  256
370
   -1
100
AcDbCircle
 10
696.6973117414504
 20
503.5714921009187
 40
1.875
  0
LINE
  5
1C6
100
AcDbEntity
  8
MODELSKETCH_VISIBLE
  6
ByLayer
 62
  256
370
   -1
100
AcDbLine
 10
711.6733117414504
 20
508.453192100919
 11
714.7213117414504
 21
505.4051921009188
  0
LINE
  5
1C7
100
AcDbEntity
  8
MODELSKETCH_VISIBLE
  6
ByLayer
 62
  256
370
   -1
100
AcDbLine
 10
683.6733117414504
 20
581.7029921009189
 11
686.7213117414507
 21
578.6549921009185
  0
LINE
  5
1C8
100
AcDbEntity
  8
MODELSKETCH_VISIBLE
  6
ByLayer
 62
  256
370
   -1
100
AcDbLine
 10
763.0973117414505
 20
567.3214921009187
 11
763.0973117414505
 21
565.7214921009187
  0
LINE
  5
1C9
100
AcDbEntity
  8
MODELSKETCH_VISIBLE
  6
ByLayer
 62
  256
370
   -1
100
AcDbLine
 10
663.2973117414506
 20
512.4714921009187
 11
763.0973117414505
 21
512.4714921009187
  0
LINE
  5
1CA
100
AcDbEntity
  8
MODELSKETCH_VISIBLE
  6
ByLayer
 62
  256
370
   -1
100
AcDbLine
 10
663.2973117414505
 20
635.7214921009187
 11
763.0973117414504
 21
635.7214921009187
  0
CIRCLE
  5
1CB
100
AcDbEntity
  8
MODELSKETCH_VISIBLE
  6
ByLayer
 62
  256
370
   -1
100
AcDbCircle
 10
747.1973117414504
 20
514.2494921009189
 40
1
  0
LINE
  5
1CC
100
AcDbEntity
  8
MODELSKETCH_VISIBLE
  6
ByLayer
 62
  256
370
   -1
100
AcDbLine
 10
663.2973117414506
 20
341.4214921009186
 11
763.0973117414505
 21
341.4214921009187
  0
LINE
  5
1CD
100
AcDbEntity
  8
MODELSKETCH_VISIBLE
  6
ByLayer
 62
  256
370
   -1
100
AcDbLine
 10
686.7213117414508
 20
571.7029921009189
 11
683.6733117414504
 21
568.6549921009187
  0
CIRCLE
  5
1CE
100
AcDbEntity
  8
MODELSKETCH_VISIBLE
  6
ByLayer
 62
  256
370
   -1
100
AcDbCircle
 10
685.1973117414506
 20
620.1789921009188
 40
1
  0
CIRCLE
  5
1CF
100
AcDbEntity
  8
MODELSKETCH_VISIBLE
  6
ByLayer
 62
  256
370
   -1
100
AcDbCircle
 10
735.1973117414504
 20
444.8494921009187
 40
1
  0
LINE
  5
1D0
100
AcDbEntity
  8
MODELSKETCH_VISIBLE
  6
ByLayer
 62
  256
370
   -1
100
AcDbLine
 10
748.1947893184248
 20
606.5020145239444
 11
746.1998341644761
 21
608.496969677893
  0
LINE
  5
1D1
100
AcDbEntity
  8
MODELSKETCH_VISIBLE
  6
ByLayer
 62
  256
370
   -1
100
AcDbLine
 10
748.1947893184248
 20
588.496969677893
 11
746.1998341644761
 21
586.5020145239444
  0
LINE
  5
1D2
100
AcDbEntity
  8
MODELSKETCH_VISIBLE
  6
ByLayer
 62
  256
370
   -1
100
AcDbLine
 10
748.1582411093025
 20
362.3824214687708
 11
746.2363823735984
 21
360.4605627330666
  0
LINE
  5
1D3
100
AcDbEntity
  8
MODELSKETCH_VISIBLE
  6
ByLayer
 62
  256
370
   -1
100
AcDbLine
 10
742.1582411093025
 20
400.4605627330666
 11
740.2363823735984
 21
402.3824214687708
  0
CIRCLE
  5
1D4
100
AcDbEntity
  8
MODELSKETCH_VISIBLE
  6
ByLayer
 62
  256
370
   -1
100
AcDbCircle
 10
729.6973117414506
 20
350.3214921009187
 40
1.875
  0
LINE
  5
1D5
100
AcDbEntity
  8
MODELSKETCH_VISIBLE
  6
ByLayer
 62
  256
370
   -1
100
AcDbLine
 10
693.0713117414507
 20
641.8454921009188
 11
690.0233117414504
 21
638.7974921009186
  0
CIRCLE
  5
1D6
100
AcDbEntity
  8
MODELSKETCH_VISIBLE
  6
ByLayer
 62
  256
370
   -1
100
AcDbCircle
 10
685.1973117414504
 20
477.5289921009187
 40
1
  0
LINE
  5
1D7
100
AcDbEntity
  8
MODELSKETCH_VISIBLE
  6
ByLayer
 62
  256
370
   -1
100
AcDbLine
 10
663.2973117414505
 20
595.7214921009187
 11
763.0973117414504
 21
595.7214921009187
  0
LINE
  5
1D8
100
AcDbEntity
  8
MODELSKETCH_VISIBLE
  6
ByLayer
 62
  256
370
   -1
100
AcDbLine
 10
714.7213117414504
 20
508.453192100919
 11
711.6733117414504
 21
505.4051921009188
  0
LINE
  5
1D9
100
AcDbEntity
  8
MODELSKETCH_VISIBLE
  6
ByLayer
 62
  256
370
   -1
100
AcDbLine
 10
714.7213117414506
 20
591.7029921009187
 11
711.6733117414504
 21
588.6549921009185
  0
LINE
  5
1DA
100
AcDbEntity
  8
MODELSKETCH_VISIBLE
  6
ByLayer
 62
  256
370
   -1
100
AcDbLine
 10
683.6733117414506
 20
508.4531921009189
 11
686.7213117414504
 21
505.4051921009189
  0
CIRCLE
  5
1DB
100
AcDbEntity
  8
MODELSKETCH_VISIBLE
  6
ByLayer
 62
  256
370
   -1
100
AcDbCircle
 10
685.1973117414506
 20
580.1789921009188
 40
1
  0
LINE
  5
1DC
100
AcDbEntity
  8
MODELSKETCH_VISIBLE
  6
ByLayer
 62
  256
370
   -1
100
AcDbLine
 10
693.0713117414506
 20
449.0529921009187
 11
690.0233117414505
 21
446.0049921009186
  0
CIRCLE
  5
1DD
100
AcDbEntity
  8
MODELSKETCH_VISIBLE
  6
ByLayer
 62
  256
370
   -1
100
AcDbCircle
 10
741.1973117414504
 20
577.4994921009187
 40
1
  0
ARC
  5
1DE
100
AcDbEntity
  8
MODELSKETCH_VISIBLE
  6
ByLayer
 62
  256
370
   -1
100
AcDbCircle
 10
748.1973117414504
 20
640.8214921009187
 40
2.500000000000016
100
AcDbArc
 50
0
 51
90
  0
CIRCLE
  5
1DF
100
AcDbEntity
  8
MODELSKETCH_VISIBLE
  6
ByLayer
 62
  256
370
   -1
100
AcDbCircle
 10
741.1973117414504
 20
474.6714921009187
 40
1
  0
LINE
  5
1E0
100
AcDbEntity
  8
MODELSKETCH_VISIBLE
  6
ByLayer
 62
  256
370
   -1
100
AcDbLine
 10
736.1947893184248
 20
558.496969677893
 11
734.1998341644761
 21
556.5020145239444
  0
CIRCLE
  5
1E1
100
AcDbEntity
  8
MODELSKETCH_VISIBLE
  6
ByLayer
 62
  256
370
   -1
100
AcDbCircle
 10
735.1973117414504
 20
587.4994921009187
 40
1
  0
LINE
  5
1E2
100
AcDbEntity
  8
MODELSKETCH_VISIBLE
  6
ByLayer
 62
  256
370
   -1
100
AcDbLine
 10
683.6733117414504
 20
611.7029921009189
 11
686.7213117414507
 21
608.6549921009185
  0
CIRCLE
  5
1E3
100
AcDbEntity
  8
MODELSKETCH_VISIBLE
  6
ByLayer
 62
  256
370
   -1
100
AcDbCircle
 10
747.1973117414504
 20
587.4994921009187
 40
1
  0
LINE
  5
1E4
100
AcDbEntity
  8
MODELSKETCH_VISIBLE
  6
ByLayer
 62
  256
370
   -1
100
AcDbLine
 10
748.1582411093025
 20
382.3824214687708
 11
746.2363823735984
 21
380.4605627330666
  0
LINE
  5
1E5
100
AcDbEntity
  8
MODELSKETCH_VISIBLE
  6
ByLayer
 62
  256
370
   -1
100
AcDbLine
 10
736.1582411093025
 20
352.5604214687708
 11
734.2363823735984
 21
350.6385627330666
  0
LINE
  5
1E6
100
AcDbEntity
  8
MODELSKETCH_VISIBLE
  6
ByLayer
 62
  256
370
   -1
100
AcDbLine
 10
736.1947893184249
 20
628.496969677893
 11
734.1998341644761
 21
626.5020145239444
  0
CIRCLE
  5
1E7
100
AcDbEntity
  8
MODELSKETCH_VISIBLE
  6
ByLayer
 62
  256
370
   -1
100
AcDbCircle
 10
713.1973117414504
 20
414.2789921009186
 40
1
  0
LINE
  5
1E8
100
AcDbEntity
  8
MODELSKETCH_VISIBLE
  6
ByLayer
 62
  256
370
   -1
100
AcDbLine
 10
686.7213117414518
 20
365.8029921009216
 11
683.6733117414517
 21
362.7549921009215
  0
LINE
  5
1E9
100
AcDbEntity
  8
MODELSKETCH_VISIBLE
  6
ByLayer
 62
  256
370
   -1
100
AcDbLine
 10
663.2973117414505
 20
443.0714921009187
 11
763.0973117414505
 21
443.0714921009187
  0
LINE
  5
1EA
100
AcDbEntity
  8
MODELSKETCH_VISIBLE
  6
ByLayer
 62
  256
370
   -1
100
AcDbLine
 10
748.1582411093025
 20
332.3824214687708
 11
746.2363823735984
 21
330.4605627330666
  0
LINE
  5
1EB
100
AcDbEntity
  8
MODELSKETCH_VISIBLE
  6
ByLayer
 62
  256
370
   -1
100
AcDbLine
 10
763.0973117414505
 20
504.0714921009186
 11
763.0973117414505
 21
502.4714921009187
  0
LINE
  5
1EC
100
AcDbEntity
  8
MODELSKETCH_VISIBLE
  6
ByLayer
 62
  256
370
   -1
100
AcDbLine
 10
711.6733117414504
 20
518.453192100919
 11
714.7213117414504
 21
515.4051921009188
  0
CIRCLE
  5
1ED
100
AcDbEntity
  8
MODELSKETCH_VISIBLE
  6
ByLayer
 62
  256
370
   -1
100
AcDbCircle
 10
735.1973117414504
 20
361.5994921009187
 40
1
  0
LINE
  5
1EE
100
AcDbEntity
  8
MODELSKETCH_VISIBLE
  6
ByLayer
 62
  256
370
   -1
100
AcDbLine
 10
763.0973117414505
 20
341.4214921009187
 11
763.0973117414505
 21
339.8214921009187
  0
LINE
  5
1EF
100
AcDbEntity
  8
MODELSKETCH_VISIBLE
  6
ByLayer
 62
  256
370
   -1
100
AcDbLine
 10
742.1947893184248
 20
513.2520145239446
 11
740.1998341644761
 21
515.2469696778933
  0
CIRCLE
  5
1F0
100
AcDbEntity
  8
MODELSKETCH_VISIBLE
  6
ByLayer
 62
  256
370
   -1
100
AcDbCircle
 10
747.1973117414504
 20
381.4214921009187
 40
1
  0
LINE
  5
1F1
100
AcDbEntity
  8
MODELSKETCH_VISIBLE
  6
ByLayer
 62
  256
370
   -1
100
AcDbLine
 10
748.1947893184248
 20
638.496969677893
 11
746.1998341644761
 21
636.5020145239444
  0
LINE
  5
1F2
100
AcDbEntity
  8
MODELSKETCH_VISIBLE
  6
ByLayer
 62
  256
370
   -1
100
AcDbLine
 10
742.1582411093025
 20
402.3824214687708
 11
740.2363823735984
 21
400.4605627330666
  0
LINE
  5
1F3
100
AcDbEntity
  8
MODELSKETCH_VISIBLE
  6
ByLayer
 62
  256
370
   -1
100
AcDbLine
 10
736.1582411093025
 20
422.5604214687707
 11
734.2363823735984
 21
420.6385627330666
  0
LINE
  5
1F4
100
AcDbEntity
  8
MODELSKETCH_VISIBLE
  6
ByLayer
 62
  256
370
   -1
100
AcDbLine
 10
663.2973117414505
 20
504.0714921009186
 11
663.2973117414505
 21
502.4714921009187
  0
LINE
  5
1F5
100
AcDbEntity
  8
MODELSKETCH_VISIBLE
  6
ByLayer
 62
  256
370
   -1
100
AcDbLine
 10
714.7213117414504
 20
518.453192100919
 11
711.6733117414504
 21
515.4051921009188
  0
CIRCLE
  5
1F6
100
AcDbEntity
  8
MODELSKETCH_VISIBLE
  6
ByLayer
 62
  256
370
   -1
100
AcDbCircle
 10
747.1973117414504
 20
474.6714921009187
 40
1
  0
LINE
  5
1F7
100
AcDbEntity
  8
MODELSKETCH_VISIBLE
  6
ByLayer
 62
  256
370
   -1
100
AcDbLine
 10
663.2973117414505
 20
379.8214921009187
 11
763.0973117414505
 21
379.8214921009187
  0
CIRCLE
  5
1F8
100
AcDbEntity
  8
MODELSKETCH_VISIBLE
  6
ByLayer
 62
  256
370
   -1
100
AcDbCircle
 10
713.1973117414504
 20
550.1789921009185
 40
1
  0
LINE
  5
1F9
100
AcDbEntity
  8
MODELSKETCH_VISIBLE
  6
ByLayer
 62
  256
370
   -1
100
AcDbLine
 10
663.2973117414505
 20
339.8214921009187
 11
763.0973117414505
 21
339.8214921009187
  0
CIRCLE
  5
1FA
100
AcDbEntity
  8
MODELSKETCH_VISIBLE
  6
ByLayer
 62
  256
370
   -1
100
AcDbCircle
 10
741.1973117414504
 20
401.4214921009187
 40
1
  0
LINE
  5
1FB
100
AcDbEntity
  8
MODELSKETCH_VISIBLE
  6
ByLayer
 62
  256
370
   -1
100
AcDbLine
 10
711.6733117414504
 20
405.8029921009187
 11
714.7213117414506
 21
402.7549921009186
  0
LINE
  5
1FC
100
AcDbEntity
  8
MODELSKETCH_VISIBLE
  6
ByLayer
 62
  256
370
   -1
100
AcDbLine
 10
683.6733117414525
 20
365.8029921009208
 11
686.7213117414526
 21
362.7549921009207
  0
LINE
  5
1FD
100
AcDbEntity
  8
MODELSKETCH_VISIBLE
  6
ByLayer
 62
  256
370
   -1
100
AcDbLine
 10
663.2973117414506
 20
454.6714921009187
 11
663.2973117414506
 21
453.0714921009187
  0
LINE
  5
1FE
100
AcDbEntity
  8
MODELSKETCH_VISIBLE
  6
ByLayer
 62
  256
370
   -1
100
AcDbLine
 10
748.1582411093025
 20
330.4605627330666
 11
746.2363823735984
 21
332.3824214687708
  0
LINE
  5
1FF
100
AcDbEntity
  8
MODELSKETCH_VISIBLE
  6
ByLayer
 62
  256
370
   -1
100
AcDbLine
 10
663.2973117414505
 20
524.0714921009186
 11
663.2973117414505
 21
522.4714921009187
  0
LINE
  5
200
100
AcDbEntity
  8
MODELSKETCH_VISIBLE
  6
ByLayer
 62
  256
370
   -1
100
AcDbLine
 10
763.0973117414505
 20
464.6714921009187
 11
763.0973117414505
 21
463.0714921009187
  0
CIRCLE
  5
201
100
AcDbEntity
  8
MODELSKETCH_VISIBLE
  6
ByLayer
 62
  256
370
   -1
100
AcDbCircle
 10
735.1973117414504
 20
617.4994921009187
 40
1
  0
LINE
  5
202
100
AcDbEntity
  8
MODELSKETCH_VISIBLE
  6
ByLayer
 62
  256
370
   -1
100
AcDbLine
 10
736.1947893184248
 20
638.496969677893
 11
734.1998341644761
 21
636.5020145239444
  0
LINE
  5
203
100
AcDbEntity
  8
MODELSKETCH_VISIBLE
  6
ByLayer
 62
  256
370
   -1
100
AcDbLine
 10
663.2973117414505
 20
329.8214921009187
 11
763.0973117414505
 21
329.8214921009187
  0
CIRCLE
  5
204
100
AcDbEntity
  8
MODELSKETCH_VISIBLE
  6
ByLayer
 62
  256
370
   -1
100
AcDbCircle
 10
713.1973117414504
 20
424.2789921009186
 40
1
  0
LINE
  5
205
100
AcDbEntity
  8
MODELSKETCH_VISIBLE
  6
ByLayer
 62
  256
370
   -1
100
AcDbLine
 10
686.7213117414518
 20
415.8029921009216
 11
683.6733117414517
 21
412.7549921009215
  0
LINE
  5
206
100
AcDbEntity
  8
MODELSKETCH_VISIBLE
  6
ByLayer
 62
  256
370
   -1
100
AcDbLine
 10
663.2973117414504
 20
419.8214921009187
 11
763.0973117414505
 21
419.8214921009187
  0
CIRCLE
  5
207
100
AcDbEntity
  8
MODELSKETCH_VISIBLE
  6
ByLayer
 62
  256
370
   -1
100
AcDbCircle
 10
696.6973117414504
 20
463.5714921009187
 40
1.875
  0
LINE
  5
208
100
AcDbEntity
  8
MODELSKETCH_VISIBLE
  6
ByLayer
 62
  256
370
   -1
100
AcDbLine
 10
663.2973117414505
 20
607.3214921009187
 11
663.2973117414505
 21
605.7214921009187
  0
LINE
  5
209
100
AcDbEntity
  8
MODELSKETCH_VISIBLE
  6
ByLayer
 62
  256
370
   -1
100
AcDbLine
 10
748.1947893184248
 20
455.6689696778931
 11
746.1998341644761
 21
453.6740145239443
  0
LINE
  5
20A
100
AcDbEntity
  8
MODELSKETCH_VISIBLE
  6
ByLayer
 62
  256
370
   -1
100
AcDbLine
 10
748.1582411093025
 20
390.4605627330666
 11
746.2363823735984
 21
392.3824214687708
  0
LINE
  5
20B
100
AcDbEntity
  8
MODELSKETCH_VISIBLE
  6
ByLayer
 62
  256
370
   -1
100
AcDbLine
 10
714.7213117414504
 20
498.453192100919
 11
711.6733117414504
 21
495.4051921009188
  0
LINE
  5
20C
100
AcDbEntity
  8
MODELSKETCH_VISIBLE
  6
ByLayer
 62
  256
370
   -1
100
AcDbLine
 10
763.0973117414505
 20
597.3214921009187
 11
763.0973117414505
 21
595.7214921009187
  0
LINE
  5
20D
100
AcDbEntity
  8
MODELSKETCH_VISIBLE
  6
ByLayer
 62
  256
370
   -1
100
AcDbLine
 10
742.1582411093025
 20
420.4605627330666
 11
740.2363823735984
 21
422.3824214687708
  0
CIRCLE
  5
20E
100
AcDbEntity
  8
MODELSKETCH_VISIBLE
  6
ByLayer
 62
  256
370
   -1
100
AcDbCircle
 10
691.5473117414505
 20
640.3214921009187
 40
1
  0
LINE
  5
20F
100
AcDbEntity
  8
MODELSKETCH_VISIBLE
  6
ByLayer
 62
  256
370
   -1
100
AcDbLine
 10
748.1947893184248
 20
576.5020145239444
 11
746.1998341644761
 21
578.496969677893
  0
LINE
  5
210
100
AcDbEntity
  8
MODELSKETCH_VISIBLE
  6
ByLayer
 62
  256
370
   -1
100
AcDbLine
 10
663.2973117414505
 20
567.3214921009186
 11
663.2973117414505
 21
565.7214921009187
  0
CIRCLE
  5
211
100
AcDbEntity
  8
MODELSKETCH_VISIBLE
  6
ByLayer
 62
  256
370
   -1
100
AcDbCircle
 10
747.1973117414504
 20
444.6714921009187
 40
1
  0
LINE
  5
212
100
AcDbEntity
  8
MODELSKETCH_VISIBLE
  6
ByLayer
 62
  256
370
   -1
100
AcDbLine
 10
742.1947893184248
 20
536.5020145239444
 11
740.1998341644761
 21
538.496969677893
  0
LINE
  5
213
100
AcDbEntity
  8
MODELSKETCH_VISIBLE
  6
ByLayer
 62
  256
370
   -1
100
AcDbLine
 10
742.1582411093025
 20
340.4605627330666
 11
740.2363823735984
 21
342.3824214687708
  0
CIRCLE
  5
214
100
AcDbEntity
  8
MODELSKETCH_VISIBLE
  6
ByLayer
 62
  256
370
   -1
100
AcDbCircle
 10
713.1973117414504
 20
364.2789921009186
 40
1
  0
LINE
  5
215
100
AcDbEntity
  8
MODELSKETCH_VISIBLE
  6
ByLayer
 62
  256
370
   -1
100
AcDbLine
 10
748.1947893184248
 20
475.6689696778931
 11
746.1998341644761
 21
473.6740145239443
  0
LINE
  5
216
100
AcDbEntity
  8
MODELSKETCH_VISIBLE
  6
ByLayer
 62
  256
370
   -1
100
AcDbLine
 10
736.1947893184248
 20
626.5020145239444
 11
734.1998341644761
 21
628.496969677893
  0
CIRCLE
  5
217
100
AcDbEntity
  8
MODELSKETCH_VISIBLE
  6
ByLayer
 62
  256
370
   -1
100
AcDbCircle
 10
735.1973117414504
 20
474.8494921009187
 40
1
  0
LINE
  5
218
100
AcDbEntity
  8
MODELSKETCH_VISIBLE
  6
ByLayer
 62
  256
370
   -1
100
AcDbLine
 10
742.1947893184248
 20
606.5020145239444
 11
740.1998341644761
 21
608.496969677893
  0
CIRCLE
  5
219
100
AcDbEntity
  8
MODELSKETCH_VISIBLE
  6
ByLayer
 62
  256
370
   -1
100
AcDbCircle
 10
741.1973117414504
 20
504.2494921009189
 40
1
  0
LINE
  5
21A
100
AcDbEntity
  8
MODELSKETCH_VISIBLE
  6
ByLayer
 62
  256
370
   -1
100
AcDbLine
 10
663.2973117414506
 20
381.4214921009187
 11
763.0973117414505
 21
381.4214921009187
  0
CIRCLE
  5
21B
100
AcDbEntity
  8
MODELSKETCH_VISIBLE
  6
ByLayer
 62
  256
370
   -1
100
AcDbCircle
 10
741.1973117414504
 20
597.4994921009187
 40
1
  0
CIRCLE
  5
21C
100
AcDbEntity
  8
MODELSKETCH_VISIBLE
  6
ByLayer
 62
  256
370
   -1
100
AcDbCircle
 10
741.1973117414504
 20
454.6714921009187
 40
1
  0
LINE
  5
21D
100
AcDbEntity
  8
MODELSKETCH_VISIBLE
  6
ByLayer
 62
  256
370
   -1
100
AcDbLine
 10
663.2973117414505
 20
369.8214921009187
 11
763.0973117414505
 21
369.8214921009187
  0
LINE
  5
21E
100
AcDbEntity
  8
MODELSKETCH_VISIBLE
  6
ByLayer
 62
  256
370
   -1
100
AcDbLine
 10
711.6733117414504
 20
498.453192100919
 11
714.7213117414504
 21
495.4051921009188
  0
LINE
  5
21F
100
AcDbEntity
  8
MODELSKETCH_VISIBLE
  6
ByLayer
 62
  256
370
   -1
100
AcDbLine
 10
663.2973117414505
 20
597.3214921009186
 11
663.2973117414505
 21
595.7214921009187
  0
CIRCLE
  5
220
100
AcDbEntity
  8
MODELSKETCH_VISIBLE
  6
ByLayer
 62
  256
370
   -1
100
AcDbCircle
 10
747.1973117414504
 20
627.4994921009187
 40
1
  0
LINE
  5
221
100
AcDbEntity
  8
MODELSKETCH_VISIBLE
  6
ByLayer
 62
  256
370
   -1
100
AcDbLine
 10
742.1947893184248
 20
455.6689696778931
 11
740.1998341644761
 21
453.6740145239443
  0
LINE
  5
222
100
AcDbEntity
  8
MODELSKETCH_VISIBLE
  6
ByLayer
 62
  256
370
   -1
100
AcDbLine
 10
663.2973117414506
 20
391.4214921009187
 11
663.2973117414506
 21
389.8214921009187
  0
LINE
  5
223
100
AcDbEntity
  8
MODELSKETCH_VISIBLE
  6
ByLayer
 62
  256
370
   -1
100
AcDbLine
 10
663.2973117414506
 20
464.6714921009187
 11
663.2973117414506
 21
463.0714921009187
  0
LINE
  5
224
100
AcDbEntity
  8
MODELSKETCH_VISIBLE
  6
ByLayer
 62
  256
370
   -1
100
AcDbLine
 10
748.1947893184248
 20
596.5020145239444
 11
746.1998341644761
 21
598.496969677893
  0
CIRCLE
  5
225
100
AcDbEntity
  8
MODELSKETCH_VISIBLE
  6
ByLayer
 62
  256
370
   -1
100
AcDbCircle
 10
747.1973117414504
 20
537.4994921009186
 40
1
  0
LINE
  5
226
100
AcDbEntity
  8
MODELSKETCH_VISIBLE
  6
ByLayer
 62
  256
370
   -1
100
AcDbLine
 10
663.2973117414505
 20
557.3214921009187
 11
763.0973117414504
 21
557.3214921009187
  0
CIRCLE
  5
227
100
AcDbEntity
  8
MODELSKETCH_VISIBLE
  6
ByLayer
 62
  256
370
   -1
100
AcDbCircle
 10
741.1973117414504
 20
627.4994921009187
 40
1
  0
LINE
  5
228
100
AcDbEntity
  8
MODELSKETCH_VISIBLE
  6
ByLayer
 62
  256
370
   -1
100
AcDbLine
 10
748.1582411093025
 20
420.4605627330666
 11
746.2363823735984
 21
422.3824214687708
  0
LINE
  5
229
100
AcDbEntity
  8
MODELSKETCH_VISIBLE
  6
ByLayer
 62
  256
370
   -1
100
AcDbLine
 10
736.1947893184248
 20
523.2520145239444
 11
734.1998341644761
 21
525.246969677893
  0
LINE
  5
22A
100
AcDbEntity
  8
MODELSKETCH_VISIBLE
  6
ByLayer
 62
  256
370
   -1
100
AcDbLine
 10
736.1947893184248
 20
578.496969677893
 11
734.1998341644761
 21
576.5020145239444
  0
ARC
  5
22B
100
AcDbEntity
  8
MODELSKETCH_VISIBLE
  6
ByLayer
 62
  256
370
   -1
100
AcDbCircle
 10
718.0303420195094
 20
640.8214921007426
 40
2.500000000176076
100
AcDbArc
 50
90
 51
137.1563569546352
  0
CIRCLE
  5
22C
100
AcDbEntity
  8
MODELSKETCH_VISIBLE
  6
ByLayer
 62
  256
370
   -1
100
AcDbCircle
 10
685.1973117414506
 20
590.1789921009188
 40
1
  0
LINE
  5
22D
100
AcDbEntity
  8
MODELSKETCH_VISIBLE
  6
ByLayer
 62
  256
370
   -1
100
AcDbLine
 10
763.0973117414505
 20
421.4214921009187
 11
763.0973117414505
 21
419.8214921009187
  0
LINE
  5
22E
100
AcDbEntity
  8
MODELSKETCH_VISIBLE
  6
ByLayer
 62
  256
370
   -1
100
AcDbLine
 10
683.6733117414525
 20
425.8029921009208
 11
686.7213117414526
 21
422.7549921009207
  0
LINE
  5
22F
100
AcDbEntity
  8
MODELSKETCH_VISIBLE
  6
ByLayer
 62
  256
370
   -1
100
AcDbLine
 10
686.7213117414508
 20
601.7029921009189
 11
683.6733117414504
 21
598.6549921009187
  0
LINE
  5
230
100
AcDbEntity
  8
MODELSKETCH_VISIBLE
  6
ByLayer
 62
  256
370
   -1
100
AcDbLine
 10
711.6733117414504
 20
395.8029921009187
 11
714.7213117414506
 21
392.7549921009186
  0
LINE
  5
231
100
AcDbEntity
  8
MODELSKETCH_VISIBLE
  6
ByLayer
 62
  256
370
   -1
100
AcDbLine
 10
736.1947893184248
 20
608.496969677893
 11
734.1998341644761
 21
606.5020145239444
  0
LINE
  5
232
100
AcDbEntity
  8
MODELSKETCH_VISIBLE
  6
ByLayer
 62
  256
370
   -1
100
AcDbLine
 10
690.0233117414504
 20
641.8454921009188
 11
693.0713117414506
 21
638.7974921009185
  0
LINE
  5
233
100
AcDbEntity
  8
MODELSKETCH_VISIBLE
  6
ByLayer
 62
  256
370
   -1
100
AcDbLine
 10
748.1947893184248
 20
495.2469696778937
 11
746.199834164476
 21
493.2520145239449
  0
LINE
  5
234
100
AcDbEntity
  8
MODELSKETCH_VISIBLE
  6
ByLayer
 62
  256
370
   -1
100
AcDbLine
 10
736.1582411093025
 20
410.6385627330666
 11
734.2363823735984
 21
412.5604214687708
  0
LINE
  5
235
100
AcDbEntity
  8
MODELSKETCH_VISIBLE
  6
ByLayer
 62
  256
370
   -1
100
AcDbLine
 10
714.7213117414506
 20
611.7029921009187
 11
711.6733117414504
 21
608.6549921009187
  0
CIRCLE
  5
236
100
AcDbEntity
  8
MODELSKETCH_VISIBLE
  6
ByLayer
 62
  256
370
   -1
100
AcDbCircle
 10
713.1973117414504
 20
516.929192100919
 40
1
  0
LINE
  5
237
100
AcDbEntity
  8
MODELSKETCH_VISIBLE
  6
ByLayer
 62
  256
370
   -1
100
AcDbLine
 10
736.1582411093025
 20
350.6385627330666
 11
734.2363823735984
 21
352.5604214687708
  0
LINE
  5
238
100
AcDbEntity
  8
MODELSKETCH_VISIBLE
  6
ByLayer
 62
  256
370
   -1
100
AcDbLine
 10
714.7213117414506
 20
365.8029921009187
 11
711.6733117414504
 21
362.7549921009186
  0
LINE
  5
239
100
AcDbEntity
  8
MODELSKETCH_VISIBLE
  6
ByLayer
 62
  256
370
   -1
100
AcDbLine
 10
736.1947893184248
 20
576.5020145239444
 11
734.1998341644761
 21
578.496969677893
  0
LINE
  5
23A
100
AcDbEntity
  8
MODELSKETCH_VISIBLE
  6
ByLayer
 62
  256
370
   -1
100
AcDbLine
 10
742.1582411093025
 20
332.3824214687708
 11
740.2363823735984
 21
330.4605627330666
  0
LINE
  5
23B
100
AcDbEntity
  8
MODELSKETCH_VISIBLE
  6
ByLayer
 62
  256
370
   -1
100
AcDbLine
 10
763.0973117414505
 20
524.0714921009187
 11
763.0973117414505
 21
522.4714921009187
  0
LINE
  5
23C
100
AcDbEntity
  8
MODELSKETCH_VISIBLE
  6
ByLayer
 62
  256
370
   -1
100
AcDbLine
 10
748.1947893184248
 20
536.5020145239444
 11
746.1998341644761
 21
538.496969677893
  0
CIRCLE
  5
23D
100
AcDbEntity
  8
MODELSKETCH_VISIBLE
  6
ByLayer
 62
  256
370
   -1
100
AcDbCircle
 10
747.1973117414504
 20
557.4994921009187
 40
1
  0
LINE
  5
23E
100
AcDbEntity
  8
MODELSKETCH_VISIBLE
  6
ByLayer
 62
  256
370
   -1
100
AcDbLine
 10
736.1947893184248
 20
495.2469696778937
 11
734.1998341644761
 21
493.2520145239449
  0
LINE
  5
23F
100
AcDbEntity
  8
MODELSKETCH_VISIBLE
  6
ByLayer
 62
  256
370
   -1
100
AcDbLine
 10
679.2865930746029
 20
598.3456607677663
 11
682.3349304082981
 21
595.2973234340711
  0
LINE
  5
240
100
AcDbEntity
  8
MODELSKETCH_VISIBLE
  6
ByLayer
 62
  256
370
   -1
100
AcDbLine
 10
663.2973117414505
 20
637.3214921009187
 11
663.2973117414505
 21
635.7214921009187
  0
CIRCLE
  5
241
100
AcDbEntity
  8
MODELSKETCH_VISIBLE
  6
ByLayer
 62
  256
370
   -1
100
AcDbCircle
 10
735.1973117414504
 20
341.5994921009187
 40
1
  0
LINE
  5
242
100
AcDbEntity
  8
MODELSKETCH_VISIBLE
  6
ByLayer
 62
  256
370
   -1
100
AcDbLine
 10
711.6733117414504
 20
355.8029921009187
 11
714.7213117414506
 21
352.7549921009186
  0
LINE
  5
243
100
AcDbEntity
  8
MODELSKETCH_VISIBLE
  6
ByLayer
 62
  256
370
   -1
100
AcDbLine
 10
686.7213117414518
 20
405.8029921009216
 11
683.6733117414517
 21
402.7549921009215
  0
LINE
  5
244
100
AcDbEntity
  8
MODELSKETCH_VISIBLE
  6
ByLayer
 62
  256
370
   -1
100
AcDbLine
 10
711.6733117414504
 20
591.7029921009187
 11
714.7213117414506
 21
588.6549921009185
  0
CIRCLE
  5
245
100
AcDbEntity
  8
MODELSKETCH_VISIBLE
  6
ByLayer
 62
  256
370
   -1
100
AcDbCircle
 10
747.1973117414504
 20
351.4214921009187
 40
1
  0
LINE
  5
246
100
AcDbEntity
  8
MODELSKETCH_VISIBLE
  6
ByLayer
 62
  256
370
   -1
100
AcDbLine
 10
686.7213117414504
 20
508.4531921009189
 11
683.6733117414506
 21
505.4051921009189
  0
LINE
  5
247
100
AcDbEntity
  8
MODELSKETCH_VISIBLE
  6
ByLayer
 62
  256
370
   -1
100
AcDbLine
 10
748.1947893184248
 20
505.2469696778933
 11
746.1998341644761
 21
503.2520145239445
  0
LINE
  5
248
100
AcDbEntity
  8
MODELSKETCH_VISIBLE
  6
ByLayer
 62
  256
370
   -1
100
AcDbLine
 10
663.2973117414505
 20
555.7214921009187
 11
763.0973117414504
 21
555.7214921009187
  0
CIRCLE
  5
249
100
AcDbEntity
  8
MODELSKETCH_VISIBLE
  6
ByLayer
 62
  256
370
   -1
100
AcDbCircle
 10
685.1973117414504
 20
516.929192100919
 40
1
  0
LINE
  5
24A
100
AcDbEntity
  8
MODELSKETCH_VISIBLE
  6
ByLayer
 62
  256
370
   -1
100
AcDbLine
 10
683.6733117414504
 20
571.7029921009189
 11
686.7213117414507
 21
568.6549921009185
  0
LINE
  5
24B
100
AcDbEntity
  8
MODELSKETCH_VISIBLE
  6
ByLayer
 62
  256
370
   -1
100
AcDbLine
 10
742.1947893184248
 20
538.496969677893
 11
740.199834164476
 21
536.5020145239444
  0
LINE
  5
24C
100
AcDbEntity
  8
MODELSKETCH_VISIBLE
  6
ByLayer
 62
  256
370
   -1
100
AcDbLine
 10
742.1582411093025
 20
362.3824214687708
 11
740.2363823735984
 21
360.4605627330666
  0
ARC
  5
24D
100
AcDbEntity
  8
MODELSKETCH_VISIBLE
  6
ByLayer
 62
  256
370
   -1
100
AcDbCircle
 10
748.1973117414504
 20
326.3214921009185
 40
2.500000000000016
100
AcDbArc
 50
270
 51
0
  0
LINE
  5
24E
100
AcDbEntity
  8
MODELSKETCH_VISIBLE
  6
ByLayer
 62
  256
370
   -1
100
AcDbLine
 10
742.1947893184248
 20
556.5020145239444
 11
740.1998341644761
 21
558.496969677893
  0
LINE
  5
24F
100
AcDbEntity
  8
MODELSKETCH_VISIBLE
  6
ByLayer
 62
  256
370
   -1
100
AcDbLine
 10
686.7213117414518
 20
345.8029921009216
 11
683.6733117414517
 21
342.7549921009215
  0
CIRCLE
  5
250
100
AcDbEntity
  8
MODELSKETCH_VISIBLE
  6
ByLayer
 62
  256
370
   -1
100
AcDbCircle
 10
685.1973117414504
 20
506.9291921009189
 40
1
  0
LINE
  5
251
100
AcDbEntity
  8
MODELSKETCH_VISIBLE
  6
ByLayer
 62
  256
370
   -1
100
AcDbLine
 10
736.1947893184248
 20
503.2520145239445
 11
734.1998341644761
 21
505.2469696778933
  0
CIRCLE
  5
252
100
AcDbEntity
  8
MODELSKETCH_VISIBLE
  6
ByLayer
 62
  256
370
   -1
100
AcDbCircle
 10
713.1973117414504
 20
506.9291921009189
 40
1
  0
LINE
  5
253
100
AcDbEntity
  8
MODELSKETCH_VISIBLE
  6
ByLayer
 62
  256
370
   -1
100
AcDbLine
 10
748.1582411093025
 20
392.3824214687708
 11
746.2363823735984
 21
390.4605627330666
  0
LINE
  5
254
100
AcDbEntity
  8
MODELSKETCH_VISIBLE
  6
ByLayer
 62
  256
370
   -1
100
AcDbLine
 10
742.1947893184248
 20
578.496969677893
 11
740.1998341644761
 21
576.5020145239444
  0
LINE
  5
255
100
AcDbEntity
  8
MODELSKETCH_VISIBLE
  6
ByLayer
 62
  256
370
   -1
100
AcDbLine
 10
742.1947893184248
 20
628.496969677893
 11
740.1998341644761
 21
626.5020145239444
  0
CIRCLE
  5
256
100
AcDbEntity
  8
MODELSKETCH_VISIBLE
  6
ByLayer
 62
  256
370
   -1
100
AcDbCircle
 10
685.1973117414506
 20
540.1789921009188
 40
1
  0
LINE
  5
257
100
AcDbEntity
  8
MODELSKETCH_VISIBLE
  6
ByLayer
 62
  256
370
   -1
100
AcDbLine
 10
718.0303420195096
 20
323.8214921009186
 11
748.1973117414504
 21
323.8214921009186
  0
LINE
  5
258
100
AcDbEntity
  8
MODELSKETCH_VISIBLE
  6
ByLayer
 62
  256
370
   -1
100
AcDbLine
 10
748.1947893184248
 20
556.5020145239444
 11
746.1998341644761
 21
558.496969677893
  0
CIRCLE
  5
259
100
AcDbEntity
  8
MODELSKETCH_VISIBLE
  6
ByLayer
 62
  256
370
   -1
100
AcDbCircle
 10
747.1973117414504
 20
607.4994921009187
 40
1
  0
LINE
  5
25A
100
AcDbEntity
  8
MODELSKETCH_VISIBLE
  6
ByLayer
 62
  256
370
   -1
100
AcDbLine
 10
748.1947893184248
 20
445.6689696778931
 11
746.1998341644761
 21
443.6740145239443
  0
LINE
  5
25B
100
AcDbEntity
  8
MODELSKETCH_VISIBLE
  6
ByLayer
 62
  256
370
   -1
100
AcDbLine
 10
763.0973117414505
 20
537.3214921009186
 11
763.0973117414505
 21
535.7214921009186
  0
CIRCLE
  5
25C
100
AcDbEntity
  8
MODELSKETCH_VISIBLE
  6
ByLayer
 62
  256
370
   -1
100
AcDbCircle
 10
741.1973117414504
 20
537.4994921009186
 40
1
  0
LINE
  5
25D
100
AcDbEntity
  8
MODELSKETCH_VISIBLE
  6
ByLayer
 62
  256
370
   -1
100
AcDbLine
 10
686.7213117414518
 20
425.8029921009216
 11
683.6733117414517
 21
422.7549921009215
  0
LINE
  5
25E
100
AcDbEntity
  8
MODELSKETCH_VISIBLE
  6
ByLayer
 62
  256
370
   -1
100
AcDbLine
 10
683.6733117414504
 20
591.7029921009189
 11
686.7213117414507
 21
588.6549921009185
  0
LINE
  5
25F
100
AcDbEntity
  8
MODELSKETCH_VISIBLE
  6
ByLayer
 62
  256
370
   -1
100
AcDbLine
 10
748.1947893184248
 20
473.6740145239443
 11
746.1998341644761
 21
475.6689696778931
  0
CIRCLE
  5
260
100
AcDbEntity
  8
MODELSKETCH_VISIBLE
  6
ByLayer
 62
  256
370
   -1
100
AcDbCircle
 10
741.1973117414504
 20
351.4214921009187
 40
1
  0
LINE
  5
261
100
AcDbEntity
  8
MODELSKETCH_VISIBLE
  6
ByLayer
 62
  256
370
   -1
100
AcDbLine
 10
748.1947893184248
 20
548.496969677893
 11
746.1998341644761
 21
546.5020145239444
  0
ARC
  5
262
100
AcDbEntity
  8
MODELSKETCH_VISIBLE
  6
ByLayer
 62
  256
370
   -1
100
AcDbCircle
 10
708.3642814634682
 20
326.3214921009186
 40
2.5
100
AcDbArc
 50
269.9999999999375
 51
317.1563569564049
  0
LINE
  5
263
100
AcDbEntity
  8
MODELSKETCH_VISIBLE
  6
ByLayer
 62
  256
370
   -1
100
AcDbLine
 10
663.2973117414505
 20
409.8214921009187
 11
763.0973117414505
 21
409.8214921009187
  0
LINE
  5
264
100
AcDbEntity
  8
MODELSKETCH_VISIBLE
  6
ByLayer
 62
  256
370
   -1
100
AcDbLine
 10
663.2973117414506
 20
421.4214921009187
 11
763.0973117414505
 21
421.4214921009187
  0
CIRCLE
  5
265
100
AcDbEntity
  8
MODELSKETCH_VISIBLE
  6
ByLayer
 62
  256
370
   -1
100
AcDbCircle
 10
691.5473117414505
 20
447.5289921009187
 40
1
  0
LINE
  5
266
100
AcDbEntity
  8
MODELSKETCH_VISIBLE
  6
ByLayer
 62
  256
370
   -1
100
AcDbLine
 10
683.6733117414525
 20
415.8029921009208
 11
686.7213117414526
 21
412.7549921009207
  0
LINE
  5
267
100
AcDbEntity
  8
MODELSKETCH_VISIBLE
  6
ByLayer
 62
  256
370
   -1
100
AcDbLine
 10
742.1947893184248
 20
548.496969677893
 11
740.1998341644761
 21
546.5020145239444
  0
CIRCLE
  5
268
100
AcDbEntity
  8
MODELSKETCH_VISIBLE
  6
ByLayer
 62
  256
370
   -1
100
AcDbCircle
 10
741.1973117414504
 20
341.4214921009187
 40
1
  0
LINE
  5
269
100
AcDbEntity
  8
MODELSKETCH_VISIBLE
  6
ByLayer
 62
  256
370
   -1
100
AcDbLine
 10
742.1947893184248
 20
525.246969677893
 11
740.1998341644761
 21
523.2520145239444
  0
LINE
  5
26A
100
AcDbEntity
  8
MODELSKETCH_VISIBLE
  6
ByLayer
 62
  256
370
   -1
100
AcDbLine
 10
736.1582411093025
 20
382.5604214687708
 11
734.2363823735984
 21
380.6385627330666
  0
LINE
  5
26B
100
AcDbEntity
  8
MODELSKETCH_VISIBLE
  6
ByLayer
 62
  256
370
   -1
100
AcDbLine
 10
686.7213117414518
 20
355.8029921009216
 11
683.6733117414517
 21
352.7549921009215
  0
LINE
  5
26C
100
AcDbEntity
  8
MODELSKETCH_VISIBLE
  6
ByLayer
 62
  256
370
   -1
100
AcDbLine
 10
763.0973117414505
 20
454.6714921009187
 11
763.0973117414505
 21
453.0714921009187
  0
CIRCLE
  5
26D
100
AcDbEntity
  8
MODELSKETCH_VISIBLE
  6
ByLayer
 62
  256
370
   -1
100
AcDbCircle
 10
685.1973117414506
 20
600.1789921009188
 40
1
  0
LINE
  5
26E
100
AcDbEntity
  8
MODELSKETCH_VISIBLE
  6
ByLayer
 62
  256
370
   -1
100
AcDbLine
 10
714.7213117414506
 20
415.8029921009187
 11
711.6733117414504
 21
412.7549921009186
  0
LINE
  5
26F
100
AcDbEntity
  8
MODELSKETCH_VISIBLE
  6
ByLayer
 62
  256
370
   -1
100
AcDbLine
 10
663.2973117414505
 20
577.3214921009187
 11
763.0973117414504
 21
577.3214921009187
  0
CIRCLE
  5
270
100
AcDbEntity
  8
MODELSKETCH_VISIBLE
  6
ByLayer
 62
  256
370
   -1
100
AcDbCircle
 10
713.1973117414504
 20
570.1789921009185
 40
1
  0
CIRCLE
  5
271
100
AcDbEntity
  8
MODELSKETCH_VISIBLE
  6
ByLayer
 62
  256
370
   -1
100
AcDbCircle
 10
747.1973117414504
 20
341.4214921009187
 40
1
  0
LINE
  5
272
100
AcDbEntity
  8
MODELSKETCH_VISIBLE
  6
ByLayer
 62
  256
370
   -1
100
AcDbLine
 10
736.1582411093025
 20
380.6385627330666
 11
734.2363823735984
 21
382.5604214687708
  0
CIRCLE
  5
273
100
AcDbEntity
  8
MODELSKETCH_VISIBLE
  6
ByLayer
 62
  256
370
   -1
100
AcDbCircle
 10
713.1973117414504
 20
600.1789921009187
 40
1
  0
LINE
  5
274
100
AcDbEntity
  8
MODELSKETCH_VISIBLE
  6
ByLayer
 62
  256
370
   -1
100
AcDbLine
 10
663.2973117414505
 20
464.6714921009187
 11
763.0973117414505
 21
464.6714921009187
  0
CIRCLE
  5
275
100
AcDbEntity
  8
MODELSKETCH_VISIBLE
  6
ByLayer
 62
  256
370
   -1
100
AcDbCircle
 10
713.1973117414506
 20
334.2789921009191
 40
1
  0
LINE
  5
276
100
AcDbEntity
  8
MODELSKETCH_VISIBLE
  6
ByLayer
 62
  256
370
   -1
100
AcDbLine
 10
736.1947893184248
 20
493.2520145239449
 11
734.1998341644761
 21
495.2469696778937
  0
LINE
  5
277
100
AcDbEntity
  8
MODELSKETCH_VISIBLE
  6
ByLayer
 62
  256
370
   -1
100
AcDbLine
 10
742.1947893184248
 20
546.5020145239444
 11
740.1998341644761
 21
548.496969677893
  0
ARC
  5
278
100
AcDbEntity
  8
MODELSKETCH_VISIBLE
  6
ByLayer
 62
  256
370
   -1
100
AcDbCircle
 10
718.0303420195096
 20
326.3214921010947
 40
2.500000000176076
100
AcDbArc
 50
222.8436430453584
 51
270
  0
CIRCLE
  5
279
100
AcDbEntity
  8
MODELSKETCH_VISIBLE
  6
ByLayer
 62
  256
370
   -1
100
AcDbCircle
 10
713.1973117414504
 20
374.2789921009186
 40
1
  0
LINE
  5
27A
100
AcDbEntity
  8
MODELSKETCH_VISIBLE
  6
ByLayer
 62
  256
370
   -1
100
AcDbLine
 10
748.1582411093025
 20
412.3824214687708
 11
746.2363823735984
 21
410.4605627330666
  0
LINE
  5
27B
100
AcDbEntity
  8
MODELSKETCH_VISIBLE
  6
ByLayer
 62
  256
370
   -1
100
AcDbLine
 10
748.1947893184248
 20
503.2520145239445
 11
746.1998341644761
 21
505.2469696778933
  0
LINE
  5
27C
100
AcDbEntity
  8
MODELSKETCH_VISIBLE
  6
ByLayer
 62
  256
370
   -1
100
AcDbLine
 10
742.1582411093025
 20
382.3824214687708
 11
740.2363823735984
 21
380.4605627330666
  0
LINE
  5
27D
100
AcDbEntity
  8
MODELSKETCH_VISIBLE
  6
ByLayer
 62
  256
370
   -1
100
AcDbLine
 10
714.7213117414506
 20
355.8029921009187
 11
711.6733117414504
 21
352.7549921009186
  0
LINE
  5
27E
100
AcDbEntity
  8
MODELSKETCH_VISIBLE
  6
ByLayer
 62
  256
370
   -1
100
AcDbLine
 10
686.7213117414508
 20
581.7029921009189
 11
683.6733117414504
 21
578.6549921009187
  0
CIRCLE
  5
27F
100
AcDbEntity
  8
MODELSKETCH_VISIBLE
  6
ByLayer
 62
  256
370
   -1
100
AcDbCircle
 10
741.1973117414504
 20
547.4994921009187
 40
1
  0
LINE
  5
280
100
AcDbEntity
  8
MODELSKETCH_VISIBLE
  6
ByLayer
 62
  256
370
   -1
100
AcDbLine
 10
748.1582411093025
 20
400.4605627330667
 11
746.2363823735984
 21
402.3824214687708
  0
CIRCLE
  5
281
100
AcDbEntity
  8
MODELSKETCH_VISIBLE
  6
ByLayer
 62
  256
370
   -1
100
AcDbCircle
 10
747.1973117414504
 20
361.4214921009187
 40
1
  0
LINE
  5
282
100
AcDbEntity
  8
MODELSKETCH_VISIBLE
  6
ByLayer
 62
  256
370
   -1
100
AcDbLine
 10
736.1947893184248
 20
505.2469696778933
 11
734.199834164476
 21
503.2520145239445
  0
LINE
  5
283
100
AcDbEntity
  8
MODELSKETCH_VISIBLE
  6
ByLayer
 62
  256
370
   -1
100
AcDbLine
 10
711.6733117414504
 20
415.8029921009187
 11
714.7213117414506
 21
412.7549921009186
  0
LINE
  5
284
100
AcDbEntity
  8
MODELSKETCH_VISIBLE
  6
ByLayer
 62
  256
370
   -1
100
AcDbLine
 10
736.1947893184248
 20
455.8469696778931
 11
734.1998341644761
 21
453.8520145239443
  0
LINE
  5
285
100
AcDbEntity
  8
MODELSKETCH_VISIBLE
  6
ByLayer
 62
  256
370
   -1
100
AcDbLine
 10
742.1947893184248
 20
608.496969677893
 11
740.1998341644761
 21
606.5020145239444
  0
CIRCLE
  5
286
100
AcDbEntity
  8
MODELSKETCH_VISIBLE
  6
ByLayer
 62
  256
370
   -1
100
AcDbCircle
 10
735.1973117414504
 20
567.4994921009187
 40
1
  0
CIRCLE
  5
287
100
AcDbEntity
  8
MODELSKETCH_VISIBLE
  6
ByLayer
 62
  256
370
   -1
100
AcDbCircle
 10
741.1973117414504
 20
421.4214921009187
 40
1
  0
LINE
  5
288
100
AcDbEntity
  8
MODELSKETCH_VISIBLE
  6
ByLayer
 62
  256
370
   -1
100
AcDbLine
 10
736.1947893184248
 20
538.496969677893
 11
734.199834164476
 21
536.5020145239444
  0
LINE
  5
289
100
AcDbEntity
  8
MODELSKETCH_VISIBLE
  6
ByLayer
 62
  256
370
   -1
100
AcDbLine
 10
714.7213117414506
 20
335.8029921009193
 11
711.6733117414504
 21
332.7549921009192
  0
CIRCLE
  5
28A
100
AcDbEntity
  8
MODELSKETCH_VISIBLE
  6
ByLayer
 62
  256
370
   -1
100
AcDbCircle
 10
747.1973117414504
 20
617.4994921009187
 40
1
  0
LINE
  5
28B
100
AcDbEntity
  8
MODELSKETCH_VISIBLE
  6
ByLayer
 62
  256
370
   -1
100
AcDbLine
 10
748.1947893184248
 20
453.6740145239443
 11
746.1998341644761
 21
455.6689696778931
  0
LINE
  5
28C
100
AcDbEntity
  8
MODELSKETCH_VISIBLE
  6
ByLayer
 62
  256
370
   -1
100
AcDbLine
 10
711.6733117414504
 20
335.8029921009191
 11
714.7213117414506
 21
332.7549921009191
  0
CIRCLE
  5
28D
100
AcDbEntity
  8
MODELSKETCH_VISIBLE
  6
ByLayer
 62
  256
370
   -1
100
AcDbCircle
 10
713.1973117414504
 20
354.2789921009187
 40
1
  0
CIRCLE
  5
28E
100
AcDbEntity
  8
MODELSKETCH_VISIBLE
  6
ByLayer
 62
  256
370
   -1
100
AcDbCircle
 10
685.1973117414504
 20
394.2789921009187
 40
1
  0
LINE
  5
28F
100
AcDbEntity
  8
MODELSKETCH_VISIBLE
  6
ByLayer
 62
  256
370
   -1
100
AcDbLine
 10
714.7213117414506
 20
425.8029921009187
 11
711.6733117414504
 21
422.7549921009186
  0
ARC
  5
290
100
AcDbEntity
  8
MODELSKETCH_VISIBLE
  6
ByLayer
 62
  256
370
   -1
100
AcDbCircle
 10
678.1973117414504
 20
640.8214921009187
 40
2.500000000000016
100
AcDbArc
 50
90
 51
180
  0
LINE
  5
291
100
AcDbEntity
  8
MODELSKETCH_VISIBLE
  6
ByLayer
 62
  256
370
   -1
100
AcDbLine
 10
748.1947893184248
 20
558.496969677893
 11
746.1998341644761
 21
556.5020145239444
  0
CIRCLE
  5
292
100
AcDbEntity
  8
MODELSKETCH_VISIBLE
  6
ByLayer
 62
  256
370
   -1
100
AcDbCircle
 10
685.1973117414504
 20
414.2789921009187
 40
1
  0
CIRCLE
  5
293
100
AcDbEntity
  8
MODELSKETCH_VISIBLE
  6
ByLayer
 62
  256
370
   -1
100
AcDbCircle
 10
747.1973117414504
 20
431.4214921009188
 40
1
  0
LINE
  5
294
100
AcDbEntity
  8
MODELSKETCH_VISIBLE
  6
ByLayer
 62
  256
370
   -1
100
AcDbLine
 10
663.2973117414505
 20
453.0714921009187
 11
763.0973117414505
 21
453.0714921009187
  0
LINE
  5
295
100
AcDbEntity
  8
MODELSKETCH_VISIBLE
  6
ByLayer
 62
  256
370
   -1
100
AcDbLine
 10
736.1947893184248
 20
475.8469696778931
 11
734.1998341644761
 21
473.8520145239443
  0
LINE
  5
296
100
AcDbEntity
  8
MODELSKETCH_VISIBLE
  6
ByLayer
 62
  256
370
   -1
100
AcDbLine
 10
686.7213117414508
 20
591.7029921009189
 11
683.6733117414504
 21
588.6549921009187
  0
LINE
  5
297
100
AcDbEntity
  8
MODELSKETCH_VISIBLE
  6
ByLayer
 62
  256
370
   -1
100
AcDbLine
 10
736.1947893184248
 20
546.5020145239444
 11
734.1998341644761
 21
548.496969677893
  0
CIRCLE
  5
298
100
AcDbEntity
  8
MODELSKETCH_VISIBLE
  6
ByLayer
 62
  256
370
   -1
100
AcDbCircle
 10
685.1973117414504
 20
404.2789921009187
 40
1
  0
LINE
  5
299
100
AcDbEntity
  8
MODELSKETCH_VISIBLE
  6
ByLayer
 62
  256
370
   -1
100
AcDbLine
 10
714.7213117414504
 20
459.0529921009187
 11
711.6733117414504
 21
456.0049921009187
  0
LINE
  5
29A
100
AcDbEntity
  8
MODELSKETCH_VISIBLE
  6
ByLayer
 62
  256
370
   -1
100
AcDbLine
 10
663.2973117414505
 20
617.3214921009187
 11
763.0973117414504
 21
617.3214921009187
  0
CIRCLE
  5
29B
100
AcDbEntity
  8
MODELSKETCH_VISIBLE
  6
ByLayer
 62
  256
370
   -1
100
AcDbCircle
 10
713.1973117414504
 20
496.9291921009189
 40
1
  0
LINE
  5
29C
100
AcDbEntity
  8
MODELSKETCH_VISIBLE
  6
ByLayer
 62
  256
370
   -1
100
AcDbLine
 10
736.1582411093025
 20
360.6385627330666
 11
734.2363823735984
 21
362.5604214687708
  0
LINE
  5
29D
100
AcDbEntity
  8
MODELSKETCH_VISIBLE
  6
ByLayer
 62
  256
370
   -1
100
AcDbLine
 10
663.2973117414506
 20
351.4214921009187
 11
663.2973117414506
 21
349.8214921009187
  0
CIRCLE
  5
29E
100
AcDbEntity
  8
MODELSKETCH_VISIBLE
  6
ByLayer
 62
  256
370
   -1
100
AcDbCircle
 10
685.1973117414504
 20
354.2789921009187
 40
1
  0
CIRCLE
  5
29F
100
AcDbEntity
  8
MODELSKETCH_VISIBLE
  6
ByLayer
 62
  256
370
   -1
100
AcDbCircle
 10
729.6973117414504
 20
616.8214921009187
 40
1.875
  0
LINE
  5
2A0
100
AcDbEntity
  8
MODELSKETCH_VISIBLE
  6
ByLayer
 62
  256
370
   -1
100
AcDbLine
 10
748.1582411093025
 20
342.3824214687708
 11
746.2363823735984
 21
340.4605627330666
  0
CIRCLE
  5
2A1
100
AcDbEntity
  8
MODELSKETCH_VISIBLE
  6
ByLayer
 62
  256
370
   -1
100
AcDbCircle
 10
735.1973117414504
 20
514.2494921009189
 40
1
  0
LINE
  5
2A2
100
AcDbEntity
  8
MODELSKETCH_VISIBLE
  6
ByLayer
 62
  256
370
   -1
100
AcDbLine
 10
742.1582411093025
 20
380.4605627330667
 11
740.2363823735984
 21
382.3824214687708
  0
CIRCLE
  5
2A3
100
AcDbEntity
  8
MODELSKETCH_VISIBLE
  6
ByLayer
 62
  256
370
   -1
100
AcDbCircle
 10
735.1973117414504
 20
504.2494921009189
 40
1
  0
LINE
  5
2A4
100
AcDbEntity
  8
MODELSKETCH_VISIBLE
  6
ByLayer
 62
  256
370
   -1
100
AcDbLine
 10
686.7213117414508
 20
541.7029921009189
 11
683.6733117414504
 21
538.6549921009187
  0
CIRCLE
  5
2A5
100
AcDbEntity
  8
MODELSKETCH_VISIBLE
  6
ByLayer
 62
  256
370
   -1
100
AcDbCircle
 10
741.1973117414504
 20
637.4994921009187
 40
1
  0
LINE
  5
2A6
100
AcDbEntity
  8
MODELSKETCH_VISIBLE
  6
ByLayer
 62
  256
370
   -1
100
AcDbLine
 10
714.7213117414506
 20
601.7029921009187
 11
711.6733117414504
 21
598.6549921009185
  0
LINE
  5
2A7
100
AcDbEntity
  8
MODELSKETCH_VISIBLE
  6
ByLayer
 62
  256
370
   -1
100
AcDbLine
 10
748.1947893184248
 20
493.2520145239449
 11
746.1998341644761
 21
495.2469696778937
  0
CIRCLE
  5
2A8
100
AcDbEntity
  8
MODELSKETCH_VISIBLE
  6
ByLayer
 62
  256
370
   -1
100
AcDbCircle
 10
713.1973117414504
 20
590.1789921009187
 40
1
  0
LINE
  5
2A9
100
AcDbEntity
  8
MODELSKETCH_VISIBLE
  6
ByLayer
 62
  256
370
   -1
100
AcDbLine
 10
763.0973117414505
 20
381.4214921009187
 11
763.0973117414505
 21
379.8214921009187
  0
LINE
  5
2AA
100
AcDbEntity
  8
MODELSKETCH_VISIBLE
  6
ByLayer
 62
  256
370
   -1
100
AcDbLine
 10
742.1947893184248
 20
493.2520145239449
 11
740.1998341644761
 21
495.2469696778937
  0
LINE
  5
2AB
100
AcDbEntity
  8
MODELSKETCH_VISIBLE
  6
ByLayer
 62
  256
370
   -1
100
AcDbLine
 10
714.7213117414504
 20
405.8029921009187
 11
711.6733117414504
 21
402.7549921009186
  0
LINE
  5
2AC
100
AcDbEntity
  8
MODELSKETCH_VISIBLE
  6
ByLayer
 62
  256
370
   -1
100
AcDbLine
 10
742.1947893184248
 20
463.6740145239443
 11
740.1998341644761
 21
465.6689696778931
  0
LINE
  5
2AD
100
AcDbEntity
  8
MODELSKETCH_VISIBLE
  6
ByLayer
 62
  256
370
   -1
100
AcDbLine
 10
683.6733117414525
 20
375.8029921009208
 11
686.7213117414526
 21
372.7549921009207
  0
CIRCLE
  5
2AE
100
AcDbEntity
  8
MODELSKETCH_VISIBLE
  6
ByLayer
 62
  256
370
   -1
100
AcDbCircle
 10
685.1973117414504
 20
364.2789921009187
 40
1
  0
LINE
  5
2AF
100
AcDbEntity
  8
MODELSKETCH_VISIBLE
  6
ByLayer
 62
  256
370
   -1
100
AcDbLine
 10
736.1947893184248
 20
588.496969677893
 11
734.1998341644761
 21
586.5020145239444
  0
CIRCLE
  5
2B0
100
AcDbEntity
  8
MODELSKETCH_VISIBLE
  6
ByLayer
 62
  256
370
   -1
100
AcDbCircle
 10
741.1973117414504
 20
607.4994921009187
 40
1
  0
LINE
  5
2B1
100
AcDbEntity
  8
MODELSKETCH_VISIBLE
  6
ByLayer
 62
  256
370
   -1
100
AcDbLine
 10
711.6733117414504
 20
611.7029921009187
 11
714.7213117414506
 21
608.6549921009187
  0
CIRCLE
  5
2B2
100
AcDbEntity
  8
MODELSKETCH_VISIBLE
  6
ByLayer
 62
  256
370
   -1
100
AcDbCircle
 10
741.1973117414504
 20
431.4214921009188
 40
1
  0
LINE
  5
2B3
100
AcDbEntity
  8
MODELSKETCH_VISIBLE
  6
ByLayer
 62
  256
370
   -1
100
AcDbLine
 10
663.2973117414505
 20
547.3214921009187
 11
763.0973117414504
 21
547.3214921009187
  0
ARC
  5
2B4
100
AcDbEntity
  8
MODELSKETCH_VISIBLE
  6
ByLayer
 62
  256
370
   -1
100
AcDbCircle
 10
678.1973117414504
 20
326.3214921009182
 40
2.500000000000023
100
AcDbArc
 50
180
 51
270
  0
LINE
  5
2B5
100
AcDbEntity
  8
MODELSKETCH_VISIBLE
  6
ByLayer
 62
  256
370
   -1
100
AcDbLine
 10
742.1947893184248
 20
558.496969677893
 11
740.1998341644761
 21
556.5020145239444
  0
CIRCLE
  5
2B6
100
AcDbEntity
  8
MODELSKETCH_VISIBLE
  6
ByLayer
 62
  256
370
   -1
100
AcDbCircle
 10
685.1973117414506
 20
560.1789921009188
 40
1
  0
LINE
  5
2B7
100
AcDbEntity
  8
MODELSKETCH_VISIBLE
  6
ByLayer
 62
  256
370
   -1
100
AcDbLine
 10
663.2973117414505
 20
585.7214921009187
 11
763.0973117414504
 21
585.7214921009187
  0
LINE
  5
2B8
100
AcDbEntity
  8
MODELSKETCH_VISIBLE
  6
ByLayer
 62
  256
370
   -1
100
AcDbLine
 10
742.1947893184248
 20
505.2469696778933
 11
740.1998341644761
 21
503.2520145239445
  0
LINE
  5
2B9
100
AcDbEntity
  8
MODELSKETCH_VISIBLE
  6
ByLayer
 62
  256
370
   -1
100
AcDbLine
 10
736.1582411093025
 20
402.5604214687708
 11
734.2363823735984
 21
400.6385627330666
  0
CIRCLE
  5
2BA
100
AcDbEntity
  8
MODELSKETCH_VISIBLE
  6
ByLayer
 62
  256
370
   -1
100
AcDbCircle
 10
735.1973117414504
 20
381.5994921009187
 40
1
  0
CIRCLE
  5
2BB
100
AcDbEntity
  8
MODELSKETCH_VISIBLE
  6
ByLayer
 62
  256
370
   -1
100
AcDbCircle
 10
741.1973117414504
 20
514.2494921009189
 40
1
  0
LINE
  5
2BC
100
AcDbEntity
  8
MODELSKETCH_VISIBLE
  6
ByLayer
 62
  256
370
   -1
100
AcDbLine
 10
686.7213117414504
 20
498.4531921009189
 11
683.6733117414506
 21
495.4051921009189
  0
LINE
  5
2BD
100
AcDbEntity
  8
MODELSKETCH_VISIBLE
  6
ByLayer
 62
  256
370
   -1
100
AcDbLine
 10
663.2973117414505
 20
575.7214921009187
 11
763.0973117414504
 21
575.7214921009187
  0
CIRCLE
  5
2BE
100
AcDbEntity
  8
MODELSKETCH_VISIBLE
  6
ByLayer
 62
  256
370
   -1
100
AcDbCircle
 10
691.5473117414505
 20
526.8816421009187
 40
1
  0
LINE
  5
2BF
100
AcDbEntity
  8
MODELSKETCH_VISIBLE
  6
ByLayer
 62
  256
370
   -1
100
AcDbLine
 10
763.0973117414505
 20
557.3214921009187
 11
763.0973117414505
 21
555.7214921009187
  0
ARC
  5
2C0
100
AcDbEntity
  8
MODELSKETCH_VISIBLE
  6
ByLayer
 62
  256
370
   -1
100
AcDbCircle
 10
708.3642814634684
 20
640.8214921009187
 40
2.5
100
AcDbArc
 50
42.84364304360344
 51
90
  0
LINE
  5
2C1
100
AcDbEntity
  8
MODELSKETCH_VISIBLE
  6
ByLayer
 62
  256
370
   -1
100
AcDbLine
 10
663.2973117414506
 20
411.4214921009187
 11
763.0973117414505
 21
411.4214921009187
  0
LINE
  5
2C2
100
AcDbEntity
  8
MODELSKETCH_VISIBLE
  6
ByLayer
 62
  256
370
   -1
100
AcDbLine
 10
683.6733117414525
 20
435.8029921009208
 11
686.7213117414526
 21
432.7549921009207
  0
LINE
  5
2C3
100
AcDbEntity
  8
MODELSKETCH_VISIBLE
  6
ByLayer
 62
  256
370
   -1
100
AcDbLine
 10
748.1582411093025
 20
350.4605627330666
 11
746.2363823735984
 21
352.3824214687708
  0
LINE
  5
2C4
100
AcDbEntity
  8
MODELSKETCH_VISIBLE
  6
ByLayer
 62
  256
370
   -1
100
AcDbLine
 10
742.1947893184248
 20
636.5020145239444
 11
740.1998341644761
 21
638.496969677893
  0
CIRCLE
  5
2C5
100
AcDbEntity
  8
MODELSKETCH_VISIBLE
  6
ByLayer
 62
  256
370
   -1
100
AcDbCircle
 10
713.1973117414504
 20
404.2789921009186
 40
1
  0
LINE
  5
2C6
100
AcDbEntity
  8
MODELSKETCH_VISIBLE
  6
ByLayer
 62
  256
370
   -1
100
AcDbLine
 10
663.2973117414506
 20
381.4214921009187
 11
663.2973117414506
 21
379.8214921009187
  0
LINE
  5
2C7
100
AcDbEntity
  8
MODELSKETCH_VISIBLE
  6
ByLayer
 62
  256
370
   -1
100
AcDbLine
 10
711.6733117414504
 20
449.0529921009187
 11
714.7213117414506
 21
446.0049921009186
  0
CIRCLE
  5
2C8
100
AcDbEntity
  8
MODELSKETCH_VISIBLE
  6
ByLayer
 62
  256
370
   -1
100
AcDbCircle
 10
735.1973117414504
 20
331.5994921009187
 40
1
  0
CIRCLE
  5
2C9
100
AcDbEntity
  8
MODELSKETCH_VISIBLE
  6
ByLayer
 62
  256
370
   -1
100
AcDbCircle
 10
713.1973117414504
 20
447.5289921009187
 40
1
  0
LINE
  5
2CA
100
AcDbEntity
  8
MODELSKETCH_VISIBLE
  6
ByLayer
 62
  256
370
   -1
100
AcDbLine
 10
663.2973117414505
 20
454.6714921009187
 11
763.0973117414505
 21
454.6714921009187
  0
LINE
  5
2CB
100
AcDbEntity
  8
MODELSKETCH_VISIBLE
  6
ByLayer
 62
  256
370
   -1
100
AcDbLine
 10
742.1582411093025
 20
422.3824214687708
 11
740.2363823735984
 21
420.4605627330666
  0
LINE
  5
2CC
100
AcDbEntity
  8
MODELSKETCH_VISIBLE
  6
ByLayer
 62
  256
370
   -1
100
AcDbLine
 10
663.2973117414506
 20
421.4214921009187
 11
663.2973117414506
 21
419.8214921009187
  0
CIRCLE
  5
2CD
100
AcDbEntity
  8
MODELSKETCH_VISIBLE
  6
ByLayer
 62
  256
370
   -1
100
AcDbCircle
 10
747.1973117414504
 20
401.4214921009187
 40
1
  0
CIRCLE
  5
2CE
100
AcDbEntity
  8
MODELSKETCH_VISIBLE
  6
ByLayer
 62
  256
370
   -1
100
AcDbCircle
 10
741.1973117414504
 20
371.4214921009187
 40
1
  0
LINE
  5
2CF
100
AcDbEntity
  8
MODELSKETCH_VISIBLE
  6
ByLayer
 62
  256
370
   -1
100
AcDbLine
 10
742.1947893184248
 20
586.5020145239444
 11
740.1998341644761
 21
588.496969677893
  0
LINE
  5
2D0
100
AcDbEntity
  8
MODELSKETCH_VISIBLE
  6
ByLayer
 62
  256
370
   -1
100
AcDbLine
 10
736.1947893184248
 20
606.5020145239444
 11
734.1998341644761
 21
608.496969677893
  0
LINE
  5
2D1
100
AcDbEntity
  8
MODELSKETCH_VISIBLE
  6
ByLayer
 62
  256
370
   -1
100
AcDbLine
 10
748.1947893184248
 20
618.496969677893
 11
746.1998341644761
 21
616.5020145239444
  0
LINE
  5
2D2
100
AcDbEntity
  8
MODELSKETCH_VISIBLE
  6
ByLayer
 62
  256
370
   -1
100
AcDbLine
 10
711.6733117414504
 20
345.8029921009187
 11
714.7213117414506
 21
342.7549921009186
  0
CIRCLE
  5
2D3
100
AcDbEntity
  8
MODELSKETCH_VISIBLE
  6
ByLayer
 62
  256
370
   -1
100
AcDbCircle
 10
735.1973117414504
 20
401.5994921009187
 40
1
  0
CIRCLE
  5
2D4
100
AcDbEntity
  8
MODELSKETCH_VISIBLE
  6
ByLayer
 62
  256
370
   -1
100
AcDbCircle
 10
741.1973117414504
 20
331.4214921009187
 40
1
  0
LINE
  5
2D5
100
AcDbEntity
  8
MODELSKETCH_VISIBLE
  6
ByLayer
 62
  256
370
   -1
100
AcDbLine
 10
736.1947893184248
 20
536.5020145239444
 11
734.1998341644761
 21
538.496969677893
  0
LINE
  5
2D6
100
AcDbEntity
  8
MODELSKETCH_VISIBLE
  6
ByLayer
 62
  256
370
   -1
100
AcDbLine
 10
736.1582411093025
 20
432.5604214687708
 11
734.2363823735984
 21
430.6385627330667
  0
LINE
  5
2D7
100
AcDbEntity
  8
MODELSKETCH_VISIBLE
  6
ByLayer
 62
  256
370
   -1
100
AcDbLine
 10
742.1947893184248
 20
495.2469696778937
 11
740.1998341644761
 21
493.2520145239449
  0
CIRCLE
  5
2D8
100
AcDbEntity
  8
MODELSKETCH_VISIBLE
  6
ByLayer
 62
  256
370
   -1
100
AcDbCircle
 10
685.1973117414504
 20
496.9291921009189
 40
1
  0
LINE
  5
2D9
100
AcDbEntity
  8
MODELSKETCH_VISIBLE
  6
ByLayer
 62
  256
370
   -1
100
AcDbLine
 10
742.1947893184248
 20
503.2520145239445
 11
740.1998341644761
 21
505.2469696778933
  0
CIRCLE
  5
2DA
100
AcDbEntity
  8
MODELSKETCH_VISIBLE
  6
ByLayer
 62
  256
370
   -1
100
AcDbCircle
 10
685.1973117414506
 20
570.1789921009188
 40
1
  0
LINE
  5
2DB
100
AcDbEntity
  8
MODELSKETCH_VISIBLE
  6
ByLayer
 62
  256
370
   -1
100
AcDbLine
 10
683.6733117414506
 20
498.4531921009189
 11
686.7213117414504
 21
495.4051921009189
  0
LINE
  5
2DC
100
AcDbEntity
  8
MODELSKETCH_VISIBLE
  6
ByLayer
 62
  256
370
   -1
100
AcDbLine
 10
690.0231430746029
 20
528.4058107677663
 11
693.0714804082982
 21
525.357473434071
  0
CIRCLE
  5
2DD
100
AcDbEntity
  8
MODELSKETCH_VISIBLE
  6
ByLayer
 62
  256
370
   -1
100
AcDbCircle
 10
729.6973117414504
 20
463.5714921009187
 40
1.875
  0
LINE
  5
2DE
100
AcDbEntity
  8
MODELSKETCH_VISIBLE
  6
ByLayer
 62
  256
370
   -1
100
AcDbLine
 10
663.2973117414505
 20
557.3214921009187
 11
663.2973117414505
 21
555.7214921009187
  0
LINE
  5
2DF
100
AcDbEntity
  8
MODELSKETCH_VISIBLE
  6
ByLayer
 62
  256
370
   -1
100
AcDbLine
 10
742.1582411093025
 20
352.3824214687708
 11
740.2363823735984
 21
350.4605627330666
  0
LINE
  5
2E0
100
AcDbEntity
  8
MODELSKETCH_VISIBLE
  6
ByLayer
 62
  256
370
   -1
100
AcDbLine
 10
736.1947893184248
 20
636.5020145239444
 11
734.1998341644761
 21
638.496969677893
  0
CIRCLE
  5
2E1
100
AcDbEntity
  8
MODELSKETCH_VISIBLE
  6
ByLayer
 62
  256
370
   -1
100
AcDbCircle
 10
741.1973117414504
 20
444.6714921009187
 40
1
  0
LINE
  5
2E2
100
AcDbEntity
  8
MODELSKETCH_VISIBLE
  6
ByLayer
 62
  256
370
   -1
100
AcDbLine
 10
663.2973117414506
 20
331.4214921009186
 11
763.0973117414505
 21
331.4214921009187
  0
LINE
  5
2E3
100
AcDbEntity
  8
MODELSKETCH_VISIBLE
  6
ByLayer
 62
  256
370
   -1
100
AcDbLine
 10
663.2973117414506
 20
371.4214921009187
 11
763.0973117414505
 21
371.4214921009187
  0
LINE
  5
2E4
100
AcDbEntity
  8
MODELSKETCH_VISIBLE
  6
ByLayer
 62
  256
370
   -1
100
AcDbLine
 10
663.2973117414505
 20
492.4714921009187
 11
763.0973117414505
 21
492.4714921009187
  0
CIRCLE
  5
2E5
100
AcDbEntity
  8
MODELSKETCH_VISIBLE
  6
ByLayer
 62
  256
370
   -1
100
AcDbCircle
 10
685.1973117414506
 20
550.1789921009188
 40
1
  0
LINE
  5
2E6
100
AcDbEntity
  8
MODELSKETCH_VISIBLE
  6
ByLayer
 62
  256
370
   -1
100
AcDbLine
 10
714.7213117414504
 20
449.0529921009187
 11
711.6733117414504
 21
446.0049921009187
  0
LINE
  5
2E7
100
AcDbEntity
  8
MODELSKETCH_VISIBLE
  6
ByLayer
 62
  256
370
   -1
100
AcDbLine
 10
711.6733117414504
 20
631.7029921009187
 11
714.7213117414506
 21
628.6549921009185
  0
CIRCLE
  5
2E8
100
AcDbEntity
  8
MODELSKETCH_VISIBLE
  6
ByLayer
 62
  256
370
   -1
100
AcDbCircle
 10
747.1973117414504
 20
371.4214921009187
 40
1
  0
LINE
  5
2E9
100
AcDbEntity
  8
MODELSKETCH_VISIBLE
  6
ByLayer
 62
  256
370
   -1
100
AcDbLine
 10
763.0973117414505
 20
514.0714921009187
 11
763.0973117414505
 21
512.4714921009187
  0
LINE
  5
2EA
100
AcDbEntity
  8
MODELSKETCH_VISIBLE
  6
ByLayer
 62
  256
370
   -1
100
AcDbLine
 10
736.1582411093025
 20
400.6385627330666
 11
734.2363823735984
 21
402.5604214687708
  0
LINE
  5
2EB
100
AcDbEntity
  8
MODELSKETCH_VISIBLE
  6
ByLayer
 62
  256
370
   -1
100
AcDbLine
 10
736.1582411093025
 20
372.5604214687708
 11
734.2363823735984
 21
370.6385627330666
  0
LINE
  5
2EC
100
AcDbEntity
  8
MODELSKETCH_VISIBLE
  6
ByLayer
 62
  256
370
   -1
100
AcDbLine
 10
711.6733117414504
 20
581.7029921009187
 11
714.7213117414506
 21
578.6549921009185
  0
LINE
  5
2ED
100
AcDbEntity
  8
MODELSKETCH_VISIBLE
  6
ByLayer
 62
  256
370
   -1
100
AcDbLine
 10
742.1947893184248
 20
475.6689696778931
 11
740.1998341644761
 21
473.6740145239443
  0
LINE
  5
2EE
100
AcDbEntity
  8
MODELSKETCH_VISIBLE
  6
ByLayer
 62
  256
370
   -1
100
AcDbLine
 10
748.1582411093025
 20
430.4605627330668
 11
746.2363823735984
 21
432.3824214687708
  0
LINE
  5
2EF
100
AcDbEntity
  8
MODELSKETCH_VISIBLE
  6
ByLayer
 62
  256
370
   -1
100
AcDbLine
 10
663.2973117414506
 20
341.4214921009186
 11
663.2973117414506
 21
339.8214921009187
  0
CIRCLE
  5
2F0
100
AcDbEntity
  8
MODELSKETCH_VISIBLE
  6
ByLayer
 62
  256
370
   -1
100
AcDbCircle
 10
747.1973117414504
 20
567.4994921009187
 40
1
  0
LINE
  5
2F1
100
AcDbEntity
  8
MODELSKETCH_VISIBLE
  6
ByLayer
 62
  256
370
   -1
100
AcDbLine
 10
683.6733117414504
 20
621.7029921009189
 11
686.7213117414507
 21
618.6549921009184
  0
LINE
  5
2F2
100
AcDbEntity
  8
MODELSKETCH_VISIBLE
  6
ByLayer
 62
  256
370
   -1
100
AcDbLine
 10
663.2973117414505
 20
587.3214921009187
 11
763.0973117414504
 21
587.3214921009187
  0
CIRCLE
  5
2F3
100
AcDbEntity
  8
MODELSKETCH_VISIBLE
  6
ByLayer
 62
  256
370
   -1
100
AcDbCircle
 10
735.1973117414504
 20
421.5994921009187
 40
1
  0
LINE
  5
2F4
100
AcDbEntity
  8
MODELSKETCH_VISIBLE
  6
ByLayer
 62
  256
370
   -1
100
AcDbLine
 10
748.1947893184248
 20
515.2469696778933
 11
746.1998341644761
 21
513.2520145239446
  0
LINE
  5
2F5
100
AcDbEntity
  8
MODELSKETCH_VISIBLE
  6
ByLayer
 62
  256
370
   -1
100
AcDbLine
 10
693.0714804082982
 20
528.4058107677663
 11
690.0231430746029
 21
525.357473434071
  0
LINE
  5
2F6
100
AcDbEntity
  8
MODELSKETCH_VISIBLE
  6
ByLayer
 62
  256
370
   -1
100
AcDbLine
 10
663.2973117414505
 20
545.7214921009187
 11
763.0973117414504
 21
545.7214921009187
  0
LINE
  5
2F7
100
AcDbEntity
  8
MODELSKETCH_VISIBLE
  6
ByLayer
 62
  256
370
   -1
100
AcDbLine
 10
736.1947893184248
 20
548.496969677893
 11
734.1998341644761
 21
546.5020145239444
  0
LINE
  5
2F8
100
AcDbEntity
  8
MODELSKETCH_VISIBLE
  6
ByLayer
 62
  256
370
   -1
100
AcDbLine
 10
716.1973117414504
 20
324.6214921009187
 11
710.1973117414506
 21
324.6214921009187
  0
LINE
  5
2F9
100
AcDbEntity
  8
MODELSKETCH_VISIBLE
  6
ByLayer
 62
  256
370
   -1
100
AcDbLine
 10
763.0973117414505
 20
411.4214921009187
 11
763.0973117414505
 21
409.8214921009187
  0
LINE
  5
2FA
100
AcDbEntity
  8
MODELSKETCH_VISIBLE
  6
ByLayer
 62
  256
370
   -1
100
AcDbLine
 10
742.1582411093025
 20
350.4605627330666
 11
740.2363823735984
 21
352.3824214687708
  0
CIRCLE
  5
2FB
100
AcDbEntity
  8
MODELSKETCH_VISIBLE
  6
ByLayer
 62
  256
370
   -1
100
AcDbCircle
 10
747.1973117414504
 20
637.4994921009187
 40
1
  0
CIRCLE
  5
2FC
100
AcDbEntity
  8
MODELSKETCH_VISIBLE
  6
ByLayer
 62
  256
370
   -1
100
AcDbCircle
 10
685.1973117414504
 20
457.5289921009187
 40
1
  0
CIRCLE
  5
2FD
100
AcDbEntity
  8
MODELSKETCH_VISIBLE
  6
ByLayer
 62
  256
370
   -1
100
AcDbCircle
 10
747.1973117414504
 20
421.4214921009187
 40
1
  0
LINE
  5
2FE
100
AcDbEntity
  8
MODELSKETCH_VISIBLE
  6
ByLayer
 62
  256
370
   -1
100
AcDbLine
 10
763.0973117414505
 20
617.3214921009187
 11
763.0973117414505
 21
615.7214921009187
  0
CIRCLE
  5
2FF
100
AcDbEntity
  8
MODELSKETCH_VISIBLE
  6
ByLayer
 62
  256
370
   -1
100
AcDbCircle
 10
741.1973117414504
 20
391.4214921009187
 40
1
  0
CIRCLE
  5
300
100
AcDbEntity
  8
MODELSKETCH_VISIBLE
  6
ByLayer
 62
  256
370
   -1
100
AcDbCircle
 10
741.1973117414504
 20
557.4994921009187
 40
1
  0
LINE
  5
301
100
AcDbEntity
  8
MODELSKETCH_VISIBLE
  6
ByLayer
 62
  256
370
   -1
100
AcDbLine
 10
748.1582411093025
 20
370.4605627330667
 11
746.2363823735984
 21
372.3824214687708
  0
LINE
  5
302
100
AcDbEntity
  8
MODELSKETCH_VISIBLE
  6
ByLayer
 62
  256
370
   -1
100
AcDbLine
 10
714.7213117414506
 20
631.7029921009187
 11
711.6733117414504
 21
628.6549921009187
  0
LINE
  5
303
100
AcDbEntity
  8
MODELSKETCH_VISIBLE
  6
ByLayer
 62
  256
370
   -1
100
AcDbLine
 10
663.2973117414505
 20
514.0714921009187
 11
663.2973117414505
 21
512.4714921009187
  0
CIRCLE
  5
304
100
AcDbEntity
  8
MODELSKETCH_VISIBLE
  6
ByLayer
 62
  256
370
   -1
100
AcDbCircle
 10
735.1973117414504
 20
411.5994921009187
 40
1
  0
LINE
  5
305
100
AcDbEntity
  8
MODELSKETCH_VISIBLE
  6
ByLayer
 62
  256
370
   -1
100
AcDbLine
 10
663.2973117414505
 20
494.0714921009186
 11
763.0973117414505
 21
494.0714921009186
  0
LINE
  5
306
100
AcDbEntity
  8
MODELSKETCH_VISIBLE
  6
ByLayer
 62
  256
370
   -1
100
AcDbLine
 10
683.6733117414504
 20
459.0529921009187
 11
686.7213117414504
 21
456.0049921009187
  0
CIRCLE
  5
307
100
AcDbEntity
  8
MODELSKETCH_VISIBLE
  6
ByLayer
 62
  256
370
   -1
100
AcDbCircle
 10
747.1973117414504
 20
504.2494921009189
 40
1
  0
LINE
  5
308
100
AcDbEntity
  8
MODELSKETCH_VISIBLE
  6
ByLayer
 62
  256
370
   -1
100
AcDbLine
 10
714.7213117414506
 20
581.7029921009187
 11
711.6733117414504
 21
578.6549921009185
  0
CIRCLE
  5
309
100
AcDbEntity
  8
MODELSKETCH_VISIBLE
  6
ByLayer
 62
  256
370
   -1
100
AcDbCircle
 10
729.6973117414504
 20
503.5714921009187
 40
1.875
  0
LINE
  5
30A
100
AcDbEntity
  8
MODELSKETCH_VISIBLE
  6
ByLayer
 62
  256
370
   -1
100
AcDbLine
 10
736.1947893184248
 20
463.8520145239443
 11
734.1998341644761
 21
465.8469696778931
  0
LINE
  5
30B
100
AcDbEntity
  8
MODELSKETCH_VISIBLE
  6
ByLayer
 62
  256
370
   -1
100
AcDbLine
 10
742.1947893184248
 20
588.496969677893
 11
740.1998341644761
 21
586.5020145239444
  0
LINE
  5
30C
100
AcDbEntity
  8
MODELSKETCH_VISIBLE
  6
ByLayer
 62
  256
370
   -1
100
AcDbLine
 10
736.1947893184248
 20
618.4969696778932
 11
734.1998341644761
 21
616.5020145239444
  0
LINE
  5
30D
100
AcDbEntity
  8
MODELSKETCH_VISIBLE
  6
ByLayer
 62
  256
370
   -1
100
AcDbLine
 10
714.7213117414506
 20
345.8029921009187
 11
711.6733117414504
 21
342.7549921009186
  0
LINE
  5
30E
100
AcDbEntity
  8
MODELSKETCH_VISIBLE
  6
ByLayer
 62
  256
370
   -1
100
AcDbLine
 10
686.7213117414507
 20
621.7029921009189
 11
683.6733117414504
 21
618.6549921009187
  0
LINE
  5
30F
100
AcDbEntity
  8
MODELSKETCH_VISIBLE
  6
ByLayer
 62
  256
370
   -1
100
AcDbLine
 10
736.1947893184248
 20
513.2520145239446
 11
734.1998341644761
 21
515.2469696778933
  0
CIRCLE
  5
310
100
AcDbEntity
  8
MODELSKETCH_VISIBLE
  6
ByLayer
 62
  256
370
   -1
100
AcDbCircle
 10
691.5473117414505
 20
334.2789921009187
 40
1
  0
LINE
  5
311
100
AcDbEntity
  8
MODELSKETCH_VISIBLE
  6
ByLayer
 62
  256
370
   -1
100
AcDbLine
 10
682.3349304082981
 20
598.3456607677663
 11
679.2865930746029
 21
595.2973234340711
  0
CIRCLE
  5
312
100
AcDbEntity
  8
MODELSKETCH_VISIBLE
  6
ByLayer
 62
  256
370
   -1
100
AcDbCircle
 10
685.1973117414504
 20
424.2789921009187
 40
1
  0
CIRCLE
  5
313
100
AcDbEntity
  8
MODELSKETCH_VISIBLE
  6
ByLayer
 62
  256
370
   -1
100
AcDbCircle
 10
735.1973117414504
 20
464.8494921009187
 40
1
  0
LINE
  5
314
100
AcDbEntity
  8
MODELSKETCH_VISIBLE
  6
ByLayer
 62
  256
370
   -1
100
AcDbLine
 10
686.7213117414518
 20
375.8029921009216
 11
683.6733117414517
 21
372.7549921009215
  0
LINE
  5
315
100
AcDbEntity
  8
MODELSKETCH_VISIBLE
  6
ByLayer
 62
  256
370
   -1
100
AcDbLine
 10
736.1947893184248
 20
443.8520145239443
 11
734.1998341644761
 21
445.8469696778931
  0
LINE
  5
316
100
AcDbEntity
  8
MODELSKETCH_VISIBLE
  6
ByLayer
 62
  256
370
   -1
100
AcDbLine
 10
763.0973117414505
 20
331.4214921009187
 11
763.0973117414505
 21
329.8214921009187
  0
LINE
  5
317
100
AcDbEntity
  8
MODELSKETCH_VISIBLE
  6
ByLayer
 62
  256
370
   -1
100
AcDbLine
 10
748.1947893184248
 20
636.5020145239444
 11
746.1998341644761
 21
638.496969677893
  0
LINE
  5
318
100
AcDbEntity
  8
MODELSKETCH_VISIBLE
  6
ByLayer
 62
  256
370
   -1
100
AcDbLine
 10
763.0973117414505
 20
371.4214921009187
 11
763.0973117414505
 21
369.8214921009187
  0
LINE
  5
319
100
AcDbEntity
  8
MODELSKETCH_VISIBLE
  6
ByLayer
 62
  256
370
   -1
100
AcDbLine
 10
683.6733117414503
 20
631.7029921009189
 11
686.7213117414507
 21
628.6549921009185
  0
CIRCLE
  5
31A
100
AcDbEntity
  8
MODELSKETCH_VISIBLE
  6
ByLayer
 62
  256
370
   -1
100
AcDbCircle
 10
713.1973117414504
 20
580.1789921009185
 40
1
  0
LINE
  5
31B
100
AcDbEntity
  8
MODELSKETCH_VISIBLE
  6
ByLayer
 62
  256
370
   -1
100
AcDbLine
 10
736.1582411093025
 20
420.6385627330666
 11
734.2363823735984
 21
422.5604214687708
  0
LINE
  5
31C
100
AcDbEntity
  8
MODELSKETCH_VISIBLE
  6
ByLayer
 62
  256
370
   -1
100
AcDbLine
 10
748.1582411093025
 20
402.3824214687708
 11
746.2363823735984
 21
400.4605627330666
  0
LINE
  5
31D
100
AcDbEntity
  8
MODELSKETCH_VISIBLE
  6
ByLayer
 62
  256
370
   -1
100
AcDbLine
 10
736.1582411093025
 20
392.5604214687708
 11
734.2363823735984
 21
390.6385627330666
  0
CIRCLE
  5
31E
100
AcDbEntity
  8
MODELSKETCH_VISIBLE
  6
ByLayer
 62
  256
370
   -1
100
AcDbCircle
 10
747.1973117414504
 20
331.4214921009187
 40
1
  0
LINE
  5
31F
100
AcDbEntity
  8
MODELSKETCH_VISIBLE
  6
ByLayer
 62
  256
370
   -1
100
AcDbLine
 10
742.1582411093025
 20
372.3824214687708
 11
740.2363823735984
 21
370.4605627330666
  0
LINE
  5
320
100
AcDbEntity
  8
MODELSKETCH_VISIBLE
  6
ByLayer
 62
  256
370
   -1
100
AcDbLine
 10
683.6733117414506
 20
518.4531921009188
 11
686.7213117414504
 21
515.4051921009188
  0
LINE
  5
321
100
AcDbEntity
  8
MODELSKETCH_VISIBLE
  6
ByLayer
 62
  256
370
   -1
100
AcDbLine
 10
663.2973117414505
 20
502.4714921009187
 11
763.0973117414505
 21
502.4714921009187
  0
LINE
  5
322
100
AcDbEntity
  8
MODELSKETCH_VISIBLE
  6
ByLayer
 62
  256
370
   -1
100
AcDbLine
 10
763.0973117414505
 20
494.0714921009186
 11
763.0973117414505
 21
492.4714921009187
  0
LINE
  5
323
100
AcDbEntity
  8
MODELSKETCH_VISIBLE
  6
ByLayer
 62
  256
370
   -1
100
AcDbLine
 10
686.7213117414506
 20
459.0529921009187
 11
683.6733117414504
 21
456.0049921009187
  0
LINE
  5
324
100
AcDbEntity
  8
MODELSKETCH_VISIBLE
  6
ByLayer
 62
  256
370
   -1
100
AcDbLine
 10
714.7213117414506
 20
395.8029921009187
 11
711.6733117414504
 21
392.7549921009186
  0
LINE
  5
325
100
AcDbEntity
  8
MODELSKETCH_VISIBLE
  6
ByLayer
 62
  256
370
   -1
100
AcDbLine
 10
742.1947893184248
 20
638.496969677893
 11
740.1998341644761
 21
636.5020145239444
  0
CIRCLE
  5
326
100
AcDbEntity
  8
MODELSKETCH_VISIBLE
  6
ByLayer
 62
  256
370
   -1
100
AcDbCircle
 10
713.1973117414504
 20
620.1789921009187
 40
1
  0
LINE
  5
327
100
AcDbEntity
  8
MODELSKETCH_VISIBLE
  6
ByLayer
 62
  256
370
   -1
100
AcDbLine
 10
748.1947893184248
 20
463.6740145239443
 11
746.1998341644761
 21
465.6689696778931
  0
LINE
  5
328
100
AcDbEntity
  8
MODELSKETCH_VISIBLE
  6
ByLayer
 62
  256
370
   -1
100
AcDbLine
 10
748.1947893184248
 20
586.5020145239444
 11
746.1998341644761
 21
588.496969677893
  0
LINE
  5
329
100
AcDbEntity
  8
MODELSKETCH_VISIBLE
  6
ByLayer
 62
  256
370
   -1
100
AcDbLine
 10
742.1582411093025
 20
432.3824214687708
 11
740.2363823735984
 21
430.4605627330668
  0
CIRCLE
  5
32A
100
AcDbEntity
  8
MODELSKETCH_VISIBLE
  6
ByLayer
 62
  256
370
   -1
100
AcDbCircle
 10
735.1973117414504
 20
597.4994921009187
 40
1
  0
CIRCLE
  5
32B
100
AcDbEntity
  8
MODELSKETCH_VISIBLE
  6
ByLayer
 62
  256
370
   -1
100
AcDbCircle
 10
741.1973117414504
 20
617.4994921009187
 40
1
  0
LINE
  5
32C
100
AcDbEntity
  8
MODELSKETCH_VISIBLE
  6
ByLayer
 62
  256
370
   -1
100
AcDbLine
 10
742.1947893184248
 20
616.5020145239444
 11
740.1998341644761
 21
618.496969677893
  0
CIRCLE
  5
32D
100
AcDbEntity
  8
MODELSKETCH_VISIBLE
  6
ByLayer
 62
  256
370
   -1
100
AcDbCircle
 10
713.1973117414504
 20
344.2789921009186
 40
1
  0
CIRCLE
  5
32E
100
AcDbEntity
  8
MODELSKETCH_VISIBLE
  6
ByLayer
 62
  256
370
   -1
100
AcDbCircle
 10
747.1973117414504
 20
411.4214921009187
 40
1
  0
LINE
  5
32F
100
AcDbEntity
  8
MODELSKETCH_VISIBLE
  6
ByLayer
 62
  256
370
   -1
100
AcDbLine
 10
748.1947893184248
 20
568.496969677893
 11
746.1998341644761
 21
566.5020145239444
  0
CIRCLE
  5
330
100
AcDbEntity
  8
MODELSKETCH_VISIBLE
  6
ByLayer
 62
  256
370
   -1
100
AcDbCircle
 10
735.1973117414504
 20
524.2494921009187
 40
1
  0
LINE
  5
331
100
AcDbEntity
  8
MODELSKETCH_VISIBLE
  6
ByLayer
 62
  256
370
   -1
100
AcDbLine
 10
710.1973117414506
 20
642.5214921009189
 11
716.1973117414503
 21
642.5214921009189
  0
LINE
  5
332
100
AcDbEntity
  8
MODELSKETCH_VISIBLE
  6
ByLayer
 62
  256
370
   -1
100
AcDbLine
 10
736.1947893184248
 20
556.5020145239444
 11
734.1998341644761
 21
558.496969677893
  0
LINE
  5
333
100
AcDbEntity
  8
MODELSKETCH_VISIBLE
  6
ByLayer
 62
  256
370
   -1
100
AcDbLine
 10
686.7213117414506
 20
469.0529921009187
 11
683.6733117414504
 21
466.0049921009187
  0
LINE
  5
334
100
AcDbEntity
  8
MODELSKETCH_VISIBLE
  6
ByLayer
 62
  256
370
   -1
100
AcDbLine
 10
690.0233117414505
 20
335.8029921009187
 11
693.0713117414505
 21
332.7549921009187
  0
LINE
  5
335
100
AcDbEntity
  8
MODELSKETCH_VISIBLE
  6
ByLayer
 62
  256
370
   -1
100
AcDbLine
 10
714.7213117414504
 20
375.8029921009187
 11
711.6733117414504
 21
372.7549921009186
  0
CIRCLE
  5
336
100
AcDbEntity
  8
MODELSKETCH_VISIBLE
  6
ByLayer
 62
  256
370
   -1
100
AcDbCircle
 10
685.1973117414504
 20
374.2789921009187
 40
1
  0
CIRCLE
  5
337
100
AcDbEntity
  8
MODELSKETCH_VISIBLE
  6
ByLayer
 62
  256
370
   -1
100
AcDbCircle
 10
747.1973117414504
 20
494.2494921009193
 40
1
  0
LINE
  5
338
100
AcDbEntity
  8
MODELSKETCH_VISIBLE
  6
ByLayer
 62
  256
370
   -1
100
AcDbLine
 10
663.2973117414505
 20
514.0714921009187
 11
763.0973117414505
 21
514.0714921009187
  0
LINE
  5
339
100
AcDbEntity
  8
MODELSKETCH_VISIBLE
  6
ByLayer
 62
  256
370
   -1
100
AcDbLine
 10
686.7213117414507
 20
631.7029921009189
 11
683.6733117414503
 21
628.6549921009187
  0
CIRCLE
  5
33A
100
AcDbEntity
  8
MODELSKETCH_VISIBLE
  6
ByLayer
 62
  256
370
   -1
100
AcDbCircle
 10
741.1973117414504
 20
411.4214921009187
 40
1
  0
LINE
  5
33B
100
AcDbEntity
  8
MODELSKETCH_VISIBLE
  6
ByLayer
 62
  256
370
   -1
100
AcDbLine
 10
742.1582411093025
 20
370.4605627330666
 11
740.2363823735984
 21
372.3824214687708
  0
CIRCLE
  5
33C
100
AcDbEntity
  8
MODELSKETCH_VISIBLE
  6
ByLayer
 62
  256
370
   -1
100
AcDbCircle
 10
713.1973117414504
 20
394.2789921009186
 40
1
  0
CIRCLE
  5
33D
100
AcDbEntity
  8
MODELSKETCH_VISIBLE
  6
ByLayer
 62
  256
370
   -1
100
AcDbCircle
 10
735.1973117414504
 20
351.5994921009187
 40
1
  0
LINE
  5
33E
100
AcDbEntity
  8
MODELSKETCH_VISIBLE
  6
ByLayer
 62
  256
370
   -1
100
AcDbLine
 10
711.6733117414504
 20
571.7029921009187
 11
714.7213117414506
 21
568.6549921009185
  0
LINE
  5
33F
100
AcDbEntity
  8
MODELSKETCH_VISIBLE
  6
ByLayer
 62
  256
370
   -1
100
AcDbLine
 10
711.6733117414504
 20
621.7029921009187
 11
714.7213117414506
 21
618.6549921009185
  0
LINE
  5
340
100
AcDbEntity
  8
BORDER_FRAME
  6
ByLayer
 62
  256
370
   -1
100
AcDbLine
 10
21
 20
20
 11
21
 21
821
  0
LINE
  5
341
100
AcDbEntity
  8
BORDER_FRAME
  6
ByLayer
 62
  256
370
   -1
100
AcDbLine
 10
21
 20
821
 11
1170
 21
821
  0
LINE
  5
342
100
AcDbEntity
  8
BORDER_FRAME
  6
ByLayer
 62
  256
370
   -1
100
AcDbLine
 10
1170
 20
821
 11
1170
 21
20
  0
LINE
  5
343
100
AcDbEntity
  8
BORDER_FRAME
  6
ByLayer
 62
  256
370
   -1
100
AcDbLine
 10
1170
 20
20
 11
21
 21
20
  0
LINE
  5
344
100
AcDbEntity
  8
BORDER_ZONES
  6
ByLayer
 62
  256
370
   -1
100
AcDbLine
 10
77.5
 20
20
 11
77.5
 21
1
  0
LINE
  5
345
100
AcDbEntity
  8
BORDER_ZONES
  6
ByLayer
 62
  256
370
   -1
100
AcDbLine
 10
77.5
 20
821
 11
77.5
 21
840
  0
MTEXT
  5
346
100
AcDbEntity
  8
BORDER_ZONES
  6
ByLayer
 62
  256
370
   -1
100
AcDbMText
 10
40.5
 20
10
 30
0
 40
6
 41
6.000000000000371
 71
    5
 72
    1
  1
16
  7
ONSHAPE-STANDARD
210
0
220
0
230
1
 50
0
 73
    1
 44
1
  0
MTEXT
  5
347
100
AcDbEntity
  8
BORDER_ZONES
  6
ByLayer
 62
  256
370
   -1
100
AcDbMText
 10
40.5
 20
831
 30
0
 40
6
 41
6.000000000000371
 71
    5
 72
    1
  1
16
  7
ONSHAPE-STANDARD
210
0
220
0
230
1
 50
0
 73
    1
 44
1
  0
MTEXT
  5
348
100
AcDbEntity
  8
BORDER_ZONES
  6
ByLayer
 62
  256
370
   -1
100
AcDbMText
 10
114.5
 20
10
 30
0
 40
6
 41
6.000000000000371
 71
    5
 72
    1
  1
15
  7
ONSHAPE-STANDARD
210
0
220
0
230
1
 50
0
 73
    1
 44
1
  0
MTEXT
  5
349
100
AcDbEntity
  8
BORDER_ZONES
  6
ByLayer
 62
  256
370
   -1
100
AcDbMText
 10
114.5
 20
831
 30
0
 40
6
 41
6.000000000000371
 71
    5
 72
    1
  1
15
  7
ONSHAPE-STANDARD
210
0
220
0
230
1
 50
0
 73
    1
 44
1
  0
LINE
  5
34A
100
AcDbEntity
  8
BORDER_ZONES
  6
ByLayer
 62
  256
370
   -1
100
AcDbLine
 10
151.5
 20
20
 11
151.5
 21
1
  0
LINE
  5
34B
100
AcDbEntity
  8
BORDER_ZONES
  6
ByLayer
 62
  256
370
   -1
100
AcDbLine
 10
151.5
 20
821
 11
151.5
 21
840
  0
MTEXT
  5
34C
100
AcDbEntity
  8
BORDER_ZONES
  6
ByLayer
 62
  256
370
   -1
100
AcDbMText
 10
188.5
 20
10
 30
0
 40
6
 41
6.666666666666666
 71
    5
 72
    1
  1
14
  7
ONSHAPE-STANDARD
210
0
220
0
230
1
 50
0
 73
    1
 44
1
  0
MTEXT
  5
34D
100
AcDbEntity
  8
BORDER_ZONES
  6
ByLayer
 62
  256
370
   -1
100
AcDbMText
 10
188.5
 20
831
 30
0
 40
6
 41
6.666666666666666
 71
    5
 72
    1
  1
14
  7
ONSHAPE-STANDARD
210
0
220
0
230
1
 50
0
 73
    1
 44
1
  0
LINE
  5
34E
100
AcDbEntity
  8
BORDER_ZONES
  6
ByLayer
 62
  256
370
   -1
100
AcDbLine
 10
225.5
 20
20
 11
225.5
 21
1
  0
LINE
  5
34F
100
AcDbEntity
  8
BORDER_ZONES
  6
ByLayer
 62
  256
370
   -1
100
AcDbLine
 10
225.5
 20
821
 11
225.5
 21
840
  0
MTEXT
  5
350
100
AcDbEntity
  8
BORDER_ZONES
  6
ByLayer
 62
  256
370
   -1
100
AcDbMText
 10
262.5
 20
10
 30
0
 40
6
 41
6.000000000000371
 71
    5
 72
    1
  1
13
  7
ONSHAPE-STANDARD
210
0
220
0
230
1
 50
0
 73
    1
 44
1
  0
MTEXT
  5
351
100
AcDbEntity
  8
BORDER_ZONES
  6
ByLayer
 62
  256
370
   -1
100
AcDbMText
 10
262.5
 20
831
 30
0
 40
6
 41
6.000000000000371
 71
    5
 72
    1
  1
13
  7
ONSHAPE-STANDARD
210
0
220
0
230
1
 50
0
 73
    1
 44
1
  0
LINE
  5
352
100
AcDbEntity
  8
BORDER_ZONES
  6
ByLayer
 62
  256
370
   -1
100
AcDbLine
 10
299.5
 20
20
 11
299.5
 21
1
  0
LINE
  5
353
100
AcDbEntity
  8
BORDER_ZONES
  6
ByLayer
 62
  256
370
   -1
100
AcDbLine
 10
299.5
 20
821
 11
299.5
 21
840
  0
MTEXT
  5
354
100
AcDbEntity
  8
BORDER_ZONES
  6
ByLayer
 62
  256
370
   -1
100
AcDbMText
 10
336.5
 20
10
 30
0
 40
6
 41
6
 71
    5
 72
    1
  1
12
  7
ONSHAPE-STANDARD
210
0
220
0
230
1
 50
0
 73
    1
 44
1
  0
MTEXT
  5
355
100
AcDbEntity
  8
BORDER_ZONES
  6
ByLayer
 62
  256
370
   -1
100
AcDbMText
 10
336.5
 20
831
 30
0
 40
6
 41
6
 71
    5
 72
    1
  1
12
  7
ONSHAPE-STANDARD
210
0
220
0
230
1
 50
0
 73
    1
 44
1
  0
LINE
  5
356
100
AcDbEntity
  8
BORDER_ZONES
  6
ByLayer
 62
  256
370
   -1
100
AcDbLine
 10
373.5
 20
20
 11
373.5
 21
1
  0
LINE
  5
357
100
AcDbEntity
  8
BORDER_ZONES
  6
ByLayer
 62
  256
370
   -1
100
AcDbLine
 10
373.5
 20
821
 11
373.5
 21
840
  0
MTEXT
  5
358
100
AcDbEntity
  8
BORDER_ZONES
  6
ByLayer
 62
  256
370
   -1
100
AcDbMText
 10
410.5
 20
10
 30
0
 40
6
 41
4.666666666666666
 71
    5
 72
    1
  1
11
  7
ONSHAPE-STANDARD
210
0
220
0
230
1
 50
0
 73
    1
 44
1
  0
MTEXT
  5
359
100
AcDbEntity
  8
BORDER_ZONES
  6
ByLayer
 62
  256
370
   -1
100
AcDbMText
 10
410.5
 20
831
 30
0
 40
6
 41
4.666666666666666
 71
    5
 72
    1
  1
11
  7
ONSHAPE-STANDARD
210
0
220
0
230
1
 50
0
 73
    1
 44
1
  0
LINE
  5
35A
100
AcDbEntity
  8
BORDER_ZONES
  6
ByLayer
 62
  256
370
   -1
100
AcDbLine
 10
447.5
 20
20
 11
447.5
 21
1
  0
LINE
  5
35B
100
AcDbEntity
  8
BORDER_ZONES
  6
ByLayer
 62
  256
370
   -1
100
AcDbLine
 10
447.5
 20
821
 11
447.5
 21
840
  0
MTEXT
  5
35C
100
AcDbEntity
  8
BORDER_ZONES
  6
ByLayer
 62
  256
370
   -1
100
AcDbMText
 10
484.5
 20
10
 30
0
 40
6
 41
6
 71
    5
 72
    1
  1
10
  7
ONSHAPE-STANDARD
210
0
220
0
230
1
 50
0
 73
    1
 44
1
  0
MTEXT
  5
35D
100
AcDbEntity
  8
BORDER_ZONES
  6
ByLayer
 62
  256
370
   -1
100
AcDbMText
 10
484.5
 20
831
 30
0
 40
6
 41
6
 71
    5
 72
    1
  1
10
  7
ONSHAPE-STANDARD
210
0
220
0
230
1
 50
0
 73
    1
 44
1
  0
LINE
  5
35E
100
AcDbEntity
  8
BORDER_ZONES
  6
ByLayer
 62
  256
370
   -1
100
AcDbLine
 10
521.5
 20
20
 11
521.5
 21
1
  0
LINE
  5
35F
100
AcDbEntity
  8
BORDER_ZONES
  6
ByLayer
 62
  256
370
   -1
100
AcDbLine
 10
521.5
 20
821
 11
521.5
 21
840
  0
MTEXT
  5
360
100
AcDbEntity
  8
BORDER_ZONES
  6
ByLayer
 62
  256
370
   -1
100
AcDbMText
 10
558.5
 20
10
 30
0
 40
6
 41
2.666666666667039
 71
    5
 72
    1
  1
9
  7
ONSHAPE-STANDARD
210
0
220
0
230
1
 50
0
 73
    1
 44
1
  0
MTEXT
  5
361
100
AcDbEntity
  8
BORDER_ZONES
  6
ByLayer
 62
  256
370
   -1
100
AcDbMText
 10
558.5
 20
831
 30
0
 40
6
 41
2.666666666667039
 71
    5
 72
    1
  1
9
  7
ONSHAPE-STANDARD
210
0
220
0
230
1
 50
0
 73
    1
 44
1
  0
LINE
  5
362
100
AcDbEntity
  8
BORDER_ZONES
  6
ByLayer
 62
  256
370
   -1
100
AcDbLine
 10
595.5
 20
20
 11
595.5
 21
1
  0
LINE
  5
363
100
AcDbEntity
  8
BORDER_ZONES
  6
ByLayer
 62
  256
370
   -1
100
AcDbLine
 10
595.5
 20
821
 11
595.5
 21
840
  0
MTEXT
  5
364
100
AcDbEntity
  8
BORDER_ZONES
  6
ByLayer
 62
  256
370
   -1
100
AcDbMText
 10
632.5
 20
10
 30
0
 40
6
 41
2.666666666666667
 71
    5
 72
    1
  1
8
  7
ONSHAPE-STANDARD
210
0
220
0
230
1
 50
0
 73
    1
 44
1
  0
MTEXT
  5
365
100
AcDbEntity
  8
BORDER_ZONES
  6
ByLayer
 62
  256
370
   -1
100
AcDbMText
 10
632.5
 20
831
 30
0
 40
6
 41
2.666666666666667
 71
    5
 72
    1
  1
8
  7
ONSHAPE-STANDARD
210
0
220
0
230
1
 50
0
 73
    1
 44
1
  0
LINE
  5
366
100
AcDbEntity
  8
BORDER_ZONES
  6
ByLayer
 62
  256
370
   -1
100
AcDbLine
 10
669.5
 20
20
 11
669.5
 21
1
  0
LINE
  5
367
100
AcDbEntity
  8
BORDER_ZONES
  6
ByLayer
 62
  256
370
   -1
100
AcDbLine
 10
669.5
 20
821
 11
669.5
 21
840
  0
MTEXT
  5
368
100
AcDbEntity
  8
BORDER_ZONES
  6
ByLayer
 62
  256
370
   -1
100
AcDbMText
 10
706.5
 20
10
 30
0
 40
6
 41
2.666666666666667
 71
    5
 72
    1
  1
7
  7
ONSHAPE-STANDARD
210
0
220
0
230
1
 50
0
 73
    1
 44
1
  0
MTEXT
  5
369
100
AcDbEntity
  8
BORDER_ZONES
  6
ByLayer
 62
  256
370
   -1
100
AcDbMText
 10
706.5
 20
831
 30
0
 40
6
 41
2.666666666666667
 71
    5
 72
    1
  1
7
  7
ONSHAPE-STANDARD
210
0
220
0
230
1
 50
0
 73
    1
 44
1
  0
LINE
  5
36A
100
AcDbEntity
  8
BORDER_ZONES
  6
ByLayer
 62
  256
370
   -1
100
AcDbLine
 10
743.5
 20
20
 11
743.5
 21
1
  0
LINE
  5
36B
100
AcDbEntity
  8
BORDER_ZONES
  6
ByLayer
 62
  256
370
   -1
100
AcDbLine
 10
743.5
 20
821
 11
743.5
 21
840
  0
MTEXT
  5
36C
100
AcDbEntity
  8
BORDER_ZONES
  6
ByLayer
 62
  256
370
   -1
100
AcDbMText
 10
780.5
 20
10
 30
0
 40
6
 41
2.666666666667039
 71
    5
 72
    1
  1
6
  7
ONSHAPE-STANDARD
210
0
220
0
230
1
 50
0
 73
    1
 44
1
  0
MTEXT
  5
36D
100
AcDbEntity
  8
BORDER_ZONES
  6
ByLayer
 62
  256
370
   -1
100
AcDbMText
 10
780.5
 20
831
 30
0
 40
6
 41
2.666666666667039
 71
    5
 72
    1
  1
6
  7
ONSHAPE-STANDARD
210
0
220
0
230
1
 50
0
 73
    1
 44
1
  0
LINE
  5
36E
100
AcDbEntity
  8
BORDER_ZONES
  6
ByLayer
 62
  256
370
   -1
100
AcDbLine
 10
817.5
 20
20
 11
817.5
 21
1
  0
LINE
  5
36F
100
AcDbEntity
  8
BORDER_ZONES
  6
ByLayer
 62
  256
370
   -1
100
AcDbLine
 10
817.5
 20
821
 11
817.5
 21
840
  0
MTEXT
  5
370
100
AcDbEntity
  8
BORDER_ZONES
  6
ByLayer
 62
  256
370
   -1
100
AcDbMText
 10
854.5
 20
10
 30
0
 40
6
 41
2.666666666667039
 71
    5
 72
    1
  1
5
  7
ONSHAPE-STANDARD
210
0
220
0
230
1
 50
0
 73
    1
 44
1
  0
MTEXT
  5
371
100
AcDbEntity
  8
BORDER_ZONES
  6
ByLayer
 62
  256
370
   -1
100
AcDbMText
 10
854.5
 20
831
 30
0
 40
6
 41
2.666666666667039
 71
    5
 72
    1
  1
5
  7
ONSHAPE-STANDARD
210
0
220
0
230
1
 50
0
 73
    1
 44
1
  0
LINE
  5
372
100
AcDbEntity
  8
BORDER_ZONES
  6
ByLayer
 62
  256
370
   -1
100
AcDbLine
 10
891.5
 20
20
 11
891.5
 21
1
  0
LINE
  5
373
100
AcDbEntity
  8
BORDER_ZONES
  6
ByLayer
 62
  256
370
   -1
100
AcDbLine
 10
891.5
 20
821
 11
891.5
 21
840
  0
MTEXT
  5
374
100
AcDbEntity
  8
BORDER_ZONES
  6
ByLayer
 62
  256
370
   -1
100
AcDbMText
 10
928.5
 20
10
 30
0
 40
6
 41
3.333333333333333
 71
    5
 72
    1
  1
4
  7
ONSHAPE-STANDARD
210
0
220
0
230
1
 50
0
 73
    1
 44
1
  0
MTEXT
  5
375
100
AcDbEntity
  8
BORDER_ZONES
  6
ByLayer
 62
  256
370
   -1
100
AcDbMText
 10
928.5
 20
831
 30
0
 40
6
 41
3.333333333333333
 71
    5
 72
    1
  1
4
  7
ONSHAPE-STANDARD
210
0
220
0
230
1
 50
0
 73
    1
 44
1
  0
LINE
  5
376
100
AcDbEntity
  8
BORDER_ZONES
  6
ByLayer
 62
  256
370
   -1
100
AcDbLine
 10
965.5
 20
20
 11
965.5
 21
1
  0
LINE
  5
377
100
AcDbEntity
  8
BORDER_ZONES
  6
ByLayer
 62
  256
370
   -1
100
AcDbLine
 10
965.5
 20
821
 11
965.5
 21
840
  0
MTEXT
  5
378
100
AcDbEntity
  8
BORDER_ZONES
  6
ByLayer
 62
  256
370
   -1
100
AcDbMText
 10
1002.5
 20
10
 30
0
 40
6
 41
2.666666666667039
 71
    5
 72
    1
  1
3
  7
ONSHAPE-STANDARD
210
0
220
0
230
1
 50
0
 73
    1
 44
1
  0
MTEXT
  5
379
100
AcDbEntity
  8
BORDER_ZONES
  6
ByLayer
 62
  256
370
   -1
100
AcDbMText
 10
1002.5
 20
831
 30
0
 40
6
 41
2.666666666667039
 71
    5
 72
    1
  1
3
  7
ONSHAPE-STANDARD
210
0
220
0
230
1
 50
0
 73
    1
 44
1
  0
LINE
  5
37A
100
AcDbEntity
  8
BORDER_ZONES
  6
ByLayer
 62
  256
370
   -1
100
AcDbLine
 10
1039.5
 20
20
 11
1039.5
 21
1
  0
LINE
  5
37B
100
AcDbEntity
  8
BORDER_ZONES
  6
ByLayer
 62
  256
370
   -1
100
AcDbLine
 10
1039.5
 20
821
 11
1039.5
 21
840
  0
MTEXT
  5
37C
100
AcDbEntity
  8
BORDER_ZONES
  6
ByLayer
 62
  256
370
   -1
100
AcDbMText
 10
1076.5
 20
10
 30
0
 40
6
 41
2.666666666666667
 71
    5
 72
    1
  1
2
  7
ONSHAPE-STANDARD
210
0
220
0
230
1
 50
0
 73
    1
 44
1
  0
MTEXT
  5
37D
100
AcDbEntity
  8
BORDER_ZONES
  6
ByLayer
 62
  256
370
   -1
100
AcDbMText
 10
1076.5
 20
831
 30
0
 40
6
 41
2.666666666666667
 71
    5
 72
    1
  1
2
  7
ONSHAPE-STANDARD
210
0
220
0
230
1
 50
0
 73
    1
 44
1
  0
LINE
  5
37E
100
AcDbEntity
  8
BORDER_ZONES
  6
ByLayer
 62
  256
370
   -1
100
AcDbLine
 10
1113.5
 20
20
 11
1113.5
 21
1
  0
LINE
  5
37F
100
AcDbEntity
  8
BORDER_ZONES
  6
ByLayer
 62
  256
370
   -1
100
AcDbLine
 10
1113.5
 20
821
 11
1113.5
 21
840
  0
MTEXT
  5
380
100
AcDbEntity
  8
BORDER_ZONES
  6
ByLayer
 62
  256
370
   -1
100
AcDbMText
 10
1150.5
 20
10
 30
0
 40
6
 41
1.333333333333333
 71
    5
 72
    1
  1
1
  7
ONSHAPE-STANDARD
210
0
220
0
230
1
 50
0
 73
    1
 44
1
  0
MTEXT
  5
381
100
AcDbEntity
  8
BORDER_ZONES
  6
ByLayer
 62
  256
370
   -1
100
AcDbMText
 10
1150.5
 20
831
 30
0
 40
6
 41
1.333333333333333
 71
    5
 72
    1
  1
1
  7
ONSHAPE-STANDARD
210
0
220
0
230
1
 50
0
 73
    1
 44
1
  0
LINE
  5
382
100
AcDbEntity
  8
BORDER_ZONES
  6
ByLayer
 62
  256
370
   -1
100
AcDbLine
 10
21
 20
70.5
 11
2
 21
70.5
  0
LINE
  5
383
100
AcDbEntity
  8
BORDER_ZONES
  6
ByLayer
 62
  256
370
   -1
100
AcDbLine
 10
1170
 20
70.5
 11
1189
 21
70.5
  0
MTEXT
  5
384
100
AcDbEntity
  8
BORDER_ZONES
  6
ByLayer
 62
  256
370
   -1
100
AcDbMText
 10
11
 20
35.5
 30
0
 40
6
 41
4
 71
    5
 72
    1
  1
A
  7
ONSHAPE-STANDARD
210
0
220
0
230
1
 50
0
 73
    1
 44
1
  0
MTEXT
  5
385
100
AcDbEntity
  8
BORDER_ZONES
  6
ByLayer
 62
  256
370
   -1
100
AcDbMText
 10
1180
 20
35.5
 30
0
 40
6
 41
4
 71
    5
 72
    1
  1
A
  7
ONSHAPE-STANDARD
210
0
220
0
230
1
 50
0
 73
    1
 44
1
  0
MTEXT
  5
386
100
AcDbEntity
  8
BORDER_ZONES
  6
ByLayer
 62
  256
370
   -1
100
AcDbMText
 10
11
 20
105.5
 30
0
 40
6
 41
3.333333333333333
 71
    5
 72
    1
  1
B
  7
ONSHAPE-STANDARD
210
0
220
0
230
1
 50
0
 73
    1
 44
1
  0
MTEXT
  5
387
100
AcDbEntity
  8
BORDER_ZONES
  6
ByLayer
 62
  256
370
   -1
100
AcDbMText
 10
1180
 20
105.5
 30
0
 40
6
 41
3.333333333333333
 71
    5
 72
    1
  1
B
  7
ONSHAPE-STANDARD
210
0
220
0
230
1
 50
0
 73
    1
 44
1
  0
LINE
  5
388
100
AcDbEntity
  8
BORDER_ZONES
  6
ByLayer
 62
  256
370
   -1
100
AcDbLine
 10
21
 20
140.5
 11
2
 21
140.5
  0
LINE
  5
389
100
AcDbEntity
  8
BORDER_ZONES
  6
ByLayer
 62
  256
370
   -1
100
AcDbLine
 10
1170
 20
140.5
 11
1189
 21
140.5
  0
MTEXT
  5
38A
100
AcDbEntity
  8
BORDER_ZONES
  6
ByLayer
 62
  256
370
   -1
100
AcDbMText
 10
11
 20
175.5
 30
0
 40
6
 41
2.666666666667039
 71
    5
 72
    1
  1
C
  7
ONSHAPE-STANDARD
210
0
220
0
230
1
 50
0
 73
    1
 44
1
  0
MTEXT
  5
38B
100
AcDbEntity
  8
BORDER_ZONES
  6
ByLayer
 62
  256
370
   -1
100
AcDbMText
 10
1180
 20
175.5
 30
0
 40
6
 41
2.666666666667039
 71
    5
 72
    1
  1
C
  7
ONSHAPE-STANDARD
210
0
220
0
230
1
 50
0
 73
    1
 44
1
  0
LINE
  5
38C
100
AcDbEntity
  8
BORDER_ZONES
  6
ByLayer
 62
  256
370
   -1
100
AcDbLine
 10
21
 20
210.5
 11
2
 21
210.5
  0
LINE
  5
38D
100
AcDbEntity
  8
BORDER_ZONES
  6
ByLayer
 62
  256
370
   -1
100
AcDbLine
 10
1170
 20
210.5
 11
1189
 21
210.5
  0
MTEXT
  5
38E
100
AcDbEntity
  8
BORDER_ZONES
  6
ByLayer
 62
  256
370
   -1
100
AcDbMText
 10
11
 20
245.5
 30
0
 40
6
 41
3.333333333333705
 71
    5
 72
    1
  1
D
  7
ONSHAPE-STANDARD
210
0
220
0
230
1
 50
0
 73
    1
 44
1
  0
MTEXT
  5
38F
100
AcDbEntity
  8
BORDER_ZONES
  6
ByLayer
 62
  256
370
   -1
100
AcDbMText
 10
1180
 20
245.5
 30
0
 40
6
 41
3.333333333333705
 71
    5
 72
    1
  1
D
  7
ONSHAPE-STANDARD
210
0
220
0
230
1
 50
0
 73
    1
 44
1
  0
LINE
  5
390
100
AcDbEntity
  8
BORDER_ZONES
  6
ByLayer
 62
  256
370
   -1
100
AcDbLine
 10
21
 20
280.5
 11
2
 21
280.5
  0
LINE
  5
391
100
AcDbEntity
  8
BORDER_ZONES
  6
ByLayer
 62
  256
370
   -1
100
AcDbLine
 10
1170
 20
280.5
 11
1189
 21
280.5
  0
MTEXT
  5
392
100
AcDbEntity
  8
BORDER_ZONES
  6
ByLayer
 62
  256
370
   -1
100
AcDbMText
 10
11
 20
315.5
 30
0
 40
6
 41
2.666666666666667
 71
    5
 72
    1
  1
E
  7
ONSHAPE-STANDARD
210
0
220
0
230
1
 50
0
 73
    1
 44
1
  0
MTEXT
  5
393
100
AcDbEntity
  8
BORDER_ZONES
  6
ByLayer
 62
  256
370
   -1
100
AcDbMText
 10
1180
 20
315.5
 30
0
 40
6
 41
2.666666666666667
 71
    5
 72
    1
  1
E
  7
ONSHAPE-STANDARD
210
0
220
0
230
1
 50
0
 73
    1
 44
1
  0
LINE
  5
394
100
AcDbEntity
  8
BORDER_ZONES
  6
ByLayer
 62
  256
370
   -1
100
AcDbLine
 10
21
 20
350.5
 11
2
 21
350.5
  0
LINE
  5
395
100
AcDbEntity
  8
BORDER_ZONES
  6
ByLayer
 62
  256
370
   -1
100
AcDbLine
 10
1170
 20
350.5
 11
1189
 21
350.5
  0
MTEXT
  5
396
100
AcDbEntity
  8
BORDER_ZONES
  6
ByLayer
 62
  256
370
   -1
100
AcDbMText
 10
11
 20
385.5
 30
0
 40
6
 41
2.666666666666667
 71
    5
 72
    1
  1
F
  7
ONSHAPE-STANDARD
210
0
220
0
230
1
 50
0
 73
    1
 44
1
  0
MTEXT
  5
397
100
AcDbEntity
  8
BORDER_ZONES
  6
ByLayer
 62
  256
370
   -1
100
AcDbMText
 10
1180
 20
385.5
 30
0
 40
6
 41
2.666666666666667
 71
    5
 72
    1
  1
F
  7
ONSHAPE-STANDARD
210
0
220
0
230
1
 50
0
 73
    1
 44
1
  0
LINE
  5
398
100
AcDbEntity
  8
BORDER_ZONES
  6
ByLayer
 62
  256
370
   -1
100
AcDbLine
 10
21
 20
420.5
 11
2
 21
420.5
  0
LINE
  5
399
100
AcDbEntity
  8
BORDER_ZONES
  6
ByLayer
 62
  256
370
   -1
100
AcDbLine
 10
1170
 20
420.5
 11
1189
 21
420.5
  0
MTEXT
  5
39A
100
AcDbEntity
  8
BORDER_ZONES
  6
ByLayer
 62
  256
370
   -1
100
AcDbMText
 10
11
 20
455.5
 30
0
 40
6
 41
3.333333333333705
 71
    5
 72
    1
  1
G
  7
ONSHAPE-STANDARD
210
0
220
0
230
1
 50
0
 73
    1
 44
1
  0
MTEXT
  5
39B
100
AcDbEntity
  8
BORDER_ZONES
  6
ByLayer
 62
  256
370
   -1
100
AcDbMText
 10
1180
 20
455.5
 30
0
 40
6
 41
3.333333333333705
 71
    5
 72
    1
  1
G
  7
ONSHAPE-STANDARD
210
0
220
0
230
1
 50
0
 73
    1
 44
1
  0
LINE
  5
39C
100
AcDbEntity
  8
BORDER_ZONES
  6
ByLayer
 62
  256
370
   -1
100
AcDbLine
 10
21
 20
490.5
 11
2
 21
490.5
  0
LINE
  5
39D
100
AcDbEntity
  8
BORDER_ZONES
  6
ByLayer
 62
  256
370
   -1
100
AcDbLine
 10
1170
 20
490.5
 11
1189
 21
490.5
  0
MTEXT
  5
39E
100
AcDbEntity
  8
BORDER_ZONES
  6
ByLayer
 62
  256
370
   -1
100
AcDbMText
 10
11
 20
525.5
 30
0
 40
6
 41
3.333333333333333
 71
    5
 72
    1
  1
H
  7
ONSHAPE-STANDARD
210
0
220
0
230
1
 50
0
 73
    1
 44
1
  0
MTEXT
  5
39F
100
AcDbEntity
  8
BORDER_ZONES
  6
ByLayer
 62
  256
370
   -1
100
AcDbMText
 10
1180
 20
525.5
 30
0
 40
6
 41
3.333333333333333
 71
    5
 72
    1
  1
H
  7
ONSHAPE-STANDARD
210
0
220
0
230
1
 50
0
 73
    1
 44
1
  0
LINE
  5
3A0
100
AcDbEntity
  8
BORDER_ZONES
  6
ByLayer
 62
  256
370
   -1
100
AcDbLine
 10
21
 20
560.5
 11
2
 21
560.5
  0
LINE
  5
3A1
100
AcDbEntity
  8
BORDER_ZONES
  6
ByLayer
 62
  256
370
   -1
100
AcDbLine
 10
1170
 20
560.5
 11
1189
 21
560.5
  0
MTEXT
  5
3A2
100
AcDbEntity
  8
BORDER_ZONES
  6
ByLayer
 62
  256
370
   -1
100
AcDbMText
 10
11
 20
595.5
 30
0
 40
6
 41
0
 71
    5
 72
    1
  1
I
  7
ONSHAPE-STANDARD
210
0
220
0
230
1
 50
0
 73
    1
 44
1
  0
MTEXT
  5
3A3
100
AcDbEntity
  8
BORDER_ZONES
  6
ByLayer
 62
  256
370
   -1
100
AcDbMText
 10
1180
 20
595.5
 30
0
 40
6
 41
0
 71
    5
 72
    1
  1
I
  7
ONSHAPE-STANDARD
210
0
220
0
230
1
 50
0
 73
    1
 44
1
  0
LINE
  5
3A4
100
AcDbEntity
  8
BORDER_ZONES
  6
ByLayer
 62
  256
370
   -1
100
AcDbLine
 10
21
 20
630.5
 11
2
 21
630.5
  0
LINE
  5
3A5
100
AcDbEntity
  8
BORDER_ZONES
  6
ByLayer
 62
  256
370
   -1
100
AcDbLine
 10
1170
 20
630.5
 11
1189
 21
630.5
  0
MTEXT
  5
3A6
100
AcDbEntity
  8
BORDER_ZONES
  6
ByLayer
 62
  256
370
   -1
100
AcDbMText
 10
11
 20
665.5
 30
0
 40
6
 41
2.000000000000372
 71
    5
 72
    1
  1
J
  7
ONSHAPE-STANDARD
210
0
220
0
230
1
 50
0
 73
    1
 44
1
  0
MTEXT
  5
3A7
100
AcDbEntity
  8
BORDER_ZONES
  6
ByLayer
 62
  256
370
   -1
100
AcDbMText
 10
1180
 20
665.5
 30
0
 40
6
 41
2.000000000000372
 71
    5
 72
    1
  1
J
  7
ONSHAPE-STANDARD
210
0
220
0
230
1
 50
0
 73
    1
 44
1
  0
LINE
  5
3A8
100
AcDbEntity
  8
BORDER_ZONES
  6
ByLayer
 62
  256
370
   -1
100
AcDbLine
 10
21
 20
700.5
 11
2
 21
700.5
  0
LINE
  5
3A9
100
AcDbEntity
  8
BORDER_ZONES
  6
ByLayer
 62
  256
370
   -1
100
AcDbLine
 10
1170
 20
700.5
 11
1189
 21
700.5
  0
MTEXT
  5
3AA
100
AcDbEntity
  8
BORDER_ZONES
  6
ByLayer
 62
  256
370
   -1
100
AcDbMText
 10
11
 20
735.5
 30
0
 40
6
 41
3.333333333333333
 71
    5
 72
    1
  1
K
  7
ONSHAPE-STANDARD
210
0
220
0
230
1
 50
0
 73
    1
 44
1
  0
MTEXT
  5
3AB
100
AcDbEntity
  8
BORDER_ZONES
  6
ByLayer
 62
  256
370
   -1
100
AcDbMText
 10
1180
 20
735.5
 30
0
 40
6
 41
3.333333333333333
 71
    5
 72
    1
  1
K
  7
ONSHAPE-STANDARD
210
0
220
0
230
1
 50
0
 73
    1
 44
1
  0
LINE
  5
3AC
100
AcDbEntity
  8
BORDER_ZONES
  6
ByLayer
 62
  256
370
   -1
100
AcDbLine
 10
21
 20
770.5
 11
2
 21
770.5
  0
LINE
  5
3AD
100
AcDbEntity
  8
BORDER_ZONES
  6
ByLayer
 62
  256
370
   -1
100
AcDbLine
 10
1170
 20
770.5
 11
1189
 21
770.5
  0
MTEXT
  5
3AE
100
AcDbEntity
  8
BORDER_ZONES
  6
ByLayer
 62
  256
370
   -1
100
AcDbMText
 10
11
 20
805.5
 30
0
 40
6
 41
2.666666666666667
 71
    5
 72
    1
  1
L
  7
ONSHAPE-STANDARD
210
0
220
0
230
1
 50
0
 73
    1
 44
1
  0
MTEXT
  5
3AF
100
AcDbEntity
  8
BORDER_ZONES
  6
ByLayer
 62
  256
370
   -1
100
AcDbMText
 10
1180
 20
805.5
 30
0
 40
6
 41
2.666666666666667
 71
    5
 72
    1
  1
L
  7
ONSHAPE-STANDARD
210
0
220
0
230
1
 50
0
 73
    1
 44
1
  0
LINE
  5
3B0
100
AcDbEntity
  8
TITLE_BLOCK
  6
ByLayer
 62
  256
370
   -1
100
AcDbLine
 10
900.125
 20
20
 11
900.125
 21
83.5
  0
LINE
  5
3B1
100
AcDbEntity
  8
TITLE_BLOCK
  6
ByLayer
 62
  256
370
   -1
100
AcDbLine
 10
900.125
 20
20
 11
950.925
 21
20
  0
LINE
  5
3B2
100
AcDbEntity
  8
TITLE_BLOCK
  6
ByLayer
 62
  256
370
   -1
100
AcDbLine
 10
900.125
 20
32.7
 11
950.925
 21
32.7
  0
LINE
  5
3B3
100
AcDbEntity
  8
TITLE_BLOCK
  6
ByLayer
 62
  256
370
   -1
100
AcDbLine
 10
900.125
 20
37.78
 11
950.925
 21
37.78
  0
LINE
  5
3B4
100
AcDbEntity
  8
TITLE_BLOCK
  6
ByLayer
 62
  256
370
   -1
100
AcDbLine
 10
900.125
 20
46.416
 11
950.925
 21
46.416
  0
LINE
  5
3B5
100
AcDbEntity
  8
TITLE_BLOCK
  6
ByLayer
 62
  256
370
   -1
100
AcDbLine
 10
900.125
 20
53.782
 11
950.925
 21
53.782
  0
LINE
  5
3B6
100
AcDbEntity
  8
TITLE_BLOCK
  6
ByLayer
 62
  256
370
   -1
100
AcDbLine
 10
900.125
 20
83.5
 11
950.925
 21
83.5
  0
MTEXT
  5
3B7
100
AcDbEntity
  8
TITLE_BLOCK
  6
ByLayer
 62
  256
370
   -1
100
AcDbMText
 10
901.2426
 20
81.6712
 30
0
 40
2.032
 41
88.95644142892613
 71
    1
 72
    1
  1
UNLESS OTHERWISE SPECIFIED, DIMENSIONS ARE IN MILLIMETERS
  7
ONSHAPE-STANDARD
210
0
220
0
230
1
 50
0
 73
    1
 44
1
  0
MTEXT
  5
3B8
100
AcDbEntity
  8
TITLE_BLOCK
  6
ByLayer
 62
  256
370
   -1
100
AcDbMText
 10
926.53084
 20
74.23407999999999
 30
0
 40
1.8288
 41
24.02840000000023
 71
    1
 72
    1
  1
^JANGULAR = %%P %%D^J
  7
ONSHAPE-STANDARD
210
0
220
0
230
1
 50
0
 73
    1
 44
1
  0
MTEXT
  5
3B9
100
AcDbEntity
  8
TITLE_BLOCK
  6
ByLayer
 62
  256
370
   -1
100
AcDbMText
 10
901.2426
 20
61.85919999999999
 30
0
 40
2.032
 41
21.39244358286771
 71
    1
 72
    1
  1
SURFACE FINISH
  7
ONSHAPE-STANDARD
210
0
220
0
230
1
 50
0
 73
    1
 44
1
  0
LINE
  5
3BA
100
AcDbEntity
  8
TITLE_BLOCK
  6
ByLayer
 62
  256
370
   -1
100
AcDbLine
 10
922.985
 20
58.86199999999999
 11
924.255
 21
56.66229547438752
  0
LINE
  5
3BB
100
AcDbEntity
  8
TITLE_BLOCK
  6
ByLayer
 62
  256
370
   -1
100
AcDbLine
 10
924.255
 20
56.66229547438752
 11
926.922
 21
61.28167497817371
  0
LINE
  5
3BC
100
AcDbEntity
  8
TITLE_BLOCK
  6
ByLayer
 62
  256
370
   -1
100
AcDbLine
 10
926.922
 20
61.28167497817371
 11
929.716
 21
61.28167497817371
  0
MTEXT
  5
3BD
100
AcDbEntity
  8
TITLE_BLOCK
  6
ByLayer
 62
  256
370
   -1
100
AcDbMText
 10
925.525
 20
51.40456
 30
0
 40
2.6416
 41
44.10004388441989
 71
    2
 72
    1
  1
DO NOT SCALE DRAWING
  7
ONSHAPE-STANDARD
210
0
220
0
230
1
 50
0
 73
    1
 44
1
  0
MTEXT
  5
3BE
100
AcDbEntity
  8
TITLE_BLOCK
  6
ByLayer
 62
  256
370
   -1
100
AcDbMText
 10
925.525
 20
44.5872
 30
0
 40
2.032
 41
66.03999870763514
 71
    2
 72
    1
  1
BREAK ALL SHARP EDGES AND REMOVE BURRS
  7
ONSHAPE-STANDARD
210
0
220
0
230
1
 50
0
 73
    1
 44
1
  0
CIRCLE
  5
3BF
100
AcDbEntity
  8
TITLE_BLOCK
  6
ByLayer
 62
  256
370
   -1
100
AcDbCircle
 10
931.24
 20
26.29920000000001
 40
2.286
  0
CIRCLE
  5
3C0
100
AcDbEntity
  8
TITLE_BLOCK
  6
ByLayer
 62
  256
370
   -1
100
AcDbCircle
 10
931.24
 20
26.29920000000001
 40
4.571999999999999
  0
LINE
  5
3C1
100
AcDbEntity
  8
TITLE_BLOCK
  6
ByLayer
 62
  256
370
   -1
100
AcDbLine
 10
932.383
 20
26.29920000000001
 11
930.097
 21
26.29920000000001
  0
LINE
  5
3C2
100
AcDbEntity
  8
TITLE_BLOCK
  6
ByLayer
 62
  256
370
   -1
100
AcDbLine
 10
931.24
 20
27.44220000000001
 11
931.24
 21
25.15620000000001
  0
LINE
  5
3C3
100
AcDbEntity
  8
TITLE_BLOCK
  6
ByLayer
 62
  256
370
   -1
100
AcDbLine
 10
933.526
 20
26.29920000000001
 11
936.955
 21
26.29920000000001
  0
LINE
  5
3C4
100
AcDbEntity
  8
TITLE_BLOCK
  6
ByLayer
 62
  256
370
   -1
100
AcDbLine
 10
931.24
 20
28.58520000000001
 11
931.24
 21
32.0142
  0
LINE
  5
3C5
100
AcDbEntity
  8
TITLE_BLOCK
  6
ByLayer
 62
  256
370
   -1
100
AcDbLine
 10
928.9540000000001
 20
26.29920000000001
 11
925.525
 21
26.29920000000001
  0
LINE
  5
3C6
100
AcDbEntity
  8
TITLE_BLOCK
  6
ByLayer
 62
  256
370
   -1
100
AcDbLine
 10
931.24
 20
24.0132
 11
931.24
 21
20.58420000000001
  0
LINE
  5
3C7
100
AcDbEntity
  8
TITLE_BLOCK
  6
ByLayer
 62
  256
370
   -1
100
AcDbLine
 10
924.3819999999999
 20
21.72720000000001
 11
924.3819999999999
 21
30.87120000000001
  0
LINE
  5
3C8
100
AcDbEntity
  8
TITLE_BLOCK
  6
ByLayer
 62
  256
370
   -1
100
AcDbLine
 10
924.3819999999999
 20
30.87120000000001
 11
915.2379999999999
 21
28.58520000000001
  0
LINE
  5
3C9
100
AcDbEntity
  8
TITLE_BLOCK
  6
ByLayer
 62
  256
370
   -1
100
AcDbLine
 10
915.2379999999999
 20
28.58520000000001
 11
915.2379999999999
 21
24.0132
  0
LINE
  5
3CA
100
AcDbEntity
  8
TITLE_BLOCK
  6
ByLayer
 62
  256
370
   -1
100
AcDbLine
 10
915.2379999999999
 20
24.0132
 11
924.3819999999999
 21
21.72720000000001
  0
LINE
  5
3CB
100
AcDbEntity
  8
TITLE_BLOCK
  6
ByLayer
 62
  256
370
   -1
100
AcDbLine
 10
920.953
 20
26.29920000000001
 11
924.9535
 21
26.29920000000001
  0
LINE
  5
3CC
100
AcDbEntity
  8
TITLE_BLOCK
  6
ByLayer
 62
  256
370
   -1
100
AcDbLine
 10
920.2671999999999
 20
26.29920000000001
 11
919.3528
 21
26.29920000000001
  0
LINE
  5
3CD
100
AcDbEntity
  8
TITLE_BLOCK
  6
ByLayer
 62
  256
370
   -1
100
AcDbLine
 10
918.6669999999999
 20
26.29920000000001
 11
914.6664999999999
 21
26.29920000000001
  0
MTEXT
  5
3CE
100
AcDbEntity
  8
TITLE_BLOCK
  6
ByLayer
 62
  256
370
   -1
100
AcDbMText
 10
925.525
 20
35.9512
 30
0
 40
2.032
 41
34.88266623587842
 71
    2
 72
    1
  1
FIRST ANGLE PROJECTION
  7
ONSHAPE-STANDARD
210
0
220
0
230
1
 50
0
 73
    1
 44
1
  0
LINE
  5
3CF
100
AcDbEntity
  8
TITLE_BLOCK
  6
ByLayer
 62
  256
370
   -1
100
AcDbLine
 10
950.925
 20
20
 11
950.925
 21
83.5
  0
LINE
  5
3D0
100
AcDbEntity
  8
TITLE_BLOCK
  6
ByLayer
 62
  256
370
   -1
100
AcDbLine
 10
973.15
 20
37.78
 11
973.15
 21
83.5
  0
LINE
  5
3D1
100
AcDbEntity
  8
TITLE_BLOCK
  6
ByLayer
 62
  256
370
   -1
100
AcDbLine
 10
998.55
 20
37.78
 11
998.55
 21
83.5
  0
LINE
  5
3D2
100
AcDbEntity
  8
TITLE_BLOCK
  6
ByLayer
 62
  256
370
   -1
100
AcDbLine
 10
995.375
 20
20
 11
995.375
 21
37.78
  0
MTEXT
  5
3D3
100
AcDbEntity
  8
TITLE_BLOCK
  6
ByLayer
 62
  256
370
   -1
100
AcDbMText
 10
1011.25
 20
81.6712
 30
0
 40
2.032
 41
14.44977734698941
 71
    2
 72
    1
  1
SIGNATURE
  7
ONSHAPE-STANDARD
210
0
220
0
230
1
 50
0
 73
    1
 44
1
  0
LINE
  5
3D4
100
AcDbEntity
  8
TITLE_BLOCK
  6
ByLayer
 62
  256
370
   -1
100
AcDbLine
 10
1023.95
 20
37.78
 11
1023.95
 21
83.5
  0
LINE
  5
3D5
100
AcDbEntity
  8
TITLE_BLOCK
  6
ByLayer
 62
  256
370
   -1
100
AcDbLine
 10
950.925
 20
83.5
 11
1039.825
 21
83.5
  0
LINE
  5
3D6
100
AcDbEntity
  8
TITLE_BLOCK
  6
ByLayer
 62
  256
370
   -1
100
AcDbLine
 10
950.925
 20
75.88
 11
1039.825
 21
75.88
  0
LINE
  5
3D7
100
AcDbEntity
  8
TITLE_BLOCK
  6
ByLayer
 62
  256
370
   -1
100
AcDbLine
 10
950.925
 20
68.25999999999999
 11
1039.825
 21
68.25999999999999
  0
LINE
  5
3D8
100
AcDbEntity
  8
TITLE_BLOCK
  6
ByLayer
 62
  256
370
   -1
100
AcDbLine
 10
950.925
 20
60.64
 11
1039.825
 21
60.64
  0
LINE
  5
3D9
100
AcDbEntity
  8
TITLE_BLOCK
  6
ByLayer
 62
  256
370
   -1
100
AcDbLine
 10
950.925
 20
53.02
 11
1039.825
 21
53.02
  0
LINE
  5
3DA
100
AcDbEntity
  8
TITLE_BLOCK
  6
ByLayer
 62
  256
370
   -1
100
AcDbLine
 10
950.925
 20
45.4
 11
1039.825
 21
45.4
  0
LINE
  5
3DB
100
AcDbEntity
  8
TITLE_BLOCK
  6
ByLayer
 62
  256
370
   -1
100
AcDbLine
 10
950.925
 20
37.78
 11
1039.825
 21
37.78
  0
MTEXT
  5
3DC
100
AcDbEntity
  8
TITLE_BLOCK
  6
ByLayer
 62
  256
370
   -1
100
AcDbMText
 10
974.2676
 20
81.6712
 30
0
 40
2.032
 41
6.773333333333333
 71
    1
 72
    1
  1
NAME
  7
ONSHAPE-STANDARD
210
0
220
0
230
1
 50
0
 73
    1
 44
1
  0
MTEXT
  5
3DD
100
AcDbEntity
  8
TITLE_BLOCK
  6
ByLayer
 62
  256
370
   -1
100
AcDbMText
 10
1031.8875
 20
81.6712
 30
0
 40
2.032
 41
6.547555555555681
 71
    2
 72
    1
  1
DATE
  7
ONSHAPE-STANDARD
210
0
220
0
230
1
 50
0
 73
    1
 44
1
  0
MTEXT
  5
3DE
100
AcDbEntity
  8
TITLE_BLOCK
  6
ByLayer
 62
  256
370
   -1
100
AcDbMText
 10
952.0426
 20
74.05119999999999
 30
0
 40
2.032
 41
9.256888888889014
 71
    1
 72
    1
  1
DRAWN
  7
ONSHAPE-STANDARD
210
0
220
0
230
1
 50
0
 73
    1
 44
1
  0
MTEXT
  5
3DF
100
AcDbEntity
  8
TITLE_BLOCK
  6
ByLayer
 62
  256
370
   -1
100
AcDbMText
 10
985.8499999999999
 20
72.06999999999999
 30
0
 40
1.70688
 41
21.38341297147111
 71
    5
 72
    1
  1
SAVANNAH KRUPA
  7
ONSHAPE-STANDARD-FIELDS
210
0
220
0
230
1
 50
0
 73
    1
 44
1
  0
MTEXT
  5
3E0
100
AcDbEntity
  8
TITLE_BLOCK
  6
ByLayer
 62
  256
370
   -1
100
AcDbMText
 10
1031.8875
 20
72.06999999999999
 30
0
 40
1.70688
 41
12.70677333333355
 71
    5
 72
    1
  1
2025-09-30
  7
ONSHAPE-STANDARD-FIELDS
210
0
220
0
230
1
 50
0
 73
    1
 44
1
  0
MTEXT
  5
3E1
100
AcDbEntity
  8
TITLE_BLOCK
  6
ByLayer
 62
  256
370
   -1
100
AcDbMText
 10
952.0426
 20
66.43119999999999
 30
0
 40
2.032
 41
11.06311111111136
 71
    1
 72
    1
  1
CHECKED
  7
ONSHAPE-STANDARD
210
0
220
0
230
1
 50
0
 73
    1
 44
1
  0
MTEXT
  5
3E2
100
AcDbEntity
  8
TITLE_BLOCK
  6
ByLayer
 62
  256
370
   -1
100
AcDbMText
 10
985.8499999999999
 20
64.44999999999999
 30
0
 40
1.70688
 41
0
 71
    5
 72
    1
  1
 
  7
ONSHAPE-STANDARD-FIELDS
210
0
220
0
230
1
 50
0
 73
    1
 44
1
  0
MTEXT
  5
3E3
100
AcDbEntity
  8
TITLE_BLOCK
  6
ByLayer
 62
  256
370
   -1
100
AcDbMText
 10
1031.8875
 20
64.44999999999999
 30
0
 40
1.70688
 41
0
 71
    5
 72
    1
  1
 
  7
ONSHAPE-STANDARD-FIELDS
210
0
220
0
230
1
 50
0
 73
    1
 44
1
  0
MTEXT
  5
3E4
100
AcDbEntity
  8
TITLE_BLOCK
  6
ByLayer
 62
  256
370
   -1
100
AcDbMText
 10
952.0426
 20
58.8112
 30
0
 40
2.032
 41
13.99822222222235
 71
    1
 72
    1
  1
APPROVED
  7
ONSHAPE-STANDARD
210
0
220
0
230
1
 50
0
 73
    1
 44
1
  0
MTEXT
  5
3E5
100
AcDbEntity
  8
TITLE_BLOCK
  6
ByLayer
 62
  256
370
   -1
100
AcDbMText
 10
985.8499999999999
 20
56.83
 30
0
 40
1.70688
 41
4.741333333333333
 71
    5
 72
    1
  1
----
  7
ONSHAPE-STANDARD-FIELDS
210
0
220
0
230
1
 50
0
 73
    1
 44
1
  0
MTEXT
  5
3E6
100
AcDbEntity
  8
TITLE_BLOCK
  6
ByLayer
 62
  256
370
   -1
100
AcDbMText
 10
1031.8875
 20
56.83
 30
0
 40
1.70688
 41
4.741333333333333
 71
    5
 72
    1
  1
----
  7
ONSHAPE-STANDARD-FIELDS
210
0
220
0
230
1
 50
0
 73
    1
 44
1
  0
MTEXT
  5
3E7
100
AcDbEntity
  8
TITLE_BLOCK
  6
ByLayer
 62
  256
370
   -1
100
AcDbMText
 10
962.0374999999999
 20
49.20999999999999
 30
0
 40
3.048
 41
0
 71
    5
 72
    1
  1
 
  7
ONSHAPE-STANDARD-FIELDS
210
0
220
0
230
1
 50
0
 73
    1
 44
1
  0
MTEXT
  5
3E8
100
AcDbEntity
  8
TITLE_BLOCK
  6
ByLayer
 62
  256
370
   -1
100
AcDbMText
 10
985.8499999999999
 20
49.20999999999999
 30
0
 40
1.70688
 41
0
 71
    5
 72
    1
  1
 
  7
ONSHAPE-STANDARD-FIELDS
210
0
220
0
230
1
 50
0
 73
    1
 44
1
  0
MTEXT
  5
3E9
100
AcDbEntity
  8
TITLE_BLOCK
  6
ByLayer
 62
  256
370
   -1
100
AcDbMText
 10
1031.8875
 20
49.20999999999999
 30
0
 40
1.70688
 41
0
 71
    5
 72
    1
  1
 
  7
ONSHAPE-STANDARD-FIELDS
210
0
220
0
230
1
 50
0
 73
    1
 44
1
  0
MTEXT
  5
3EA
100
AcDbEntity
  8
TITLE_BLOCK
  6
ByLayer
 62
  256
370
   -1
100
AcDbMText
 10
962.0374999999999
 20
41.59
 30
0
 40
3.048
 41
0
 71
    5
 72
    1
  1
 
  7
ONSHAPE-STANDARD-FIELDS
210
0
220
0
230
1
 50
0
 73
    1
 44
1
  0
MTEXT
  5
3EB
100
AcDbEntity
  8
TITLE_BLOCK
  6
ByLayer
 62
  256
370
   -1
100
AcDbMText
 10
985.8499999999999
 20
41.59
 30
0
 40
1.70688
 41
0
 71
    5
 72
    1
  1
 
  7
ONSHAPE-STANDARD-FIELDS
210
0
220
0
230
1
 50
0
 73
    1
 44
1
  0
MTEXT
  5
3EC
100
AcDbEntity
  8
TITLE_BLOCK
  6
ByLayer
 62
  256
370
   -1
100
AcDbMText
 10
1031.8875
 20
41.59
 30
0
 40
1.70688
 41
0
 71
    5
 72
    1
  1
 
  7
ONSHAPE-STANDARD-FIELDS
210
0
220
0
230
1
 50
0
 73
    1
 44
1
  0
MTEXT
  5
3ED
100
AcDbEntity
  8
TITLE_BLOCK
  6
ByLayer
 62
  256
370
   -1
100
AcDbMText
 10
952.0426
 20
35.9512
 30
0
 40
2.032
 41
12.86933333333333
 71
    1
 72
    1
  1
MATERIAL
  7
ONSHAPE-STANDARD
210
0
220
0
230
1
 50
0
 73
    1
 44
1
  0
MTEXT
  5
3EE
100
AcDbEntity
  8
TITLE_BLOCK
  6
ByLayer
 62
  256
370
   -1
100
AcDbMText
 10
973.15
 20
28.89
 30
0
 40
3.048
 41
0
 71
    5
 72
    1
  1
 
  7
ONSHAPE-STANDARD-FIELDS
210
0
220
0
230
1
 50
0
 73
    1
 44
1
  0
MTEXT
  5
3EF
100
AcDbEntity
  8
TITLE_BLOCK
  6
ByLayer
 62
  256
370
   -1
100
AcDbMText
 10
996.4926
 20
35.9512
 30
0
 40
2.032
 41
7.676444013656076
 71
    1
 72
    1
  1
FINISH
  7
ONSHAPE-STANDARD
210
0
220
0
230
1
 50
0
 73
    1
 44
1
  0
MTEXT
  5
3F0
100
AcDbEntity
  8
TITLE_BLOCK
  6
ByLayer
 62
  256
370
   -1
100
AcDbMText
 10
1017.6
 20
28.89
 30
0
 40
3.048
 41
0
 71
    5
 72
    1
  1
 
  7
ONSHAPE-STANDARD-FIELDS
210
0
220
0
230
1
 50
0
 73
    1
 44
1
  0
LINE
  5
3F1
100
AcDbEntity
  8
TITLE_BLOCK
  6
ByLayer
 62
  256
370
   -1
100
AcDbLine
 10
1039.825
 20
20
 11
1039.825
 21
83.5
  0
LINE
  5
3F2
100
AcDbEntity
  8
TITLE_BLOCK
  6
ByLayer
 62
  256
370
   -1
100
AcDbLine
 10
1055.7
 20
28.255
 11
1055.7
 21
40.955
  0
LINE
  5
3F3
100
AcDbEntity
  8
TITLE_BLOCK
  6
ByLayer
 62
  256
370
   -1
100
AcDbLine
 10
1067.765
 20
20
 11
1067.765
 21
28.255
  0
LINE
  5
3F4
100
AcDbEntity
  8
TITLE_BLOCK
  6
ByLayer
 62
  256
370
   -1
100
AcDbLine
 10
1125.55
 20
20
 11
1125.55
 21
28.255
  0
LINE
  5
3F5
100
AcDbEntity
  8
TITLE_BLOCK
  6
ByLayer
 62
  256
370
   -1
100
AcDbLine
 10
1157.3
 20
28.255
 11
1157.3
 21
40.955
  0
LINE
  5
3F6
100
AcDbEntity
  8
TITLE_BLOCK
  6
ByLayer
 62
  256
370
   -1
100
AcDbLine
 10
1039.825
 20
28.255
 11
1170
 21
28.255
  0
LINE
  5
3F7
100
AcDbEntity
  8
TITLE_BLOCK
  6
ByLayer
 62
  256
370
   -1
100
AcDbLine
 10
1039.825
 20
40.955
 11
1170
 21
40.955
  0
LINE
  5
3F8
100
AcDbEntity
  8
TITLE_BLOCK
  6
ByLayer
 62
  256
370
   -1
100
AcDbLine
 10
1039.825
 20
67.625
 11
1170
 21
67.625
  0
LINE
  5
3F9
100
AcDbEntity
  8
TITLE_BLOCK
  6
ByLayer
 62
  256
370
   -1
100
AcDbLine
 10
1039.825
 20
83.5
 11
1170
 21
83.5
  0
MTEXT
  5
3FA
100
AcDbEntity
  8
TITLE_BLOCK
  6
ByLayer
 62
  256
370
   -1
100
AcDbMText
 10
1040.9426
 20
65.7962
 30
0
 40
2.032
 41
6.773333333333333
 71
    1
 72
    1
  1
TITLE
  7
ONSHAPE-STANDARD
210
0
220
0
230
1
 50
0
 73
    1
 44
1
  0
MTEXT
  5
3FB
100
AcDbEntity
  8
TITLE_BLOCK
  6
ByLayer
 62
  256
370
   -1
100
AcDbMText
 10
1104.9125
 20
62.54499999999999
 30
0
 40
4.876799999999999
 41
13.54666666666667
 71
    5
 72
    1
  1
----
  7
ONSHAPE-STANDARD-FIELDS
210
0
220
0
230
1
 50
0
 73
    1
 44
1
  0
MTEXT
  5
3FC
100
AcDbEntity
  8
TITLE_BLOCK
  6
ByLayer
 62
  256
370
   -1
100
AcDbMText
 10
1104.9125
 20
54.544
 30
0
 40
4.876799999999999
 41
13.54666666666667
 71
    5
 72
    1
  1
----
  7
ONSHAPE-STANDARD-FIELDS
210
0
220
0
230
1
 50
0
 73
    1
 44
1
  0
MTEXT
  5
3FD
100
AcDbEntity
  8
TITLE_BLOCK
  6
ByLayer
 62
  256
370
   -1
100
AcDbMText
 10
1104.9125
 20
46.543
 30
0
 40
4.876799999999999
 41
13.54666666666667
 71
    5
 72
    1
  1
----
  7
ONSHAPE-STANDARD-FIELDS
210
0
220
0
230
1
 50
0
 73
    1
 44
1
  0
MTEXT
  5
3FE
100
AcDbEntity
  8
TITLE_BLOCK
  6
ByLayer
 62
  256
370
   -1
100
AcDbMText
 10
1040.71908
 20
39.49196
 30
0
 40
1.6256
 41
4.154310766480417
 71
    1
 72
    1
  1
SIZE
  7
ONSHAPE-STANDARD
210
0
220
0
230
1
 50
0
 73
    1
 44
1
  0
MTEXT
  5
3FF
100
AcDbEntity
  8
TITLE_BLOCK
  6
ByLayer
 62
  256
370
   -1
100
AcDbMText
 10
1047.7625
 20
34.605
 30
0
 40
6.095999999999999
 41
8.805333333333332
 71
    5
 72
    1
  1
A0
  7
ONSHAPE-STANDARD-FIELDS
210
0
220
0
230
1
 50
0
 73
    1
 44
1
  0
MTEXT
  5
400
100
AcDbEntity
  8
TITLE_BLOCK
  6
ByLayer
 62
  256
370
   -1
100
AcDbMText
 10
1056.59408
 20
39.49196
 30
0
 40
1.6256
 41
8.985955555555655
 71
    1
 72
    1
  1
DWG NO.
  7
ONSHAPE-STANDARD
210
0
220
0
230
1
 50
0
 73
    1
 44
1
  0
MTEXT
  5
401
100
AcDbEntity
  8
TITLE_BLOCK
  6
ByLayer
 62
  256
370
   -1
100
AcDbMText
 10
1106.5
 20
34.605
 30
0
 40
6.095999999999999
 41
16.93333333333333
 71
    5
 72
    1
  1
----
  7
ONSHAPE-STANDARD-FIELDS
210
0
220
0
230
1
 50
0
 73
    1
 44
1
  0
MTEXT
  5
402
100
AcDbEntity
  8
TITLE_BLOCK
  6
ByLayer
 62
  256
370
   -1
100
AcDbMText
 10
1158.19408
 20
39.49196
 30
0
 40
1.6256
 41
4.334933333333333
 71
    1
 72
    1
  1
REV.
  7
ONSHAPE-STANDARD
210
0
220
0
230
1
 50
0
 73
    1
 44
1
  0
MTEXT
  5
403
100
AcDbEntity
  8
TITLE_BLOCK
  6
ByLayer
 62
  256
370
   -1
100
AcDbMText
 10
1164.285
 20
34.605
 30
0
 40
6.095999999999999
 41
2.709333333333333
 71
    5
 72
    1
  1
-
  7
ONSHAPE-STANDARD-FIELDS
210
0
220
0
230
1
 50
0
 73
    1
 44
1
  0
MTEXT
  5
404
100
AcDbEntity
  8
TITLE_BLOCK
  6
ByLayer
 62
  256
370
   -1
100
AcDbMText
 10
1040.71908
 20
26.79196
 30
0
 40
1.6256
 41
6.321777433147084
 71
    1
 72
    1
  1
SCALE
  7
ONSHAPE-STANDARD
210
0
220
0
230
1
 50
0
 73
    1
 44
1
  0
MTEXT
  5
405
100
AcDbEntity
  8
TITLE_BLOCK
  6
ByLayer
 62
  256
370
   -1
100
AcDbMText
 10
1055.065
 20
24.1275
 30
0
 40
3.6576
 41
4.064
 71
    5
 72
    1
  1
1:1
  7
ONSHAPE-STANDARD-FIELDS
210
0
220
0
230
1
 50
0
 73
    1
 44
1
  0
MTEXT
  5
406
100
AcDbEntity
  8
TITLE_BLOCK
  6
ByLayer
 62
  256
370
   -1
100
AcDbMText
 10
1068.65908
 20
26.79196
 30
0
 40
1.6256
 41
7.586133333333334
 71
    1
 72
    1
  1
WEIGHT
  7
ONSHAPE-STANDARD
210
0
220
0
230
1
 50
0
 73
    1
 44
1
  0
MTEXT
  5
407
100
AcDbEntity
  8
TITLE_BLOCK
  6
ByLayer
 62
  256
370
   -1
100
AcDbMText
 10
1096.6575
 20
24.1275
 30
0
 40
3.6576
 41
0
 71
    5
 72
    1
  1
 
  7
ONSHAPE-STANDARD-FIELDS
210
0
220
0
230
1
 50
0
 73
    1
 44
1
  0
MTEXT
  5
408
100
AcDbEntity
  8
TITLE_BLOCK
  6
ByLayer
 62
  256
370
   -1
100
AcDbMText
 10
1126.44408
 20
26.79196
 30
0
 40
1.6256
 41
6.321777433147084
 71
    1
 72
    1
  1
SHEET
  7
ONSHAPE-STANDARD
210
0
220
0
230
1
 50
0
 73
    1
 44
1
  0
MTEXT
  5
409
100
AcDbEntity
  8
TITLE_BLOCK
  6
ByLayer
 62
  256
370
   -1
100
AcDbMText
 10
1149.045
 20
24.1275
 30
0
 40
3.6576
 41
13.6144
 71
    5
 72
    1
  1
1 of 1
  7
ONSHAPE-STANDARD-FIELDS
210
0
220
0
230
1
 50
0
 73
    1
 44
1
  0
MTEXT
  5
40A
100
AcDbEntity
  8
ANNOTATION_TEXT
  6
ByLayer
 62
    7
370
   -1
100
AcDbMText
 10
713.1973117414504
 20
301.9714921009187
 30
0
 40
3.5
 41
0
 71
    2
 72
    1
  1

  7
ONSHAPE-STANDARD-VIEW-LABE
210
0
220
0
230
1
 50
0
 73
    1
 44
1
  0
ENDSEC
  0
SECTION
  2
OBJECTS
  0
DICTIONARY
  5
C
330
0
100
AcDbDictionary
281
    1
  3
ACAD_GROUP
350
D
  0
DICTIONARY
  5
D
330
C
100
AcDbDictionary
281
    1
  0
PLOTSETTINGS
  5
40B
100
AcDbPlotSettings
  6
1x1
 40
0
 41
0
 42
0
 43
0
  0
ENDSEC
  0
EOF
