  0
SECTION
  2
HEADER
  9
$ACADVER
  1
AC1014
  9
$HANDSEED
  5
FFFF
  9
$MEASUREMENT
 70
     1
  0
ENDSEC
  0
SECTION
  2
TABLES
  0
TABLE
  2
VPORT
  5
8
330
0
100
AcDbSymbolTable
 70
     4
  0
VPORT
  5
2E
330
8
100
AcDbSymbolTableRecord
100
AcDbViewportTableRecord
  2
*ACTIVE
 70
     0
 10
0.0
 20
0.0
 11
1.0
 21
1.0
 12
210.0
 22
148.5
 13
0.0
 23
0.0
 14
10.0
 24
10.0
 15
10.0
 25
10.0
 16
0.0
 26
0.0
 36
1.0
 17
0.0
 27
0.0
 37
0.0
 40
341.0
 41
1.24
 42
50.0
 43
0.0
 44
0.0
 50
0.0
 51
0.0
 71
     0
 72
   100
 73
     1
 74
     3
 75
     0
 76
     0
 77
     0
 78
     0
  0
ENDTAB
  0
TABLE
  2
LTYPE
  5
5
330
0
100
AcDbSymbolTable
 70
     1
  0
LTYPE
  5
14
330
5
100
AcDbSymbolTableRecord
100
AcDbLinetypeTableRecord
  2
BYBLOCK
 70
     0
  3

 72
    65
 73
     0
 40
0.0
  0
LTYPE
  5
15
330
5
100
AcDbSymbolTableRecord
100
AcDbLinetypeTableRecord
  2
BYLAYER
 70
     0
  3

 72
    65
 73
     0
 40
0.0
  0
LTYPE
  5
16
330
5
100
AcDbSymbolTableRecord
100
AcDbLinetypeTableRecord
  2
CONTINUOUS
 70
     0
  3
Solid line
 72
    65
 73
     0
 40
0.0
  0
ENDTAB
  0
TABLE
  2
LAYER
  5
2
100
AcDbSymbolTable
 70
40
  0
LAYER
  5
50
100
AcDbSymbolTableRecord
100
AcDbLayerTableRecord
  2
0
 70
0
  6
CONTINUOUS
  0
LAYER
  5
51
100
AcDbSymbolTableRecord
100
AcDbLayerTableRecord
  2
SECTION_CUTTING_LINE
 70
0
  6
CONTINUOUS
  0
LAYER
  5
52
100
AcDbSymbolTableRecord
100
AcDbLayerTableRecord
  2
DETAIL_VIEW_BORDER
 70
0
  6
CONTINUOUS
  0
LAYER
  5
53
100
AcDbSymbolTableRecord
100
AcDbLayerTableRecord
  2
DETAIL_VIEW_PARENT_BORDER
 70
0
  6
CONTINUOUS
  0
LAYER
  5
54
100
AcDbSymbolTableRecord
100
AcDbLayerTableRecord
  2
TEXT
 70
0
  6
CONTINUOUS
  0
LAYER
  5
55
100
AcDbSymbolTableRecord
100
AcDbLayerTableRecord
  2
SKETCHED_GEOMETRY
 70
0
  6
CONTINUOUS
  0
LAYER
  5
56
100
AcDbSymbolTableRecord
100
AcDbLayerTableRecord
  2
VIRTUAL_SHARPS
 70
0
  6
CONTINUOUS
  0
LAYER
  5
57
100
AcDbSymbolTableRecord
100
AcDbLayerTableRecord
  2
CENTERLINES
 70
0
  6
CONTINUOUS
  0
LAYER
  5
58
100
AcDbSymbolTableRecord
100
AcDbLayerTableRecord
  2
CENTERMARKS
 70
0
  6
CONTINUOUS
  0
LAYER
  5
59
100
AcDbSymbolTableRecord
100
AcDbLayerTableRecord
  2
TABLES
 70
0
  6
CONTINUOUS
  0
LAYER
  5
5a
100
AcDbSymbolTableRecord
100
AcDbLayerTableRecord
  2
IMAGES
 70
0
  6
CONTINUOUS
  0
LAYER
  5
5b
100
AcDbSymbolTableRecord
100
AcDbLayerTableRecord
  2
ANNOTATION_LINES
 70
0
  6
CONTINUOUS
  0
LAYER
  5
5c
100
AcDbSymbolTableRecord
100
AcDbLayerTableRecord
  2
ANNOTATION_TEXT
 70
0
  6
CONTINUOUS
  0
LAYER
  5
5d
100
AcDbSymbolTableRecord
100
AcDbLayerTableRecord
  2
SIDE_THREAD_SYMBOLS
 70
0
  6
CONTINUOUS
  0
LAYER
  5
5e
100
AcDbSymbolTableRecord
100
AcDbLayerTableRecord
  2
SIDE_THREAD_SYMBOLS_HIDDEN
 70
0
  6
CONTINUOUS
  0
LAYER
  5
5f
100
AcDbSymbolTableRecord
100
AcDbLayerTableRecord
  2
SURFACE_THREAD_SYMBOLS
 70
0
  6
CONTINUOUS
  0
LAYER
  5
60
100
AcDbSymbolTableRecord
100
AcDbLayerTableRecord
  2
SURFACE_THREAD_SYMBOLS_ON_
 70
0
  6
CONTINUOUS
  0
LAYER
  5
61
100
AcDbSymbolTableRecord
100
AcDbLayerTableRecord
  2
SURFACE_THREAD_SYMBOLS_HID
 70
0
  6
CONTINUOUS
  0
LAYER
  5
62
100
AcDbSymbolTableRecord
100
AcDbLayerTableRecord
  2
BLIND_THREAD_SYMBOLS
 70
0
  6
CONTINUOUS
  0
LAYER
  5
63
100
AcDbSymbolTableRecord
100
AcDbLayerTableRecord
  2
BLIND_THREAD_SYMBOLS_HIDDE
 70
0
  6
CONTINUOUS
  0
LAYER
  5
64
100
AcDbSymbolTableRecord
100
AcDbLayerTableRecord
  2
EXPLODE_LINES
 70
0
  6
CONTINUOUS
  0
LAYER
  5
65
100
AcDbSymbolTableRecord
100
AcDbLayerTableRecord
  2
HIDDEN_EXPLODE_LINES
 70
0
  6
CONTINUOUS
  0
LAYER
  5
66
100
AcDbSymbolTableRecord
100
AcDbLayerTableRecord
  2
BREAK_LINES
 70
0
  6
CONTINUOUS
  0
LAYER
  5
67
100
AcDbSymbolTableRecord
100
AcDbLayerTableRecord
  2
SHEETMETAL_BEND_LINES_UP
 70
0
  6
CONTINUOUS
  0
LAYER
  5
68
100
AcDbSymbolTableRecord
100
AcDbLayerTableRecord
  2
SHEETMETAL_BEND_LINES_DOWN
 70
0
  6
CONTINUOUS
  0
LAYER
  5
69
100
AcDbSymbolTableRecord
100
AcDbLayerTableRecord
  2
SHEETMETAL_BEND_TANGENT_LI
 70
0
  6
CONTINUOUS
  0
LAYER
  5
6a
100
AcDbSymbolTableRecord
100
AcDbLayerTableRecord
  2
SHEETMETAL_CUT_LINES
 70
0
  6
CONTINUOUS
  0
LAYER
  5
6b
100
AcDbSymbolTableRecord
100
AcDbLayerTableRecord
  2
REGION_ASSOC_POINTS
 70
0
  6
CONTINUOUS
  0
LAYER
  5
6c
100
AcDbSymbolTableRecord
100
AcDbLayerTableRecord
  2
HIDDEN
 70
0
  6
CONTINUOUS
  0
LAYER
  5
6d
100
AcDbSymbolTableRecord
100
AcDbLayerTableRecord
  2
VISIBLE
 70
0
  6
CONTINUOUS
  0
LAYER
  5
6e
100
AcDbSymbolTableRecord
100
AcDbLayerTableRecord
  2
MODELSKETCH_VISIBLE
 70
0
  6
CONTINUOUS
  0
LAYER
  5
6f
100
AcDbSymbolTableRecord
100
AcDbLayerTableRecord
  2
MODELSKETCH_POINT
 70
0
  6
CONTINUOUS
  0
LAYER
  5
70
100
AcDbSymbolTableRecord
100
AcDbLayerTableRecord
  2
MODELSKETCH_CONSTRUCTION
 70
0
  6
CONTINUOUS
  0
LAYER
  5
71
100
AcDbSymbolTableRecord
100
AcDbLayerTableRecord
  2
HIDDEN_BASE_VIEW
 70
0
  6
CONTINUOUS
  0
LAYER
  5
72
100
AcDbSymbolTableRecord
100
AcDbLayerTableRecord
  2
TANGENT_LINES
 70
0
  6
CONTINUOUS
  0
LAYER
  5
73
100
AcDbSymbolTableRecord
100
AcDbLayerTableRecord
  2
TANGENT_HIDDEN
 70
0
  6
CONTINUOUS
  0
LAYER
  5
74
100
AcDbSymbolTableRecord
100
AcDbLayerTableRecord
  2
INVISIBLE_LINES
 70
0
  6
CONTINUOUS
  0
LAYER
  5
75
100
AcDbSymbolTableRecord
100
AcDbLayerTableRecord
  2
VIEW_HATCHES
 70
0
  6
CONTINUOUS
  0
LAYER
  5
76
100
AcDbSymbolTableRecord
100
AcDbLayerTableRecord
  2
SECTION_JOG_LINES
 70
0
  6
CONTINUOUS
  0
LAYER
  5
77
100
AcDbSymbolTableRecord
100
AcDbLayerTableRecord
  2
Card_Locations
 70
0
  6
CONTINUOUS
  0
ENDTAB
  0
TABLE
  2
STYLE
  5
3
330
0
100
AcDbSymbolTable
 70
     1
  0
STYLE
  5
11
330
3
100
AcDbSymbolTableRecord
100
AcDbTextStyleTableRecord
  2
STANDARD
 70
     0
 40
0.0
 41
1.0
 50
0.0
 71
     0
 42
2.5
  3
txt
  4

  0
ENDTAB
  0
TABLE
  2
VIEW
  5
6
330
0
100
AcDbSymbolTable
 70
     0
  0
ENDTAB
  0
TABLE
  2
UCS
  5
7
330
0
100
AcDbSymbolTable
 70
     0
  0
ENDTAB
  0
TABLE
  2
APPID
  5
9
330
0
100
AcDbSymbolTable
 70
     2
  0
APPID
  5
12
330
9
100
AcDbSymbolTableRecord
100
AcDbRegAppTableRecord
  2
ACAD
 70
     0
  0
ENDTAB
  0
TABLE
  2
DIMSTYLE
  5
A
330
0
100
AcDbSymbolTable
 70
     1
  0
DIMSTYLE
105
27
330
A
100
AcDbSymbolTableRecord
100
AcDbDimStyleTableRecord
  2
ISO-25
 70
     0
  3

  4

  5

  6

  7

 40
1.0
 41
2.5
 42
0.625
 43
3.75
 44
1.25
 45
0.0
 46
0.0
 47
0.0
 48
0.0
140
2.5
141
2.5
142
0.0
143
0.03937007874016
144
1.0
145
0.0
146
1.0
147
0.625
 71
     0
 72
     0
 73
     0
 74
     0
 75
     0
 76
     0
 77
     1
 78
     8
170
     0
171
     3
172
     1
173
     0
174
     0
175
     0
176
     0
177
     0
178
     0
270
     2
271
     2
272
     2
273
     2
274
     3
340
11
275
     0
280
     0
281
     0
282
     0
283
     0
284
     8
285
     0
286
     0
287
     3
288
     0
  0
ENDTAB
  0
TABLE
  2
BLOCK_RECORD
  5
1
330
0
100
AcDbSymbolTable
 70
     1
  0
BLOCK_RECORD
  5
1F
330
1
100
AcDbSymbolTableRecord
100
AcDbBlockTableRecord
  2
*MODEL_SPACE
  0
BLOCK_RECORD
  5
1B
330
1
100
AcDbSymbolTableRecord
100
AcDbBlockTableRecord
  2
*PAPER_SPACE
  0
ENDTAB
  0
ENDSEC
  0
SECTION
  2
BLOCKS
  0
BLOCK
  5
20
330
1F
100
AcDbEntity
  8
0
100
AcDbBlockBegin
  2
*MODEL_SPACE
 70
     0
 10
0.0
 20
0.0
 30
0.0
  3
*MODEL_SPACE
  1

  0
ENDBLK
  5
21
330
1F
100
AcDbEntity
  8
0
100
AcDbBlockEnd
  0
BLOCK
  5
1C
330
1B
100
AcDbEntity
 67
     1
  8
0
100
AcDbBlockBegin
  2
*PAPER_SPACE
  1

  0
ENDBLK
  5
1D
330
1B
100
AcDbEntity
 67
     1
  8
0
100
AcDbBlockEnd
  0
ENDSEC
  0
SECTION
  2
ENTITIES
  0
LWPOLYLINE
  5
100
100
AcDbEntity
  8
VISIBLE
 62
7
100
AcDbPolyline
 90
2
 70
0
 10
41.250000
 20
25.700000
 30
0.0
 10
41.250000
 20
-25.700000
 30
0.0
  0
SPLINE
  5
101
100
AcDbEntity
  8
VISIBLE
 62
7
100
AcDbSpline
 70
8
 71
3
 72
8
 73
4
 74
0
 40
0
 40
0
 40
0
 40
0
 40
1
 40
1
 40
1
 40
1
 10
39.500000
 20
28.300000
 30
0.0
 10
39.035555
 20
28.300000
 30
0.0
 10
38.606390
 20
28.052221
 30
0.0
 10
38.374167
 20
27.650000
 30
0.0
  0
SPLINE
  5
102
100
AcDbEntity
  8
VISIBLE
 62
7
100
AcDbSpline
 70
8
 71
3
 72
8
 73
4
 74
0
 40
0
 40
0
 40
0
 40
0
 40
1
 40
1
 40
1
 40
1
 10
38.374167
 20
27.650000
 30
0.0
 10
38.141944
 20
27.247779
 30
0.0
 10
38.141944
 20
26.752221
 30
0.0
 10
38.374167
 20
26.350000
 30
0.0
  0
SPLINE
  5
103
100
AcDbEntity
  8
VISIBLE
 62
7
100
AcDbSpline
 70
8
 71
3
 72
8
 73
4
 74
0
 40
0
 40
0
 40
0
 40
0
 40
1
 40
1
 40
1
 40
1
 10
38.374167
 20
26.350000
 30
0.0
 10
38.606390
 20
25.947779
 30
0.0
 10
39.035555
 20
25.700000
 30
0.0
 10
39.500000
 20
25.700000
 30
0.0
  0
LWPOLYLINE
  5
104
100
AcDbEntity
  8
VISIBLE
 62
7
100
AcDbPolyline
 90
2
 70
0
 10
41.250000
 20
25.700000
 30
0.0
 10
39.500000
 20
25.700000
 30
0.0
  0
LWPOLYLINE
  5
105
100
AcDbEntity
  8
VISIBLE
 62
7
100
AcDbPolyline
 90
2
 70
0
 10
41.250000
 20
28.300000
 30
0.0
 10
39.500000
 20
28.300000
 30
0.0
  0
LWPOLYLINE
  5
106
100
AcDbEntity
  8
VISIBLE
 62
7
100
AcDbPolyline
 90
2
 70
0
 10
41.250000
 20
55.700000
 30
0.0
 10
41.250000
 20
28.300000
 30
0.0
  0
SPLINE
  5
107
100
AcDbEntity
  8
VISIBLE
 62
7
100
AcDbSpline
 70
8
 71
3
 72
8
 73
4
 74
0
 40
0
 40
0
 40
0
 40
0
 40
1
 40
1
 40
1
 40
1
 10
39.500000
 20
58.300000
 30
0.0
 10
39.035555
 20
58.300000
 30
0.0
 10
38.606390
 20
58.052221
 30
0.0
 10
38.374167
 20
57.650000
 30
0.0
  0
SPLINE
  5
108
100
AcDbEntity
  8
VISIBLE
 62
7
100
AcDbSpline
 70
8
 71
3
 72
8
 73
4
 74
0
 40
0
 40
0
 40
0
 40
0
 40
1
 40
1
 40
1
 40
1
 10
38.374167
 20
57.650000
 30
0.0
 10
38.141944
 20
57.247779
 30
0.0
 10
38.141944
 20
56.752221
 30
0.0
 10
38.374167
 20
56.350000
 30
0.0
  0
SPLINE
  5
109
100
AcDbEntity
  8
VISIBLE
 62
7
100
AcDbSpline
 70
8
 71
3
 72
8
 73
4
 74
0
 40
0
 40
0
 40
0
 40
0
 40
1
 40
1
 40
1
 40
1
 10
38.374167
 20
56.350000
 30
0.0
 10
38.606390
 20
55.947779
 30
0.0
 10
39.035555
 20
55.700000
 30
0.0
 10
39.500000
 20
55.700000
 30
0.0
  0
LWPOLYLINE
  5
10a
100
AcDbEntity
  8
VISIBLE
 62
7
100
AcDbPolyline
 90
2
 70
0
 10
41.250000
 20
55.700000
 30
0.0
 10
39.500000
 20
55.700000
 30
0.0
  0
LWPOLYLINE
  5
10b
100
AcDbEntity
  8
VISIBLE
 62
7
100
AcDbPolyline
 90
2
 70
0
 10
41.250000
 20
58.300000
 30
0.0
 10
39.500000
 20
58.300000
 30
0.0
  0
LWPOLYLINE
  5
10c
100
AcDbEntity
  8
VISIBLE
 62
7
100
AcDbPolyline
 90
2
 70
0
 10
41.250000
 20
85.700000
 30
0.0
 10
41.250000
 20
58.300000
 30
0.0
  0
SPLINE
  5
10d
100
AcDbEntity
  8
VISIBLE
 62
7
100
AcDbSpline
 70
8
 71
3
 72
8
 73
4
 74
0
 40
0
 40
0
 40
0
 40
0
 40
1
 40
1
 40
1
 40
1
 10
39.500000
 20
88.300000
 30
0.0
 10
38.782259
 20
88.299676
 30
0.0
 10
38.200587
 20
87.717741
 30
0.0
 10
38.200587
 20
87.000000
 30
0.0
  0
SPLINE
  5
10e
100
AcDbEntity
  8
VISIBLE
 62
7
100
AcDbSpline
 70
8
 71
3
 72
8
 73
4
 74
0
 40
0
 40
0
 40
0
 40
0
 40
1
 40
1
 40
1
 40
1
 10
38.200587
 20
87.000000
 30
0.0
 10
38.200587
 20
86.282259
 30
0.0
 10
38.782259
 20
85.700324
 30
0.0
 10
39.500000
 20
85.700000
 30
0.0
  0
LWPOLYLINE
  5
10f
100
AcDbEntity
  8
VISIBLE
 62
7
100
AcDbPolyline
 90
2
 70
0
 10
41.250000
 20
85.700000
 30
0.0
 10
39.500000
 20
85.700000
 30
0.0
  0
LWPOLYLINE
  5
110
100
AcDbEntity
  8
VISIBLE
 62
7
100
AcDbPolyline
 90
2
 70
0
 10
41.250000
 20
88.300000
 30
0.0
 10
39.500000
 20
88.300000
 30
0.0
  0
SPLINE
  5
111
100
AcDbEntity
  8
VISIBLE
 62
7
100
AcDbSpline
 70
8
 71
3
 72
8
 73
4
 74
0
 40
0
 40
0
 40
0
 40
0
 40
1
 40
1
 40
1
 40
1
 10
41.250000
 20
105.750000
 30
0.0
 10
41.250000
 20
106.015216
 30
0.0
 10
41.144643
 20
106.269570
 30
0.0
 10
40.957107
 20
106.457107
 30
0.0
  0
SPLINE
  5
112
100
AcDbEntity
  8
VISIBLE
 62
7
100
AcDbSpline
 70
8
 71
3
 72
8
 73
4
 74
0
 40
0
 40
0
 40
0
 40
0
 40
1
 40
1
 40
1
 40
1
 10
40.957107
 20
106.457107
 30
0.0
 10
40.769570
 20
106.644643
 30
0.0
 10
40.515216
 20
106.750000
 30
0.0
 10
40.250000
 20
106.750000
 30
0.0
  0
LWPOLYLINE
  5
113
100
AcDbEntity
  8
VISIBLE
 62
7
100
AcDbPolyline
 90
2
 70
0
 10
41.250000
 20
105.750000
 30
0.0
 10
41.250000
 20
88.300000
 30
0.0
  0
SPLINE
  5
114
100
AcDbEntity
  8
VISIBLE
 62
7
100
AcDbSpline
 70
8
 71
3
 72
8
 73
4
 74
0
 40
0
 40
0
 40
0
 40
0
 40
1
 40
1
 40
1
 40
1
 10
-40.250000
 20
106.750000
 30
0.0
 10
-40.515216
 20
106.750000
 30
0.0
 10
-40.769570
 20
106.644643
 30
0.0
 10
-40.957107
 20
106.457107
 30
0.0
  0
SPLINE
  5
115
100
AcDbEntity
  8
VISIBLE
 62
7
100
AcDbSpline
 70
8
 71
3
 72
8
 73
4
 74
0
 40
0
 40
0
 40
0
 40
0
 40
1
 40
1
 40
1
 40
1
 10
-40.957107
 20
106.457107
 30
0.0
 10
-41.144643
 20
106.269570
 30
0.0
 10
-41.250000
 20
106.015216
 30
0.0
 10
-41.250000
 20
105.750000
 30
0.0
  0
LWPOLYLINE
  5
116
100
AcDbEntity
  8
VISIBLE
 62
7
100
AcDbPolyline
 90
2
 70
0
 10
40.250000
 20
106.750000
 30
0.0
 10
-40.250000
 20
106.750000
 30
0.0
  0
SPLINE
  5
117
100
AcDbEntity
  8
VISIBLE
 62
7
100
AcDbSpline
 70
8
 71
3
 72
8
 73
4
 74
0
 40
0
 40
0
 40
0
 40
0
 40
1
 40
1
 40
1
 40
1
 10
-39.500000
 20
85.700000
 30
0.0
 10
-38.782259
 20
85.700324
 30
0.0
 10
-38.200587
 20
86.282259
 30
0.0
 10
-38.200587
 20
87.000000
 30
0.0
  0
SPLINE
  5
118
100
AcDbEntity
  8
VISIBLE
 62
7
100
AcDbSpline
 70
8
 71
3
 72
8
 73
4
 74
0
 40
0
 40
0
 40
0
 40
0
 40
1
 40
1
 40
1
 40
1
 10
-38.200587
 20
87.000000
 30
0.0
 10
-38.200587
 20
87.717741
 30
0.0
 10
-38.782259
 20
88.299676
 30
0.0
 10
-39.500000
 20
88.300000
 30
0.0
  0
LWPOLYLINE
  5
119
100
AcDbEntity
  8
VISIBLE
 62
7
100
AcDbPolyline
 90
3
 70
0
 10
-41.250000
 20
105.750000
 30
0.0
 10
-41.250000
 20
88.300000
 30
0.0
 10
-39.500000
 20
88.300000
 30
0.0
  0
LWPOLYLINE
  5
11a
100
AcDbEntity
  8
VISIBLE
 62
7
100
AcDbPolyline
 90
2
 70
0
 10
-41.250000
 20
85.700000
 30
0.0
 10
-39.500000
 20
85.700000
 30
0.0
  0
SPLINE
  5
11b
100
AcDbEntity
  8
VISIBLE
 62
7
100
AcDbSpline
 70
8
 71
3
 72
8
 73
4
 74
0
 40
0
 40
0
 40
0
 40
0
 40
1
 40
1
 40
1
 40
1
 10
-39.500000
 20
55.700000
 30
0.0
 10
-39.035555
 20
55.700000
 30
0.0
 10
-38.606390
 20
55.947779
 30
0.0
 10
-38.374167
 20
56.350000
 30
0.0
  0
SPLINE
  5
11c
100
AcDbEntity
  8
VISIBLE
 62
7
100
AcDbSpline
 70
8
 71
3
 72
8
 73
4
 74
0
 40
0
 40
0
 40
0
 40
0
 40
1
 40
1
 40
1
 40
1
 10
-38.374167
 20
56.350000
 30
0.0
 10
-38.141944
 20
56.752221
 30
0.0
 10
-38.141944
 20
57.247779
 30
0.0
 10
-38.374167
 20
57.650000
 30
0.0
  0
SPLINE
  5
11d
100
AcDbEntity
  8
VISIBLE
 62
7
100
AcDbSpline
 70
8
 71
3
 72
8
 73
4
 74
0
 40
0
 40
0
 40
0
 40
0
 40
1
 40
1
 40
1
 40
1
 10
-38.374167
 20
57.650000
 30
0.0
 10
-38.606390
 20
58.052221
 30
0.0
 10
-39.035555
 20
58.300000
 30
0.0
 10
-39.500000
 20
58.300000
 30
0.0
  0
LWPOLYLINE
  5
11e
100
AcDbEntity
  8
VISIBLE
 62
7
100
AcDbPolyline
 90
3
 70
0
 10
-41.250000
 20
85.700000
 30
0.0
 10
-41.250000
 20
58.300000
 30
0.0
 10
-39.500000
 20
58.300000
 30
0.0
  0
LWPOLYLINE
  5
11f
100
AcDbEntity
  8
VISIBLE
 62
7
100
AcDbPolyline
 90
2
 70
0
 10
-41.250000
 20
55.700000
 30
0.0
 10
-39.500000
 20
55.700000
 30
0.0
  0
SPLINE
  5
120
100
AcDbEntity
  8
VISIBLE
 62
7
100
AcDbSpline
 70
8
 71
3
 72
8
 73
4
 74
0
 40
0
 40
0
 40
0
 40
0
 40
1
 40
1
 40
1
 40
1
 10
-39.500000
 20
25.700000
 30
0.0
 10
-39.035555
 20
25.700000
 30
0.0
 10
-38.606390
 20
25.947779
 30
0.0
 10
-38.374167
 20
26.350000
 30
0.0
  0
SPLINE
  5
121
100
AcDbEntity
  8
VISIBLE
 62
7
100
AcDbSpline
 70
8
 71
3
 72
8
 73
4
 74
0
 40
0
 40
0
 40
0
 40
0
 40
1
 40
1
 40
1
 40
1
 10
-38.374167
 20
26.350000
 30
0.0
 10
-38.141944
 20
26.752221
 30
0.0
 10
-38.141944
 20
27.247779
 30
0.0
 10
-38.374167
 20
27.650000
 30
0.0
  0
SPLINE
  5
122
100
AcDbEntity
  8
VISIBLE
 62
7
100
AcDbSpline
 70
8
 71
3
 72
8
 73
4
 74
0
 40
0
 40
0
 40
0
 40
0
 40
1
 40
1
 40
1
 40
1
 10
-38.374167
 20
27.650000
 30
0.0
 10
-38.606390
 20
28.052221
 30
0.0
 10
-39.035555
 20
28.300000
 30
0.0
 10
-39.500000
 20
28.300000
 30
0.0
  0
LWPOLYLINE
  5
123
100
AcDbEntity
  8
VISIBLE
 62
7
100
AcDbPolyline
 90
3
 70
0
 10
-41.250000
 20
55.700000
 30
0.0
 10
-41.250000
 20
28.300000
 30
0.0
 10
-39.500000
 20
28.300000
 30
0.0
  0
LWPOLYLINE
  5
124
100
AcDbEntity
  8
VISIBLE
 62
7
100
AcDbPolyline
 90
2
 70
0
 10
-41.250000
 20
25.700000
 30
0.0
 10
-39.500000
 20
25.700000
 30
0.0
  0
SPLINE
  5
125
100
AcDbEntity
  8
VISIBLE
 62
7
100
AcDbSpline
 70
8
 71
3
 72
8
 73
4
 74
0
 40
0
 40
0
 40
0
 40
0
 40
1
 40
1
 40
1
 40
1
 10
-39.500000
 20
-28.300000
 30
0.0
 10
-39.035555
 20
-28.300000
 30
0.0
 10
-38.606390
 20
-28.052221
 30
0.0
 10
-38.374167
 20
-27.650000
 30
0.0
  0
SPLINE
  5
126
100
AcDbEntity
  8
VISIBLE
 62
7
100
AcDbSpline
 70
8
 71
3
 72
8
 73
4
 74
0
 40
0
 40
0
 40
0
 40
0
 40
1
 40
1
 40
1
 40
1
 10
-38.374167
 20
-27.650000
 30
0.0
 10
-38.141944
 20
-27.247779
 30
0.0
 10
-38.141944
 20
-26.752221
 30
0.0
 10
-38.374167
 20
-26.350000
 30
0.0
  0
SPLINE
  5
127
100
AcDbEntity
  8
VISIBLE
 62
7
100
AcDbSpline
 70
8
 71
3
 72
8
 73
4
 74
0
 40
0
 40
0
 40
0
 40
0
 40
1
 40
1
 40
1
 40
1
 10
-38.374167
 20
-26.350000
 30
0.0
 10
-38.606390
 20
-25.947779
 30
0.0
 10
-39.035555
 20
-25.700000
 30
0.0
 10
-39.500000
 20
-25.700000
 30
0.0
  0
LWPOLYLINE
  5
128
100
AcDbEntity
  8
VISIBLE
 62
7
100
AcDbPolyline
 90
3
 70
0
 10
-41.250000
 20
25.700000
 30
0.0
 10
-41.250000
 20
-25.700000
 30
0.0
 10
-39.500000
 20
-25.700000
 30
0.0
  0
LWPOLYLINE
  5
129
100
AcDbEntity
  8
VISIBLE
 62
7
100
AcDbPolyline
 90
2
 70
0
 10
-41.250000
 20
-28.300000
 30
0.0
 10
-39.500000
 20
-28.300000
 30
0.0
  0
SPLINE
  5
12a
100
AcDbEntity
  8
VISIBLE
 62
7
100
AcDbSpline
 70
8
 71
3
 72
8
 73
4
 74
0
 40
0
 40
0
 40
0
 40
0
 40
1
 40
1
 40
1
 40
1
 10
-39.500000
 20
-58.300000
 30
0.0
 10
-39.035555
 20
-58.300000
 30
0.0
 10
-38.606390
 20
-58.052221
 30
0.0
 10
-38.374167
 20
-57.650000
 30
0.0
  0
SPLINE
  5
12b
100
AcDbEntity
  8
VISIBLE
 62
7
100
AcDbSpline
 70
8
 71
3
 72
8
 73
4
 74
0
 40
0
 40
0
 40
0
 40
0
 40
1
 40
1
 40
1
 40
1
 10
-38.374167
 20
-57.650000
 30
0.0
 10
-38.141944
 20
-57.247779
 30
0.0
 10
-38.141944
 20
-56.752221
 30
0.0
 10
-38.374167
 20
-56.350000
 30
0.0
  0
SPLINE
  5
12c
100
AcDbEntity
  8
VISIBLE
 62
7
100
AcDbSpline
 70
8
 71
3
 72
8
 73
4
 74
0
 40
0
 40
0
 40
0
 40
0
 40
1
 40
1
 40
1
 40
1
 10
-38.374167
 20
-56.350000
 30
0.0
 10
-38.606390
 20
-55.947779
 30
0.0
 10
-39.035555
 20
-55.700000
 30
0.0
 10
-39.500000
 20
-55.700000
 30
0.0
  0
LWPOLYLINE
  5
12d
100
AcDbEntity
  8
VISIBLE
 62
7
100
AcDbPolyline
 90
3
 70
0
 10
-41.250000
 20
-28.300000
 30
0.0
 10
-41.250000
 20
-55.700000
 30
0.0
 10
-39.500000
 20
-55.700000
 30
0.0
  0
LWPOLYLINE
  5
12e
100
AcDbEntity
  8
VISIBLE
 62
7
100
AcDbPolyline
 90
2
 70
0
 10
-41.250000
 20
-58.300000
 30
0.0
 10
-39.500000
 20
-58.300000
 30
0.0
  0
SPLINE
  5
12f
100
AcDbEntity
  8
VISIBLE
 62
7
100
AcDbSpline
 70
8
 71
3
 72
8
 73
4
 74
0
 40
0
 40
0
 40
0
 40
0
 40
1
 40
1
 40
1
 40
1
 10
-39.500000
 20
-88.300000
 30
0.0
 10
-39.035555
 20
-88.300000
 30
0.0
 10
-38.606390
 20
-88.052222
 30
0.0
 10
-38.374167
 20
-87.650000
 30
0.0
  0
SPLINE
  5
130
100
AcDbEntity
  8
VISIBLE
 62
7
100
AcDbSpline
 70
8
 71
3
 72
8
 73
4
 74
0
 40
0
 40
0
 40
0
 40
0
 40
1
 40
1
 40
1
 40
1
 10
-38.374167
 20
-87.650000
 30
0.0
 10
-38.141944
 20
-87.247779
 30
0.0
 10
-38.141944
 20
-86.752221
 30
0.0
 10
-38.374167
 20
-86.350000
 30
0.0
  0
SPLINE
  5
131
100
AcDbEntity
  8
VISIBLE
 62
7
100
AcDbSpline
 70
8
 71
3
 72
8
 73
4
 74
0
 40
0
 40
0
 40
0
 40
0
 40
1
 40
1
 40
1
 40
1
 10
-38.374167
 20
-86.350000
 30
0.0
 10
-38.606390
 20
-85.947779
 30
0.0
 10
-39.035555
 20
-85.700000
 30
0.0
 10
-39.500000
 20
-85.700000
 30
0.0
  0
LWPOLYLINE
  5
132
100
AcDbEntity
  8
VISIBLE
 62
7
100
AcDbPolyline
 90
3
 70
0
 10
-41.250000
 20
-58.300000
 30
0.0
 10
-41.250000
 20
-85.700000
 30
0.0
 10
-39.500000
 20
-85.700000
 30
0.0
  0
LWPOLYLINE
  5
133
100
AcDbEntity
  8
VISIBLE
 62
7
100
AcDbPolyline
 90
2
 70
0
 10
-41.250000
 20
-88.300000
 30
0.0
 10
-39.500000
 20
-88.300000
 30
0.0
  0
SPLINE
  5
134
100
AcDbEntity
  8
VISIBLE
 62
7
100
AcDbSpline
 70
8
 71
3
 72
8
 73
4
 74
0
 40
0
 40
0
 40
0
 40
0
 40
1
 40
1
 40
1
 40
1
 10
-41.250000
 20
-105.750000
 30
0.0
 10
-41.250000
 20
-106.015216
 30
0.0
 10
-41.144643
 20
-106.269570
 30
0.0
 10
-40.957107
 20
-106.457107
 30
0.0
  0
SPLINE
  5
135
100
AcDbEntity
  8
VISIBLE
 62
7
100
AcDbSpline
 70
8
 71
3
 72
8
 73
4
 74
0
 40
0
 40
0
 40
0
 40
0
 40
1
 40
1
 40
1
 40
1
 10
-40.957107
 20
-106.457107
 30
0.0
 10
-40.769570
 20
-106.644643
 30
0.0
 10
-40.515216
 20
-106.750000
 30
0.0
 10
-40.250000
 20
-106.750000
 30
0.0
  0
LWPOLYLINE
  5
136
100
AcDbEntity
  8
VISIBLE
 62
7
100
AcDbPolyline
 90
2
 70
0
 10
-41.250000
 20
-88.300000
 30
0.0
 10
-41.250000
 20
-105.750000
 30
0.0
  0
SPLINE
  5
137
100
AcDbEntity
  8
VISIBLE
 62
7
100
AcDbSpline
 70
8
 71
3
 72
8
 73
4
 74
0
 40
0
 40
0
 40
0
 40
0
 40
1
 40
1
 40
1
 40
1
 10
40.250000
 20
-106.750000
 30
0.0
 10
40.515216
 20
-106.750000
 30
0.0
 10
40.769570
 20
-106.644643
 30
0.0
 10
40.957107
 20
-106.457107
 30
0.0
  0
SPLINE
  5
138
100
AcDbEntity
  8
VISIBLE
 62
7
100
AcDbSpline
 70
8
 71
3
 72
8
 73
4
 74
0
 40
0
 40
0
 40
0
 40
0
 40
1
 40
1
 40
1
 40
1
 10
40.957107
 20
-106.457107
 30
0.0
 10
41.144643
 20
-106.269570
 30
0.0
 10
41.250000
 20
-106.015216
 30
0.0
 10
41.250000
 20
-105.750000
 30
0.0
  0
LWPOLYLINE
  5
139
100
AcDbEntity
  8
VISIBLE
 62
7
100
AcDbPolyline
 90
2
 70
0
 10
40.250000
 20
-106.750000
 30
0.0
 10
-40.250000
 20
-106.750000
 30
0.0
  0
LWPOLYLINE
  5
13a
100
AcDbEntity
  8
VISIBLE
 62
7
100
AcDbPolyline
 90
2
 70
0
 10
41.250000
 20
-88.300000
 30
0.0
 10
41.250000
 20
-105.750000
 30
0.0
  0
SPLINE
  5
13b
100
AcDbEntity
  8
VISIBLE
 62
7
100
AcDbSpline
 70
8
 71
3
 72
8
 73
4
 74
0
 40
0
 40
0
 40
0
 40
0
 40
1
 40
1
 40
1
 40
1
 10
39.500000
 20
-85.700000
 30
0.0
 10
39.035555
 20
-85.700000
 30
0.0
 10
38.606390
 20
-85.947779
 30
0.0
 10
38.374167
 20
-86.350000
 30
0.0
  0
SPLINE
  5
13c
100
AcDbEntity
  8
VISIBLE
 62
7
100
AcDbSpline
 70
8
 71
3
 72
8
 73
4
 74
0
 40
0
 40
0
 40
0
 40
0
 40
1
 40
1
 40
1
 40
1
 10
38.374167
 20
-86.350000
 30
0.0
 10
38.141944
 20
-86.752221
 30
0.0
 10
38.141944
 20
-87.247779
 30
0.0
 10
38.374167
 20
-87.650000
 30
0.0
  0
SPLINE
  5
13d
100
AcDbEntity
  8
VISIBLE
 62
7
100
AcDbSpline
 70
8
 71
3
 72
8
 73
4
 74
0
 40
0
 40
0
 40
0
 40
0
 40
1
 40
1
 40
1
 40
1
 10
38.374167
 20
-87.650000
 30
0.0
 10
38.606390
 20
-88.052222
 30
0.0
 10
39.035555
 20
-88.300000
 30
0.0
 10
39.500000
 20
-88.300000
 30
0.0
  0
LWPOLYLINE
  5
13e
100
AcDbEntity
  8
VISIBLE
 62
7
100
AcDbPolyline
 90
2
 70
0
 10
41.250000
 20
-88.300000
 30
0.0
 10
39.500000
 20
-88.300000
 30
0.0
  0
LWPOLYLINE
  5
13f
100
AcDbEntity
  8
VISIBLE
 62
7
100
AcDbPolyline
 90
2
 70
0
 10
41.250000
 20
-85.700000
 30
0.0
 10
39.500000
 20
-85.700000
 30
0.0
  0
LWPOLYLINE
  5
140
100
AcDbEntity
  8
VISIBLE
 62
7
100
AcDbPolyline
 90
2
 70
0
 10
41.250000
 20
-58.300000
 30
0.0
 10
41.250000
 20
-85.700000
 30
0.0
  0
SPLINE
  5
141
100
AcDbEntity
  8
VISIBLE
 62
7
100
AcDbSpline
 70
8
 71
3
 72
8
 73
4
 74
0
 40
0
 40
0
 40
0
 40
0
 40
1
 40
1
 40
1
 40
1
 10
39.500000
 20
-55.700000
 30
0.0
 10
39.035555
 20
-55.700000
 30
0.0
 10
38.606390
 20
-55.947779
 30
0.0
 10
38.374167
 20
-56.350000
 30
0.0
  0
SPLINE
  5
142
100
AcDbEntity
  8
VISIBLE
 62
7
100
AcDbSpline
 70
8
 71
3
 72
8
 73
4
 74
0
 40
0
 40
0
 40
0
 40
0
 40
1
 40
1
 40
1
 40
1
 10
38.374167
 20
-56.350000
 30
0.0
 10
38.141944
 20
-56.752221
 30
0.0
 10
38.141944
 20
-57.247779
 30
0.0
 10
38.374167
 20
-57.650000
 30
0.0
  0
SPLINE
  5
143
100
AcDbEntity
  8
VISIBLE
 62
7
100
AcDbSpline
 70
8
 71
3
 72
8
 73
4
 74
0
 40
0
 40
0
 40
0
 40
0
 40
1
 40
1
 40
1
 40
1
 10
38.374167
 20
-57.650000
 30
0.0
 10
38.606390
 20
-58.052221
 30
0.0
 10
39.035555
 20
-58.300000
 30
0.0
 10
39.500000
 20
-58.300000
 30
0.0
  0
LWPOLYLINE
  5
144
100
AcDbEntity
  8
VISIBLE
 62
7
100
AcDbPolyline
 90
2
 70
0
 10
41.250000
 20
-58.300000
 30
0.0
 10
39.500000
 20
-58.300000
 30
0.0
  0
LWPOLYLINE
  5
145
100
AcDbEntity
  8
VISIBLE
 62
7
100
AcDbPolyline
 90
2
 70
0
 10
41.250000
 20
-55.700000
 30
0.0
 10
39.500000
 20
-55.700000
 30
0.0
  0
LWPOLYLINE
  5
146
100
AcDbEntity
  8
VISIBLE
 62
7
100
AcDbPolyline
 90
2
 70
0
 10
41.250000
 20
-28.300000
 30
0.0
 10
41.250000
 20
-55.700000
 30
0.0
  0
SPLINE
  5
147
100
AcDbEntity
  8
VISIBLE
 62
7
100
AcDbSpline
 70
8
 71
3
 72
8
 73
4
 74
0
 40
0
 40
0
 40
0
 40
0
 40
1
 40
1
 40
1
 40
1
 10
39.500000
 20
-25.700000
 30
0.0
 10
39.035555
 20
-25.700000
 30
0.0
 10
38.606390
 20
-25.947779
 30
0.0
 10
38.374167
 20
-26.350000
 30
0.0
  0
SPLINE
  5
148
100
AcDbEntity
  8
VISIBLE
 62
7
100
AcDbSpline
 70
8
 71
3
 72
8
 73
4
 74
0
 40
0
 40
0
 40
0
 40
0
 40
1
 40
1
 40
1
 40
1
 10
38.374167
 20
-26.350000
 30
0.0
 10
38.141944
 20
-26.752221
 30
0.0
 10
38.141944
 20
-27.247779
 30
0.0
 10
38.374167
 20
-27.650000
 30
0.0
  0
SPLINE
  5
149
100
AcDbEntity
  8
VISIBLE
 62
7
100
AcDbSpline
 70
8
 71
3
 72
8
 73
4
 74
0
 40
0
 40
0
 40
0
 40
0
 40
1
 40
1
 40
1
 40
1
 10
38.374167
 20
-27.650000
 30
0.0
 10
38.606390
 20
-28.052221
 30
0.0
 10
39.035555
 20
-28.300000
 30
0.0
 10
39.500000
 20
-28.300000
 30
0.0
  0
LWPOLYLINE
  5
14a
100
AcDbEntity
  8
VISIBLE
 62
7
100
AcDbPolyline
 90
2
 70
0
 10
41.250000
 20
-28.300000
 30
0.0
 10
39.500000
 20
-28.300000
 30
0.0
  0
LWPOLYLINE
  5
14b
100
AcDbEntity
  8
VISIBLE
 62
7
100
AcDbPolyline
 90
2
 70
0
 10
41.250000
 20
-25.700000
 30
0.0
 10
39.500000
 20
-25.700000
 30
0.0
  0
SPLINE
  5
14c
100
AcDbEntity
  8
VISIBLE
 62
7
100
AcDbSpline
 70
8
 71
3
 72
8
 73
4
 74
0
 40
0
 40
0
 40
0
 40
0
 40
1
 40
1
 40
1
 40
1
 10
-6.700000
 20
-103.900000
 30
0.0
 10
-6.423858
 20
-103.900000
 30
0.0
 10
-6.200000
 20
-103.676142
 30
0.0
 10
-6.200000
 20
-103.400000
 30
0.0
  0
LWPOLYLINE
  5
14d
100
AcDbEntity
  8
VISIBLE
 62
7
100
AcDbPolyline
 90
2
 70
0
 10
-6.700000
 20
-103.900000
 30
0.0
 10
-9.500000
 20
-103.900000
 30
0.0
  0
SPLINE
  5
14e
100
AcDbEntity
  8
VISIBLE
 62
7
100
AcDbSpline
 70
8
 71
3
 72
8
 73
4
 74
0
 40
0
 40
0
 40
0
 40
0
 40
1
 40
1
 40
1
 40
1
 10
-5.700000
 20
-96.600000
 30
0.0
 10
-5.832608
 20
-96.600000
 30
0.0
 10
-5.959785
 20
-96.652678
 30
0.0
 10
-6.053553
 20
-96.746447
 30
0.0
  0
SPLINE
  5
14f
100
AcDbEntity
  8
VISIBLE
 62
7
100
AcDbSpline
 70
8
 71
3
 72
8
 73
4
 74
0
 40
0
 40
0
 40
0
 40
0
 40
1
 40
1
 40
1
 40
1
 10
-6.053553
 20
-96.746447
 30
0.0
 10
-6.147322
 20
-96.840215
 30
0.0
 10
-6.200000
 20
-96.967392
 30
0.0
 10
-6.200000
 20
-97.100000
 30
0.0
  0
LWPOLYLINE
  5
150
100
AcDbEntity
  8
VISIBLE
 62
7
100
AcDbPolyline
 90
2
 70
0
 10
-6.200000
 20
-97.100000
 30
0.0
 10
-6.200000
 20
-103.400000
 30
0.0
  0
SPLINE
  5
151
100
AcDbEntity
  8
VISIBLE
 62
7
100
AcDbSpline
 70
8
 71
3
 72
8
 73
4
 74
0
 40
0
 40
0
 40
0
 40
0
 40
1
 40
1
 40
1
 40
1
 10
6.200000
 20
-97.100000
 30
0.0
 10
6.200000
 20
-96.967392
 30
0.0
 10
6.147322
 20
-96.840215
 30
0.0
 10
6.053553
 20
-96.746447
 30
0.0
  0
SPLINE
  5
152
100
AcDbEntity
  8
VISIBLE
 62
7
100
AcDbSpline
 70
8
 71
3
 72
8
 73
4
 74
0
 40
0
 40
0
 40
0
 40
0
 40
1
 40
1
 40
1
 40
1
 10
6.053553
 20
-96.746447
 30
0.0
 10
5.959785
 20
-96.652678
 30
0.0
 10
5.832608
 20
-96.600000
 30
0.0
 10
5.700000
 20
-96.600000
 30
0.0
  0
LWPOLYLINE
  5
153
100
AcDbEntity
  8
VISIBLE
 62
7
100
AcDbPolyline
 90
2
 70
0
 10
5.700000
 20
-96.600000
 30
0.0
 10
-5.700000
 20
-96.600000
 30
0.0
  0
SPLINE
  5
154
100
AcDbEntity
  8
VISIBLE
 62
7
100
AcDbSpline
 70
8
 71
3
 72
8
 73
4
 74
0
 40
0
 40
0
 40
0
 40
0
 40
1
 40
1
 40
1
 40
1
 10
6.200000
 20
-103.400000
 30
0.0
 10
6.200000
 20
-103.676142
 30
0.0
 10
6.423858
 20
-103.900000
 30
0.0
 10
6.700000
 20
-103.900000
 30
0.0
  0
LWPOLYLINE
  5
155
100
AcDbEntity
  8
VISIBLE
 62
7
100
AcDbPolyline
 90
2
 70
0
 10
6.200000
 20
-97.100000
 30
0.0
 10
6.200000
 20
-103.400000
 30
0.0
  0
SPLINE
  5
156
100
AcDbEntity
  8
VISIBLE
 62
7
100
AcDbSpline
 70
8
 71
3
 72
8
 73
4
 74
0
 40
0
 40
0
 40
0
 40
0
 40
1
 40
1
 40
1
 40
1
 10
9.500000
 20
-104.900000
 30
0.0
 10
9.678633
 20
-104.900000
 30
0.0
 10
9.843696
 20
-104.804701
 30
0.0
 10
9.933013
 20
-104.650000
 30
0.0
  0
SPLINE
  5
157
100
AcDbEntity
  8
VISIBLE
 62
7
100
AcDbSpline
 70
8
 71
3
 72
8
 73
4
 74
0
 40
0
 40
0
 40
0
 40
0
 40
1
 40
1
 40
1
 40
1
 10
9.933013
 20
-104.650000
 30
0.0
 10
10.022329
 20
-104.495299
 30
0.0
 10
10.022329
 20
-104.304700
 30
0.0
 10
9.933013
 20
-104.150000
 30
0.0
  0
SPLINE
  5
158
100
AcDbEntity
  8
VISIBLE
 62
7
100
AcDbSpline
 70
8
 71
3
 72
8
 73
4
 74
0
 40
0
 40
0
 40
0
 40
0
 40
1
 40
1
 40
1
 40
1
 10
9.933013
 20
-104.150000
 30
0.0
 10
9.843696
 20
-103.995299
 30
0.0
 10
9.678633
 20
-103.900000
 30
0.0
 10
9.500000
 20
-103.900000
 30
0.0
  0
LWPOLYLINE
  5
159
100
AcDbEntity
  8
VISIBLE
 62
7
100
AcDbPolyline
 90
2
 70
0
 10
6.700000
 20
-103.900000
 30
0.0
 10
9.500000
 20
-103.900000
 30
0.0
  0
SPLINE
  5
15a
100
AcDbEntity
  8
VISIBLE
 62
7
100
AcDbSpline
 70
8
 71
3
 72
8
 73
4
 74
0
 40
0
 40
0
 40
0
 40
0
 40
1
 40
1
 40
1
 40
1
 10
3.000000
 20
-104.400000
 30
0.0
 10
3.000000
 20
-104.676142
 30
0.0
 10
3.223858
 20
-104.900000
 30
0.0
 10
3.500000
 20
-104.900000
 30
0.0
  0
LWPOLYLINE
  5
15b
100
AcDbEntity
  8
VISIBLE
 62
7
100
AcDbPolyline
 90
2
 70
0
 10
9.500000
 20
-104.900000
 30
0.0
 10
3.500000
 20
-104.900000
 30
0.0
  0
SPLINE
  5
15c
100
AcDbEntity
  8
VISIBLE
 62
7
100
AcDbSpline
 70
8
 71
3
 72
8
 73
4
 74
0
 40
0
 40
0
 40
0
 40
0
 40
1
 40
1
 40
1
 40
1
 10
3.000000
 20
-101.900000
 30
0.0
 10
3.000000
 20
-101.623858
 30
0.0
 10
2.776142
 20
-101.400000
 30
0.0
 10
2.500000
 20
-101.400000
 30
0.0
  0
LWPOLYLINE
  5
15d
100
AcDbEntity
  8
VISIBLE
 62
7
100
AcDbPolyline
 90
2
 70
0
 10
3.000000
 20
-104.400000
 30
0.0
 10
3.000000
 20
-101.900000
 30
0.0
  0
SPLINE
  5
15e
100
AcDbEntity
  8
VISIBLE
 62
7
100
AcDbSpline
 70
8
 71
3
 72
8
 73
4
 74
0
 40
0
 40
0
 40
0
 40
0
 40
1
 40
1
 40
1
 40
1
 10
-2.500000
 20
-101.400000
 30
0.0
 10
-2.776142
 20
-101.400000
 30
0.0
 10
-3.000000
 20
-101.623858
 30
0.0
 10
-3.000000
 20
-101.900000
 30
0.0
  0
LWPOLYLINE
  5
15f
100
AcDbEntity
  8
VISIBLE
 62
7
100
AcDbPolyline
 90
2
 70
0
 10
2.500000
 20
-101.400000
 30
0.0
 10
-2.500000
 20
-101.400000
 30
0.0
  0
SPLINE
  5
160
100
AcDbEntity
  8
VISIBLE
 62
7
100
AcDbSpline
 70
8
 71
3
 72
8
 73
4
 74
0
 40
0
 40
0
 40
0
 40
0
 40
1
 40
1
 40
1
 40
1
 10
-3.500000
 20
-104.900000
 30
0.0
 10
-3.223858
 20
-104.900000
 30
0.0
 10
-3.000000
 20
-104.676142
 30
0.0
 10
-3.000000
 20
-104.400000
 30
0.0
  0
LWPOLYLINE
  5
161
100
AcDbEntity
  8
VISIBLE
 62
7
100
AcDbPolyline
 90
2
 70
0
 10
-3.000000
 20
-104.400000
 30
0.0
 10
-3.000000
 20
-101.900000
 30
0.0
  0
SPLINE
  5
162
100
AcDbEntity
  8
VISIBLE
 62
7
100
AcDbSpline
 70
8
 71
3
 72
8
 73
4
 74
0
 40
0
 40
0
 40
0
 40
0
 40
1
 40
1
 40
1
 40
1
 10
-9.500000
 20
-103.900000
 30
0.0
 10
-9.678633
 20
-103.900000
 30
0.0
 10
-9.843696
 20
-103.995299
 30
0.0
 10
-9.933013
 20
-104.150000
 30
0.0
  0
SPLINE
  5
163
100
AcDbEntity
  8
VISIBLE
 62
7
100
AcDbSpline
 70
8
 71
3
 72
8
 73
4
 74
0
 40
0
 40
0
 40
0
 40
0
 40
1
 40
1
 40
1
 40
1
 10
-9.933013
 20
-104.150000
 30
0.0
 10
-10.022329
 20
-104.304700
 30
0.0
 10
-10.022329
 20
-104.495299
 30
0.0
 10
-9.933013
 20
-104.650000
 30
0.0
  0
SPLINE
  5
164
100
AcDbEntity
  8
VISIBLE
 62
7
100
AcDbSpline
 70
8
 71
3
 72
8
 73
4
 74
0
 40
0
 40
0
 40
0
 40
0
 40
1
 40
1
 40
1
 40
1
 10
-9.933013
 20
-104.650000
 30
0.0
 10
-9.843696
 20
-104.804701
 30
0.0
 10
-9.678633
 20
-104.900000
 30
0.0
 10
-9.500000
 20
-104.900000
 30
0.0
  0
SPLINE
  5
165
100
AcDbEntity
  8
VISIBLE
 62
7
100
AcDbSpline
 70
8
 71
3
 72
8
 73
4
 74
0
 40
0
 40
0
 40
0
 40
0
 40
1
 40
1
 40
1
 40
1
 10
1.500000
 20
-104.200000
 30
0.0
 10
1.500000
 20
-103.664102
 30
0.0
 10
1.214102
 20
-103.168911
 30
0.0
 10
0.750000
 20
-102.900962
 30
0.0
  0
SPLINE
  5
166
100
AcDbEntity
  8
VISIBLE
 62
7
100
AcDbSpline
 70
8
 71
3
 72
8
 73
4
 74
0
 40
0
 40
0
 40
0
 40
0
 40
1
 40
1
 40
1
 40
1
 10
0.750000
 20
-102.900962
 30
0.0
 10
0.285898
 20
-102.633013
 30
0.0
 10
-0.285898
 20
-102.633013
 30
0.0
 10
-0.750000
 20
-102.900962
 30
0.0
  0
SPLINE
  5
167
100
AcDbEntity
  8
VISIBLE
 62
7
100
AcDbSpline
 70
8
 71
3
 72
8
 73
4
 74
0
 40
0
 40
0
 40
0
 40
0
 40
1
 40
1
 40
1
 40
1
 10
-0.750000
 20
-102.900962
 30
0.0
 10
-1.214102
 20
-103.168911
 30
0.0
 10
-1.500000
 20
-103.664102
 30
0.0
 10
-1.500000
 20
-104.200000
 30
0.0
  0
SPLINE
  5
168
100
AcDbEntity
  8
VISIBLE
 62
7
100
AcDbSpline
 70
8
 71
3
 72
8
 73
4
 74
0
 40
0
 40
0
 40
0
 40
0
 40
1
 40
1
 40
1
 40
1
 10
-1.500000
 20
-104.200000
 30
0.0
 10
-1.500000
 20
-104.735898
 30
0.0
 10
-1.214102
 20
-105.231089
 30
0.0
 10
-0.750000
 20
-105.499038
 30
0.0
  0
SPLINE
  5
169
100
AcDbEntity
  8
VISIBLE
 62
7
100
AcDbSpline
 70
8
 71
3
 72
8
 73
4
 74
0
 40
0
 40
0
 40
0
 40
0
 40
1
 40
1
 40
1
 40
1
 10
-0.750000
 20
-105.499038
 30
0.0
 10
-0.285898
 20
-105.766987
 30
0.0
 10
0.285898
 20
-105.766987
 30
0.0
 10
0.750000
 20
-105.499038
 30
0.0
  0
SPLINE
  5
16a
100
AcDbEntity
  8
VISIBLE
 62
7
100
AcDbSpline
 70
8
 71
3
 72
8
 73
4
 74
0
 40
0
 40
0
 40
0
 40
0
 40
1
 40
1
 40
1
 40
1
 10
0.750000
 20
-105.499038
 30
0.0
 10
1.214102
 20
-105.231089
 30
0.0
 10
1.500000
 20
-104.735898
 30
0.0
 10
1.500000
 20
-104.200000
 30
0.0
  0
LWPOLYLINE
  5
16b
100
AcDbEntity
  8
VISIBLE
 62
7
100
AcDbPolyline
 90
2
 70
0
 10
-9.500000
 20
-104.900000
 30
0.0
 10
-3.500000
 20
-104.900000
 30
0.0
  0
LWPOLYLINE
  5
16c
100
AcDbEntity
  8
VISIBLE
 62
7
100
AcDbPolyline
 90
1
 70
1
 10
1.500000
 20
-104.200000
 30
0.0
  0
SPLINE
  5
16d
100
AcDbEntity
  8
VISIBLE
 62
7
100
AcDbSpline
 70
8
 71
3
 72
8
 73
4
 74
0
 40
0
 40
0
 40
0
 40
0
 40
1
 40
1
 40
1
 40
1
 10
-6.200000
 20
103.400000
 30
0.0
 10
-6.200000
 20
103.676142
 30
0.0
 10
-6.423858
 20
103.900000
 30
0.0
 10
-6.700000
 20
103.900000
 30
0.0
  0
LWPOLYLINE
  5
16e
100
AcDbEntity
  8
VISIBLE
 62
7
100
AcDbPolyline
 90
2
 70
0
 10
-6.200000
 20
97.100000
 30
0.0
 10
-6.200000
 20
103.400000
 30
0.0
  0
SPLINE
  5
16f
100
AcDbEntity
  8
VISIBLE
 62
7
100
AcDbSpline
 70
8
 71
3
 72
8
 73
4
 74
0
 40
0
 40
0
 40
0
 40
0
 40
1
 40
1
 40
1
 40
1
 10
-9.500000
 20
104.900000
 30
0.0
 10
-9.678633
 20
104.900000
 30
0.0
 10
-9.843696
 20
104.804701
 30
0.0
 10
-9.933013
 20
104.650000
 30
0.0
  0
SPLINE
  5
170
100
AcDbEntity
  8
VISIBLE
 62
7
100
AcDbSpline
 70
8
 71
3
 72
8
 73
4
 74
0
 40
0
 40
0
 40
0
 40
0
 40
1
 40
1
 40
1
 40
1
 10
-9.933013
 20
104.650000
 30
0.0
 10
-10.022329
 20
104.495299
 30
0.0
 10
-10.022329
 20
104.304700
 30
0.0
 10
-9.933013
 20
104.150000
 30
0.0
  0
SPLINE
  5
171
100
AcDbEntity
  8
VISIBLE
 62
7
100
AcDbSpline
 70
8
 71
3
 72
8
 73
4
 74
0
 40
0
 40
0
 40
0
 40
0
 40
1
 40
1
 40
1
 40
1
 10
-9.933013
 20
104.150000
 30
0.0
 10
-9.843696
 20
103.995299
 30
0.0
 10
-9.678633
 20
103.900000
 30
0.0
 10
-9.500000
 20
103.900000
 30
0.0
  0
LWPOLYLINE
  5
172
100
AcDbEntity
  8
VISIBLE
 62
7
100
AcDbPolyline
 90
2
 70
0
 10
-6.700000
 20
103.900000
 30
0.0
 10
-9.500000
 20
103.900000
 30
0.0
  0
SPLINE
  5
173
100
AcDbEntity
  8
VISIBLE
 62
7
100
AcDbSpline
 70
8
 71
3
 72
8
 73
4
 74
0
 40
0
 40
0
 40
0
 40
0
 40
1
 40
1
 40
1
 40
1
 10
-3.000000
 20
104.400000
 30
0.0
 10
-3.000000
 20
104.676142
 30
0.0
 10
-3.223858
 20
104.900000
 30
0.0
 10
-3.500000
 20
104.900000
 30
0.0
  0
LWPOLYLINE
  5
174
100
AcDbEntity
  8
VISIBLE
 62
7
100
AcDbPolyline
 90
2
 70
0
 10
-9.500000
 20
104.900000
 30
0.0
 10
-3.500000
 20
104.900000
 30
0.0
  0
SPLINE
  5
175
100
AcDbEntity
  8
VISIBLE
 62
7
100
AcDbSpline
 70
8
 71
3
 72
8
 73
4
 74
0
 40
0
 40
0
 40
0
 40
0
 40
1
 40
1
 40
1
 40
1
 10
-3.000000
 20
101.900000
 30
0.0
 10
-3.000000
 20
101.767392
 30
0.0
 10
-2.947322
 20
101.640215
 30
0.0
 10
-2.853553
 20
101.546447
 30
0.0
  0
SPLINE
  5
176
100
AcDbEntity
  8
VISIBLE
 62
7
100
AcDbSpline
 70
8
 71
3
 72
8
 73
4
 74
0
 40
0
 40
0
 40
0
 40
0
 40
1
 40
1
 40
1
 40
1
 10
-2.853553
 20
101.546447
 30
0.0
 10
-2.759785
 20
101.452678
 30
0.0
 10
-2.632608
 20
101.400000
 30
0.0
 10
-2.500000
 20
101.400000
 30
0.0
  0
LWPOLYLINE
  5
177
100
AcDbEntity
  8
VISIBLE
 62
7
100
AcDbPolyline
 90
2
 70
0
 10
-3.000000
 20
104.400000
 30
0.0
 10
-3.000000
 20
101.900000
 30
0.0
  0
SPLINE
  5
178
100
AcDbEntity
  8
VISIBLE
 62
7
100
AcDbSpline
 70
8
 71
3
 72
8
 73
4
 74
0
 40
0
 40
0
 40
0
 40
0
 40
1
 40
1
 40
1
 40
1
 10
2.500000
 20
101.400000
 30
0.0
 10
2.632608
 20
101.400000
 30
0.0
 10
2.759785
 20
101.452678
 30
0.0
 10
2.853553
 20
101.546447
 30
0.0
  0
SPLINE
  5
179
100
AcDbEntity
  8
VISIBLE
 62
7
100
AcDbSpline
 70
8
 71
3
 72
8
 73
4
 74
0
 40
0
 40
0
 40
0
 40
0
 40
1
 40
1
 40
1
 40
1
 10
2.853553
 20
101.546447
 30
0.0
 10
2.947322
 20
101.640215
 30
0.0
 10
3.000000
 20
101.767392
 30
0.0
 10
3.000000
 20
101.900000
 30
0.0
  0
LWPOLYLINE
  5
17a
100
AcDbEntity
  8
VISIBLE
 62
7
100
AcDbPolyline
 90
2
 70
0
 10
2.500000
 20
101.400000
 30
0.0
 10
-2.500000
 20
101.400000
 30
0.0
  0
SPLINE
  5
17b
100
AcDbEntity
  8
VISIBLE
 62
7
100
AcDbSpline
 70
8
 71
3
 72
8
 73
4
 74
0
 40
0
 40
0
 40
0
 40
0
 40
1
 40
1
 40
1
 40
1
 10
3.500000
 20
104.900000
 30
0.0
 10
3.223858
 20
104.900000
 30
0.0
 10
3.000000
 20
104.676142
 30
0.0
 10
3.000000
 20
104.400000
 30
0.0
  0
LWPOLYLINE
  5
17c
100
AcDbEntity
  8
VISIBLE
 62
7
100
AcDbPolyline
 90
2
 70
0
 10
3.000000
 20
104.400000
 30
0.0
 10
3.000000
 20
101.900000
 30
0.0
  0
SPLINE
  5
17d
100
AcDbEntity
  8
VISIBLE
 62
7
100
AcDbSpline
 70
8
 71
3
 72
8
 73
4
 74
0
 40
0
 40
0
 40
0
 40
0
 40
1
 40
1
 40
1
 40
1
 10
9.500000
 20
103.900000
 30
0.0
 10
9.678633
 20
103.900000
 30
0.0
 10
9.843696
 20
103.995299
 30
0.0
 10
9.933013
 20
104.150000
 30
0.0
  0
SPLINE
  5
17e
100
AcDbEntity
  8
VISIBLE
 62
7
100
AcDbSpline
 70
8
 71
3
 72
8
 73
4
 74
0
 40
0
 40
0
 40
0
 40
0
 40
1
 40
1
 40
1
 40
1
 10
9.933013
 20
104.150000
 30
0.0
 10
10.022329
 20
104.304700
 30
0.0
 10
10.022329
 20
104.495299
 30
0.0
 10
9.933013
 20
104.650000
 30
0.0
  0
SPLINE
  5
17f
100
AcDbEntity
  8
VISIBLE
 62
7
100
AcDbSpline
 70
8
 71
3
 72
8
 73
4
 74
0
 40
0
 40
0
 40
0
 40
0
 40
1
 40
1
 40
1
 40
1
 10
9.933013
 20
104.650000
 30
0.0
 10
9.843696
 20
104.804701
 30
0.0
 10
9.678633
 20
104.900000
 30
0.0
 10
9.500000
 20
104.900000
 30
0.0
  0
LWPOLYLINE
  5
180
100
AcDbEntity
  8
VISIBLE
 62
7
100
AcDbPolyline
 90
2
 70
0
 10
9.500000
 20
104.900000
 30
0.0
 10
3.500000
 20
104.900000
 30
0.0
  0
SPLINE
  5
181
100
AcDbEntity
  8
VISIBLE
 62
7
100
AcDbSpline
 70
8
 71
3
 72
8
 73
4
 74
0
 40
0
 40
0
 40
0
 40
0
 40
1
 40
1
 40
1
 40
1
 10
6.700000
 20
103.900000
 30
0.0
 10
6.423858
 20
103.900000
 30
0.0
 10
6.200000
 20
103.676142
 30
0.0
 10
6.200000
 20
103.400000
 30
0.0
  0
LWPOLYLINE
  5
182
100
AcDbEntity
  8
VISIBLE
 62
7
100
AcDbPolyline
 90
2
 70
0
 10
6.700000
 20
103.900000
 30
0.0
 10
9.500000
 20
103.900000
 30
0.0
  0
SPLINE
  5
183
100
AcDbEntity
  8
VISIBLE
 62
7
100
AcDbSpline
 70
8
 71
3
 72
8
 73
4
 74
0
 40
0
 40
0
 40
0
 40
0
 40
1
 40
1
 40
1
 40
1
 10
5.700000
 20
96.600000
 30
0.0
 10
5.832608
 20
96.600000
 30
0.0
 10
5.959785
 20
96.652678
 30
0.0
 10
6.053553
 20
96.746447
 30
0.0
  0
SPLINE
  5
184
100
AcDbEntity
  8
VISIBLE
 62
7
100
AcDbSpline
 70
8
 71
3
 72
8
 73
4
 74
0
 40
0
 40
0
 40
0
 40
0
 40
1
 40
1
 40
1
 40
1
 10
6.053553
 20
96.746447
 30
0.0
 10
6.147322
 20
96.840215
 30
0.0
 10
6.200000
 20
96.967392
 30
0.0
 10
6.200000
 20
97.100000
 30
0.0
  0
LWPOLYLINE
  5
185
100
AcDbEntity
  8
VISIBLE
 62
7
100
AcDbPolyline
 90
2
 70
0
 10
6.200000
 20
97.100000
 30
0.0
 10
6.200000
 20
103.400000
 30
0.0
  0
SPLINE
  5
186
100
AcDbEntity
  8
VISIBLE
 62
7
100
AcDbSpline
 70
8
 71
3
 72
8
 73
4
 74
0
 40
0
 40
0
 40
0
 40
0
 40
1
 40
1
 40
1
 40
1
 10
-6.200000
 20
97.100000
 30
0.0
 10
-6.200000
 20
96.967392
 30
0.0
 10
-6.147322
 20
96.840215
 30
0.0
 10
-6.053553
 20
96.746447
 30
0.0
  0
SPLINE
  5
187
100
AcDbEntity
  8
VISIBLE
 62
7
100
AcDbSpline
 70
8
 71
3
 72
8
 73
4
 74
0
 40
0
 40
0
 40
0
 40
0
 40
1
 40
1
 40
1
 40
1
 10
-6.053553
 20
96.746447
 30
0.0
 10
-5.959785
 20
96.652678
 30
0.0
 10
-5.832608
 20
96.600000
 30
0.0
 10
-5.700000
 20
96.600000
 30
0.0
  0
SPLINE
  5
188
100
AcDbEntity
  8
VISIBLE
 62
7
100
AcDbSpline
 70
8
 71
3
 72
8
 73
4
 74
0
 40
0
 40
0
 40
0
 40
0
 40
1
 40
1
 40
1
 40
1
 10
1.500000
 20
104.200000
 30
0.0
 10
1.500000
 20
104.735898
 30
0.0
 10
1.214102
 20
105.231089
 30
0.0
 10
0.750000
 20
105.499038
 30
0.0
  0
SPLINE
  5
189
100
AcDbEntity
  8
VISIBLE
 62
7
100
AcDbSpline
 70
8
 71
3
 72
8
 73
4
 74
0
 40
0
 40
0
 40
0
 40
0
 40
1
 40
1
 40
1
 40
1
 10
0.750000
 20
105.499038
 30
0.0
 10
0.285898
 20
105.766987
 30
0.0
 10
-0.285898
 20
105.766987
 30
0.0
 10
-0.750000
 20
105.499038
 30
0.0
  0
SPLINE
  5
18a
100
AcDbEntity
  8
VISIBLE
 62
7
100
AcDbSpline
 70
8
 71
3
 72
8
 73
4
 74
0
 40
0
 40
0
 40
0
 40
0
 40
1
 40
1
 40
1
 40
1
 10
-0.750000
 20
105.499038
 30
0.0
 10
-1.214102
 20
105.231089
 30
0.0
 10
-1.500000
 20
104.735898
 30
0.0
 10
-1.500000
 20
104.200000
 30
0.0
  0
SPLINE
  5
18b
100
AcDbEntity
  8
VISIBLE
 62
7
100
AcDbSpline
 70
8
 71
3
 72
8
 73
4
 74
0
 40
0
 40
0
 40
0
 40
0
 40
1
 40
1
 40
1
 40
1
 10
-1.500000
 20
104.200000
 30
0.0
 10
-1.500000
 20
103.664102
 30
0.0
 10
-1.214102
 20
103.168911
 30
0.0
 10
-0.750000
 20
102.900962
 30
0.0
  0
SPLINE
  5
18c
100
AcDbEntity
  8
VISIBLE
 62
7
100
AcDbSpline
 70
8
 71
3
 72
8
 73
4
 74
0
 40
0
 40
0
 40
0
 40
0
 40
1
 40
1
 40
1
 40
1
 10
-0.750000
 20
102.900962
 30
0.0
 10
-0.285898
 20
102.633013
 30
0.0
 10
0.285898
 20
102.633013
 30
0.0
 10
0.750000
 20
102.900962
 30
0.0
  0
SPLINE
  5
18d
100
AcDbEntity
  8
VISIBLE
 62
7
100
AcDbSpline
 70
8
 71
3
 72
8
 73
4
 74
0
 40
0
 40
0
 40
0
 40
0
 40
1
 40
1
 40
1
 40
1
 10
0.750000
 20
102.900962
 30
0.0
 10
1.214102
 20
103.168911
 30
0.0
 10
1.500000
 20
103.664102
 30
0.0
 10
1.500000
 20
104.200000
 30
0.0
  0
LWPOLYLINE
  5
18e
100
AcDbEntity
  8
VISIBLE
 62
7
100
AcDbPolyline
 90
2
 70
0
 10
5.700000
 20
96.600000
 30
0.0
 10
-5.700000
 20
96.600000
 30
0.0
  0
SPLINE
  5
18f
100
AcDbEntity
  8
VISIBLE
 62
7
100
AcDbSpline
 70
8
 71
3
 72
8
 73
4
 74
0
 40
0
 40
0
 40
0
 40
0
 40
1
 40
1
 40
1
 40
1
 10
-15.300000
 20
36.500000
 30
0.0
 10
-15.300000
 20
36.928719
 30
0.0
 10
-15.528719
 20
37.324871
 30
0.0
 10
-15.900000
 20
37.539231
 30
0.0
  0
SPLINE
  5
190
100
AcDbEntity
  8
VISIBLE
 62
7
100
AcDbSpline
 70
8
 71
3
 72
8
 73
4
 74
0
 40
0
 40
0
 40
0
 40
0
 40
1
 40
1
 40
1
 40
1
 10
-15.900000
 20
37.539231
 30
0.0
 10
-16.271281
 20
37.753590
 30
0.0
 10
-16.728719
 20
37.753590
 30
0.0
 10
-17.100000
 20
37.539231
 30
0.0
  0
SPLINE
  5
191
100
AcDbEntity
  8
VISIBLE
 62
7
100
AcDbSpline
 70
8
 71
3
 72
8
 73
4
 74
0
 40
0
 40
0
 40
0
 40
0
 40
1
 40
1
 40
1
 40
1
 10
-17.100000
 20
37.539231
 30
0.0
 10
-17.471281
 20
37.324871
 30
0.0
 10
-17.700000
 20
36.928719
 30
0.0
 10
-17.700000
 20
36.500000
 30
0.0
  0
SPLINE
  5
192
100
AcDbEntity
  8
VISIBLE
 62
7
100
AcDbSpline
 70
8
 71
3
 72
8
 73
4
 74
0
 40
0
 40
0
 40
0
 40
0
 40
1
 40
1
 40
1
 40
1
 10
-17.700000
 20
36.500000
 30
0.0
 10
-17.700000
 20
36.071281
 30
0.0
 10
-17.471281
 20
35.675129
 30
0.0
 10
-17.100000
 20
35.460770
 30
0.0
  0
SPLINE
  5
193
100
AcDbEntity
  8
VISIBLE
 62
7
100
AcDbSpline
 70
8
 71
3
 72
8
 73
4
 74
0
 40
0
 40
0
 40
0
 40
0
 40
1
 40
1
 40
1
 40
1
 10
-17.100000
 20
35.460770
 30
0.0
 10
-16.728719
 20
35.246410
 30
0.0
 10
-16.271281
 20
35.246410
 30
0.0
 10
-15.900000
 20
35.460770
 30
0.0
  0
SPLINE
  5
194
100
AcDbEntity
  8
VISIBLE
 62
7
100
AcDbSpline
 70
8
 71
3
 72
8
 73
4
 74
0
 40
0
 40
0
 40
0
 40
0
 40
1
 40
1
 40
1
 40
1
 10
-15.900000
 20
35.460770
 30
0.0
 10
-15.528719
 20
35.675129
 30
0.0
 10
-15.300000
 20
36.071281
 30
0.0
 10
-15.300000
 20
36.500000
 30
0.0
  0
LWPOLYLINE
  5
195
100
AcDbEntity
  8
VISIBLE
 62
7
100
AcDbPolyline
 90
1
 70
1
 10
1.500000
 20
104.200000
 30
0.0
  0
SPLINE
  5
196
100
AcDbEntity
  8
VISIBLE
 62
7
100
AcDbSpline
 70
8
 71
3
 72
8
 73
4
 74
0
 40
0
 40
0
 40
0
 40
0
 40
1
 40
1
 40
1
 40
1
 10
17.700000
 20
36.500000
 30
0.0
 10
17.700000
 20
36.928719
 30
0.0
 10
17.471281
 20
37.324871
 30
0.0
 10
17.100000
 20
37.539231
 30
0.0
  0
SPLINE
  5
197
100
AcDbEntity
  8
VISIBLE
 62
7
100
AcDbSpline
 70
8
 71
3
 72
8
 73
4
 74
0
 40
0
 40
0
 40
0
 40
0
 40
1
 40
1
 40
1
 40
1
 10
17.100000
 20
37.539231
 30
0.0
 10
16.728719
 20
37.753590
 30
0.0
 10
16.271281
 20
37.753590
 30
0.0
 10
15.900000
 20
37.539231
 30
0.0
  0
SPLINE
  5
198
100
AcDbEntity
  8
VISIBLE
 62
7
100
AcDbSpline
 70
8
 71
3
 72
8
 73
4
 74
0
 40
0
 40
0
 40
0
 40
0
 40
1
 40
1
 40
1
 40
1
 10
15.900000
 20
37.539231
 30
0.0
 10
15.528719
 20
37.324871
 30
0.0
 10
15.300000
 20
36.928719
 30
0.0
 10
15.300000
 20
36.500000
 30
0.0
  0
SPLINE
  5
199
100
AcDbEntity
  8
VISIBLE
 62
7
100
AcDbSpline
 70
8
 71
3
 72
8
 73
4
 74
0
 40
0
 40
0
 40
0
 40
0
 40
1
 40
1
 40
1
 40
1
 10
15.300000
 20
36.500000
 30
0.0
 10
15.300000
 20
36.071281
 30
0.0
 10
15.528719
 20
35.675129
 30
0.0
 10
15.900000
 20
35.460770
 30
0.0
  0
SPLINE
  5
19a
100
AcDbEntity
  8
VISIBLE
 62
7
100
AcDbSpline
 70
8
 71
3
 72
8
 73
4
 74
0
 40
0
 40
0
 40
0
 40
0
 40
1
 40
1
 40
1
 40
1
 10
15.900000
 20
35.460770
 30
0.0
 10
16.271281
 20
35.246410
 30
0.0
 10
16.728719
 20
35.246410
 30
0.0
 10
17.100000
 20
35.460770
 30
0.0
  0
SPLINE
  5
19b
100
AcDbEntity
  8
VISIBLE
 62
7
100
AcDbSpline
 70
8
 71
3
 72
8
 73
4
 74
0
 40
0
 40
0
 40
0
 40
0
 40
1
 40
1
 40
1
 40
1
 10
17.100000
 20
35.460770
 30
0.0
 10
17.471281
 20
35.675129
 30
0.0
 10
17.700000
 20
36.071281
 30
0.0
 10
17.700000
 20
36.500000
 30
0.0
  0
LWPOLYLINE
  5
19c
100
AcDbEntity
  8
VISIBLE
 62
7
100
AcDbPolyline
 90
1
 70
1
 10
-15.300000
 20
36.500000
 30
0.0
  0
SPLINE
  5
19d
100
AcDbEntity
  8
VISIBLE
 62
7
100
AcDbSpline
 70
8
 71
3
 72
8
 73
4
 74
0
 40
0
 40
0
 40
0
 40
0
 40
1
 40
1
 40
1
 40
1
 10
17.700000
 20
76.500000
 30
0.0
 10
17.700000
 20
76.928719
 30
0.0
 10
17.471281
 20
77.324871
 30
0.0
 10
17.100000
 20
77.539230
 30
0.0
  0
SPLINE
  5
19e
100
AcDbEntity
  8
VISIBLE
 62
7
100
AcDbSpline
 70
8
 71
3
 72
8
 73
4
 74
0
 40
0
 40
0
 40
0
 40
0
 40
1
 40
1
 40
1
 40
1
 10
17.100000
 20
77.539230
 30
0.0
 10
16.728719
 20
77.753590
 30
0.0
 10
16.271281
 20
77.753590
 30
0.0
 10
15.900000
 20
77.539230
 30
0.0
  0
SPLINE
  5
19f
100
AcDbEntity
  8
VISIBLE
 62
7
100
AcDbSpline
 70
8
 71
3
 72
8
 73
4
 74
0
 40
0
 40
0
 40
0
 40
0
 40
1
 40
1
 40
1
 40
1
 10
15.900000
 20
77.539230
 30
0.0
 10
15.528719
 20
77.324871
 30
0.0
 10
15.300000
 20
76.928719
 30
0.0
 10
15.300000
 20
76.500000
 30
0.0
  0
SPLINE
  5
1a0
100
AcDbEntity
  8
VISIBLE
 62
7
100
AcDbSpline
 70
8
 71
3
 72
8
 73
4
 74
0
 40
0
 40
0
 40
0
 40
0
 40
1
 40
1
 40
1
 40
1
 10
15.300000
 20
76.500000
 30
0.0
 10
15.300000
 20
76.071281
 30
0.0
 10
15.528719
 20
75.675129
 30
0.0
 10
15.900000
 20
75.460769
 30
0.0
  0
SPLINE
  5
1a1
100
AcDbEntity
  8
VISIBLE
 62
7
100
AcDbSpline
 70
8
 71
3
 72
8
 73
4
 74
0
 40
0
 40
0
 40
0
 40
0
 40
1
 40
1
 40
1
 40
1
 10
15.900000
 20
75.460769
 30
0.0
 10
16.271281
 20
75.246410
 30
0.0
 10
16.728719
 20
75.246410
 30
0.0
 10
17.100000
 20
75.460769
 30
0.0
  0
SPLINE
  5
1a2
100
AcDbEntity
  8
VISIBLE
 62
7
100
AcDbSpline
 70
8
 71
3
 72
8
 73
4
 74
0
 40
0
 40
0
 40
0
 40
0
 40
1
 40
1
 40
1
 40
1
 10
17.100000
 20
75.460769
 30
0.0
 10
17.471281
 20
75.675129
 30
0.0
 10
17.700000
 20
76.071281
 30
0.0
 10
17.700000
 20
76.500000
 30
0.0
  0
LWPOLYLINE
  5
1a3
100
AcDbEntity
  8
VISIBLE
 62
7
100
AcDbPolyline
 90
1
 70
1
 10
17.700000
 20
36.500000
 30
0.0
  0
SPLINE
  5
1a4
100
AcDbEntity
  8
VISIBLE
 62
7
100
AcDbSpline
 70
8
 71
3
 72
8
 73
4
 74
0
 40
0
 40
0
 40
0
 40
0
 40
1
 40
1
 40
1
 40
1
 10
-15.300000
 20
76.500000
 30
0.0
 10
-15.300000
 20
76.928719
 30
0.0
 10
-15.528719
 20
77.324871
 30
0.0
 10
-15.900000
 20
77.539230
 30
0.0
  0
SPLINE
  5
1a5
100
AcDbEntity
  8
VISIBLE
 62
7
100
AcDbSpline
 70
8
 71
3
 72
8
 73
4
 74
0
 40
0
 40
0
 40
0
 40
0
 40
1
 40
1
 40
1
 40
1
 10
-15.900000
 20
77.539230
 30
0.0
 10
-16.271281
 20
77.753590
 30
0.0
 10
-16.728719
 20
77.753590
 30
0.0
 10
-17.100000
 20
77.539230
 30
0.0
  0
SPLINE
  5
1a6
100
AcDbEntity
  8
VISIBLE
 62
7
100
AcDbSpline
 70
8
 71
3
 72
8
 73
4
 74
0
 40
0
 40
0
 40
0
 40
0
 40
1
 40
1
 40
1
 40
1
 10
-17.100000
 20
77.539230
 30
0.0
 10
-17.471281
 20
77.324871
 30
0.0
 10
-17.700000
 20
76.928719
 30
0.0
 10
-17.700000
 20
76.500000
 30
0.0
  0
SPLINE
  5
1a7
100
AcDbEntity
  8
VISIBLE
 62
7
100
AcDbSpline
 70
8
 71
3
 72
8
 73
4
 74
0
 40
0
 40
0
 40
0
 40
0
 40
1
 40
1
 40
1
 40
1
 10
-17.700000
 20
76.500000
 30
0.0
 10
-17.700000
 20
76.071281
 30
0.0
 10
-17.471281
 20
75.675129
 30
0.0
 10
-17.100000
 20
75.460769
 30
0.0
  0
SPLINE
  5
1a8
100
AcDbEntity
  8
VISIBLE
 62
7
100
AcDbSpline
 70
8
 71
3
 72
8
 73
4
 74
0
 40
0
 40
0
 40
0
 40
0
 40
1
 40
1
 40
1
 40
1
 10
-17.100000
 20
75.460769
 30
0.0
 10
-16.728719
 20
75.246410
 30
0.0
 10
-16.271281
 20
75.246410
 30
0.0
 10
-15.900000
 20
75.460769
 30
0.0
  0
SPLINE
  5
1a9
100
AcDbEntity
  8
VISIBLE
 62
7
100
AcDbSpline
 70
8
 71
3
 72
8
 73
4
 74
0
 40
0
 40
0
 40
0
 40
0
 40
1
 40
1
 40
1
 40
1
 10
-15.900000
 20
75.460769
 30
0.0
 10
-15.528719
 20
75.675129
 30
0.0
 10
-15.300000
 20
76.071281
 30
0.0
 10
-15.300000
 20
76.500000
 30
0.0
  0
LWPOLYLINE
  5
1aa
100
AcDbEntity
  8
VISIBLE
 62
7
100
AcDbPolyline
 90
1
 70
1
 10
17.700000
 20
76.500000
 30
0.0
  0
SPLINE
  5
1ab
100
AcDbEntity
  8
VISIBLE
 62
7
100
AcDbSpline
 70
8
 71
3
 72
8
 73
4
 74
0
 40
0
 40
0
 40
0
 40
0
 40
1
 40
1
 40
1
 40
1
 10
-15.300000
 20
-36.500000
 30
0.0
 10
-15.300000
 20
-36.071281
 30
0.0
 10
-15.528719
 20
-35.675129
 30
0.0
 10
-15.900000
 20
-35.460770
 30
0.0
  0
SPLINE
  5
1ac
100
AcDbEntity
  8
VISIBLE
 62
7
100
AcDbSpline
 70
8
 71
3
 72
8
 73
4
 74
0
 40
0
 40
0
 40
0
 40
0
 40
1
 40
1
 40
1
 40
1
 10
-15.900000
 20
-35.460770
 30
0.0
 10
-16.271281
 20
-35.246410
 30
0.0
 10
-16.728719
 20
-35.246410
 30
0.0
 10
-17.100000
 20
-35.460770
 30
0.0
  0
SPLINE
  5
1ad
100
AcDbEntity
  8
VISIBLE
 62
7
100
AcDbSpline
 70
8
 71
3
 72
8
 73
4
 74
0
 40
0
 40
0
 40
0
 40
0
 40
1
 40
1
 40
1
 40
1
 10
-17.100000
 20
-35.460770
 30
0.0
 10
-17.471281
 20
-35.675129
 30
0.0
 10
-17.700000
 20
-36.071281
 30
0.0
 10
-17.700000
 20
-36.500000
 30
0.0
  0
SPLINE
  5
1ae
100
AcDbEntity
  8
VISIBLE
 62
7
100
AcDbSpline
 70
8
 71
3
 72
8
 73
4
 74
0
 40
0
 40
0
 40
0
 40
0
 40
1
 40
1
 40
1
 40
1
 10
-17.700000
 20
-36.500000
 30
0.0
 10
-17.700000
 20
-36.928719
 30
0.0
 10
-17.471281
 20
-37.324871
 30
0.0
 10
-17.100000
 20
-37.539230
 30
0.0
  0
SPLINE
  5
1af
100
AcDbEntity
  8
VISIBLE
 62
7
100
AcDbSpline
 70
8
 71
3
 72
8
 73
4
 74
0
 40
0
 40
0
 40
0
 40
0
 40
1
 40
1
 40
1
 40
1
 10
-17.100000
 20
-37.539230
 30
0.0
 10
-16.728719
 20
-37.753590
 30
0.0
 10
-16.271281
 20
-37.753590
 30
0.0
 10
-15.900000
 20
-37.539230
 30
0.0
  0
SPLINE
  5
1b0
100
AcDbEntity
  8
VISIBLE
 62
7
100
AcDbSpline
 70
8
 71
3
 72
8
 73
4
 74
0
 40
0
 40
0
 40
0
 40
0
 40
1
 40
1
 40
1
 40
1
 10
-15.900000
 20
-37.539230
 30
0.0
 10
-15.528719
 20
-37.324871
 30
0.0
 10
-15.300000
 20
-36.928719
 30
0.0
 10
-15.300000
 20
-36.500000
 30
0.0
  0
LWPOLYLINE
  5
1b1
100
AcDbEntity
  8
VISIBLE
 62
7
100
AcDbPolyline
 90
1
 70
1
 10
-15.300000
 20
76.500000
 30
0.0
  0
SPLINE
  5
1b2
100
AcDbEntity
  8
VISIBLE
 62
7
100
AcDbSpline
 70
8
 71
3
 72
8
 73
4
 74
0
 40
0
 40
0
 40
0
 40
0
 40
1
 40
1
 40
1
 40
1
 10
17.700000
 20
-36.500000
 30
0.0
 10
17.700000
 20
-36.071281
 30
0.0
 10
17.471281
 20
-35.675129
 30
0.0
 10
17.100000
 20
-35.460770
 30
0.0
  0
SPLINE
  5
1b3
100
AcDbEntity
  8
VISIBLE
 62
7
100
AcDbSpline
 70
8
 71
3
 72
8
 73
4
 74
0
 40
0
 40
0
 40
0
 40
0
 40
1
 40
1
 40
1
 40
1
 10
17.100000
 20
-35.460770
 30
0.0
 10
16.728719
 20
-35.246410
 30
0.0
 10
16.271281
 20
-35.246410
 30
0.0
 10
15.900000
 20
-35.460770
 30
0.0
  0
SPLINE
  5
1b4
100
AcDbEntity
  8
VISIBLE
 62
7
100
AcDbSpline
 70
8
 71
3
 72
8
 73
4
 74
0
 40
0
 40
0
 40
0
 40
0
 40
1
 40
1
 40
1
 40
1
 10
15.900000
 20
-35.460770
 30
0.0
 10
15.528719
 20
-35.675129
 30
0.0
 10
15.300000
 20
-36.071281
 30
0.0
 10
15.300000
 20
-36.500000
 30
0.0
  0
SPLINE
  5
1b5
100
AcDbEntity
  8
VISIBLE
 62
7
100
AcDbSpline
 70
8
 71
3
 72
8
 73
4
 74
0
 40
0
 40
0
 40
0
 40
0
 40
1
 40
1
 40
1
 40
1
 10
15.300000
 20
-36.500000
 30
0.0
 10
15.300000
 20
-36.928719
 30
0.0
 10
15.528719
 20
-37.324871
 30
0.0
 10
15.900000
 20
-37.539230
 30
0.0
  0
SPLINE
  5
1b6
100
AcDbEntity
  8
VISIBLE
 62
7
100
AcDbSpline
 70
8
 71
3
 72
8
 73
4
 74
0
 40
0
 40
0
 40
0
 40
0
 40
1
 40
1
 40
1
 40
1
 10
15.900000
 20
-37.539230
 30
0.0
 10
16.271281
 20
-37.753590
 30
0.0
 10
16.728719
 20
-37.753590
 30
0.0
 10
17.100000
 20
-37.539230
 30
0.0
  0
SPLINE
  5
1b7
100
AcDbEntity
  8
VISIBLE
 62
7
100
AcDbSpline
 70
8
 71
3
 72
8
 73
4
 74
0
 40
0
 40
0
 40
0
 40
0
 40
1
 40
1
 40
1
 40
1
 10
17.100000
 20
-37.539230
 30
0.0
 10
17.471281
 20
-37.324871
 30
0.0
 10
17.700000
 20
-36.928719
 30
0.0
 10
17.700000
 20
-36.500000
 30
0.0
  0
LWPOLYLINE
  5
1b8
100
AcDbEntity
  8
VISIBLE
 62
7
100
AcDbPolyline
 90
1
 70
1
 10
-15.300000
 20
-36.500000
 30
0.0
  0
SPLINE
  5
1b9
100
AcDbEntity
  8
VISIBLE
 62
7
100
AcDbSpline
 70
8
 71
3
 72
8
 73
4
 74
0
 40
0
 40
0
 40
0
 40
0
 40
1
 40
1
 40
1
 40
1
 10
17.700000
 20
-76.500000
 30
0.0
 10
17.700000
 20
-76.071281
 30
0.0
 10
17.471281
 20
-75.675129
 30
0.0
 10
17.100000
 20
-75.460769
 30
0.0
  0
SPLINE
  5
1ba
100
AcDbEntity
  8
VISIBLE
 62
7
100
AcDbSpline
 70
8
 71
3
 72
8
 73
4
 74
0
 40
0
 40
0
 40
0
 40
0
 40
1
 40
1
 40
1
 40
1
 10
17.100000
 20
-75.460769
 30
0.0
 10
16.728719
 20
-75.246410
 30
0.0
 10
16.271281
 20
-75.246410
 30
0.0
 10
15.900000
 20
-75.460769
 30
0.0
  0
SPLINE
  5
1bb
100
AcDbEntity
  8
VISIBLE
 62
7
100
AcDbSpline
 70
8
 71
3
 72
8
 73
4
 74
0
 40
0
 40
0
 40
0
 40
0
 40
1
 40
1
 40
1
 40
1
 10
15.900000
 20
-75.460769
 30
0.0
 10
15.528719
 20
-75.675129
 30
0.0
 10
15.300000
 20
-76.071281
 30
0.0
 10
15.300000
 20
-76.500000
 30
0.0
  0
SPLINE
  5
1bc
100
AcDbEntity
  8
VISIBLE
 62
7
100
AcDbSpline
 70
8
 71
3
 72
8
 73
4
 74
0
 40
0
 40
0
 40
0
 40
0
 40
1
 40
1
 40
1
 40
1
 10
15.300000
 20
-76.500000
 30
0.0
 10
15.300000
 20
-76.928719
 30
0.0
 10
15.528719
 20
-77.324871
 30
0.0
 10
15.900000
 20
-77.539230
 30
0.0
  0
SPLINE
  5
1bd
100
AcDbEntity
  8
VISIBLE
 62
7
100
AcDbSpline
 70
8
 71
3
 72
8
 73
4
 74
0
 40
0
 40
0
 40
0
 40
0
 40
1
 40
1
 40
1
 40
1
 10
15.900000
 20
-77.539230
 30
0.0
 10
16.271281
 20
-77.753590
 30
0.0
 10
16.728719
 20
-77.753590
 30
0.0
 10
17.100000
 20
-77.539230
 30
0.0
  0
SPLINE
  5
1be
100
AcDbEntity
  8
VISIBLE
 62
7
100
AcDbSpline
 70
8
 71
3
 72
8
 73
4
 74
0
 40
0
 40
0
 40
0
 40
0
 40
1
 40
1
 40
1
 40
1
 10
17.100000
 20
-77.539230
 30
0.0
 10
17.471281
 20
-77.324871
 30
0.0
 10
17.700000
 20
-76.928719
 30
0.0
 10
17.700000
 20
-76.500000
 30
0.0
  0
LWPOLYLINE
  5
1bf
100
AcDbEntity
  8
VISIBLE
 62
7
100
AcDbPolyline
 90
1
 70
1
 10
17.700000
 20
-36.500000
 30
0.0
  0
SPLINE
  5
1c0
100
AcDbEntity
  8
VISIBLE
 62
7
100
AcDbSpline
 70
8
 71
3
 72
8
 73
4
 74
0
 40
0
 40
0
 40
0
 40
0
 40
1
 40
1
 40
1
 40
1
 10
-15.300000
 20
-76.500000
 30
0.0
 10
-15.300000
 20
-76.071281
 30
0.0
 10
-15.528719
 20
-75.675129
 30
0.0
 10
-15.900000
 20
-75.460769
 30
0.0
  0
SPLINE
  5
1c1
100
AcDbEntity
  8
VISIBLE
 62
7
100
AcDbSpline
 70
8
 71
3
 72
8
 73
4
 74
0
 40
0
 40
0
 40
0
 40
0
 40
1
 40
1
 40
1
 40
1
 10
-15.900000
 20
-75.460769
 30
0.0
 10
-16.271281
 20
-75.246410
 30
0.0
 10
-16.728719
 20
-75.246410
 30
0.0
 10
-17.100000
 20
-75.460769
 30
0.0
  0
SPLINE
  5
1c2
100
AcDbEntity
  8
VISIBLE
 62
7
100
AcDbSpline
 70
8
 71
3
 72
8
 73
4
 74
0
 40
0
 40
0
 40
0
 40
0
 40
1
 40
1
 40
1
 40
1
 10
-17.100000
 20
-75.460769
 30
0.0
 10
-17.471281
 20
-75.675129
 30
0.0
 10
-17.700000
 20
-76.071281
 30
0.0
 10
-17.700000
 20
-76.500000
 30
0.0
  0
SPLINE
  5
1c3
100
AcDbEntity
  8
VISIBLE
 62
7
100
AcDbSpline
 70
8
 71
3
 72
8
 73
4
 74
0
 40
0
 40
0
 40
0
 40
0
 40
1
 40
1
 40
1
 40
1
 10
-17.700000
 20
-76.500000
 30
0.0
 10
-17.700000
 20
-76.928719
 30
0.0
 10
-17.471281
 20
-77.324871
 30
0.0
 10
-17.100000
 20
-77.539230
 30
0.0
  0
SPLINE
  5
1c4
100
AcDbEntity
  8
VISIBLE
 62
7
100
AcDbSpline
 70
8
 71
3
 72
8
 73
4
 74
0
 40
0
 40
0
 40
0
 40
0
 40
1
 40
1
 40
1
 40
1
 10
-17.100000
 20
-77.539230
 30
0.0
 10
-16.728719
 20
-77.753590
 30
0.0
 10
-16.271281
 20
-77.753590
 30
0.0
 10
-15.900000
 20
-77.539230
 30
0.0
  0
SPLINE
  5
1c5
100
AcDbEntity
  8
VISIBLE
 62
7
100
AcDbSpline
 70
8
 71
3
 72
8
 73
4
 74
0
 40
0
 40
0
 40
0
 40
0
 40
1
 40
1
 40
1
 40
1
 10
-15.900000
 20
-77.539230
 30
0.0
 10
-15.528719
 20
-77.324871
 30
0.0
 10
-15.300000
 20
-76.928719
 30
0.0
 10
-15.300000
 20
-76.500000
 30
0.0
  0
LWPOLYLINE
  5
1c6
100
AcDbEntity
  8
VISIBLE
 62
7
100
AcDbPolyline
 90
1
 70
1
 10
17.700000
 20
-76.500000
 30
0.0
  0
SPLINE
  5
1c7
100
AcDbEntity
  8
Card_Locations
 62
7
100
AcDbSpline
 70
8
 71
3
 72
8
 73
4
 74
0
 40
0
 40
0
 40
0
 40
0
 40
1
 40
1
 40
1
 40
1
 10
32.750292
 20
57.000303
 30
0.0
 10
32.750292
 20
57.178936
 30
0.0
 10
32.654992
 20
57.343999
 30
0.0
 10
32.500292
 20
57.433316
 30
0.0
  0
SPLINE
  5
1c8
100
AcDbEntity
  8
Card_Locations
 62
7
100
AcDbSpline
 70
8
 71
3
 72
8
 73
4
 74
0
 40
0
 40
0
 40
0
 40
0
 40
1
 40
1
 40
1
 40
1
 10
32.500292
 20
57.433316
 30
0.0
 10
32.345591
 20
57.522632
 30
0.0
 10
32.154992
 20
57.522632
 30
0.0
 10
32.000291
 20
57.433316
 30
0.0
  0
SPLINE
  5
1c9
100
AcDbEntity
  8
Card_Locations
 62
7
100
AcDbSpline
 70
8
 71
3
 72
8
 73
4
 74
0
 40
0
 40
0
 40
0
 40
0
 40
1
 40
1
 40
1
 40
1
 10
32.000291
 20
57.433316
 30
0.0
 10
31.845591
 20
57.343999
 30
0.0
 10
31.750291
 20
57.178936
 30
0.0
 10
31.750291
 20
57.000303
 30
0.0
  0
SPLINE
  5
1ca
100
AcDbEntity
  8
Card_Locations
 62
7
100
AcDbSpline
 70
8
 71
3
 72
8
 73
4
 74
0
 40
0
 40
0
 40
0
 40
0
 40
1
 40
1
 40
1
 40
1
 10
31.750291
 20
57.000303
 30
0.0
 10
31.750291
 20
56.821670
 30
0.0
 10
31.845591
 20
56.656606
 30
0.0
 10
32.000291
 20
56.567290
 30
0.0
  0
SPLINE
  5
1cb
100
AcDbEntity
  8
Card_Locations
 62
7
100
AcDbSpline
 70
8
 71
3
 72
8
 73
4
 74
0
 40
0
 40
0
 40
0
 40
0
 40
1
 40
1
 40
1
 40
1
 10
32.000291
 20
56.567290
 30
0.0
 10
32.154992
 20
56.477973
 30
0.0
 10
32.345591
 20
56.477973
 30
0.0
 10
32.500292
 20
56.567290
 30
0.0
  0
SPLINE
  5
1cc
100
AcDbEntity
  8
Card_Locations
 62
7
100
AcDbSpline
 70
8
 71
3
 72
8
 73
4
 74
0
 40
0
 40
0
 40
0
 40
0
 40
1
 40
1
 40
1
 40
1
 10
32.500292
 20
56.567290
 30
0.0
 10
32.654992
 20
56.656606
 30
0.0
 10
32.750292
 20
56.821670
 30
0.0
 10
32.750292
 20
57.000303
 30
0.0
  0
LWPOLYLINE
  5
1cd
100
AcDbEntity
  8
VISIBLE
 62
7
100
AcDbPolyline
 90
1
 70
1
 10
-15.300000
 20
-76.500000
 30
0.0
  0
SPLINE
  5
1ce
100
AcDbEntity
  8
Card_Locations
 62
7
100
AcDbSpline
 70
8
 71
3
 72
8
 73
4
 74
0
 40
0
 40
0
 40
0
 40
0
 40
1
 40
1
 40
1
 40
1
 10
33.050292
 20
63.655301
 30
0.0
 10
33.050292
 20
63.941114
 30
0.0
 10
32.897813
 20
64.205216
 30
0.0
 10
32.650292
 20
64.348122
 30
0.0
  0
SPLINE
  5
1cf
100
AcDbEntity
  8
Card_Locations
 62
7
100
AcDbSpline
 70
8
 71
3
 72
8
 73
4
 74
0
 40
0
 40
0
 40
0
 40
0
 40
1
 40
1
 40
1
 40
1
 10
32.650292
 20
64.348122
 30
0.0
 10
32.402771
 20
64.491029
 30
0.0
 10
32.097812
 20
64.491029
 30
0.0
 10
31.850291
 20
64.348122
 30
0.0
  0
SPLINE
  5
1d0
100
AcDbEntity
  8
Card_Locations
 62
7
100
AcDbSpline
 70
8
 71
3
 72
8
 73
4
 74
0
 40
0
 40
0
 40
0
 40
0
 40
1
 40
1
 40
1
 40
1
 10
31.850291
 20
64.348122
 30
0.0
 10
31.602770
 20
64.205216
 30
0.0
 10
31.450291
 20
63.941114
 30
0.0
 10
31.450291
 20
63.655301
 30
0.0
  0
SPLINE
  5
1d1
100
AcDbEntity
  8
Card_Locations
 62
7
100
AcDbSpline
 70
8
 71
3
 72
8
 73
4
 74
0
 40
0
 40
0
 40
0
 40
0
 40
1
 40
1
 40
1
 40
1
 10
31.450291
 20
63.655301
 30
0.0
 10
31.450291
 20
63.369488
 30
0.0
 10
31.602770
 20
63.105387
 30
0.0
 10
31.850291
 20
62.962480
 30
0.0
  0
SPLINE
  5
1d2
100
AcDbEntity
  8
Card_Locations
 62
7
100
AcDbSpline
 70
8
 71
3
 72
8
 73
4
 74
0
 40
0
 40
0
 40
0
 40
0
 40
1
 40
1
 40
1
 40
1
 10
31.850291
 20
62.962480
 30
0.0
 10
32.097812
 20
62.819574
 30
0.0
 10
32.402771
 20
62.819574
 30
0.0
 10
32.650292
 20
62.962480
 30
0.0
  0
SPLINE
  5
1d3
100
AcDbEntity
  8
Card_Locations
 62
7
100
AcDbSpline
 70
8
 71
3
 72
8
 73
4
 74
0
 40
0
 40
0
 40
0
 40
0
 40
1
 40
1
 40
1
 40
1
 10
32.650292
 20
62.962480
 30
0.0
 10
32.897813
 20
63.105387
 30
0.0
 10
33.050292
 20
63.369488
 30
0.0
 10
33.050292
 20
63.655301
 30
0.0
  0
LWPOLYLINE
  5
1d4
100
AcDbEntity
  8
Card_Locations
 62
7
100
AcDbPolyline
 90
1
 70
1
 10
32.750292
 20
57.000303
 30
0.0
  0
LWPOLYLINE
  5
1d5
100
AcDbEntity
  8
Card_Locations
 62
7
100
AcDbPolyline
 90
1
 70
1
 10
33.050292
 20
63.655301
 30
0.0
  0
LWPOLYLINE
  5
1d6
100
AcDbEntity
  8
Card_Locations
 62
7
100
AcDbPolyline
 90
2
 70
0
 10
33.235291
 20
63.655301
 30
0.0
 10
32.250290
 20
57.000303
 30
0.0
  0
LWPOLYLINE
  5
1d7
100
AcDbEntity
  8
Card_Locations
 62
7
100
AcDbPolyline
 90
2
 70
0
 10
31.265291
 20
50.345302
 30
0.0
 10
33.235291
 20
50.345302
 30
0.0
  0
LWPOLYLINE
  5
1d8
100
AcDbEntity
  8
Card_Locations
 62
7
100
AcDbPolyline
 90
2
 70
0
 10
31.265291
 20
50.345302
 30
0.0
 10
32.250290
 20
57.000303
 30
0.0
  0
LWPOLYLINE
  5
1d9
100
AcDbEntity
  8
Card_Locations
 62
7
100
AcDbPolyline
 90
2
 70
0
 10
31.265291
 20
63.655301
 30
0.0
 10
33.235291
 20
63.655301
 30
0.0
  0
LWPOLYLINE
  5
1da
100
AcDbEntity
  8
Card_Locations
 62
7
100
AcDbPolyline
 90
2
 70
0
 10
31.265291
 20
63.655301
 30
0.0
 10
31.265291
 20
50.345302
 30
0.0
  0
LWPOLYLINE
  5
1db
100
AcDbEntity
  8
Card_Locations
 62
7
100
AcDbPolyline
 90
2
 70
0
 10
33.235291
 20
63.655301
 30
0.0
 10
33.235291
 20
50.345302
 30
0.0
  0
SPLINE
  5
1dc
100
AcDbEntity
  8
Card_Locations
 62
7
100
AcDbSpline
 70
8
 71
3
 72
8
 73
4
 74
0
 40
0
 40
0
 40
0
 40
0
 40
1
 40
1
 40
1
 40
1
 10
33.050292
 20
50.345302
 30
0.0
 10
33.050292
 20
50.631114
 30
0.0
 10
32.897813
 20
50.895216
 30
0.0
 10
32.650292
 20
51.038123
 30
0.0
  0
SPLINE
  5
1dd
100
AcDbEntity
  8
Card_Locations
 62
7
100
AcDbSpline
 70
8
 71
3
 72
8
 73
4
 74
0
 40
0
 40
0
 40
0
 40
0
 40
1
 40
1
 40
1
 40
1
 10
32.650292
 20
51.038123
 30
0.0
 10
32.402771
 20
51.181029
 30
0.0
 10
32.097812
 20
51.181029
 30
0.0
 10
31.850291
 20
51.038123
 30
0.0
  0
SPLINE
  5
1de
100
AcDbEntity
  8
Card_Locations
 62
7
100
AcDbSpline
 70
8
 71
3
 72
8
 73
4
 74
0
 40
0
 40
0
 40
0
 40
0
 40
1
 40
1
 40
1
 40
1
 10
31.850291
 20
51.038123
 30
0.0
 10
31.602770
 20
50.895216
 30
0.0
 10
31.450291
 20
50.631114
 30
0.0
 10
31.450291
 20
50.345302
 30
0.0
  0
SPLINE
  5
1df
100
AcDbEntity
  8
Card_Locations
 62
7
100
AcDbSpline
 70
8
 71
3
 72
8
 73
4
 74
0
 40
0
 40
0
 40
0
 40
0
 40
1
 40
1
 40
1
 40
1
 10
31.450291
 20
50.345302
 30
0.0
 10
31.450291
 20
50.059489
 30
0.0
 10
31.602770
 20
49.795387
 30
0.0
 10
31.850291
 20
49.652481
 30
0.0
  0
SPLINE
  5
1e0
100
AcDbEntity
  8
Card_Locations
 62
7
100
AcDbSpline
 70
8
 71
3
 72
8
 73
4
 74
0
 40
0
 40
0
 40
0
 40
0
 40
1
 40
1
 40
1
 40
1
 10
31.850291
 20
49.652481
 30
0.0
 10
32.097812
 20
49.509574
 30
0.0
 10
32.402771
 20
49.509574
 30
0.0
 10
32.650292
 20
49.652481
 30
0.0
  0
SPLINE
  5
1e1
100
AcDbEntity
  8
Card_Locations
 62
7
100
AcDbSpline
 70
8
 71
3
 72
8
 73
4
 74
0
 40
0
 40
0
 40
0
 40
0
 40
1
 40
1
 40
1
 40
1
 10
32.650292
 20
49.652481
 30
0.0
 10
32.897813
 20
49.795387
 30
0.0
 10
33.050292
 20
50.059489
 30
0.0
 10
33.050292
 20
50.345302
 30
0.0
  0
LWPOLYLINE
  5
1e2
100
AcDbEntity
  8
Card_Locations
 62
7
100
AcDbPolyline
 90
2
 70
0
 10
31.265291
 20
63.655301
 30
0.0
 10
32.250290
 20
57.000303
 30
0.0
  0
LWPOLYLINE
  5
1e3
100
AcDbEntity
  8
Card_Locations
 62
7
100
AcDbPolyline
 90
1
 70
1
 10
33.050292
 20
50.345302
 30
0.0
  0
LWPOLYLINE
  5
1e4
100
AcDbEntity
  8
Card_Locations
 62
7
100
AcDbPolyline
 90
2
 70
0
 10
32.250290
 20
57.000303
 30
0.0
 10
33.235291
 20
50.345302
 30
0.0
  0
LWPOLYLINE
  5
1e5
100
AcDbEntity
  8
Card_Locations
 62
7
100
AcDbPolyline
 90
2
 70
0
 10
12.293994
 20
-81.679287
 30
0.0
 10
12.293994
 20
-83.406487
 30
0.0
  0
LWPOLYLINE
  5
1e6
100
AcDbEntity
  8
Card_Locations
 62
7
100
AcDbPolyline
 90
2
 70
0
 10
-12.293209
 20
-81.679287
 30
0.0
 10
-12.293209
 20
-83.406487
 30
0.0
  0
LWPOLYLINE
  5
1e7
100
AcDbEntity
  8
Card_Locations
 62
7
100
AcDbPolyline
 90
2
 70
0
 10
22.056793
 20
-81.679287
 30
0.0
 10
22.056793
 20
-83.406487
 30
0.0
  0
LWPOLYLINE
  5
1e8
100
AcDbEntity
  8
Card_Locations
 62
7
100
AcDbPolyline
 90
3
 70
0
 10
33.943994
 20
-81.679287
 30
0.0
 10
33.943994
 20
-83.406487
 30
0.0
 10
22.056793
 20
-83.406487
 30
0.0
  0
LWPOLYLINE
  5
1e9
100
AcDbEntity
  8
Card_Locations
 62
7
100
AcDbPolyline
 90
2
 70
0
 10
12.293994
 20
-81.679287
 30
0.0
 10
-12.293209
 20
-81.679287
 30
0.0
  0
LWPOLYLINE
  5
1ea
100
AcDbEntity
  8
Card_Locations
 62
7
100
AcDbPolyline
 90
2
 70
0
 10
12.293994
 20
-83.406487
 30
0.0
 10
-12.293209
 20
-83.406487
 30
0.0
  0
LWPOLYLINE
  5
1eb
100
AcDbEntity
  8
Card_Locations
 62
7
100
AcDbPolyline
 90
2
 70
0
 10
33.943994
 20
-81.679287
 30
0.0
 10
22.056793
 20
-81.679287
 30
0.0
  0
LWPOLYLINE
  5
1ec
100
AcDbEntity
  8
Card_Locations
 62
7
100
AcDbPolyline
 90
2
 70
0
 10
12.293994
 20
-71.679307
 30
0.0
 10
12.293994
 20
-73.406507
 30
0.0
  0
LWPOLYLINE
  5
1ed
100
AcDbEntity
  8
Card_Locations
 62
7
100
AcDbPolyline
 90
2
 70
0
 10
-12.293209
 20
-71.679307
 30
0.0
 10
-12.293209
 20
-73.406507
 30
0.0
  0
LWPOLYLINE
  5
1ee
100
AcDbEntity
  8
Card_Locations
 62
7
100
AcDbPolyline
 90
2
 70
0
 10
22.056793
 20
-71.679307
 30
0.0
 10
22.056793
 20
-73.406507
 30
0.0
  0
LWPOLYLINE
  5
1ef
100
AcDbEntity
  8
Card_Locations
 62
7
100
AcDbPolyline
 90
3
 70
0
 10
33.943994
 20
-71.679307
 30
0.0
 10
33.943994
 20
-73.406507
 30
0.0
 10
22.056793
 20
-73.406507
 30
0.0
  0
LWPOLYLINE
  5
1f0
100
AcDbEntity
  8
Card_Locations
 62
7
100
AcDbPolyline
 90
2
 70
0
 10
12.293994
 20
-71.679307
 30
0.0
 10
-12.293209
 20
-71.679307
 30
0.0
  0
LWPOLYLINE
  5
1f1
100
AcDbEntity
  8
Card_Locations
 62
7
100
AcDbPolyline
 90
2
 70
0
 10
12.293994
 20
-73.406507
 30
0.0
 10
-12.293209
 20
-73.406507
 30
0.0
  0
LWPOLYLINE
  5
1f2
100
AcDbEntity
  8
Card_Locations
 62
7
100
AcDbPolyline
 90
2
 70
0
 10
33.943994
 20
-71.679307
 30
0.0
 10
22.056793
 20
-71.679307
 30
0.0
  0
LWPOLYLINE
  5
1f3
100
AcDbEntity
  8
Card_Locations
 62
7
100
AcDbPolyline
 90
2
 70
0
 10
12.293994
 20
-61.679300
 30
0.0
 10
12.293994
 20
-63.406500
 30
0.0
  0
LWPOLYLINE
  5
1f4
100
AcDbEntity
  8
Card_Locations
 62
7
100
AcDbPolyline
 90
2
 70
0
 10
-12.293209
 20
-61.679300
 30
0.0
 10
-12.293209
 20
-63.406500
 30
0.0
  0
LWPOLYLINE
  5
1f5
100
AcDbEntity
  8
Card_Locations
 62
7
100
AcDbPolyline
 90
2
 70
0
 10
22.056793
 20
-61.679300
 30
0.0
 10
22.056793
 20
-63.406500
 30
0.0
  0
LWPOLYLINE
  5
1f6
100
AcDbEntity
  8
Card_Locations
 62
7
100
AcDbPolyline
 90
3
 70
0
 10
33.943994
 20
-61.679300
 30
0.0
 10
33.943994
 20
-63.406500
 30
0.0
 10
22.056793
 20
-63.406500
 30
0.0
  0
LWPOLYLINE
  5
1f7
100
AcDbEntity
  8
Card_Locations
 62
7
100
AcDbPolyline
 90
2
 70
0
 10
12.293994
 20
-61.679300
 30
0.0
 10
-12.293209
 20
-61.679300
 30
0.0
  0
LWPOLYLINE
  5
1f8
100
AcDbEntity
  8
Card_Locations
 62
7
100
AcDbPolyline
 90
2
 70
0
 10
12.293994
 20
-63.406500
 30
0.0
 10
-12.293209
 20
-63.406500
 30
0.0
  0
LWPOLYLINE
  5
1f9
100
AcDbEntity
  8
Card_Locations
 62
7
100
AcDbPolyline
 90
2
 70
0
 10
33.943994
 20
-61.679300
 30
0.0
 10
22.056793
 20
-61.679300
 30
0.0
  0
LWPOLYLINE
  5
1fa
100
AcDbEntity
  8
Card_Locations
 62
7
100
AcDbPolyline
 90
2
 70
0
 10
12.293994
 20
-51.679294
 30
0.0
 10
12.293994
 20
-53.406494
 30
0.0
  0
LWPOLYLINE
  5
1fb
100
AcDbEntity
  8
Card_Locations
 62
7
100
AcDbPolyline
 90
2
 70
0
 10
-12.293209
 20
-51.679294
 30
0.0
 10
-12.293209
 20
-53.406494
 30
0.0
  0
LWPOLYLINE
  5
1fc
100
AcDbEntity
  8
Card_Locations
 62
7
100
AcDbPolyline
 90
2
 70
0
 10
22.056793
 20
-51.679294
 30
0.0
 10
22.056793
 20
-53.406494
 30
0.0
  0
LWPOLYLINE
  5
1fd
100
AcDbEntity
  8
Card_Locations
 62
7
100
AcDbPolyline
 90
3
 70
0
 10
33.943994
 20
-51.679294
 30
0.0
 10
33.943994
 20
-53.406494
 30
0.0
 10
22.056793
 20
-53.406494
 30
0.0
  0
LWPOLYLINE
  5
1fe
100
AcDbEntity
  8
Card_Locations
 62
7
100
AcDbPolyline
 90
2
 70
0
 10
12.293994
 20
-51.679294
 30
0.0
 10
-12.293209
 20
-51.679294
 30
0.0
  0
LWPOLYLINE
  5
1ff
100
AcDbEntity
  8
Card_Locations
 62
7
100
AcDbPolyline
 90
2
 70
0
 10
12.293994
 20
-53.406494
 30
0.0
 10
-12.293209
 20
-53.406494
 30
0.0
  0
LWPOLYLINE
  5
200
100
AcDbEntity
  8
Card_Locations
 62
7
100
AcDbPolyline
 90
2
 70
0
 10
33.943994
 20
-51.679294
 30
0.0
 10
22.056793
 20
-51.679294
 30
0.0
  0
LWPOLYLINE
  5
201
100
AcDbEntity
  8
Card_Locations
 62
7
100
AcDbPolyline
 90
2
 70
0
 10
12.293994
 20
-41.679287
 30
0.0
 10
12.293994
 20
-43.406487
 30
0.0
  0
LWPOLYLINE
  5
202
100
AcDbEntity
  8
Card_Locations
 62
7
100
AcDbPolyline
 90
2
 70
0
 10
-12.293209
 20
-41.679287
 30
0.0
 10
-12.293209
 20
-43.406487
 30
0.0
  0
LWPOLYLINE
  5
203
100
AcDbEntity
  8
Card_Locations
 62
7
100
AcDbPolyline
 90
2
 70
0
 10
22.056793
 20
-41.679287
 30
0.0
 10
22.056793
 20
-43.406487
 30
0.0
  0
LWPOLYLINE
  5
204
100
AcDbEntity
  8
Card_Locations
 62
7
100
AcDbPolyline
 90
3
 70
0
 10
33.943994
 20
-41.679287
 30
0.0
 10
33.943994
 20
-43.406487
 30
0.0
 10
22.056793
 20
-43.406487
 30
0.0
  0
LWPOLYLINE
  5
205
100
AcDbEntity
  8
Card_Locations
 62
7
100
AcDbPolyline
 90
2
 70
0
 10
12.293994
 20
-41.679287
 30
0.0
 10
-12.293209
 20
-41.679287
 30
0.0
  0
LWPOLYLINE
  5
206
100
AcDbEntity
  8
Card_Locations
 62
7
100
AcDbPolyline
 90
2
 70
0
 10
12.293994
 20
-43.406487
 30
0.0
 10
-12.293209
 20
-43.406487
 30
0.0
  0
LWPOLYLINE
  5
207
100
AcDbEntity
  8
Card_Locations
 62
7
100
AcDbPolyline
 90
2
 70
0
 10
33.943994
 20
-41.679287
 30
0.0
 10
22.056793
 20
-41.679287
 30
0.0
  0
LWPOLYLINE
  5
208
100
AcDbEntity
  8
Card_Locations
 62
7
100
AcDbPolyline
 90
2
 70
0
 10
12.293994
 20
-31.679307
 30
0.0
 10
12.293994
 20
-33.406507
 30
0.0
  0
LWPOLYLINE
  5
209
100
AcDbEntity
  8
Card_Locations
 62
7
100
AcDbPolyline
 90
2
 70
0
 10
-12.293209
 20
-31.679307
 30
0.0
 10
-12.293209
 20
-33.406507
 30
0.0
  0
LWPOLYLINE
  5
20a
100
AcDbEntity
  8
Card_Locations
 62
7
100
AcDbPolyline
 90
2
 70
0
 10
22.056793
 20
-31.679307
 30
0.0
 10
22.056793
 20
-33.406507
 30
0.0
  0
LWPOLYLINE
  5
20b
100
AcDbEntity
  8
Card_Locations
 62
7
100
AcDbPolyline
 90
3
 70
0
 10
33.943994
 20
-31.679307
 30
0.0
 10
33.943994
 20
-33.406507
 30
0.0
 10
22.056793
 20
-33.406507
 30
0.0
  0
LWPOLYLINE
  5
20c
100
AcDbEntity
  8
Card_Locations
 62
7
100
AcDbPolyline
 90
2
 70
0
 10
12.293994
 20
-31.679307
 30
0.0
 10
-12.293209
 20
-31.679307
 30
0.0
  0
LWPOLYLINE
  5
20d
100
AcDbEntity
  8
Card_Locations
 62
7
100
AcDbPolyline
 90
2
 70
0
 10
12.293994
 20
-33.406507
 30
0.0
 10
-12.293209
 20
-33.406507
 30
0.0
  0
LWPOLYLINE
  5
20e
100
AcDbEntity
  8
Card_Locations
 62
7
100
AcDbPolyline
 90
2
 70
0
 10
33.943994
 20
-31.679307
 30
0.0
 10
22.056793
 20
-31.679307
 30
0.0
  0
LWPOLYLINE
  5
20f
100
AcDbEntity
  8
Card_Locations
 62
7
100
AcDbPolyline
 90
2
 70
0
 10
12.293994
 20
-21.679301
 30
0.0
 10
12.293994
 20
-23.406501
 30
0.0
  0
LWPOLYLINE
  5
210
100
AcDbEntity
  8
Card_Locations
 62
7
100
AcDbPolyline
 90
2
 70
0
 10
-12.293209
 20
-21.679301
 30
0.0
 10
-12.293209
 20
-23.406501
 30
0.0
  0
LWPOLYLINE
  5
211
100
AcDbEntity
  8
Card_Locations
 62
7
100
AcDbPolyline
 90
2
 70
0
 10
22.056793
 20
-21.679301
 30
0.0
 10
22.056793
 20
-23.406501
 30
0.0
  0
LWPOLYLINE
  5
212
100
AcDbEntity
  8
Card_Locations
 62
7
100
AcDbPolyline
 90
3
 70
0
 10
33.943994
 20
-21.679301
 30
0.0
 10
33.943994
 20
-23.406501
 30
0.0
 10
22.056793
 20
-23.406501
 30
0.0
  0
LWPOLYLINE
  5
213
100
AcDbEntity
  8
Card_Locations
 62
7
100
AcDbPolyline
 90
2
 70
0
 10
12.293994
 20
-21.679301
 30
0.0
 10
-12.293209
 20
-21.679301
 30
0.0
  0
LWPOLYLINE
  5
214
100
AcDbEntity
  8
Card_Locations
 62
7
100
AcDbPolyline
 90
2
 70
0
 10
12.293994
 20
-23.406501
 30
0.0
 10
-12.293209
 20
-23.406501
 30
0.0
  0
SPLINE
  5
215
100
AcDbEntity
  8
Card_Locations
 62
7
100
AcDbSpline
 70
8
 71
3
 72
8
 73
4
 74
0
 40
0
 40
0
 40
0
 40
0
 40
1
 40
1
 40
1
 40
1
 10
-35.434709
 20
-95.222593
 30
0.0
 10
-35.434709
 20
-95.735305
 30
0.0
 10
-35.161181
 20
-96.209070
 30
0.0
 10
-34.717159
 20
-96.465426
 30
0.0
  0
SPLINE
  5
216
100
AcDbEntity
  8
Card_Locations
 62
7
100
AcDbSpline
 70
8
 71
3
 72
8
 73
4
 74
0
 40
0
 40
0
 40
0
 40
0
 40
1
 40
1
 40
1
 40
1
 10
-34.717159
 20
-96.465426
 30
0.0
 10
-34.273138
 20
-96.721782
 30
0.0
 10
-33.726081
 20
-96.721782
 30
0.0
 10
-33.282059
 20
-96.465426
 30
0.0
  0
SPLINE
  5
217
100
AcDbEntity
  8
Card_Locations
 62
7
100
AcDbSpline
 70
8
 71
3
 72
8
 73
4
 74
0
 40
0
 40
0
 40
0
 40
0
 40
1
 40
1
 40
1
 40
1
 10
-33.282059
 20
-96.465426
 30
0.0
 10
-32.838038
 20
-96.209070
 30
0.0
 10
-32.564509
 20
-95.735305
 30
0.0
 10
-32.564509
 20
-95.222593
 30
0.0
  0
SPLINE
  5
218
100
AcDbEntity
  8
Card_Locations
 62
7
100
AcDbSpline
 70
8
 71
3
 72
8
 73
4
 74
0
 40
0
 40
0
 40
0
 40
0
 40
1
 40
1
 40
1
 40
1
 10
-32.564509
 20
-95.222593
 30
0.0
 10
-32.564509
 20
-94.709881
 30
0.0
 10
-32.838038
 20
-94.236116
 30
0.0
 10
-33.282059
 20
-93.979760
 30
0.0
  0
SPLINE
  5
219
100
AcDbEntity
  8
Card_Locations
 62
7
100
AcDbSpline
 70
8
 71
3
 72
8
 73
4
 74
0
 40
0
 40
0
 40
0
 40
0
 40
1
 40
1
 40
1
 40
1
 10
-33.282059
 20
-93.979760
 30
0.0
 10
-33.726081
 20
-93.723404
 30
0.0
 10
-34.273138
 20
-93.723404
 30
0.0
 10
-34.717159
 20
-93.979760
 30
0.0
  0
SPLINE
  5
21a
100
AcDbEntity
  8
Card_Locations
 62
7
100
AcDbSpline
 70
8
 71
3
 72
8
 73
4
 74
0
 40
0
 40
0
 40
0
 40
0
 40
1
 40
1
 40
1
 40
1
 10
-34.717159
 20
-93.979760
 30
0.0
 10
-35.161181
 20
-94.236116
 30
0.0
 10
-35.434709
 20
-94.709881
 30
0.0
 10
-35.434709
 20
-95.222593
 30
0.0
  0
SPLINE
  5
21b
100
AcDbEntity
  8
Card_Locations
 62
7
100
AcDbSpline
 70
8
 71
3
 72
8
 73
4
 74
0
 40
0
 40
0
 40
0
 40
0
 40
1
 40
1
 40
1
 40
1
 10
-35.434709
 20
-85.222587
 30
0.0
 10
-35.434709
 20
-85.735299
 30
0.0
 10
-35.161181
 20
-86.209064
 30
0.0
 10
-34.717159
 20
-86.465420
 30
0.0
  0
SPLINE
  5
21c
100
AcDbEntity
  8
Card_Locations
 62
7
100
AcDbSpline
 70
8
 71
3
 72
8
 73
4
 74
0
 40
0
 40
0
 40
0
 40
0
 40
1
 40
1
 40
1
 40
1
 10
-34.717159
 20
-86.465420
 30
0.0
 10
-34.273138
 20
-86.721776
 30
0.0
 10
-33.726081
 20
-86.721776
 30
0.0
 10
-33.282059
 20
-86.465420
 30
0.0
  0
SPLINE
  5
21d
100
AcDbEntity
  8
Card_Locations
 62
7
100
AcDbSpline
 70
8
 71
3
 72
8
 73
4
 74
0
 40
0
 40
0
 40
0
 40
0
 40
1
 40
1
 40
1
 40
1
 10
-33.282059
 20
-86.465420
 30
0.0
 10
-32.838038
 20
-86.209064
 30
0.0
 10
-32.564509
 20
-85.735299
 30
0.0
 10
-32.564509
 20
-85.222587
 30
0.0
  0
SPLINE
  5
21e
100
AcDbEntity
  8
Card_Locations
 62
7
100
AcDbSpline
 70
8
 71
3
 72
8
 73
4
 74
0
 40
0
 40
0
 40
0
 40
0
 40
1
 40
1
 40
1
 40
1
 10
-32.564509
 20
-85.222587
 30
0.0
 10
-32.564509
 20
-84.709875
 30
0.0
 10
-32.838038
 20
-84.236110
 30
0.0
 10
-33.282059
 20
-83.979754
 30
0.0
  0
SPLINE
  5
21f
100
AcDbEntity
  8
Card_Locations
 62
7
100
AcDbSpline
 70
8
 71
3
 72
8
 73
4
 74
0
 40
0
 40
0
 40
0
 40
0
 40
1
 40
1
 40
1
 40
1
 10
-33.282059
 20
-83.979754
 30
0.0
 10
-33.726081
 20
-83.723398
 30
0.0
 10
-34.273138
 20
-83.723398
 30
0.0
 10
-34.717159
 20
-83.979754
 30
0.0
  0
SPLINE
  5
220
100
AcDbEntity
  8
Card_Locations
 62
7
100
AcDbSpline
 70
8
 71
3
 72
8
 73
4
 74
0
 40
0
 40
0
 40
0
 40
0
 40
1
 40
1
 40
1
 40
1
 10
-34.717159
 20
-83.979754
 30
0.0
 10
-35.161181
 20
-84.236110
 30
0.0
 10
-35.434709
 20
-84.709875
 30
0.0
 10
-35.434709
 20
-85.222587
 30
0.0
  0
SPLINE
  5
221
100
AcDbEntity
  8
Card_Locations
 62
7
100
AcDbSpline
 70
8
 71
3
 72
8
 73
4
 74
0
 40
0
 40
0
 40
0
 40
0
 40
1
 40
1
 40
1
 40
1
 10
-35.434709
 20
-75.222607
 30
0.0
 10
-35.434709
 20
-75.735319
 30
0.0
 10
-35.161181
 20
-76.209084
 30
0.0
 10
-34.717159
 20
-76.465440
 30
0.0
  0
SPLINE
  5
222
100
AcDbEntity
  8
Card_Locations
 62
7
100
AcDbSpline
 70
8
 71
3
 72
8
 73
4
 74
0
 40
0
 40
0
 40
0
 40
0
 40
1
 40
1
 40
1
 40
1
 10
-34.717159
 20
-76.465440
 30
0.0
 10
-34.273138
 20
-76.721796
 30
0.0
 10
-33.726081
 20
-76.721796
 30
0.0
 10
-33.282059
 20
-76.465440
 30
0.0
  0
SPLINE
  5
223
100
AcDbEntity
  8
Card_Locations
 62
7
100
AcDbSpline
 70
8
 71
3
 72
8
 73
4
 74
0
 40
0
 40
0
 40
0
 40
0
 40
1
 40
1
 40
1
 40
1
 10
-33.282059
 20
-76.465440
 30
0.0
 10
-32.838038
 20
-76.209084
 30
0.0
 10
-32.564509
 20
-75.735319
 30
0.0
 10
-32.564509
 20
-75.222607
 30
0.0
  0
SPLINE
  5
224
100
AcDbEntity
  8
Card_Locations
 62
7
100
AcDbSpline
 70
8
 71
3
 72
8
 73
4
 74
0
 40
0
 40
0
 40
0
 40
0
 40
1
 40
1
 40
1
 40
1
 10
-32.564509
 20
-75.222607
 30
0.0
 10
-32.564509
 20
-74.709895
 30
0.0
 10
-32.838038
 20
-74.236130
 30
0.0
 10
-33.282059
 20
-73.979774
 30
0.0
  0
SPLINE
  5
225
100
AcDbEntity
  8
Card_Locations
 62
7
100
AcDbSpline
 70
8
 71
3
 72
8
 73
4
 74
0
 40
0
 40
0
 40
0
 40
0
 40
1
 40
1
 40
1
 40
1
 10
-33.282059
 20
-73.979774
 30
0.0
 10
-33.726081
 20
-73.723418
 30
0.0
 10
-34.273138
 20
-73.723418
 30
0.0
 10
-34.717159
 20
-73.979774
 30
0.0
  0
SPLINE
  5
226
100
AcDbEntity
  8
Card_Locations
 62
7
100
AcDbSpline
 70
8
 71
3
 72
8
 73
4
 74
0
 40
0
 40
0
 40
0
 40
0
 40
1
 40
1
 40
1
 40
1
 10
-34.717159
 20
-73.979774
 30
0.0
 10
-35.161181
 20
-74.236130
 30
0.0
 10
-35.434709
 20
-74.709895
 30
0.0
 10
-35.434709
 20
-75.222607
 30
0.0
  0
SPLINE
  5
227
100
AcDbEntity
  8
Card_Locations
 62
7
100
AcDbSpline
 70
8
 71
3
 72
8
 73
4
 74
0
 40
0
 40
0
 40
0
 40
0
 40
1
 40
1
 40
1
 40
1
 10
-35.434709
 20
-65.222600
 30
0.0
 10
-35.434709
 20
-65.735312
 30
0.0
 10
-35.161181
 20
-66.209077
 30
0.0
 10
-34.717159
 20
-66.465433
 30
0.0
  0
SPLINE
  5
228
100
AcDbEntity
  8
Card_Locations
 62
7
100
AcDbSpline
 70
8
 71
3
 72
8
 73
4
 74
0
 40
0
 40
0
 40
0
 40
0
 40
1
 40
1
 40
1
 40
1
 10
-34.717159
 20
-66.465433
 30
0.0
 10
-34.273138
 20
-66.721789
 30
0.0
 10
-33.726081
 20
-66.721789
 30
0.0
 10
-33.282059
 20
-66.465433
 30
0.0
  0
SPLINE
  5
229
100
AcDbEntity
  8
Card_Locations
 62
7
100
AcDbSpline
 70
8
 71
3
 72
8
 73
4
 74
0
 40
0
 40
0
 40
0
 40
0
 40
1
 40
1
 40
1
 40
1
 10
-33.282059
 20
-66.465433
 30
0.0
 10
-32.838038
 20
-66.209077
 30
0.0
 10
-32.564509
 20
-65.735312
 30
0.0
 10
-32.564509
 20
-65.222600
 30
0.0
  0
SPLINE
  5
22a
100
AcDbEntity
  8
Card_Locations
 62
7
100
AcDbSpline
 70
8
 71
3
 72
8
 73
4
 74
0
 40
0
 40
0
 40
0
 40
0
 40
1
 40
1
 40
1
 40
1
 10
-32.564509
 20
-65.222600
 30
0.0
 10
-32.564509
 20
-64.709888
 30
0.0
 10
-32.838038
 20
-64.236123
 30
0.0
 10
-33.282059
 20
-63.979767
 30
0.0
  0
SPLINE
  5
22b
100
AcDbEntity
  8
Card_Locations
 62
7
100
AcDbSpline
 70
8
 71
3
 72
8
 73
4
 74
0
 40
0
 40
0
 40
0
 40
0
 40
1
 40
1
 40
1
 40
1
 10
-33.282059
 20
-63.979767
 30
0.0
 10
-33.726081
 20
-63.723411
 30
0.0
 10
-34.273138
 20
-63.723411
 30
0.0
 10
-34.717159
 20
-63.979767
 30
0.0
  0
SPLINE
  5
22c
100
AcDbEntity
  8
Card_Locations
 62
7
100
AcDbSpline
 70
8
 71
3
 72
8
 73
4
 74
0
 40
0
 40
0
 40
0
 40
0
 40
1
 40
1
 40
1
 40
1
 10
-34.717159
 20
-63.979767
 30
0.0
 10
-35.161181
 20
-64.236123
 30
0.0
 10
-35.434709
 20
-64.709888
 30
0.0
 10
-35.434709
 20
-65.222600
 30
0.0
  0
LWPOLYLINE
  5
22d
100
AcDbEntity
  8
Card_Locations
 62
7
100
AcDbPolyline
 90
2
 70
0
 10
33.943994
 20
-21.679301
 30
0.0
 10
22.056793
 20
-21.679301
 30
0.0
  0
LWPOLYLINE
  5
22e
100
AcDbEntity
  8
Card_Locations
 62
7
100
AcDbPolyline
 90
2
 70
0
 10
12.293994
 20
68.993490
 30
0.0
 10
-12.293209
 20
68.993490
 30
0.0
  0
LWPOLYLINE
  5
22f
100
AcDbEntity
  8
Card_Locations
 62
7
100
AcDbPolyline
 90
2
 70
0
 10
12.293994
 20
70.720690
 30
0.0
 10
-12.293209
 20
70.720690
 30
0.0
  0
LWPOLYLINE
  5
230
100
AcDbEntity
  8
Card_Locations
 62
7
100
AcDbPolyline
 90
2
 70
0
 10
33.943994
 20
68.993490
 30
0.0
 10
22.056793
 20
68.993490
 30
0.0
  0
LWPOLYLINE
  5
231
100
AcDbEntity
  8
Card_Locations
 62
7
100
AcDbPolyline
 90
2
 70
0
 10
33.943994
 20
70.720690
 30
0.0
 10
22.056793
 20
70.720690
 30
0.0
  0
LWPOLYLINE
  5
232
100
AcDbEntity
  8
Card_Locations
 62
7
100
AcDbPolyline
 90
2
 70
0
 10
12.293994
 20
70.720690
 30
0.0
 10
12.293994
 20
68.993490
 30
0.0
  0
LWPOLYLINE
  5
233
100
AcDbEntity
  8
Card_Locations
 62
7
100
AcDbPolyline
 90
2
 70
0
 10
-12.293209
 20
70.720690
 30
0.0
 10
-12.293209
 20
68.993490
 30
0.0
  0
LWPOLYLINE
  5
234
100
AcDbEntity
  8
Card_Locations
 62
7
100
AcDbPolyline
 90
2
 70
0
 10
33.943994
 20
70.720690
 30
0.0
 10
33.943994
 20
68.993490
 30
0.0
  0
LWPOLYLINE
  5
235
100
AcDbEntity
  8
Card_Locations
 62
7
100
AcDbPolyline
 90
2
 70
0
 10
22.056793
 20
70.720690
 30
0.0
 10
22.056793
 20
68.993490
 30
0.0
  0
LWPOLYLINE
  5
236
100
AcDbEntity
  8
Card_Locations
 62
7
100
AcDbPolyline
 90
2
 70
0
 10
12.293994
 20
58.993491
 30
0.0
 10
-12.293209
 20
58.993491
 30
0.0
  0
LWPOLYLINE
  5
237
100
AcDbEntity
  8
Card_Locations
 62
7
100
AcDbPolyline
 90
2
 70
0
 10
12.293994
 20
60.720691
 30
0.0
 10
-12.293209
 20
60.720691
 30
0.0
  0
LWPOLYLINE
  5
238
100
AcDbEntity
  8
Card_Locations
 62
7
100
AcDbPolyline
 90
2
 70
0
 10
33.943994
 20
58.993491
 30
0.0
 10
22.056793
 20
58.993491
 30
0.0
  0
LWPOLYLINE
  5
239
100
AcDbEntity
  8
Card_Locations
 62
7
100
AcDbPolyline
 90
2
 70
0
 10
33.943994
 20
60.720691
 30
0.0
 10
22.056793
 20
60.720691
 30
0.0
  0
LWPOLYLINE
  5
23a
100
AcDbEntity
  8
Card_Locations
 62
7
100
AcDbPolyline
 90
2
 70
0
 10
12.293994
 20
60.720691
 30
0.0
 10
12.293994
 20
58.993491
 30
0.0
  0
LWPOLYLINE
  5
23b
100
AcDbEntity
  8
Card_Locations
 62
7
100
AcDbPolyline
 90
2
 70
0
 10
-12.293209
 20
60.720691
 30
0.0
 10
-12.293209
 20
58.993491
 30
0.0
  0
LWPOLYLINE
  5
23c
100
AcDbEntity
  8
Card_Locations
 62
7
100
AcDbPolyline
 90
2
 70
0
 10
33.943994
 20
60.720691
 30
0.0
 10
33.943994
 20
58.993491
 30
0.0
  0
LWPOLYLINE
  5
23d
100
AcDbEntity
  8
Card_Locations
 62
7
100
AcDbPolyline
 90
2
 70
0
 10
22.056793
 20
60.720691
 30
0.0
 10
22.056793
 20
58.993491
 30
0.0
  0
LWPOLYLINE
  5
23e
100
AcDbEntity
  8
Card_Locations
 62
7
100
AcDbPolyline
 90
2
 70
0
 10
12.293994
 20
48.993490
 30
0.0
 10
-12.293209
 20
48.993490
 30
0.0
  0
LWPOLYLINE
  5
23f
100
AcDbEntity
  8
Card_Locations
 62
7
100
AcDbPolyline
 90
2
 70
0
 10
12.293994
 20
50.720690
 30
0.0
 10
-12.293209
 20
50.720690
 30
0.0
  0
LWPOLYLINE
  5
240
100
AcDbEntity
  8
Card_Locations
 62
7
100
AcDbPolyline
 90
2
 70
0
 10
33.943994
 20
48.993490
 30
0.0
 10
22.056793
 20
48.993490
 30
0.0
  0
LWPOLYLINE
  5
241
100
AcDbEntity
  8
Card_Locations
 62
7
100
AcDbPolyline
 90
2
 70
0
 10
33.943994
 20
50.720690
 30
0.0
 10
22.056793
 20
50.720690
 30
0.0
  0
LWPOLYLINE
  5
242
100
AcDbEntity
  8
Card_Locations
 62
7
100
AcDbPolyline
 90
2
 70
0
 10
12.293994
 20
50.720690
 30
0.0
 10
12.293994
 20
48.993490
 30
0.0
  0
LWPOLYLINE
  5
243
100
AcDbEntity
  8
Card_Locations
 62
7
100
AcDbPolyline
 90
2
 70
0
 10
-12.293209
 20
50.720690
 30
0.0
 10
-12.293209
 20
48.993490
 30
0.0
  0
LWPOLYLINE
  5
244
100
AcDbEntity
  8
Card_Locations
 62
7
100
AcDbPolyline
 90
2
 70
0
 10
33.943994
 20
50.720690
 30
0.0
 10
33.943994
 20
48.993490
 30
0.0
  0
LWPOLYLINE
  5
245
100
AcDbEntity
  8
Card_Locations
 62
7
100
AcDbPolyline
 90
2
 70
0
 10
22.056793
 20
50.720690
 30
0.0
 10
22.056793
 20
48.993490
 30
0.0
  0
LWPOLYLINE
  5
246
100
AcDbEntity
  8
Card_Locations
 62
7
100
AcDbPolyline
 90
2
 70
0
 10
12.293994
 20
38.993491
 30
0.0
 10
-12.293209
 20
38.993491
 30
0.0
  0
LWPOLYLINE
  5
247
100
AcDbEntity
  8
Card_Locations
 62
7
100
AcDbPolyline
 90
2
 70
0
 10
12.293994
 20
40.720691
 30
0.0
 10
-12.293209
 20
40.720691
 30
0.0
  0
LWPOLYLINE
  5
248
100
AcDbEntity
  8
Card_Locations
 62
7
100
AcDbPolyline
 90
2
 70
0
 10
33.943994
 20
38.993491
 30
0.0
 10
22.056793
 20
38.993491
 30
0.0
  0
LWPOLYLINE
  5
249
100
AcDbEntity
  8
Card_Locations
 62
7
100
AcDbPolyline
 90
2
 70
0
 10
33.943994
 20
40.720691
 30
0.0
 10
22.056793
 20
40.720691
 30
0.0
  0
LWPOLYLINE
  5
24a
100
AcDbEntity
  8
Card_Locations
 62
7
100
AcDbPolyline
 90
2
 70
0
 10
12.293994
 20
40.720691
 30
0.0
 10
12.293994
 20
38.993491
 30
0.0
  0
LWPOLYLINE
  5
24b
100
AcDbEntity
  8
Card_Locations
 62
7
100
AcDbPolyline
 90
2
 70
0
 10
-12.293209
 20
40.720691
 30
0.0
 10
-12.293209
 20
38.993491
 30
0.0
  0
LWPOLYLINE
  5
24c
100
AcDbEntity
  8
Card_Locations
 62
7
100
AcDbPolyline
 90
2
 70
0
 10
33.943994
 20
40.720691
 30
0.0
 10
33.943994
 20
38.993491
 30
0.0
  0
LWPOLYLINE
  5
24d
100
AcDbEntity
  8
Card_Locations
 62
7
100
AcDbPolyline
 90
2
 70
0
 10
22.056793
 20
40.720691
 30
0.0
 10
22.056793
 20
38.993491
 30
0.0
  0
LWPOLYLINE
  5
24e
100
AcDbEntity
  8
Card_Locations
 62
7
100
AcDbPolyline
 90
2
 70
0
 10
12.293994
 20
28.993514
 30
0.0
 10
-12.293209
 20
28.993514
 30
0.0
  0
LWPOLYLINE
  5
24f
100
AcDbEntity
  8
Card_Locations
 62
7
100
AcDbPolyline
 90
2
 70
0
 10
12.293994
 20
30.720714
 30
0.0
 10
-12.293209
 20
30.720714
 30
0.0
  0
LWPOLYLINE
  5
250
100
AcDbEntity
  8
Card_Locations
 62
7
100
AcDbPolyline
 90
2
 70
0
 10
33.943994
 20
28.993514
 30
0.0
 10
22.056793
 20
28.993514
 30
0.0
  0
LWPOLYLINE
  5
251
100
AcDbEntity
  8
Card_Locations
 62
7
100
AcDbPolyline
 90
2
 70
0
 10
33.943994
 20
30.720714
 30
0.0
 10
22.056793
 20
30.720714
 30
0.0
  0
LWPOLYLINE
  5
252
100
AcDbEntity
  8
Card_Locations
 62
7
100
AcDbPolyline
 90
2
 70
0
 10
12.293994
 20
30.720714
 30
0.0
 10
12.293994
 20
28.993514
 30
0.0
  0
LWPOLYLINE
  5
253
100
AcDbEntity
  8
Card_Locations
 62
7
100
AcDbPolyline
 90
2
 70
0
 10
-12.293209
 20
30.720714
 30
0.0
 10
-12.293209
 20
28.993514
 30
0.0
  0
SPLINE
  5
254
100
AcDbEntity
  8
Card_Locations
 62
7
100
AcDbSpline
 70
8
 71
3
 72
8
 73
4
 74
0
 40
0
 40
0
 40
0
 40
0
 40
1
 40
1
 40
1
 40
1
 10
-29.434708
 20
-25.222601
 30
0.0
 10
-29.434708
 20
-25.735313
 30
0.0
 10
-29.161179
 20
-26.209078
 30
0.0
 10
-28.717158
 20
-26.465434
 30
0.0
  0
SPLINE
  5
255
100
AcDbEntity
  8
Card_Locations
 62
7
100
AcDbSpline
 70
8
 71
3
 72
8
 73
4
 74
0
 40
0
 40
0
 40
0
 40
0
 40
1
 40
1
 40
1
 40
1
 10
-28.717158
 20
-26.465434
 30
0.0
 10
-28.273136
 20
-26.721790
 30
0.0
 10
-27.726079
 20
-26.721790
 30
0.0
 10
-27.282058
 20
-26.465434
 30
0.0
  0
SPLINE
  5
256
100
AcDbEntity
  8
Card_Locations
 62
7
100
AcDbSpline
 70
8
 71
3
 72
8
 73
4
 74
0
 40
0
 40
0
 40
0
 40
0
 40
1
 40
1
 40
1
 40
1
 10
-27.282058
 20
-26.465434
 30
0.0
 10
-26.838036
 20
-26.209078
 30
0.0
 10
-26.564508
 20
-25.735313
 30
0.0
 10
-26.564508
 20
-25.222601
 30
0.0
  0
SPLINE
  5
257
100
AcDbEntity
  8
Card_Locations
 62
7
100
AcDbSpline
 70
8
 71
3
 72
8
 73
4
 74
0
 40
0
 40
0
 40
0
 40
0
 40
1
 40
1
 40
1
 40
1
 10
-26.564508
 20
-35.222607
 30
0.0
 10
-26.564508
 20
-34.709895
 30
0.0
 10
-26.838036
 20
-34.236130
 30
0.0
 10
-27.282058
 20
-33.979774
 30
0.0
  0
SPLINE
  5
258
100
AcDbEntity
  8
Card_Locations
 62
7
100
AcDbSpline
 70
8
 71
3
 72
8
 73
4
 74
0
 40
0
 40
0
 40
0
 40
0
 40
1
 40
1
 40
1
 40
1
 10
-27.282058
 20
-33.979774
 30
0.0
 10
-27.726079
 20
-33.723418
 30
0.0
 10
-28.273136
 20
-33.723418
 30
0.0
 10
-28.717158
 20
-33.979774
 30
0.0
  0
SPLINE
  5
259
100
AcDbEntity
  8
Card_Locations
 62
7
100
AcDbSpline
 70
8
 71
3
 72
8
 73
4
 74
0
 40
0
 40
0
 40
0
 40
0
 40
1
 40
1
 40
1
 40
1
 10
-28.717158
 20
-33.979774
 30
0.0
 10
-29.161179
 20
-34.236130
 30
0.0
 10
-29.434708
 20
-34.709895
 30
0.0
 10
-29.434708
 20
-35.222607
 30
0.0
  0
SPLINE
  5
25a
100
AcDbEntity
  8
Card_Locations
 62
7
100
AcDbSpline
 70
8
 71
3
 72
8
 73
4
 74
0
 40
0
 40
0
 40
0
 40
0
 40
1
 40
1
 40
1
 40
1
 10
-29.434708
 20
-35.222607
 30
0.0
 10
-29.434708
 20
-35.735319
 30
0.0
 10
-29.161179
 20
-36.209084
 30
0.0
 10
-28.717158
 20
-36.465440
 30
0.0
  0
SPLINE
  5
25b
100
AcDbEntity
  8
Card_Locations
 62
7
100
AcDbSpline
 70
8
 71
3
 72
8
 73
4
 74
0
 40
0
 40
0
 40
0
 40
0
 40
1
 40
1
 40
1
 40
1
 10
-28.717158
 20
-36.465440
 30
0.0
 10
-28.273136
 20
-36.721796
 30
0.0
 10
-27.726079
 20
-36.721796
 30
0.0
 10
-27.282058
 20
-36.465440
 30
0.0
  0
SPLINE
  5
25c
100
AcDbEntity
  8
Card_Locations
 62
7
100
AcDbSpline
 70
8
 71
3
 72
8
 73
4
 74
0
 40
0
 40
0
 40
0
 40
0
 40
1
 40
1
 40
1
 40
1
 10
-27.282058
 20
-36.465440
 30
0.0
 10
-26.838036
 20
-36.209084
 30
0.0
 10
-26.564508
 20
-35.735319
 30
0.0
 10
-26.564508
 20
-35.222607
 30
0.0
  0
SPLINE
  5
25d
100
AcDbEntity
  8
Card_Locations
 62
7
100
AcDbSpline
 70
8
 71
3
 72
8
 73
4
 74
0
 40
0
 40
0
 40
0
 40
0
 40
1
 40
1
 40
1
 40
1
 10
-26.564508
 20
-45.222587
 30
0.0
 10
-26.564508
 20
-44.709875
 30
0.0
 10
-26.838036
 20
-44.236110
 30
0.0
 10
-27.282058
 20
-43.979754
 30
0.0
  0
SPLINE
  5
25e
100
AcDbEntity
  8
Card_Locations
 62
7
100
AcDbSpline
 70
8
 71
3
 72
8
 73
4
 74
0
 40
0
 40
0
 40
0
 40
0
 40
1
 40
1
 40
1
 40
1
 10
-27.282058
 20
-43.979754
 30
0.0
 10
-27.726079
 20
-43.723398
 30
0.0
 10
-28.273136
 20
-43.723398
 30
0.0
 10
-28.717158
 20
-43.979754
 30
0.0
  0
SPLINE
  5
25f
100
AcDbEntity
  8
Card_Locations
 62
7
100
AcDbSpline
 70
8
 71
3
 72
8
 73
4
 74
0
 40
0
 40
0
 40
0
 40
0
 40
1
 40
1
 40
1
 40
1
 10
-28.717158
 20
-43.979754
 30
0.0
 10
-29.161179
 20
-44.236110
 30
0.0
 10
-29.434708
 20
-44.709875
 30
0.0
 10
-29.434708
 20
-45.222587
 30
0.0
  0
SPLINE
  5
260
100
AcDbEntity
  8
Card_Locations
 62
7
100
AcDbSpline
 70
8
 71
3
 72
8
 73
4
 74
0
 40
0
 40
0
 40
0
 40
0
 40
1
 40
1
 40
1
 40
1
 10
-23.434707
 20
97.177393
 30
0.0
 10
-23.434707
 20
96.664681
 30
0.0
 10
-23.161179
 20
96.190916
 30
0.0
 10
-22.717157
 20
95.934560
 30
0.0
  0
SPLINE
  5
261
100
AcDbEntity
  8
Card_Locations
 62
7
100
AcDbSpline
 70
8
 71
3
 72
8
 73
4
 74
0
 40
0
 40
0
 40
0
 40
0
 40
1
 40
1
 40
1
 40
1
 10
-22.717157
 20
95.934560
 30
0.0
 10
-22.273136
 20
95.678204
 30
0.0
 10
-21.726079
 20
95.678204
 30
0.0
 10
-21.282057
 20
95.934560
 30
0.0
  0
SPLINE
  5
262
100
AcDbEntity
  8
Card_Locations
 62
7
100
AcDbSpline
 70
8
 71
3
 72
8
 73
4
 74
0
 40
0
 40
0
 40
0
 40
0
 40
1
 40
1
 40
1
 40
1
 10
-21.282057
 20
95.934560
 30
0.0
 10
-20.838036
 20
96.190916
 30
0.0
 10
-20.564507
 20
96.664681
 30
0.0
 10
-20.564507
 20
97.177393
 30
0.0
  0
SPLINE
  5
263
100
AcDbEntity
  8
Card_Locations
 62
7
100
AcDbSpline
 70
8
 71
3
 72
8
 73
4
 74
0
 40
0
 40
0
 40
0
 40
0
 40
1
 40
1
 40
1
 40
1
 10
-35.434709
 20
-45.222587
 30
0.0
 10
-35.434709
 20
-45.735299
 30
0.0
 10
-35.161181
 20
-46.209064
 30
0.0
 10
-34.717159
 20
-46.465420
 30
0.0
  0
SPLINE
  5
264
100
AcDbEntity
  8
Card_Locations
 62
7
100
AcDbSpline
 70
8
 71
3
 72
8
 73
4
 74
0
 40
0
 40
0
 40
0
 40
0
 40
1
 40
1
 40
1
 40
1
 10
-34.717159
 20
-46.465420
 30
0.0
 10
-34.273138
 20
-46.721776
 30
0.0
 10
-33.726081
 20
-46.721776
 30
0.0
 10
-33.282059
 20
-46.465420
 30
0.0
  0
SPLINE
  5
265
100
AcDbEntity
  8
Card_Locations
 62
7
100
AcDbSpline
 70
8
 71
3
 72
8
 73
4
 74
0
 40
0
 40
0
 40
0
 40
0
 40
1
 40
1
 40
1
 40
1
 10
-33.282059
 20
-46.465420
 30
0.0
 10
-32.838038
 20
-46.209064
 30
0.0
 10
-32.564509
 20
-45.735299
 30
0.0
 10
-32.564509
 20
-45.222587
 30
0.0
  0
SPLINE
  5
266
100
AcDbEntity
  8
Card_Locations
 62
7
100
AcDbSpline
 70
8
 71
3
 72
8
 73
4
 74
0
 40
0
 40
0
 40
0
 40
0
 40
1
 40
1
 40
1
 40
1
 10
-29.434708
 20
-45.222587
 30
0.0
 10
-29.434708
 20
-45.735299
 30
0.0
 10
-29.161179
 20
-46.209064
 30
0.0
 10
-28.717158
 20
-46.465420
 30
0.0
  0
SPLINE
  5
267
100
AcDbEntity
  8
Card_Locations
 62
7
100
AcDbSpline
 70
8
 71
3
 72
8
 73
4
 74
0
 40
0
 40
0
 40
0
 40
0
 40
1
 40
1
 40
1
 40
1
 10
-28.717158
 20
-46.465420
 30
0.0
 10
-28.273136
 20
-46.721776
 30
0.0
 10
-27.726079
 20
-46.721776
 30
0.0
 10
-27.282058
 20
-46.465420
 30
0.0
  0
SPLINE
  5
268
100
AcDbEntity
  8
Card_Locations
 62
7
100
AcDbSpline
 70
8
 71
3
 72
8
 73
4
 74
0
 40
0
 40
0
 40
0
 40
0
 40
1
 40
1
 40
1
 40
1
 10
-27.282058
 20
-46.465420
 30
0.0
 10
-26.838036
 20
-46.209064
 30
0.0
 10
-26.564508
 20
-45.735299
 30
0.0
 10
-26.564508
 20
-45.222587
 30
0.0
  0
SPLINE
  5
269
100
AcDbEntity
  8
Card_Locations
 62
7
100
AcDbSpline
 70
8
 71
3
 72
8
 73
4
 74
0
 40
0
 40
0
 40
0
 40
0
 40
1
 40
1
 40
1
 40
1
 10
-20.564507
 20
97.177393
 30
0.0
 10
-20.564507
 20
97.690105
 30
0.0
 10
-20.838036
 20
98.163870
 30
0.0
 10
-21.282057
 20
98.420226
 30
0.0
  0
SPLINE
  5
26a
100
AcDbEntity
  8
Card_Locations
 62
7
100
AcDbSpline
 70
8
 71
3
 72
8
 73
4
 74
0
 40
0
 40
0
 40
0
 40
0
 40
1
 40
1
 40
1
 40
1
 10
-21.282057
 20
98.420226
 30
0.0
 10
-21.726079
 20
98.676582
 30
0.0
 10
-22.273136
 20
98.676582
 30
0.0
 10
-22.717157
 20
98.420226
 30
0.0
  0
SPLINE
  5
26b
100
AcDbEntity
  8
Card_Locations
 62
7
100
AcDbSpline
 70
8
 71
3
 72
8
 73
4
 74
0
 40
0
 40
0
 40
0
 40
0
 40
1
 40
1
 40
1
 40
1
 10
-22.717157
 20
98.420226
 30
0.0
 10
-23.161179
 20
98.163870
 30
0.0
 10
-23.434707
 20
97.690105
 30
0.0
 10
-23.434707
 20
97.177393
 30
0.0
  0
SPLINE
  5
26c
100
AcDbEntity
  8
Card_Locations
 62
7
100
AcDbSpline
 70
8
 71
3
 72
8
 73
4
 74
0
 40
0
 40
0
 40
0
 40
0
 40
1
 40
1
 40
1
 40
1
 10
-32.564509
 20
-55.222594
 30
0.0
 10
-32.564509
 20
-54.709882
 30
0.0
 10
-32.838038
 20
-54.236117
 30
0.0
 10
-33.282059
 20
-53.979761
 30
0.0
  0
SPLINE
  5
26d
100
AcDbEntity
  8
Card_Locations
 62
7
100
AcDbSpline
 70
8
 71
3
 72
8
 73
4
 74
0
 40
0
 40
0
 40
0
 40
0
 40
1
 40
1
 40
1
 40
1
 10
-33.282059
 20
-53.979761
 30
0.0
 10
-33.726081
 20
-53.723405
 30
0.0
 10
-34.273138
 20
-53.723405
 30
0.0
 10
-34.717159
 20
-53.979761
 30
0.0
  0
SPLINE
  5
26e
100
AcDbEntity
  8
Card_Locations
 62
7
100
AcDbSpline
 70
8
 71
3
 72
8
 73
4
 74
0
 40
0
 40
0
 40
0
 40
0
 40
1
 40
1
 40
1
 40
1
 10
-34.717159
 20
-53.979761
 30
0.0
 10
-35.161181
 20
-54.236117
 30
0.0
 10
-35.434709
 20
-54.709882
 30
0.0
 10
-35.434709
 20
-55.222594
 30
0.0
  0
SPLINE
  5
26f
100
AcDbEntity
  8
Card_Locations
 62
7
100
AcDbSpline
 70
8
 71
3
 72
8
 73
4
 74
0
 40
0
 40
0
 40
0
 40
0
 40
1
 40
1
 40
1
 40
1
 10
-26.564508
 20
-55.222594
 30
0.0
 10
-26.564508
 20
-54.709882
 30
0.0
 10
-26.838036
 20
-54.236117
 30
0.0
 10
-27.282058
 20
-53.979761
 30
0.0
  0
SPLINE
  5
270
100
AcDbEntity
  8
Card_Locations
 62
7
100
AcDbSpline
 70
8
 71
3
 72
8
 73
4
 74
0
 40
0
 40
0
 40
0
 40
0
 40
1
 40
1
 40
1
 40
1
 10
-27.282058
 20
-53.979761
 30
0.0
 10
-27.726079
 20
-53.723405
 30
0.0
 10
-28.273136
 20
-53.723405
 30
0.0
 10
-28.717158
 20
-53.979761
 30
0.0
  0
SPLINE
  5
271
100
AcDbEntity
  8
Card_Locations
 62
7
100
AcDbSpline
 70
8
 71
3
 72
8
 73
4
 74
0
 40
0
 40
0
 40
0
 40
0
 40
1
 40
1
 40
1
 40
1
 10
-28.717158
 20
-53.979761
 30
0.0
 10
-29.161179
 20
-54.236117
 30
0.0
 10
-29.434708
 20
-54.709882
 30
0.0
 10
-29.434708
 20
-55.222594
 30
0.0
  0
LWPOLYLINE
  5
272
100
AcDbEntity
  8
Card_Locations
 62
7
100
AcDbPolyline
 90
2
 70
0
 10
33.943994
 20
30.720714
 30
0.0
 10
33.943994
 20
28.993514
 30
0.0
  0
LWPOLYLINE
  5
273
100
AcDbEntity
  8
Card_Locations
 62
7
100
AcDbPolyline
 90
2
 70
0
 10
-12.293209
 20
80.720693
 30
0.0
 10
-12.293209
 20
78.993493
 30
0.0
  0
SPLINE
  5
274
100
AcDbEntity
  8
Card_Locations
 62
7
100
AcDbSpline
 70
8
 71
3
 72
8
 73
4
 74
0
 40
0
 40
0
 40
0
 40
0
 40
1
 40
1
 40
1
 40
1
 10
-35.434709
 20
-55.222594
 30
0.0
 10
-35.434709
 20
-55.735306
 30
0.0
 10
-35.161181
 20
-56.209071
 30
0.0
 10
-34.717159
 20
-56.465427
 30
0.0
  0
SPLINE
  5
275
100
AcDbEntity
  8
Card_Locations
 62
7
100
AcDbSpline
 70
8
 71
3
 72
8
 73
4
 74
0
 40
0
 40
0
 40
0
 40
0
 40
1
 40
1
 40
1
 40
1
 10
-34.717159
 20
-56.465427
 30
0.0
 10
-34.273138
 20
-56.721783
 30
0.0
 10
-33.726081
 20
-56.721783
 30
0.0
 10
-33.282059
 20
-56.465427
 30
0.0
  0
SPLINE
  5
276
100
AcDbEntity
  8
Card_Locations
 62
7
100
AcDbSpline
 70
8
 71
3
 72
8
 73
4
 74
0
 40
0
 40
0
 40
0
 40
0
 40
1
 40
1
 40
1
 40
1
 10
-33.282059
 20
-56.465427
 30
0.0
 10
-32.838038
 20
-56.209071
 30
0.0
 10
-32.564509
 20
-55.735306
 30
0.0
 10
-32.564509
 20
-55.222594
 30
0.0
  0
SPLINE
  5
277
100
AcDbEntity
  8
Card_Locations
 62
7
100
AcDbSpline
 70
8
 71
3
 72
8
 73
4
 74
0
 40
0
 40
0
 40
0
 40
0
 40
1
 40
1
 40
1
 40
1
 10
-29.434708
 20
-55.222594
 30
0.0
 10
-29.434708
 20
-55.735306
 30
0.0
 10
-29.161179
 20
-56.209071
 30
0.0
 10
-28.717158
 20
-56.465427
 30
0.0
  0
SPLINE
  5
278
100
AcDbEntity
  8
Card_Locations
 62
7
100
AcDbSpline
 70
8
 71
3
 72
8
 73
4
 74
0
 40
0
 40
0
 40
0
 40
0
 40
1
 40
1
 40
1
 40
1
 10
-28.717158
 20
-56.465427
 30
0.0
 10
-28.273136
 20
-56.721783
 30
0.0
 10
-27.726079
 20
-56.721783
 30
0.0
 10
-27.282058
 20
-56.465427
 30
0.0
  0
SPLINE
  5
279
100
AcDbEntity
  8
Card_Locations
 62
7
100
AcDbSpline
 70
8
 71
3
 72
8
 73
4
 74
0
 40
0
 40
0
 40
0
 40
0
 40
1
 40
1
 40
1
 40
1
 10
-27.282058
 20
-56.465427
 30
0.0
 10
-26.838036
 20
-56.209071
 30
0.0
 10
-26.564508
 20
-55.735306
 30
0.0
 10
-26.564508
 20
-55.222594
 30
0.0
  0
LWPOLYLINE
  5
27a
100
AcDbEntity
  8
Card_Locations
 62
7
100
AcDbPolyline
 90
2
 70
0
 10
9.356793
 20
100.720693
 30
0.0
 10
33.943994
 20
100.720693
 30
0.0
  0
LWPOLYLINE
  5
27b
100
AcDbEntity
  8
Card_Locations
 62
7
100
AcDbPolyline
 90
2
 70
0
 10
33.943994
 20
80.720693
 30
0.0
 10
33.943994
 20
78.993493
 30
0.0
  0
SPLINE
  5
27c
100
AcDbEntity
  8
Card_Locations
 62
7
100
AcDbSpline
 70
8
 71
3
 72
8
 73
4
 74
0
 40
0
 40
0
 40
0
 40
0
 40
1
 40
1
 40
1
 40
1
 10
-26.564508
 20
-65.222600
 30
0.0
 10
-26.564508
 20
-64.709888
 30
0.0
 10
-26.838036
 20
-64.236123
 30
0.0
 10
-27.282058
 20
-63.979767
 30
0.0
  0
SPLINE
  5
27d
100
AcDbEntity
  8
Card_Locations
 62
7
100
AcDbSpline
 70
8
 71
3
 72
8
 73
4
 74
0
 40
0
 40
0
 40
0
 40
0
 40
1
 40
1
 40
1
 40
1
 10
-27.282058
 20
-63.979767
 30
0.0
 10
-27.726079
 20
-63.723411
 30
0.0
 10
-28.273136
 20
-63.723411
 30
0.0
 10
-28.717158
 20
-63.979767
 30
0.0
  0
SPLINE
  5
27e
100
AcDbEntity
  8
Card_Locations
 62
7
100
AcDbSpline
 70
8
 71
3
 72
8
 73
4
 74
0
 40
0
 40
0
 40
0
 40
0
 40
1
 40
1
 40
1
 40
1
 10
-28.717158
 20
-63.979767
 30
0.0
 10
-29.161179
 20
-64.236123
 30
0.0
 10
-29.434708
 20
-64.709888
 30
0.0
 10
-29.434708
 20
-65.222600
 30
0.0
  0
LWPOLYLINE
  5
27f
100
AcDbEntity
  8
Card_Locations
 62
7
100
AcDbPolyline
 90
2
 70
0
 10
9.356793
 20
98.993493
 30
0.0
 10
33.943994
 20
98.993493
 30
0.0
  0
LWPOLYLINE
  5
280
100
AcDbEntity
  8
Card_Locations
 62
7
100
AcDbPolyline
 90
2
 70
0
 10
22.056793
 20
80.720693
 30
0.0
 10
22.056793
 20
78.993493
 30
0.0
  0
SPLINE
  5
281
100
AcDbEntity
  8
Card_Locations
 62
7
100
AcDbSpline
 70
8
 71
3
 72
8
 73
4
 74
0
 40
0
 40
0
 40
0
 40
0
 40
1
 40
1
 40
1
 40
1
 10
-26.564508
 20
-75.222607
 30
0.0
 10
-26.564508
 20
-74.709895
 30
0.0
 10
-26.838036
 20
-74.236130
 30
0.0
 10
-27.282058
 20
-73.979774
 30
0.0
  0
SPLINE
  5
282
100
AcDbEntity
  8
Card_Locations
 62
7
100
AcDbSpline
 70
8
 71
3
 72
8
 73
4
 74
0
 40
0
 40
0
 40
0
 40
0
 40
1
 40
1
 40
1
 40
1
 10
-27.282058
 20
-73.979774
 30
0.0
 10
-27.726079
 20
-73.723418
 30
0.0
 10
-28.273136
 20
-73.723418
 30
0.0
 10
-28.717158
 20
-73.979774
 30
0.0
  0
SPLINE
  5
283
100
AcDbEntity
  8
Card_Locations
 62
7
100
AcDbSpline
 70
8
 71
3
 72
8
 73
4
 74
0
 40
0
 40
0
 40
0
 40
0
 40
1
 40
1
 40
1
 40
1
 10
-28.717158
 20
-73.979774
 30
0.0
 10
-29.161179
 20
-74.236130
 30
0.0
 10
-29.434708
 20
-74.709895
 30
0.0
 10
-29.434708
 20
-75.222607
 30
0.0
  0
SPLINE
  5
284
100
AcDbEntity
  8
Card_Locations
 62
7
100
AcDbSpline
 70
8
 71
3
 72
8
 73
4
 74
0
 40
0
 40
0
 40
0
 40
0
 40
1
 40
1
 40
1
 40
1
 10
-29.434708
 20
-75.222607
 30
0.0
 10
-29.434708
 20
-75.735319
 30
0.0
 10
-29.161179
 20
-76.209084
 30
0.0
 10
-28.717158
 20
-76.465440
 30
0.0
  0
SPLINE
  5
285
100
AcDbEntity
  8
Card_Locations
 62
7
100
AcDbSpline
 70
8
 71
3
 72
8
 73
4
 74
0
 40
0
 40
0
 40
0
 40
0
 40
1
 40
1
 40
1
 40
1
 10
-28.717158
 20
-76.465440
 30
0.0
 10
-28.273136
 20
-76.721796
 30
0.0
 10
-27.726079
 20
-76.721796
 30
0.0
 10
-27.282058
 20
-76.465440
 30
0.0
  0
SPLINE
  5
286
100
AcDbEntity
  8
Card_Locations
 62
7
100
AcDbSpline
 70
8
 71
3
 72
8
 73
4
 74
0
 40
0
 40
0
 40
0
 40
0
 40
1
 40
1
 40
1
 40
1
 10
-27.282058
 20
-76.465440
 30
0.0
 10
-26.838036
 20
-76.209084
 30
0.0
 10
-26.564508
 20
-75.735319
 30
0.0
 10
-26.564508
 20
-75.222607
 30
0.0
  0
SPLINE
  5
287
100
AcDbEntity
  8
Card_Locations
 62
7
100
AcDbSpline
 70
8
 71
3
 72
8
 73
4
 74
0
 40
0
 40
0
 40
0
 40
0
 40
1
 40
1
 40
1
 40
1
 10
-29.434708
 20
-65.222600
 30
0.0
 10
-29.434708
 20
-65.735312
 30
0.0
 10
-29.161179
 20
-66.209077
 30
0.0
 10
-28.717158
 20
-66.465433
 30
0.0
  0
SPLINE
  5
288
100
AcDbEntity
  8
Card_Locations
 62
7
100
AcDbSpline
 70
8
 71
3
 72
8
 73
4
 74
0
 40
0
 40
0
 40
0
 40
0
 40
1
 40
1
 40
1
 40
1
 10
-28.717158
 20
-66.465433
 30
0.0
 10
-28.273136
 20
-66.721789
 30
0.0
 10
-27.726079
 20
-66.721789
 30
0.0
 10
-27.282058
 20
-66.465433
 30
0.0
  0
SPLINE
  5
289
100
AcDbEntity
  8
Card_Locations
 62
7
100
AcDbSpline
 70
8
 71
3
 72
8
 73
4
 74
0
 40
0
 40
0
 40
0
 40
0
 40
1
 40
1
 40
1
 40
1
 10
-27.282058
 20
-66.465433
 30
0.0
 10
-26.838036
 20
-66.209077
 30
0.0
 10
-26.564508
 20
-65.735312
 30
0.0
 10
-26.564508
 20
-65.222600
 30
0.0
  0
SPLINE
  5
28a
100
AcDbEntity
  8
Card_Locations
 62
7
100
AcDbSpline
 70
8
 71
3
 72
8
 73
4
 74
0
 40
0
 40
0
 40
0
 40
0
 40
1
 40
1
 40
1
 40
1
 10
-26.564508
 20
-25.222601
 30
0.0
 10
-26.564508
 20
-24.709889
 30
0.0
 10
-26.838036
 20
-24.236124
 30
0.0
 10
-27.282058
 20
-23.979768
 30
0.0
  0
SPLINE
  5
28b
100
AcDbEntity
  8
Card_Locations
 62
7
100
AcDbSpline
 70
8
 71
3
 72
8
 73
4
 74
0
 40
0
 40
0
 40
0
 40
0
 40
1
 40
1
 40
1
 40
1
 10
-27.282058
 20
-23.979768
 30
0.0
 10
-27.726079
 20
-23.723412
 30
0.0
 10
-28.273136
 20
-23.723412
 30
0.0
 10
-28.717158
 20
-23.979768
 30
0.0
  0
SPLINE
  5
28c
100
AcDbEntity
  8
Card_Locations
 62
7
100
AcDbSpline
 70
8
 71
3
 72
8
 73
4
 74
0
 40
0
 40
0
 40
0
 40
0
 40
1
 40
1
 40
1
 40
1
 10
-28.717158
 20
-23.979768
 30
0.0
 10
-29.161179
 20
-24.236124
 30
0.0
 10
-29.434708
 20
-24.709889
 30
0.0
 10
-29.434708
 20
-25.222601
 30
0.0
  0
SPLINE
  5
28d
100
AcDbEntity
  8
Card_Locations
 62
7
100
AcDbSpline
 70
8
 71
3
 72
8
 73
4
 74
0
 40
0
 40
0
 40
0
 40
0
 40
1
 40
1
 40
1
 40
1
 10
-29.434708
 20
-15.222594
 30
0.0
 10
-29.434708
 20
-15.735306
 30
0.0
 10
-29.161179
 20
-16.209072
 30
0.0
 10
-28.717158
 20
-16.465427
 30
0.0
  0
SPLINE
  5
28e
100
AcDbEntity
  8
Card_Locations
 62
7
100
AcDbSpline
 70
8
 71
3
 72
8
 73
4
 74
0
 40
0
 40
0
 40
0
 40
0
 40
1
 40
1
 40
1
 40
1
 10
-28.717158
 20
-16.465427
 30
0.0
 10
-28.273136
 20
-16.721783
 30
0.0
 10
-27.726079
 20
-16.721783
 30
0.0
 10
-27.282058
 20
-16.465427
 30
0.0
  0
SPLINE
  5
28f
100
AcDbEntity
  8
Card_Locations
 62
7
100
AcDbSpline
 70
8
 71
3
 72
8
 73
4
 74
0
 40
0
 40
0
 40
0
 40
0
 40
1
 40
1
 40
1
 40
1
 10
-27.282058
 20
-16.465427
 30
0.0
 10
-26.838036
 20
-16.209072
 30
0.0
 10
-26.564508
 20
-15.735306
 30
0.0
 10
-26.564508
 20
-15.222594
 30
0.0
  0
SPLINE
  5
290
100
AcDbEntity
  8
Card_Locations
 62
7
100
AcDbSpline
 70
8
 71
3
 72
8
 73
4
 74
0
 40
0
 40
0
 40
0
 40
0
 40
1
 40
1
 40
1
 40
1
 10
-26.564508
 20
-15.222594
 30
0.0
 10
-26.564508
 20
-14.709883
 30
0.0
 10
-26.838036
 20
-14.236117
 30
0.0
 10
-27.282058
 20
-13.979761
 30
0.0
  0
SPLINE
  5
291
100
AcDbEntity
  8
Card_Locations
 62
7
100
AcDbSpline
 70
8
 71
3
 72
8
 73
4
 74
0
 40
0
 40
0
 40
0
 40
0
 40
1
 40
1
 40
1
 40
1
 10
-27.282058
 20
-13.979761
 30
0.0
 10
-27.726079
 20
-13.723405
 30
0.0
 10
-28.273136
 20
-13.723405
 30
0.0
 10
-28.717158
 20
-13.979761
 30
0.0
  0
SPLINE
  5
292
100
AcDbEntity
  8
Card_Locations
 62
7
100
AcDbSpline
 70
8
 71
3
 72
8
 73
4
 74
0
 40
0
 40
0
 40
0
 40
0
 40
1
 40
1
 40
1
 40
1
 10
-28.717158
 20
-13.979761
 30
0.0
 10
-29.161179
 20
-14.236117
 30
0.0
 10
-29.434708
 20
-14.709883
 30
0.0
 10
-29.434708
 20
-15.222594
 30
0.0
  0
SPLINE
  5
293
100
AcDbEntity
  8
Card_Locations
 62
7
100
AcDbSpline
 70
8
 71
3
 72
8
 73
4
 74
0
 40
0
 40
0
 40
0
 40
0
 40
1
 40
1
 40
1
 40
1
 10
-23.434707
 20
-95.222593
 30
0.0
 10
-23.434707
 20
-95.735305
 30
0.0
 10
-23.161179
 20
-96.209070
 30
0.0
 10
-22.717157
 20
-96.465426
 30
0.0
  0
SPLINE
  5
294
100
AcDbEntity
  8
Card_Locations
 62
7
100
AcDbSpline
 70
8
 71
3
 72
8
 73
4
 74
0
 40
0
 40
0
 40
0
 40
0
 40
1
 40
1
 40
1
 40
1
 10
-22.717157
 20
-96.465426
 30
0.0
 10
-22.273136
 20
-96.721782
 30
0.0
 10
-21.726079
 20
-96.721782
 30
0.0
 10
-21.282057
 20
-96.465426
 30
0.0
  0
SPLINE
  5
295
100
AcDbEntity
  8
Card_Locations
 62
7
100
AcDbSpline
 70
8
 71
3
 72
8
 73
4
 74
0
 40
0
 40
0
 40
0
 40
0
 40
1
 40
1
 40
1
 40
1
 10
-21.282057
 20
-96.465426
 30
0.0
 10
-20.838036
 20
-96.209070
 30
0.0
 10
-20.564507
 20
-95.735305
 30
0.0
 10
-20.564507
 20
-95.222593
 30
0.0
  0
SPLINE
  5
296
100
AcDbEntity
  8
Card_Locations
 62
7
100
AcDbSpline
 70
8
 71
3
 72
8
 73
4
 74
0
 40
0
 40
0
 40
0
 40
0
 40
1
 40
1
 40
1
 40
1
 10
-20.564507
 20
-95.222593
 30
0.0
 10
-20.564507
 20
-94.709881
 30
0.0
 10
-20.838036
 20
-94.236116
 30
0.0
 10
-21.282057
 20
-93.979760
 30
0.0
  0
SPLINE
  5
297
100
AcDbEntity
  8
Card_Locations
 62
7
100
AcDbSpline
 70
8
 71
3
 72
8
 73
4
 74
0
 40
0
 40
0
 40
0
 40
0
 40
1
 40
1
 40
1
 40
1
 10
-21.282057
 20
-93.979760
 30
0.0
 10
-21.726079
 20
-93.723404
 30
0.0
 10
-22.273136
 20
-93.723404
 30
0.0
 10
-22.717157
 20
-93.979760
 30
0.0
  0
SPLINE
  5
298
100
AcDbEntity
  8
Card_Locations
 62
7
100
AcDbSpline
 70
8
 71
3
 72
8
 73
4
 74
0
 40
0
 40
0
 40
0
 40
0
 40
1
 40
1
 40
1
 40
1
 10
-22.717157
 20
-93.979760
 30
0.0
 10
-23.161179
 20
-94.236116
 30
0.0
 10
-23.434707
 20
-94.709881
 30
0.0
 10
-23.434707
 20
-95.222593
 30
0.0
  0
SPLINE
  5
299
100
AcDbEntity
  8
Card_Locations
 62
7
100
AcDbSpline
 70
8
 71
3
 72
8
 73
4
 74
0
 40
0
 40
0
 40
0
 40
0
 40
1
 40
1
 40
1
 40
1
 10
-23.434707
 20
-85.222587
 30
0.0
 10
-23.434707
 20
-85.735299
 30
0.0
 10
-23.161179
 20
-86.209064
 30
0.0
 10
-22.717157
 20
-86.465420
 30
0.0
  0
SPLINE
  5
29a
100
AcDbEntity
  8
Card_Locations
 62
7
100
AcDbSpline
 70
8
 71
3
 72
8
 73
4
 74
0
 40
0
 40
0
 40
0
 40
0
 40
1
 40
1
 40
1
 40
1
 10
-22.717157
 20
-86.465420
 30
0.0
 10
-22.273136
 20
-86.721776
 30
0.0
 10
-21.726079
 20
-86.721776
 30
0.0
 10
-21.282057
 20
-86.465420
 30
0.0
  0
SPLINE
  5
29b
100
AcDbEntity
  8
Card_Locations
 62
7
100
AcDbSpline
 70
8
 71
3
 72
8
 73
4
 74
0
 40
0
 40
0
 40
0
 40
0
 40
1
 40
1
 40
1
 40
1
 10
-21.282057
 20
-86.465420
 30
0.0
 10
-20.838036
 20
-86.209064
 30
0.0
 10
-20.564507
 20
-85.735299
 30
0.0
 10
-20.564507
 20
-85.222587
 30
0.0
  0
SPLINE
  5
29c
100
AcDbEntity
  8
Card_Locations
 62
7
100
AcDbSpline
 70
8
 71
3
 72
8
 73
4
 74
0
 40
0
 40
0
 40
0
 40
0
 40
1
 40
1
 40
1
 40
1
 10
-20.564507
 20
-85.222587
 30
0.0
 10
-20.564507
 20
-84.709875
 30
0.0
 10
-20.838036
 20
-84.236110
 30
0.0
 10
-21.282057
 20
-83.979754
 30
0.0
  0
SPLINE
  5
29d
100
AcDbEntity
  8
Card_Locations
 62
7
100
AcDbSpline
 70
8
 71
3
 72
8
 73
4
 74
0
 40
0
 40
0
 40
0
 40
0
 40
1
 40
1
 40
1
 40
1
 10
-21.282057
 20
-83.979754
 30
0.0
 10
-21.726079
 20
-83.723398
 30
0.0
 10
-22.273136
 20
-83.723398
 30
0.0
 10
-22.717157
 20
-83.979754
 30
0.0
  0
SPLINE
  5
29e
100
AcDbEntity
  8
Card_Locations
 62
7
100
AcDbSpline
 70
8
 71
3
 72
8
 73
4
 74
0
 40
0
 40
0
 40
0
 40
0
 40
1
 40
1
 40
1
 40
1
 10
-22.717157
 20
-83.979754
 30
0.0
 10
-23.161179
 20
-84.236110
 30
0.0
 10
-23.434707
 20
-84.709875
 30
0.0
 10
-23.434707
 20
-85.222587
 30
0.0
  0
SPLINE
  5
29f
100
AcDbEntity
  8
Card_Locations
 62
7
100
AcDbSpline
 70
8
 71
3
 72
8
 73
4
 74
0
 40
0
 40
0
 40
0
 40
0
 40
1
 40
1
 40
1
 40
1
 10
-23.434707
 20
-75.222607
 30
0.0
 10
-23.434707
 20
-75.735319
 30
0.0
 10
-23.161179
 20
-76.209084
 30
0.0
 10
-22.717157
 20
-76.465440
 30
0.0
  0
SPLINE
  5
2a0
100
AcDbEntity
  8
Card_Locations
 62
7
100
AcDbSpline
 70
8
 71
3
 72
8
 73
4
 74
0
 40
0
 40
0
 40
0
 40
0
 40
1
 40
1
 40
1
 40
1
 10
-22.717157
 20
-76.465440
 30
0.0
 10
-22.273136
 20
-76.721796
 30
0.0
 10
-21.726079
 20
-76.721796
 30
0.0
 10
-21.282057
 20
-76.465440
 30
0.0
  0
SPLINE
  5
2a1
100
AcDbEntity
  8
Card_Locations
 62
7
100
AcDbSpline
 70
8
 71
3
 72
8
 73
4
 74
0
 40
0
 40
0
 40
0
 40
0
 40
1
 40
1
 40
1
 40
1
 10
-21.282057
 20
-76.465440
 30
0.0
 10
-20.838036
 20
-76.209084
 30
0.0
 10
-20.564507
 20
-75.735319
 30
0.0
 10
-20.564507
 20
-75.222607
 30
0.0
  0
SPLINE
  5
2a2
100
AcDbEntity
  8
Card_Locations
 62
7
100
AcDbSpline
 70
8
 71
3
 72
8
 73
4
 74
0
 40
0
 40
0
 40
0
 40
0
 40
1
 40
1
 40
1
 40
1
 10
-20.564507
 20
-75.222607
 30
0.0
 10
-20.564507
 20
-74.709895
 30
0.0
 10
-20.838036
 20
-74.236130
 30
0.0
 10
-21.282057
 20
-73.979774
 30
0.0
  0
SPLINE
  5
2a3
100
AcDbEntity
  8
Card_Locations
 62
7
100
AcDbSpline
 70
8
 71
3
 72
8
 73
4
 74
0
 40
0
 40
0
 40
0
 40
0
 40
1
 40
1
 40
1
 40
1
 10
-21.282057
 20
-73.979774
 30
0.0
 10
-21.726079
 20
-73.723418
 30
0.0
 10
-22.273136
 20
-73.723418
 30
0.0
 10
-22.717157
 20
-73.979774
 30
0.0
  0
SPLINE
  5
2a4
100
AcDbEntity
  8
Card_Locations
 62
7
100
AcDbSpline
 70
8
 71
3
 72
8
 73
4
 74
0
 40
0
 40
0
 40
0
 40
0
 40
1
 40
1
 40
1
 40
1
 10
-22.717157
 20
-73.979774
 30
0.0
 10
-23.161179
 20
-74.236130
 30
0.0
 10
-23.434707
 20
-74.709895
 30
0.0
 10
-23.434707
 20
-75.222607
 30
0.0
  0
SPLINE
  5
2a5
100
AcDbEntity
  8
Card_Locations
 62
7
100
AcDbSpline
 70
8
 71
3
 72
8
 73
4
 74
0
 40
0
 40
0
 40
0
 40
0
 40
1
 40
1
 40
1
 40
1
 10
-23.434707
 20
-65.222600
 30
0.0
 10
-23.434707
 20
-65.735312
 30
0.0
 10
-23.161179
 20
-66.209077
 30
0.0
 10
-22.717157
 20
-66.465433
 30
0.0
  0
SPLINE
  5
2a6
100
AcDbEntity
  8
Card_Locations
 62
7
100
AcDbSpline
 70
8
 71
3
 72
8
 73
4
 74
0
 40
0
 40
0
 40
0
 40
0
 40
1
 40
1
 40
1
 40
1
 10
-22.717157
 20
-66.465433
 30
0.0
 10
-22.273136
 20
-66.721789
 30
0.0
 10
-21.726079
 20
-66.721789
 30
0.0
 10
-21.282057
 20
-66.465433
 30
0.0
  0
SPLINE
  5
2a7
100
AcDbEntity
  8
Card_Locations
 62
7
100
AcDbSpline
 70
8
 71
3
 72
8
 73
4
 74
0
 40
0
 40
0
 40
0
 40
0
 40
1
 40
1
 40
1
 40
1
 10
-21.282057
 20
-66.465433
 30
0.0
 10
-20.838036
 20
-66.209077
 30
0.0
 10
-20.564507
 20
-65.735312
 30
0.0
 10
-20.564507
 20
-65.222600
 30
0.0
  0
SPLINE
  5
2a8
100
AcDbEntity
  8
Card_Locations
 62
7
100
AcDbSpline
 70
8
 71
3
 72
8
 73
4
 74
0
 40
0
 40
0
 40
0
 40
0
 40
1
 40
1
 40
1
 40
1
 10
-20.564507
 20
-65.222600
 30
0.0
 10
-20.564507
 20
-64.709888
 30
0.0
 10
-20.838036
 20
-64.236123
 30
0.0
 10
-21.282057
 20
-63.979767
 30
0.0
  0
SPLINE
  5
2a9
100
AcDbEntity
  8
Card_Locations
 62
7
100
AcDbSpline
 70
8
 71
3
 72
8
 73
4
 74
0
 40
0
 40
0
 40
0
 40
0
 40
1
 40
1
 40
1
 40
1
 10
-21.282057
 20
-63.979767
 30
0.0
 10
-21.726079
 20
-63.723411
 30
0.0
 10
-22.273136
 20
-63.723411
 30
0.0
 10
-22.717157
 20
-63.979767
 30
0.0
  0
SPLINE
  5
2aa
100
AcDbEntity
  8
Card_Locations
 62
7
100
AcDbSpline
 70
8
 71
3
 72
8
 73
4
 74
0
 40
0
 40
0
 40
0
 40
0
 40
1
 40
1
 40
1
 40
1
 10
-22.717157
 20
-63.979767
 30
0.0
 10
-23.161179
 20
-64.236123
 30
0.0
 10
-23.434707
 20
-64.709888
 30
0.0
 10
-23.434707
 20
-65.222600
 30
0.0
  0
SPLINE
  5
2ab
100
AcDbEntity
  8
Card_Locations
 62
7
100
AcDbSpline
 70
8
 71
3
 72
8
 73
4
 74
0
 40
0
 40
0
 40
0
 40
0
 40
1
 40
1
 40
1
 40
1
 10
-23.434707
 20
-55.222594
 30
0.0
 10
-23.434707
 20
-55.735306
 30
0.0
 10
-23.161179
 20
-56.209071
 30
0.0
 10
-22.717157
 20
-56.465427
 30
0.0
  0
SPLINE
  5
2ac
100
AcDbEntity
  8
Card_Locations
 62
7
100
AcDbSpline
 70
8
 71
3
 72
8
 73
4
 74
0
 40
0
 40
0
 40
0
 40
0
 40
1
 40
1
 40
1
 40
1
 10
-22.717157
 20
-56.465427
 30
0.0
 10
-22.273136
 20
-56.721783
 30
0.0
 10
-21.726079
 20
-56.721783
 30
0.0
 10
-21.282057
 20
-56.465427
 30
0.0
  0
SPLINE
  5
2ad
100
AcDbEntity
  8
Card_Locations
 62
7
100
AcDbSpline
 70
8
 71
3
 72
8
 73
4
 74
0
 40
0
 40
0
 40
0
 40
0
 40
1
 40
1
 40
1
 40
1
 10
-21.282057
 20
-56.465427
 30
0.0
 10
-20.838036
 20
-56.209071
 30
0.0
 10
-20.564507
 20
-55.735306
 30
0.0
 10
-20.564507
 20
-55.222594
 30
0.0
  0
SPLINE
  5
2ae
100
AcDbEntity
  8
Card_Locations
 62
7
100
AcDbSpline
 70
8
 71
3
 72
8
 73
4
 74
0
 40
0
 40
0
 40
0
 40
0
 40
1
 40
1
 40
1
 40
1
 10
-20.564507
 20
-55.222594
 30
0.0
 10
-20.564507
 20
-54.709882
 30
0.0
 10
-20.838036
 20
-54.236117
 30
0.0
 10
-21.282057
 20
-53.979761
 30
0.0
  0
SPLINE
  5
2af
100
AcDbEntity
  8
Card_Locations
 62
7
100
AcDbSpline
 70
8
 71
3
 72
8
 73
4
 74
0
 40
0
 40
0
 40
0
 40
0
 40
1
 40
1
 40
1
 40
1
 10
-21.282057
 20
-53.979761
 30
0.0
 10
-21.726079
 20
-53.723405
 30
0.0
 10
-22.273136
 20
-53.723405
 30
0.0
 10
-22.717157
 20
-53.979761
 30
0.0
  0
SPLINE
  5
2b0
100
AcDbEntity
  8
Card_Locations
 62
7
100
AcDbSpline
 70
8
 71
3
 72
8
 73
4
 74
0
 40
0
 40
0
 40
0
 40
0
 40
1
 40
1
 40
1
 40
1
 10
-22.717157
 20
-53.979761
 30
0.0
 10
-23.161179
 20
-54.236117
 30
0.0
 10
-23.434707
 20
-54.709882
 30
0.0
 10
-23.434707
 20
-55.222594
 30
0.0
  0
SPLINE
  5
2b1
100
AcDbEntity
  8
Card_Locations
 62
7
100
AcDbSpline
 70
8
 71
3
 72
8
 73
4
 74
0
 40
0
 40
0
 40
0
 40
0
 40
1
 40
1
 40
1
 40
1
 10
-23.434707
 20
-45.222587
 30
0.0
 10
-23.434707
 20
-45.735299
 30
0.0
 10
-23.161179
 20
-46.209064
 30
0.0
 10
-22.717157
 20
-46.465420
 30
0.0
  0
SPLINE
  5
2b2
100
AcDbEntity
  8
Card_Locations
 62
7
100
AcDbSpline
 70
8
 71
3
 72
8
 73
4
 74
0
 40
0
 40
0
 40
0
 40
0
 40
1
 40
1
 40
1
 40
1
 10
-22.717157
 20
-46.465420
 30
0.0
 10
-22.273136
 20
-46.721776
 30
0.0
 10
-21.726079
 20
-46.721776
 30
0.0
 10
-21.282057
 20
-46.465420
 30
0.0
  0
SPLINE
  5
2b3
100
AcDbEntity
  8
Card_Locations
 62
7
100
AcDbSpline
 70
8
 71
3
 72
8
 73
4
 74
0
 40
0
 40
0
 40
0
 40
0
 40
1
 40
1
 40
1
 40
1
 10
-21.282057
 20
-46.465420
 30
0.0
 10
-20.838036
 20
-46.209064
 30
0.0
 10
-20.564507
 20
-45.735299
 30
0.0
 10
-20.564507
 20
-45.222587
 30
0.0
  0
SPLINE
  5
2b4
100
AcDbEntity
  8
Card_Locations
 62
7
100
AcDbSpline
 70
8
 71
3
 72
8
 73
4
 74
0
 40
0
 40
0
 40
0
 40
0
 40
1
 40
1
 40
1
 40
1
 10
-20.564507
 20
-45.222587
 30
0.0
 10
-20.564507
 20
-44.709875
 30
0.0
 10
-20.838036
 20
-44.236110
 30
0.0
 10
-21.282057
 20
-43.979754
 30
0.0
  0
SPLINE
  5
2b5
100
AcDbEntity
  8
Card_Locations
 62
7
100
AcDbSpline
 70
8
 71
3
 72
8
 73
4
 74
0
 40
0
 40
0
 40
0
 40
0
 40
1
 40
1
 40
1
 40
1
 10
-21.282057
 20
-43.979754
 30
0.0
 10
-21.726079
 20
-43.723398
 30
0.0
 10
-22.273136
 20
-43.723398
 30
0.0
 10
-22.717157
 20
-43.979754
 30
0.0
  0
SPLINE
  5
2b6
100
AcDbEntity
  8
Card_Locations
 62
7
100
AcDbSpline
 70
8
 71
3
 72
8
 73
4
 74
0
 40
0
 40
0
 40
0
 40
0
 40
1
 40
1
 40
1
 40
1
 10
-22.717157
 20
-43.979754
 30
0.0
 10
-23.161179
 20
-44.236110
 30
0.0
 10
-23.434707
 20
-44.709875
 30
0.0
 10
-23.434707
 20
-45.222587
 30
0.0
  0
SPLINE
  5
2b7
100
AcDbEntity
  8
Card_Locations
 62
7
100
AcDbSpline
 70
8
 71
3
 72
8
 73
4
 74
0
 40
0
 40
0
 40
0
 40
0
 40
1
 40
1
 40
1
 40
1
 10
-23.434707
 20
-35.222607
 30
0.0
 10
-23.434707
 20
-35.735319
 30
0.0
 10
-23.161179
 20
-36.209084
 30
0.0
 10
-22.717157
 20
-36.465440
 30
0.0
  0
SPLINE
  5
2b8
100
AcDbEntity
  8
Card_Locations
 62
7
100
AcDbSpline
 70
8
 71
3
 72
8
 73
4
 74
0
 40
0
 40
0
 40
0
 40
0
 40
1
 40
1
 40
1
 40
1
 10
-22.717157
 20
-36.465440
 30
0.0
 10
-22.273136
 20
-36.721796
 30
0.0
 10
-21.726079
 20
-36.721796
 30
0.0
 10
-21.282057
 20
-36.465440
 30
0.0
  0
SPLINE
  5
2b9
100
AcDbEntity
  8
Card_Locations
 62
7
100
AcDbSpline
 70
8
 71
3
 72
8
 73
4
 74
0
 40
0
 40
0
 40
0
 40
0
 40
1
 40
1
 40
1
 40
1
 10
-21.282057
 20
-36.465440
 30
0.0
 10
-20.838036
 20
-36.209084
 30
0.0
 10
-20.564507
 20
-35.735319
 30
0.0
 10
-20.564507
 20
-35.222607
 30
0.0
  0
SPLINE
  5
2ba
100
AcDbEntity
  8
Card_Locations
 62
7
100
AcDbSpline
 70
8
 71
3
 72
8
 73
4
 74
0
 40
0
 40
0
 40
0
 40
0
 40
1
 40
1
 40
1
 40
1
 10
-20.564507
 20
-35.222607
 30
0.0
 10
-20.564507
 20
-34.709895
 30
0.0
 10
-20.838036
 20
-34.236130
 30
0.0
 10
-21.282057
 20
-33.979774
 30
0.0
  0
SPLINE
  5
2bb
100
AcDbEntity
  8
Card_Locations
 62
7
100
AcDbSpline
 70
8
 71
3
 72
8
 73
4
 74
0
 40
0
 40
0
 40
0
 40
0
 40
1
 40
1
 40
1
 40
1
 10
-21.282057
 20
-33.979774
 30
0.0
 10
-21.726079
 20
-33.723418
 30
0.0
 10
-22.273136
 20
-33.723418
 30
0.0
 10
-22.717157
 20
-33.979774
 30
0.0
  0
SPLINE
  5
2bc
100
AcDbEntity
  8
Card_Locations
 62
7
100
AcDbSpline
 70
8
 71
3
 72
8
 73
4
 74
0
 40
0
 40
0
 40
0
 40
0
 40
1
 40
1
 40
1
 40
1
 10
-22.717157
 20
-33.979774
 30
0.0
 10
-23.161179
 20
-34.236130
 30
0.0
 10
-23.434707
 20
-34.709895
 30
0.0
 10
-23.434707
 20
-35.222607
 30
0.0
  0
SPLINE
  5
2bd
100
AcDbEntity
  8
Card_Locations
 62
7
100
AcDbSpline
 70
8
 71
3
 72
8
 73
4
 74
0
 40
0
 40
0
 40
0
 40
0
 40
1
 40
1
 40
1
 40
1
 10
-23.434707
 20
-25.222601
 30
0.0
 10
-23.434707
 20
-25.735313
 30
0.0
 10
-23.161179
 20
-26.209078
 30
0.0
 10
-22.717157
 20
-26.465434
 30
0.0
  0
SPLINE
  5
2be
100
AcDbEntity
  8
Card_Locations
 62
7
100
AcDbSpline
 70
8
 71
3
 72
8
 73
4
 74
0
 40
0
 40
0
 40
0
 40
0
 40
1
 40
1
 40
1
 40
1
 10
-22.717157
 20
-26.465434
 30
0.0
 10
-22.273136
 20
-26.721790
 30
0.0
 10
-21.726079
 20
-26.721790
 30
0.0
 10
-21.282057
 20
-26.465434
 30
0.0
  0
SPLINE
  5
2bf
100
AcDbEntity
  8
Card_Locations
 62
7
100
AcDbSpline
 70
8
 71
3
 72
8
 73
4
 74
0
 40
0
 40
0
 40
0
 40
0
 40
1
 40
1
 40
1
 40
1
 10
-21.282057
 20
-26.465434
 30
0.0
 10
-20.838036
 20
-26.209078
 30
0.0
 10
-20.564507
 20
-25.735313
 30
0.0
 10
-20.564507
 20
-25.222601
 30
0.0
  0
SPLINE
  5
2c0
100
AcDbEntity
  8
Card_Locations
 62
7
100
AcDbSpline
 70
8
 71
3
 72
8
 73
4
 74
0
 40
0
 40
0
 40
0
 40
0
 40
1
 40
1
 40
1
 40
1
 10
-20.564507
 20
-25.222601
 30
0.0
 10
-20.564507
 20
-24.709889
 30
0.0
 10
-20.838036
 20
-24.236124
 30
0.0
 10
-21.282057
 20
-23.979768
 30
0.0
  0
SPLINE
  5
2c1
100
AcDbEntity
  8
Card_Locations
 62
7
100
AcDbSpline
 70
8
 71
3
 72
8
 73
4
 74
0
 40
0
 40
0
 40
0
 40
0
 40
1
 40
1
 40
1
 40
1
 10
-21.282057
 20
-23.979768
 30
0.0
 10
-21.726079
 20
-23.723412
 30
0.0
 10
-22.273136
 20
-23.723412
 30
0.0
 10
-22.717157
 20
-23.979768
 30
0.0
  0
SPLINE
  5
2c2
100
AcDbEntity
  8
Card_Locations
 62
7
100
AcDbSpline
 70
8
 71
3
 72
8
 73
4
 74
0
 40
0
 40
0
 40
0
 40
0
 40
1
 40
1
 40
1
 40
1
 10
-22.717157
 20
-23.979768
 30
0.0
 10
-23.161179
 20
-24.236124
 30
0.0
 10
-23.434707
 20
-24.709889
 30
0.0
 10
-23.434707
 20
-25.222601
 30
0.0
  0
LWPOLYLINE
  5
2c3
100
AcDbEntity
  8
Card_Locations
 62
7
100
AcDbPolyline
 90
2
 70
0
 10
9.356793
 20
100.720693
 30
0.0
 10
9.356793
 20
98.993493
 30
0.0
  0
LWPOLYLINE
  5
2c4
100
AcDbEntity
  8
Card_Locations
 62
7
100
AcDbPolyline
 90
2
 70
0
 10
22.056793
 20
30.720714
 30
0.0
 10
22.056793
 20
28.993514
 30
0.0
  0
LWPOLYLINE
  5
2c5
100
AcDbEntity
  8
Card_Locations
 62
7
100
AcDbPolyline
 90
2
 70
0
 10
12.293994
 20
80.720693
 30
0.0
 10
12.293994
 20
78.993493
 30
0.0
  0
LWPOLYLINE
  5
2c6
100
AcDbEntity
  8
Card_Locations
 62
7
100
AcDbPolyline
 90
2
 70
0
 10
33.943994
 20
80.720693
 30
0.0
 10
22.056793
 20
80.720693
 30
0.0
  0
LWPOLYLINE
  5
2c7
100
AcDbEntity
  8
Card_Locations
 62
7
100
AcDbPolyline
 90
2
 70
0
 10
33.943994
 20
78.993493
 30
0.0
 10
22.056793
 20
78.993493
 30
0.0
  0
LWPOLYLINE
  5
2c8
100
AcDbEntity
  8
Card_Locations
 62
7
100
AcDbPolyline
 90
2
 70
0
 10
12.293994
 20
80.720693
 30
0.0
 10
-12.293209
 20
80.720693
 30
0.0
  0
SPLINE
  5
2c9
100
AcDbEntity
  8
Card_Locations
 62
7
100
AcDbSpline
 70
8
 71
3
 72
8
 73
4
 74
0
 40
0
 40
0
 40
0
 40
0
 40
1
 40
1
 40
1
 40
1
 10
-35.434709
 20
27.177414
 30
0.0
 10
-35.434709
 20
26.664702
 30
0.0
 10
-35.161181
 20
26.190937
 30
0.0
 10
-34.717159
 20
25.934581
 30
0.0
  0
SPLINE
  5
2ca
100
AcDbEntity
  8
Card_Locations
 62
7
100
AcDbSpline
 70
8
 71
3
 72
8
 73
4
 74
0
 40
0
 40
0
 40
0
 40
0
 40
1
 40
1
 40
1
 40
1
 10
-34.717159
 20
25.934581
 30
0.0
 10
-34.273138
 20
25.678225
 30
0.0
 10
-33.726081
 20
25.678225
 30
0.0
 10
-33.282059
 20
25.934581
 30
0.0
  0
SPLINE
  5
2cb
100
AcDbEntity
  8
Card_Locations
 62
7
100
AcDbSpline
 70
8
 71
3
 72
8
 73
4
 74
0
 40
0
 40
0
 40
0
 40
0
 40
1
 40
1
 40
1
 40
1
 10
-33.282059
 20
25.934581
 30
0.0
 10
-32.838038
 20
26.190937
 30
0.0
 10
-32.564509
 20
26.664702
 30
0.0
 10
-32.564509
 20
27.177414
 30
0.0
  0
SPLINE
  5
2cc
100
AcDbEntity
  8
Card_Locations
 62
7
100
AcDbSpline
 70
8
 71
3
 72
8
 73
4
 74
0
 40
0
 40
0
 40
0
 40
0
 40
1
 40
1
 40
1
 40
1
 10
-32.564509
 20
27.177414
 30
0.0
 10
-32.564509
 20
27.690126
 30
0.0
 10
-32.838038
 20
28.163891
 30
0.0
 10
-33.282059
 20
28.420247
 30
0.0
  0
SPLINE
  5
2cd
100
AcDbEntity
  8
Card_Locations
 62
7
100
AcDbSpline
 70
8
 71
3
 72
8
 73
4
 74
0
 40
0
 40
0
 40
0
 40
0
 40
1
 40
1
 40
1
 40
1
 10
-33.282059
 20
28.420247
 30
0.0
 10
-33.726081
 20
28.676603
 30
0.0
 10
-34.273138
 20
28.676603
 30
0.0
 10
-34.717159
 20
28.420247
 30
0.0
  0
SPLINE
  5
2ce
100
AcDbEntity
  8
Card_Locations
 62
7
100
AcDbSpline
 70
8
 71
3
 72
8
 73
4
 74
0
 40
0
 40
0
 40
0
 40
0
 40
1
 40
1
 40
1
 40
1
 10
-34.717159
 20
28.420247
 30
0.0
 10
-35.161181
 20
28.163891
 30
0.0
 10
-35.434709
 20
27.690126
 30
0.0
 10
-35.434709
 20
27.177414
 30
0.0
  0
SPLINE
  5
2cf
100
AcDbEntity
  8
Card_Locations
 62
7
100
AcDbSpline
 70
8
 71
3
 72
8
 73
4
 74
0
 40
0
 40
0
 40
0
 40
0
 40
1
 40
1
 40
1
 40
1
 10
-35.434709
 20
37.177389
 30
0.0
 10
-35.434709
 20
36.664677
 30
0.0
 10
-35.161181
 20
36.190912
 30
0.0
 10
-34.717159
 20
35.934556
 30
0.0
  0
SPLINE
  5
2d0
100
AcDbEntity
  8
Card_Locations
 62
7
100
AcDbSpline
 70
8
 71
3
 72
8
 73
4
 74
0
 40
0
 40
0
 40
0
 40
0
 40
1
 40
1
 40
1
 40
1
 10
-34.717159
 20
35.934556
 30
0.0
 10
-34.273138
 20
35.678200
 30
0.0
 10
-33.726081
 20
35.678200
 30
0.0
 10
-33.282059
 20
35.934556
 30
0.0
  0
SPLINE
  5
2d1
100
AcDbEntity
  8
Card_Locations
 62
7
100
AcDbSpline
 70
8
 71
3
 72
8
 73
4
 74
0
 40
0
 40
0
 40
0
 40
0
 40
1
 40
1
 40
1
 40
1
 10
-33.282059
 20
35.934556
 30
0.0
 10
-32.838038
 20
36.190912
 30
0.0
 10
-32.564509
 20
36.664677
 30
0.0
 10
-32.564509
 20
37.177389
 30
0.0
  0
SPLINE
  5
2d2
100
AcDbEntity
  8
Card_Locations
 62
7
100
AcDbSpline
 70
8
 71
3
 72
8
 73
4
 74
0
 40
0
 40
0
 40
0
 40
0
 40
1
 40
1
 40
1
 40
1
 10
-32.564509
 20
37.177389
 30
0.0
 10
-32.564509
 20
37.690101
 30
0.0
 10
-32.838038
 20
38.163866
 30
0.0
 10
-33.282059
 20
38.420222
 30
0.0
  0
SPLINE
  5
2d3
100
AcDbEntity
  8
Card_Locations
 62
7
100
AcDbSpline
 70
8
 71
3
 72
8
 73
4
 74
0
 40
0
 40
0
 40
0
 40
0
 40
1
 40
1
 40
1
 40
1
 10
-33.282059
 20
38.420222
 30
0.0
 10
-33.726081
 20
38.676578
 30
0.0
 10
-34.273138
 20
38.676578
 30
0.0
 10
-34.717159
 20
38.420222
 30
0.0
  0
SPLINE
  5
2d4
100
AcDbEntity
  8
Card_Locations
 62
7
100
AcDbSpline
 70
8
 71
3
 72
8
 73
4
 74
0
 40
0
 40
0
 40
0
 40
0
 40
1
 40
1
 40
1
 40
1
 10
-34.717159
 20
38.420222
 30
0.0
 10
-35.161181
 20
38.163866
 30
0.0
 10
-35.434709
 20
37.690101
 30
0.0
 10
-35.434709
 20
37.177389
 30
0.0
  0
SPLINE
  5
2d5
100
AcDbEntity
  8
Card_Locations
 62
7
100
AcDbSpline
 70
8
 71
3
 72
8
 73
4
 74
0
 40
0
 40
0
 40
0
 40
0
 40
1
 40
1
 40
1
 40
1
 10
-35.434709
 20
47.177390
 30
0.0
 10
-35.434709
 20
46.664678
 30
0.0
 10
-35.161181
 20
46.190913
 30
0.0
 10
-34.717159
 20
45.934557
 30
0.0
  0
SPLINE
  5
2d6
100
AcDbEntity
  8
Card_Locations
 62
7
100
AcDbSpline
 70
8
 71
3
 72
8
 73
4
 74
0
 40
0
 40
0
 40
0
 40
0
 40
1
 40
1
 40
1
 40
1
 10
-34.717159
 20
45.934557
 30
0.0
 10
-34.273138
 20
45.678201
 30
0.0
 10
-33.726081
 20
45.678201
 30
0.0
 10
-33.282059
 20
45.934557
 30
0.0
  0
SPLINE
  5
2d7
100
AcDbEntity
  8
Card_Locations
 62
7
100
AcDbSpline
 70
8
 71
3
 72
8
 73
4
 74
0
 40
0
 40
0
 40
0
 40
0
 40
1
 40
1
 40
1
 40
1
 10
-33.282059
 20
45.934557
 30
0.0
 10
-32.838038
 20
46.190913
 30
0.0
 10
-32.564509
 20
46.664678
 30
0.0
 10
-32.564509
 20
47.177390
 30
0.0
  0
SPLINE
  5
2d8
100
AcDbEntity
  8
Card_Locations
 62
7
100
AcDbSpline
 70
8
 71
3
 72
8
 73
4
 74
0
 40
0
 40
0
 40
0
 40
0
 40
1
 40
1
 40
1
 40
1
 10
-32.564509
 20
47.177390
 30
0.0
 10
-32.564509
 20
47.690102
 30
0.0
 10
-32.838038
 20
48.163867
 30
0.0
 10
-33.282059
 20
48.420223
 30
0.0
  0
SPLINE
  5
2d9
100
AcDbEntity
  8
Card_Locations
 62
7
100
AcDbSpline
 70
8
 71
3
 72
8
 73
4
 74
0
 40
0
 40
0
 40
0
 40
0
 40
1
 40
1
 40
1
 40
1
 10
-33.282059
 20
48.420223
 30
0.0
 10
-33.726081
 20
48.676579
 30
0.0
 10
-34.273138
 20
48.676579
 30
0.0
 10
-34.717159
 20
48.420223
 30
0.0
  0
SPLINE
  5
2da
100
AcDbEntity
  8
Card_Locations
 62
7
100
AcDbSpline
 70
8
 71
3
 72
8
 73
4
 74
0
 40
0
 40
0
 40
0
 40
0
 40
1
 40
1
 40
1
 40
1
 10
-34.717159
 20
48.420223
 30
0.0
 10
-35.161181
 20
48.163867
 30
0.0
 10
-35.434709
 20
47.690102
 30
0.0
 10
-35.434709
 20
47.177390
 30
0.0
  0
SPLINE
  5
2db
100
AcDbEntity
  8
Card_Locations
 62
7
100
AcDbSpline
 70
8
 71
3
 72
8
 73
4
 74
0
 40
0
 40
0
 40
0
 40
0
 40
1
 40
1
 40
1
 40
1
 10
-20.564507
 20
27.177414
 30
0.0
 10
-20.564507
 20
27.690126
 30
0.0
 10
-20.838036
 20
28.163891
 30
0.0
 10
-21.282057
 20
28.420247
 30
0.0
  0
SPLINE
  5
2dc
100
AcDbEntity
  8
Card_Locations
 62
7
100
AcDbSpline
 70
8
 71
3
 72
8
 73
4
 74
0
 40
0
 40
0
 40
0
 40
0
 40
1
 40
1
 40
1
 40
1
 10
-21.282057
 20
28.420247
 30
0.0
 10
-21.726079
 20
28.676603
 30
0.0
 10
-22.273136
 20
28.676603
 30
0.0
 10
-22.717157
 20
28.420247
 30
0.0
  0
SPLINE
  5
2dd
100
AcDbEntity
  8
Card_Locations
 62
7
100
AcDbSpline
 70
8
 71
3
 72
8
 73
4
 74
0
 40
0
 40
0
 40
0
 40
0
 40
1
 40
1
 40
1
 40
1
 10
-22.717157
 20
28.420247
 30
0.0
 10
-23.161179
 20
28.163891
 30
0.0
 10
-23.434707
 20
27.690126
 30
0.0
 10
-23.434707
 20
27.177414
 30
0.0
  0
LWPOLYLINE
  5
2de
100
AcDbEntity
  8
Card_Locations
 62
7
100
AcDbPolyline
 90
2
 70
0
 10
12.293994
 20
78.993493
 30
0.0
 10
-12.293209
 20
78.993493
 30
0.0
  0
SPLINE
  5
2df
100
AcDbEntity
  8
Card_Locations
 62
7
100
AcDbSpline
 70
8
 71
3
 72
8
 73
4
 74
0
 40
0
 40
0
 40
0
 40
0
 40
1
 40
1
 40
1
 40
1
 10
-23.434707
 20
37.177389
 30
0.0
 10
-23.434707
 20
36.664677
 30
0.0
 10
-23.161179
 20
36.190912
 30
0.0
 10
-22.717157
 20
35.934556
 30
0.0
  0
SPLINE
  5
2e0
100
AcDbEntity
  8
Card_Locations
 62
7
100
AcDbSpline
 70
8
 71
3
 72
8
 73
4
 74
0
 40
0
 40
0
 40
0
 40
0
 40
1
 40
1
 40
1
 40
1
 10
-22.717157
 20
35.934556
 30
0.0
 10
-22.273136
 20
35.678200
 30
0.0
 10
-21.726079
 20
35.678200
 30
0.0
 10
-21.282057
 20
35.934556
 30
0.0
  0
SPLINE
  5
2e1
100
AcDbEntity
  8
Card_Locations
 62
7
100
AcDbSpline
 70
8
 71
3
 72
8
 73
4
 74
0
 40
0
 40
0
 40
0
 40
0
 40
1
 40
1
 40
1
 40
1
 10
-21.282057
 20
35.934556
 30
0.0
 10
-20.838036
 20
36.190912
 30
0.0
 10
-20.564507
 20
36.664677
 30
0.0
 10
-20.564507
 20
37.177389
 30
0.0
  0
LWPOLYLINE
  5
2e2
100
AcDbEntity
  8
Card_Locations
 62
7
100
AcDbPolyline
 90
2
 70
0
 10
9.356793
 20
-91.679293
 30
0.0
 10
9.356793
 20
-93.406493
 30
0.0
  0
SPLINE
  5
2e3
100
AcDbEntity
  8
Card_Locations
 62
7
100
AcDbSpline
 70
8
 71
3
 72
8
 73
4
 74
0
 40
0
 40
0
 40
0
 40
0
 40
1
 40
1
 40
1
 40
1
 10
-20.564507
 20
37.177389
 30
0.0
 10
-20.564507
 20
37.690101
 30
0.0
 10
-20.838036
 20
38.163866
 30
0.0
 10
-21.282057
 20
38.420222
 30
0.0
  0
SPLINE
  5
2e4
100
AcDbEntity
  8
Card_Locations
 62
7
100
AcDbSpline
 70
8
 71
3
 72
8
 73
4
 74
0
 40
0
 40
0
 40
0
 40
0
 40
1
 40
1
 40
1
 40
1
 10
-21.282057
 20
38.420222
 30
0.0
 10
-21.726079
 20
38.676578
 30
0.0
 10
-22.273136
 20
38.676578
 30
0.0
 10
-22.717157
 20
38.420222
 30
0.0
  0
SPLINE
  5
2e5
100
AcDbEntity
  8
Card_Locations
 62
7
100
AcDbSpline
 70
8
 71
3
 72
8
 73
4
 74
0
 40
0
 40
0
 40
0
 40
0
 40
1
 40
1
 40
1
 40
1
 10
-22.717157
 20
38.420222
 30
0.0
 10
-23.161179
 20
38.163866
 30
0.0
 10
-23.434707
 20
37.690101
 30
0.0
 10
-23.434707
 20
37.177389
 30
0.0
  0
SPLINE
  5
2e6
100
AcDbEntity
  8
Card_Locations
 62
7
100
AcDbSpline
 70
8
 71
3
 72
8
 73
4
 74
0
 40
0
 40
0
 40
0
 40
0
 40
1
 40
1
 40
1
 40
1
 10
-23.434707
 20
47.177390
 30
0.0
 10
-23.434707
 20
46.664678
 30
0.0
 10
-23.161179
 20
46.190913
 30
0.0
 10
-22.717157
 20
45.934557
 30
0.0
  0
SPLINE
  5
2e7
100
AcDbEntity
  8
Card_Locations
 62
7
100
AcDbSpline
 70
8
 71
3
 72
8
 73
4
 74
0
 40
0
 40
0
 40
0
 40
0
 40
1
 40
1
 40
1
 40
1
 10
-22.717157
 20
45.934557
 30
0.0
 10
-22.273136
 20
45.678201
 30
0.0
 10
-21.726079
 20
45.678201
 30
0.0
 10
-21.282057
 20
45.934557
 30
0.0
  0
SPLINE
  5
2e8
100
AcDbEntity
  8
Card_Locations
 62
7
100
AcDbSpline
 70
8
 71
3
 72
8
 73
4
 74
0
 40
0
 40
0
 40
0
 40
0
 40
1
 40
1
 40
1
 40
1
 10
-21.282057
 20
45.934557
 30
0.0
 10
-20.838036
 20
46.190913
 30
0.0
 10
-20.564507
 20
46.664678
 30
0.0
 10
-20.564507
 20
47.177390
 30
0.0
  0
LWPOLYLINE
  5
2e9
100
AcDbEntity
  8
Card_Locations
 62
7
100
AcDbPolyline
 90
3
 70
0
 10
33.943994
 20
-91.679293
 30
0.0
 10
33.943994
 20
-93.406493
 30
0.0
 10
9.356793
 20
-93.406493
 30
0.0
  0
SPLINE
  5
2ea
100
AcDbEntity
  8
Card_Locations
 62
7
100
AcDbSpline
 70
8
 71
3
 72
8
 73
4
 74
0
 40
0
 40
0
 40
0
 40
0
 40
1
 40
1
 40
1
 40
1
 10
-20.564507
 20
47.177390
 30
0.0
 10
-20.564507
 20
47.690102
 30
0.0
 10
-20.838036
 20
48.163867
 30
0.0
 10
-21.282057
 20
48.420223
 30
0.0
  0
SPLINE
  5
2eb
100
AcDbEntity
  8
Card_Locations
 62
7
100
AcDbSpline
 70
8
 71
3
 72
8
 73
4
 74
0
 40
0
 40
0
 40
0
 40
0
 40
1
 40
1
 40
1
 40
1
 10
-21.282057
 20
48.420223
 30
0.0
 10
-21.726079
 20
48.676579
 30
0.0
 10
-22.273136
 20
48.676579
 30
0.0
 10
-22.717157
 20
48.420223
 30
0.0
  0
SPLINE
  5
2ec
100
AcDbEntity
  8
Card_Locations
 62
7
100
AcDbSpline
 70
8
 71
3
 72
8
 73
4
 74
0
 40
0
 40
0
 40
0
 40
0
 40
1
 40
1
 40
1
 40
1
 10
-22.717157
 20
48.420223
 30
0.0
 10
-23.161179
 20
48.163867
 30
0.0
 10
-23.434707
 20
47.690102
 30
0.0
 10
-23.434707
 20
47.177390
 30
0.0
  0
LWPOLYLINE
  5
2ed
100
AcDbEntity
  8
Card_Locations
 62
7
100
AcDbPolyline
 90
2
 70
0
 10
33.943994
 20
-91.679293
 30
0.0
 10
9.356793
 20
-91.679293
 30
0.0
  0
SPLINE
  5
2ee
100
AcDbEntity
  8
Card_Locations
 62
7
100
AcDbSpline
 70
8
 71
3
 72
8
 73
4
 74
0
 40
0
 40
0
 40
0
 40
0
 40
1
 40
1
 40
1
 40
1
 10
-23.434707
 20
57.177391
 30
0.0
 10
-23.434707
 20
56.664679
 30
0.0
 10
-23.161179
 20
56.190914
 30
0.0
 10
-22.717157
 20
55.934558
 30
0.0
  0
SPLINE
  5
2ef
100
AcDbEntity
  8
Card_Locations
 62
7
100
AcDbSpline
 70
8
 71
3
 72
8
 73
4
 74
0
 40
0
 40
0
 40
0
 40
0
 40
1
 40
1
 40
1
 40
1
 10
-22.717157
 20
55.934558
 30
0.0
 10
-22.273136
 20
55.678202
 30
0.0
 10
-21.726079
 20
55.678202
 30
0.0
 10
-21.282057
 20
55.934558
 30
0.0
  0
SPLINE
  5
2f0
100
AcDbEntity
  8
Card_Locations
 62
7
100
AcDbSpline
 70
8
 71
3
 72
8
 73
4
 74
0
 40
0
 40
0
 40
0
 40
0
 40
1
 40
1
 40
1
 40
1
 10
-21.282057
 20
55.934558
 30
0.0
 10
-20.838036
 20
56.190914
 30
0.0
 10
-20.564507
 20
56.664679
 30
0.0
 10
-20.564507
 20
57.177391
 30
0.0
  0
LWPOLYLINE
  5
2f1
100
AcDbEntity
  8
Card_Locations
 62
7
100
AcDbPolyline
 90
2
 70
0
 10
22.056793
 20
-11.679294
 30
0.0
 10
22.056793
 20
-13.406494
 30
0.0
  0
SPLINE
  5
2f2
100
AcDbEntity
  8
Card_Locations
 62
7
100
AcDbSpline
 70
8
 71
3
 72
8
 73
4
 74
0
 40
0
 40
0
 40
0
 40
0
 40
1
 40
1
 40
1
 40
1
 10
-20.564507
 20
57.177391
 30
0.0
 10
-20.564507
 20
57.690103
 30
0.0
 10
-20.838036
 20
58.163868
 30
0.0
 10
-21.282057
 20
58.420224
 30
0.0
  0
SPLINE
  5
2f3
100
AcDbEntity
  8
Card_Locations
 62
7
100
AcDbSpline
 70
8
 71
3
 72
8
 73
4
 74
0
 40
0
 40
0
 40
0
 40
0
 40
1
 40
1
 40
1
 40
1
 10
-21.282057
 20
58.420224
 30
0.0
 10
-21.726079
 20
58.676580
 30
0.0
 10
-22.273136
 20
58.676580
 30
0.0
 10
-22.717157
 20
58.420224
 30
0.0
  0
SPLINE
  5
2f4
100
AcDbEntity
  8
Card_Locations
 62
7
100
AcDbSpline
 70
8
 71
3
 72
8
 73
4
 74
0
 40
0
 40
0
 40
0
 40
0
 40
1
 40
1
 40
1
 40
1
 10
-22.717157
 20
58.420224
 30
0.0
 10
-23.161179
 20
58.163868
 30
0.0
 10
-23.434707
 20
57.690103
 30
0.0
 10
-23.434707
 20
57.177391
 30
0.0
  0
SPLINE
  5
2f5
100
AcDbEntity
  8
Card_Locations
 62
7
100
AcDbSpline
 70
8
 71
3
 72
8
 73
4
 74
0
 40
0
 40
0
 40
0
 40
0
 40
1
 40
1
 40
1
 40
1
 10
-23.434707
 20
67.177390
 30
0.0
 10
-23.434707
 20
66.664678
 30
0.0
 10
-23.161179
 20
66.190912
 30
0.0
 10
-22.717157
 20
65.934556
 30
0.0
  0
SPLINE
  5
2f6
100
AcDbEntity
  8
Card_Locations
 62
7
100
AcDbSpline
 70
8
 71
3
 72
8
 73
4
 74
0
 40
0
 40
0
 40
0
 40
0
 40
1
 40
1
 40
1
 40
1
 10
-22.717157
 20
65.934556
 30
0.0
 10
-22.273136
 20
65.678201
 30
0.0
 10
-21.726079
 20
65.678201
 30
0.0
 10
-21.282057
 20
65.934556
 30
0.0
  0
SPLINE
  5
2f7
100
AcDbEntity
  8
Card_Locations
 62
7
100
AcDbSpline
 70
8
 71
3
 72
8
 73
4
 74
0
 40
0
 40
0
 40
0
 40
0
 40
1
 40
1
 40
1
 40
1
 10
-21.282057
 20
65.934556
 30
0.0
 10
-20.838036
 20
66.190912
 30
0.0
 10
-20.564507
 20
66.664678
 30
0.0
 10
-20.564507
 20
67.177390
 30
0.0
  0
LWPOLYLINE
  5
2f8
100
AcDbEntity
  8
Card_Locations
 62
7
100
AcDbPolyline
 90
3
 70
0
 10
33.943994
 20
-11.679294
 30
0.0
 10
33.943994
 20
-13.406494
 30
0.0
 10
22.056793
 20
-13.406494
 30
0.0
  0
SPLINE
  5
2f9
100
AcDbEntity
  8
Card_Locations
 62
7
100
AcDbSpline
 70
8
 71
3
 72
8
 73
4
 74
0
 40
0
 40
0
 40
0
 40
0
 40
1
 40
1
 40
1
 40
1
 10
-20.564507
 20
67.177390
 30
0.0
 10
-20.564507
 20
67.690101
 30
0.0
 10
-20.838036
 20
68.163867
 30
0.0
 10
-21.282057
 20
68.420223
 30
0.0
  0
SPLINE
  5
2fa
100
AcDbEntity
  8
Card_Locations
 62
7
100
AcDbSpline
 70
8
 71
3
 72
8
 73
4
 74
0
 40
0
 40
0
 40
0
 40
0
 40
1
 40
1
 40
1
 40
1
 10
-21.282057
 20
68.420223
 30
0.0
 10
-21.726079
 20
68.676579
 30
0.0
 10
-22.273136
 20
68.676579
 30
0.0
 10
-22.717157
 20
68.420223
 30
0.0
  0
SPLINE
  5
2fb
100
AcDbEntity
  8
Card_Locations
 62
7
100
AcDbSpline
 70
8
 71
3
 72
8
 73
4
 74
0
 40
0
 40
0
 40
0
 40
0
 40
1
 40
1
 40
1
 40
1
 10
-22.717157
 20
68.420223
 30
0.0
 10
-23.161179
 20
68.163867
 30
0.0
 10
-23.434707
 20
67.690101
 30
0.0
 10
-23.434707
 20
67.177390
 30
0.0
  0
LWPOLYLINE
  5
2fc
100
AcDbEntity
  8
Card_Locations
 62
7
100
AcDbPolyline
 90
2
 70
0
 10
33.943994
 20
-11.679294
 30
0.0
 10
22.056793
 20
-11.679294
 30
0.0
  0
SPLINE
  5
2fd
100
AcDbEntity
  8
Card_Locations
 62
7
100
AcDbSpline
 70
8
 71
3
 72
8
 73
4
 74
0
 40
0
 40
0
 40
0
 40
0
 40
1
 40
1
 40
1
 40
1
 10
-23.434707
 20
77.177393
 30
0.0
 10
-23.434707
 20
76.664681
 30
0.0
 10
-23.161179
 20
76.190916
 30
0.0
 10
-22.717157
 20
75.934560
 30
0.0
  0
SPLINE
  5
2fe
100
AcDbEntity
  8
Card_Locations
 62
7
100
AcDbSpline
 70
8
 71
3
 72
8
 73
4
 74
0
 40
0
 40
0
 40
0
 40
0
 40
1
 40
1
 40
1
 40
1
 10
-22.717157
 20
75.934560
 30
0.0
 10
-22.273136
 20
75.678204
 30
0.0
 10
-21.726079
 20
75.678204
 30
0.0
 10
-21.282057
 20
75.934560
 30
0.0
  0
SPLINE
  5
2ff
100
AcDbEntity
  8
Card_Locations
 62
7
100
AcDbSpline
 70
8
 71
3
 72
8
 73
4
 74
0
 40
0
 40
0
 40
0
 40
0
 40
1
 40
1
 40
1
 40
1
 10
-21.282057
 20
75.934560
 30
0.0
 10
-20.838036
 20
76.190916
 30
0.0
 10
-20.564507
 20
76.664681
 30
0.0
 10
-20.564507
 20
77.177393
 30
0.0
  0
LWPOLYLINE
  5
300
100
AcDbEntity
  8
Card_Locations
 62
7
100
AcDbPolyline
 90
2
 70
0
 10
-12.293209
 20
-11.679294
 30
0.0
 10
-12.293209
 20
-13.406494
 30
0.0
  0
SPLINE
  5
301
100
AcDbEntity
  8
Card_Locations
 62
7
100
AcDbSpline
 70
8
 71
3
 72
8
 73
4
 74
0
 40
0
 40
0
 40
0
 40
0
 40
1
 40
1
 40
1
 40
1
 10
-20.564507
 20
77.177393
 30
0.0
 10
-20.564507
 20
77.690105
 30
0.0
 10
-20.838036
 20
78.163870
 30
0.0
 10
-21.282057
 20
78.420226
 30
0.0
  0
SPLINE
  5
302
100
AcDbEntity
  8
Card_Locations
 62
7
100
AcDbSpline
 70
8
 71
3
 72
8
 73
4
 74
0
 40
0
 40
0
 40
0
 40
0
 40
1
 40
1
 40
1
 40
1
 10
-21.282057
 20
78.420226
 30
0.0
 10
-21.726079
 20
78.676582
 30
0.0
 10
-22.273136
 20
78.676582
 30
0.0
 10
-22.717157
 20
78.420226
 30
0.0
  0
SPLINE
  5
303
100
AcDbEntity
  8
Card_Locations
 62
7
100
AcDbSpline
 70
8
 71
3
 72
8
 73
4
 74
0
 40
0
 40
0
 40
0
 40
0
 40
1
 40
1
 40
1
 40
1
 10
-22.717157
 20
78.420226
 30
0.0
 10
-23.161179
 20
78.163870
 30
0.0
 10
-23.434707
 20
77.690105
 30
0.0
 10
-23.434707
 20
77.177393
 30
0.0
  0
SPLINE
  5
304
100
AcDbEntity
  8
Card_Locations
 62
7
100
AcDbSpline
 70
8
 71
3
 72
8
 73
4
 74
0
 40
0
 40
0
 40
0
 40
0
 40
1
 40
1
 40
1
 40
1
 10
-23.434707
 20
87.177392
 30
0.0
 10
-23.434707
 20
86.664680
 30
0.0
 10
-23.161179
 20
86.190915
 30
0.0
 10
-22.717157
 20
85.934559
 30
0.0
  0
SPLINE
  5
305
100
AcDbEntity
  8
Card_Locations
 62
7
100
AcDbSpline
 70
8
 71
3
 72
8
 73
4
 74
0
 40
0
 40
0
 40
0
 40
0
 40
1
 40
1
 40
1
 40
1
 10
-22.717157
 20
85.934559
 30
0.0
 10
-22.273136
 20
85.678203
 30
0.0
 10
-21.726079
 20
85.678203
 30
0.0
 10
-21.282057
 20
85.934559
 30
0.0
  0
SPLINE
  5
306
100
AcDbEntity
  8
Card_Locations
 62
7
100
AcDbSpline
 70
8
 71
3
 72
8
 73
4
 74
0
 40
0
 40
0
 40
0
 40
0
 40
1
 40
1
 40
1
 40
1
 10
-21.282057
 20
85.934559
 30
0.0
 10
-20.838036
 20
86.190915
 30
0.0
 10
-20.564507
 20
86.664680
 30
0.0
 10
-20.564507
 20
87.177392
 30
0.0
  0
LWPOLYLINE
  5
307
100
AcDbEntity
  8
Card_Locations
 62
7
100
AcDbPolyline
 90
3
 70
0
 10
12.293994
 20
-11.679294
 30
0.0
 10
12.293994
 20
-13.406494
 30
0.0
 10
-12.293209
 20
-13.406494
 30
0.0
  0
SPLINE
  5
308
100
AcDbEntity
  8
Card_Locations
 62
7
100
AcDbSpline
 70
8
 71
3
 72
8
 73
4
 74
0
 40
0
 40
0
 40
0
 40
0
 40
1
 40
1
 40
1
 40
1
 10
-20.564507
 20
87.177392
 30
0.0
 10
-20.564507
 20
87.690104
 30
0.0
 10
-20.838036
 20
88.163869
 30
0.0
 10
-21.282057
 20
88.420225
 30
0.0
  0
SPLINE
  5
309
100
AcDbEntity
  8
Card_Locations
 62
7
100
AcDbSpline
 70
8
 71
3
 72
8
 73
4
 74
0
 40
0
 40
0
 40
0
 40
0
 40
1
 40
1
 40
1
 40
1
 10
-21.282057
 20
88.420225
 30
0.0
 10
-21.726079
 20
88.676581
 30
0.0
 10
-22.273136
 20
88.676581
 30
0.0
 10
-22.717157
 20
88.420225
 30
0.0
  0
SPLINE
  5
30a
100
AcDbEntity
  8
Card_Locations
 62
7
100
AcDbSpline
 70
8
 71
3
 72
8
 73
4
 74
0
 40
0
 40
0
 40
0
 40
0
 40
1
 40
1
 40
1
 40
1
 10
-22.717157
 20
88.420225
 30
0.0
 10
-23.161179
 20
88.163869
 30
0.0
 10
-23.434707
 20
87.690104
 30
0.0
 10
-23.434707
 20
87.177392
 30
0.0
  0
LWPOLYLINE
  5
30b
100
AcDbEntity
  8
Card_Locations
 62
7
100
AcDbPolyline
 90
2
 70
0
 10
12.293994
 20
-11.679294
 30
0.0
 10
-12.293209
 20
-11.679294
 30
0.0
  0
SPLINE
  5
30c
100
AcDbEntity
  8
Card_Locations
 62
7
100
AcDbSpline
 70
8
 71
3
 72
8
 73
4
 74
0
 40
0
 40
0
 40
0
 40
0
 40
1
 40
1
 40
1
 40
1
 10
-23.434707
 20
-15.222594
 30
0.0
 10
-23.434707
 20
-15.735306
 30
0.0
 10
-23.161179
 20
-16.209072
 30
0.0
 10
-22.717157
 20
-16.465427
 30
0.0
  0
SPLINE
  5
30d
100
AcDbEntity
  8
Card_Locations
 62
7
100
AcDbSpline
 70
8
 71
3
 72
8
 73
4
 74
0
 40
0
 40
0
 40
0
 40
0
 40
1
 40
1
 40
1
 40
1
 10
-22.717157
 20
-16.465427
 30
0.0
 10
-22.273136
 20
-16.721783
 30
0.0
 10
-21.726079
 20
-16.721783
 30
0.0
 10
-21.282057
 20
-16.465427
 30
0.0
  0
SPLINE
  5
30e
100
AcDbEntity
  8
Card_Locations
 62
7
100
AcDbSpline
 70
8
 71
3
 72
8
 73
4
 74
0
 40
0
 40
0
 40
0
 40
0
 40
1
 40
1
 40
1
 40
1
 10
-21.282057
 20
-16.465427
 30
0.0
 10
-20.838036
 20
-16.209072
 30
0.0
 10
-20.564507
 20
-15.735306
 30
0.0
 10
-20.564507
 20
-15.222594
 30
0.0
  0
LWPOLYLINE
  5
30f
100
AcDbEntity
  8
Card_Locations
 62
7
100
AcDbPolyline
 90
2
 70
0
 10
22.056793
 20
90.720692
 30
0.0
 10
22.056793
 20
88.993492
 30
0.0
  0
SPLINE
  5
310
100
AcDbEntity
  8
Card_Locations
 62
7
100
AcDbSpline
 70
8
 71
3
 72
8
 73
4
 74
0
 40
0
 40
0
 40
0
 40
0
 40
1
 40
1
 40
1
 40
1
 10
-20.564507
 20
-15.222594
 30
0.0
 10
-20.564507
 20
-14.709883
 30
0.0
 10
-20.838036
 20
-14.236117
 30
0.0
 10
-21.282057
 20
-13.979761
 30
0.0
  0
SPLINE
  5
311
100
AcDbEntity
  8
Card_Locations
 62
7
100
AcDbSpline
 70
8
 71
3
 72
8
 73
4
 74
0
 40
0
 40
0
 40
0
 40
0
 40
1
 40
1
 40
1
 40
1
 10
-21.282057
 20
-13.979761
 30
0.0
 10
-21.726079
 20
-13.723405
 30
0.0
 10
-22.273136
 20
-13.723405
 30
0.0
 10
-22.717157
 20
-13.979761
 30
0.0
  0
SPLINE
  5
312
100
AcDbEntity
  8
Card_Locations
 62
7
100
AcDbSpline
 70
8
 71
3
 72
8
 73
4
 74
0
 40
0
 40
0
 40
0
 40
0
 40
1
 40
1
 40
1
 40
1
 10
-22.717157
 20
-13.979761
 30
0.0
 10
-23.161179
 20
-14.236117
 30
0.0
 10
-23.434707
 20
-14.709883
 30
0.0
 10
-23.434707
 20
-15.222594
 30
0.0
  0
LWPOLYLINE
  5
313
100
AcDbEntity
  8
Card_Locations
 62
7
100
AcDbPolyline
 90
3
 70
0
 10
33.943994
 20
90.720692
 30
0.0
 10
33.943994
 20
88.993492
 30
0.0
 10
22.056793
 20
88.993492
 30
0.0
  0
LWPOLYLINE
  5
314
100
AcDbEntity
  8
Card_Locations
 62
7
100
AcDbPolyline
 90
2
 70
0
 10
33.943994
 20
90.720692
 30
0.0
 10
22.056793
 20
90.720692
 30
0.0
  0
LWPOLYLINE
  5
315
100
AcDbEntity
  8
Card_Locations
 62
7
100
AcDbPolyline
 90
2
 70
0
 10
-12.293209
 20
90.720692
 30
0.0
 10
-12.293209
 20
88.993492
 30
0.0
  0
LWPOLYLINE
  5
316
100
AcDbEntity
  8
Card_Locations
 62
7
100
AcDbPolyline
 90
3
 70
0
 10
12.293994
 20
90.720692
 30
0.0
 10
12.293994
 20
88.993492
 30
0.0
 10
-12.293209
 20
88.993492
 30
0.0
  0
LWPOLYLINE
  5
317
100
AcDbEntity
  8
Card_Locations
 62
7
100
AcDbPolyline
 90
2
 70
0
 10
12.293994
 20
90.720692
 30
0.0
 10
-12.293209
 20
90.720692
 30
0.0
  0
SPLINE
  5
318
100
AcDbEntity
  8
Card_Locations
 62
7
100
AcDbSpline
 70
8
 71
3
 72
8
 73
4
 74
0
 40
0
 40
0
 40
0
 40
0
 40
1
 40
1
 40
1
 40
1
 10
-23.434707
 20
27.177414
 30
0.0
 10
-23.434707
 20
26.664702
 30
0.0
 10
-23.161179
 20
26.190937
 30
0.0
 10
-22.717157
 20
25.934581
 30
0.0
  0
SPLINE
  5
319
100
AcDbEntity
  8
Card_Locations
 62
7
100
AcDbSpline
 70
8
 71
3
 72
8
 73
4
 74
0
 40
0
 40
0
 40
0
 40
0
 40
1
 40
1
 40
1
 40
1
 10
-22.717157
 20
25.934581
 30
0.0
 10
-22.273136
 20
25.678225
 30
0.0
 10
-21.726079
 20
25.678225
 30
0.0
 10
-21.282057
 20
25.934581
 30
0.0
  0
SPLINE
  5
31a
100
AcDbEntity
  8
Card_Locations
 62
7
100
AcDbSpline
 70
8
 71
3
 72
8
 73
4
 74
0
 40
0
 40
0
 40
0
 40
0
 40
1
 40
1
 40
1
 40
1
 10
-21.282057
 20
25.934581
 30
0.0
 10
-20.838036
 20
26.190937
 30
0.0
 10
-20.564507
 20
26.664702
 30
0.0
 10
-20.564507
 20
27.177414
 30
0.0
  0
SPLINE
  5
31b
100
AcDbEntity
  8
Card_Locations
 62
7
100
AcDbSpline
 70
8
 71
3
 72
8
 73
4
 74
0
 40
0
 40
0
 40
0
 40
0
 40
1
 40
1
 40
1
 40
1
 10
-26.564508
 20
97.177393
 30
0.0
 10
-26.564508
 20
97.690105
 30
0.0
 10
-26.838036
 20
98.163870
 30
0.0
 10
-27.282058
 20
98.420226
 30
0.0
  0
SPLINE
  5
31c
100
AcDbEntity
  8
Card_Locations
 62
7
100
AcDbSpline
 70
8
 71
3
 72
8
 73
4
 74
0
 40
0
 40
0
 40
0
 40
0
 40
1
 40
1
 40
1
 40
1
 10
-27.282058
 20
98.420226
 30
0.0
 10
-27.726079
 20
98.676582
 30
0.0
 10
-28.273136
 20
98.676582
 30
0.0
 10
-28.717158
 20
98.420226
 30
0.0
  0
SPLINE
  5
31d
100
AcDbEntity
  8
Card_Locations
 62
7
100
AcDbSpline
 70
8
 71
3
 72
8
 73
4
 74
0
 40
0
 40
0
 40
0
 40
0
 40
1
 40
1
 40
1
 40
1
 10
-28.717158
 20
98.420226
 30
0.0
 10
-29.161179
 20
98.163870
 30
0.0
 10
-29.434708
 20
97.690105
 30
0.0
 10
-29.434708
 20
97.177393
 30
0.0
  0
SPLINE
  5
31e
100
AcDbEntity
  8
Card_Locations
 62
7
100
AcDbSpline
 70
8
 71
3
 72
8
 73
4
 74
0
 40
0
 40
0
 40
0
 40
0
 40
1
 40
1
 40
1
 40
1
 10
-29.434708
 20
97.177393
 30
0.0
 10
-29.434708
 20
96.664681
 30
0.0
 10
-29.161179
 20
96.190916
 30
0.0
 10
-28.717158
 20
95.934560
 30
0.0
  0
SPLINE
  5
31f
100
AcDbEntity
  8
Card_Locations
 62
7
100
AcDbSpline
 70
8
 71
3
 72
8
 73
4
 74
0
 40
0
 40
0
 40
0
 40
0
 40
1
 40
1
 40
1
 40
1
 10
-28.717158
 20
95.934560
 30
0.0
 10
-28.273136
 20
95.678204
 30
0.0
 10
-27.726079
 20
95.678204
 30
0.0
 10
-27.282058
 20
95.934560
 30
0.0
  0
SPLINE
  5
320
100
AcDbEntity
  8
Card_Locations
 62
7
100
AcDbSpline
 70
8
 71
3
 72
8
 73
4
 74
0
 40
0
 40
0
 40
0
 40
0
 40
1
 40
1
 40
1
 40
1
 10
-27.282058
 20
95.934560
 30
0.0
 10
-26.838036
 20
96.190916
 30
0.0
 10
-26.564508
 20
96.664681
 30
0.0
 10
-26.564508
 20
97.177393
 30
0.0
  0
SPLINE
  5
321
100
AcDbEntity
  8
Card_Locations
 62
7
100
AcDbSpline
 70
8
 71
3
 72
8
 73
4
 74
0
 40
0
 40
0
 40
0
 40
0
 40
1
 40
1
 40
1
 40
1
 10
-26.564508
 20
87.177392
 30
0.0
 10
-26.564508
 20
87.690104
 30
0.0
 10
-26.838036
 20
88.163869
 30
0.0
 10
-27.282058
 20
88.420225
 30
0.0
  0
SPLINE
  5
322
100
AcDbEntity
  8
Card_Locations
 62
7
100
AcDbSpline
 70
8
 71
3
 72
8
 73
4
 74
0
 40
0
 40
0
 40
0
 40
0
 40
1
 40
1
 40
1
 40
1
 10
-27.282058
 20
88.420225
 30
0.0
 10
-27.726079
 20
88.676581
 30
0.0
 10
-28.273136
 20
88.676581
 30
0.0
 10
-28.717158
 20
88.420225
 30
0.0
  0
SPLINE
  5
323
100
AcDbEntity
  8
Card_Locations
 62
7
100
AcDbSpline
 70
8
 71
3
 72
8
 73
4
 74
0
 40
0
 40
0
 40
0
 40
0
 40
1
 40
1
 40
1
 40
1
 10
-28.717158
 20
88.420225
 30
0.0
 10
-29.161179
 20
88.163869
 30
0.0
 10
-29.434708
 20
87.690104
 30
0.0
 10
-29.434708
 20
87.177392
 30
0.0
  0
SPLINE
  5
324
100
AcDbEntity
  8
Card_Locations
 62
7
100
AcDbSpline
 70
8
 71
3
 72
8
 73
4
 74
0
 40
0
 40
0
 40
0
 40
0
 40
1
 40
1
 40
1
 40
1
 10
-29.434708
 20
87.177392
 30
0.0
 10
-29.434708
 20
86.664680
 30
0.0
 10
-29.161179
 20
86.190915
 30
0.0
 10
-28.717158
 20
85.934559
 30
0.0
  0
SPLINE
  5
325
100
AcDbEntity
  8
Card_Locations
 62
7
100
AcDbSpline
 70
8
 71
3
 72
8
 73
4
 74
0
 40
0
 40
0
 40
0
 40
0
 40
1
 40
1
 40
1
 40
1
 10
-28.717158
 20
85.934559
 30
0.0
 10
-28.273136
 20
85.678203
 30
0.0
 10
-27.726079
 20
85.678203
 30
0.0
 10
-27.282058
 20
85.934559
 30
0.0
  0
SPLINE
  5
326
100
AcDbEntity
  8
Card_Locations
 62
7
100
AcDbSpline
 70
8
 71
3
 72
8
 73
4
 74
0
 40
0
 40
0
 40
0
 40
0
 40
1
 40
1
 40
1
 40
1
 10
-27.282058
 20
85.934559
 30
0.0
 10
-26.838036
 20
86.190915
 30
0.0
 10
-26.564508
 20
86.664680
 30
0.0
 10
-26.564508
 20
87.177392
 30
0.0
  0
SPLINE
  5
327
100
AcDbEntity
  8
Card_Locations
 62
7
100
AcDbSpline
 70
8
 71
3
 72
8
 73
4
 74
0
 40
0
 40
0
 40
0
 40
0
 40
1
 40
1
 40
1
 40
1
 10
-26.564508
 20
77.177393
 30
0.0
 10
-26.564508
 20
77.690105
 30
0.0
 10
-26.838036
 20
78.163870
 30
0.0
 10
-27.282058
 20
78.420226
 30
0.0
  0
SPLINE
  5
328
100
AcDbEntity
  8
Card_Locations
 62
7
100
AcDbSpline
 70
8
 71
3
 72
8
 73
4
 74
0
 40
0
 40
0
 40
0
 40
0
 40
1
 40
1
 40
1
 40
1
 10
-27.282058
 20
78.420226
 30
0.0
 10
-27.726079
 20
78.676582
 30
0.0
 10
-28.273136
 20
78.676582
 30
0.0
 10
-28.717158
 20
78.420226
 30
0.0
  0
SPLINE
  5
329
100
AcDbEntity
  8
Card_Locations
 62
7
100
AcDbSpline
 70
8
 71
3
 72
8
 73
4
 74
0
 40
0
 40
0
 40
0
 40
0
 40
1
 40
1
 40
1
 40
1
 10
-28.717158
 20
78.420226
 30
0.0
 10
-29.161179
 20
78.163870
 30
0.0
 10
-29.434708
 20
77.690105
 30
0.0
 10
-29.434708
 20
77.177393
 30
0.0
  0
SPLINE
  5
32a
100
AcDbEntity
  8
Card_Locations
 62
7
100
AcDbSpline
 70
8
 71
3
 72
8
 73
4
 74
0
 40
0
 40
0
 40
0
 40
0
 40
1
 40
1
 40
1
 40
1
 10
-29.434708
 20
77.177393
 30
0.0
 10
-29.434708
 20
76.664681
 30
0.0
 10
-29.161179
 20
76.190916
 30
0.0
 10
-28.717158
 20
75.934560
 30
0.0
  0
SPLINE
  5
32b
100
AcDbEntity
  8
Card_Locations
 62
7
100
AcDbSpline
 70
8
 71
3
 72
8
 73
4
 74
0
 40
0
 40
0
 40
0
 40
0
 40
1
 40
1
 40
1
 40
1
 10
-28.717158
 20
75.934560
 30
0.0
 10
-28.273136
 20
75.678204
 30
0.0
 10
-27.726079
 20
75.678204
 30
0.0
 10
-27.282058
 20
75.934560
 30
0.0
  0
SPLINE
  5
32c
100
AcDbEntity
  8
Card_Locations
 62
7
100
AcDbSpline
 70
8
 71
3
 72
8
 73
4
 74
0
 40
0
 40
0
 40
0
 40
0
 40
1
 40
1
 40
1
 40
1
 10
-27.282058
 20
75.934560
 30
0.0
 10
-26.838036
 20
76.190916
 30
0.0
 10
-26.564508
 20
76.664681
 30
0.0
 10
-26.564508
 20
77.177393
 30
0.0
  0
SPLINE
  5
32d
100
AcDbEntity
  8
Card_Locations
 62
7
100
AcDbSpline
 70
8
 71
3
 72
8
 73
4
 74
0
 40
0
 40
0
 40
0
 40
0
 40
1
 40
1
 40
1
 40
1
 10
-26.564508
 20
67.177390
 30
0.0
 10
-26.564508
 20
67.690101
 30
0.0
 10
-26.838036
 20
68.163867
 30
0.0
 10
-27.282058
 20
68.420223
 30
0.0
  0
SPLINE
  5
32e
100
AcDbEntity
  8
Card_Locations
 62
7
100
AcDbSpline
 70
8
 71
3
 72
8
 73
4
 74
0
 40
0
 40
0
 40
0
 40
0
 40
1
 40
1
 40
1
 40
1
 10
-27.282058
 20
68.420223
 30
0.0
 10
-27.726079
 20
68.676579
 30
0.0
 10
-28.273136
 20
68.676579
 30
0.0
 10
-28.717158
 20
68.420223
 30
0.0
  0
SPLINE
  5
32f
100
AcDbEntity
  8
Card_Locations
 62
7
100
AcDbSpline
 70
8
 71
3
 72
8
 73
4
 74
0
 40
0
 40
0
 40
0
 40
0
 40
1
 40
1
 40
1
 40
1
 10
-28.717158
 20
68.420223
 30
0.0
 10
-29.161179
 20
68.163867
 30
0.0
 10
-29.434708
 20
67.690101
 30
0.0
 10
-29.434708
 20
67.177390
 30
0.0
  0
SPLINE
  5
330
100
AcDbEntity
  8
Card_Locations
 62
7
100
AcDbSpline
 70
8
 71
3
 72
8
 73
4
 74
0
 40
0
 40
0
 40
0
 40
0
 40
1
 40
1
 40
1
 40
1
 10
-29.434708
 20
67.177390
 30
0.0
 10
-29.434708
 20
66.664678
 30
0.0
 10
-29.161179
 20
66.190912
 30
0.0
 10
-28.717158
 20
65.934556
 30
0.0
  0
SPLINE
  5
331
100
AcDbEntity
  8
Card_Locations
 62
7
100
AcDbSpline
 70
8
 71
3
 72
8
 73
4
 74
0
 40
0
 40
0
 40
0
 40
0
 40
1
 40
1
 40
1
 40
1
 10
-28.717158
 20
65.934556
 30
0.0
 10
-28.273136
 20
65.678201
 30
0.0
 10
-27.726079
 20
65.678201
 30
0.0
 10
-27.282058
 20
65.934556
 30
0.0
  0
SPLINE
  5
332
100
AcDbEntity
  8
Card_Locations
 62
7
100
AcDbSpline
 70
8
 71
3
 72
8
 73
4
 74
0
 40
0
 40
0
 40
0
 40
0
 40
1
 40
1
 40
1
 40
1
 10
-27.282058
 20
65.934556
 30
0.0
 10
-26.838036
 20
66.190912
 30
0.0
 10
-26.564508
 20
66.664678
 30
0.0
 10
-26.564508
 20
67.177390
 30
0.0
  0
SPLINE
  5
333
100
AcDbEntity
  8
Card_Locations
 62
7
100
AcDbSpline
 70
8
 71
3
 72
8
 73
4
 74
0
 40
0
 40
0
 40
0
 40
0
 40
1
 40
1
 40
1
 40
1
 10
-26.564508
 20
57.177391
 30
0.0
 10
-26.564508
 20
57.690103
 30
0.0
 10
-26.838036
 20
58.163868
 30
0.0
 10
-27.282058
 20
58.420224
 30
0.0
  0
SPLINE
  5
334
100
AcDbEntity
  8
Card_Locations
 62
7
100
AcDbSpline
 70
8
 71
3
 72
8
 73
4
 74
0
 40
0
 40
0
 40
0
 40
0
 40
1
 40
1
 40
1
 40
1
 10
-27.282058
 20
58.420224
 30
0.0
 10
-27.726079
 20
58.676580
 30
0.0
 10
-28.273136
 20
58.676580
 30
0.0
 10
-28.717158
 20
58.420224
 30
0.0
  0
SPLINE
  5
335
100
AcDbEntity
  8
Card_Locations
 62
7
100
AcDbSpline
 70
8
 71
3
 72
8
 73
4
 74
0
 40
0
 40
0
 40
0
 40
0
 40
1
 40
1
 40
1
 40
1
 10
-28.717158
 20
58.420224
 30
0.0
 10
-29.161179
 20
58.163868
 30
0.0
 10
-29.434708
 20
57.690103
 30
0.0
 10
-29.434708
 20
57.177391
 30
0.0
  0
SPLINE
  5
336
100
AcDbEntity
  8
Card_Locations
 62
7
100
AcDbSpline
 70
8
 71
3
 72
8
 73
4
 74
0
 40
0
 40
0
 40
0
 40
0
 40
1
 40
1
 40
1
 40
1
 10
-29.434708
 20
57.177391
 30
0.0
 10
-29.434708
 20
56.664679
 30
0.0
 10
-29.161179
 20
56.190914
 30
0.0
 10
-28.717158
 20
55.934558
 30
0.0
  0
SPLINE
  5
337
100
AcDbEntity
  8
Card_Locations
 62
7
100
AcDbSpline
 70
8
 71
3
 72
8
 73
4
 74
0
 40
0
 40
0
 40
0
 40
0
 40
1
 40
1
 40
1
 40
1
 10
-28.717158
 20
55.934558
 30
0.0
 10
-28.273136
 20
55.678202
 30
0.0
 10
-27.726079
 20
55.678202
 30
0.0
 10
-27.282058
 20
55.934558
 30
0.0
  0
SPLINE
  5
338
100
AcDbEntity
  8
Card_Locations
 62
7
100
AcDbSpline
 70
8
 71
3
 72
8
 73
4
 74
0
 40
0
 40
0
 40
0
 40
0
 40
1
 40
1
 40
1
 40
1
 10
-27.282058
 20
55.934558
 30
0.0
 10
-26.838036
 20
56.190914
 30
0.0
 10
-26.564508
 20
56.664679
 30
0.0
 10
-26.564508
 20
57.177391
 30
0.0
  0
SPLINE
  5
339
100
AcDbEntity
  8
Card_Locations
 62
7
100
AcDbSpline
 70
8
 71
3
 72
8
 73
4
 74
0
 40
0
 40
0
 40
0
 40
0
 40
1
 40
1
 40
1
 40
1
 10
-26.564508
 20
47.177390
 30
0.0
 10
-26.564508
 20
47.690102
 30
0.0
 10
-26.838036
 20
48.163867
 30
0.0
 10
-27.282058
 20
48.420223
 30
0.0
  0
SPLINE
  5
33a
100
AcDbEntity
  8
Card_Locations
 62
7
100
AcDbSpline
 70
8
 71
3
 72
8
 73
4
 74
0
 40
0
 40
0
 40
0
 40
0
 40
1
 40
1
 40
1
 40
1
 10
-27.282058
 20
48.420223
 30
0.0
 10
-27.726079
 20
48.676579
 30
0.0
 10
-28.273136
 20
48.676579
 30
0.0
 10
-28.717158
 20
48.420223
 30
0.0
  0
SPLINE
  5
33b
100
AcDbEntity
  8
Card_Locations
 62
7
100
AcDbSpline
 70
8
 71
3
 72
8
 73
4
 74
0
 40
0
 40
0
 40
0
 40
0
 40
1
 40
1
 40
1
 40
1
 10
-28.717158
 20
48.420223
 30
0.0
 10
-29.161179
 20
48.163867
 30
0.0
 10
-29.434708
 20
47.690102
 30
0.0
 10
-29.434708
 20
47.177390
 30
0.0
  0
SPLINE
  5
33c
100
AcDbEntity
  8
Card_Locations
 62
7
100
AcDbSpline
 70
8
 71
3
 72
8
 73
4
 74
0
 40
0
 40
0
 40
0
 40
0
 40
1
 40
1
 40
1
 40
1
 10
-29.434708
 20
47.177390
 30
0.0
 10
-29.434708
 20
46.664678
 30
0.0
 10
-29.161179
 20
46.190913
 30
0.0
 10
-28.717158
 20
45.934557
 30
0.0
  0
SPLINE
  5
33d
100
AcDbEntity
  8
Card_Locations
 62
7
100
AcDbSpline
 70
8
 71
3
 72
8
 73
4
 74
0
 40
0
 40
0
 40
0
 40
0
 40
1
 40
1
 40
1
 40
1
 10
-28.717158
 20
45.934557
 30
0.0
 10
-28.273136
 20
45.678201
 30
0.0
 10
-27.726079
 20
45.678201
 30
0.0
 10
-27.282058
 20
45.934557
 30
0.0
  0
SPLINE
  5
33e
100
AcDbEntity
  8
Card_Locations
 62
7
100
AcDbSpline
 70
8
 71
3
 72
8
 73
4
 74
0
 40
0
 40
0
 40
0
 40
0
 40
1
 40
1
 40
1
 40
1
 10
-27.282058
 20
45.934557
 30
0.0
 10
-26.838036
 20
46.190913
 30
0.0
 10
-26.564508
 20
46.664678
 30
0.0
 10
-26.564508
 20
47.177390
 30
0.0
  0
SPLINE
  5
33f
100
AcDbEntity
  8
Card_Locations
 62
7
100
AcDbSpline
 70
8
 71
3
 72
8
 73
4
 74
0
 40
0
 40
0
 40
0
 40
0
 40
1
 40
1
 40
1
 40
1
 10
-26.564508
 20
37.177389
 30
0.0
 10
-26.564508
 20
37.690101
 30
0.0
 10
-26.838036
 20
38.163866
 30
0.0
 10
-27.282058
 20
38.420222
 30
0.0
  0
SPLINE
  5
340
100
AcDbEntity
  8
Card_Locations
 62
7
100
AcDbSpline
 70
8
 71
3
 72
8
 73
4
 74
0
 40
0
 40
0
 40
0
 40
0
 40
1
 40
1
 40
1
 40
1
 10
-27.282058
 20
38.420222
 30
0.0
 10
-27.726079
 20
38.676578
 30
0.0
 10
-28.273136
 20
38.676578
 30
0.0
 10
-28.717158
 20
38.420222
 30
0.0
  0
SPLINE
  5
341
100
AcDbEntity
  8
Card_Locations
 62
7
100
AcDbSpline
 70
8
 71
3
 72
8
 73
4
 74
0
 40
0
 40
0
 40
0
 40
0
 40
1
 40
1
 40
1
 40
1
 10
-28.717158
 20
38.420222
 30
0.0
 10
-29.161179
 20
38.163866
 30
0.0
 10
-29.434708
 20
37.690101
 30
0.0
 10
-29.434708
 20
37.177389
 30
0.0
  0
SPLINE
  5
342
100
AcDbEntity
  8
Card_Locations
 62
7
100
AcDbSpline
 70
8
 71
3
 72
8
 73
4
 74
0
 40
0
 40
0
 40
0
 40
0
 40
1
 40
1
 40
1
 40
1
 10
-29.434708
 20
37.177389
 30
0.0
 10
-29.434708
 20
36.664677
 30
0.0
 10
-29.161179
 20
36.190912
 30
0.0
 10
-28.717158
 20
35.934556
 30
0.0
  0
SPLINE
  5
343
100
AcDbEntity
  8
Card_Locations
 62
7
100
AcDbSpline
 70
8
 71
3
 72
8
 73
4
 74
0
 40
0
 40
0
 40
0
 40
0
 40
1
 40
1
 40
1
 40
1
 10
-28.717158
 20
35.934556
 30
0.0
 10
-28.273136
 20
35.678200
 30
0.0
 10
-27.726079
 20
35.678200
 30
0.0
 10
-27.282058
 20
35.934556
 30
0.0
  0
SPLINE
  5
344
100
AcDbEntity
  8
Card_Locations
 62
7
100
AcDbSpline
 70
8
 71
3
 72
8
 73
4
 74
0
 40
0
 40
0
 40
0
 40
0
 40
1
 40
1
 40
1
 40
1
 10
-27.282058
 20
35.934556
 30
0.0
 10
-26.838036
 20
36.190912
 30
0.0
 10
-26.564508
 20
36.664677
 30
0.0
 10
-26.564508
 20
37.177389
 30
0.0
  0
SPLINE
  5
345
100
AcDbEntity
  8
Card_Locations
 62
7
100
AcDbSpline
 70
8
 71
3
 72
8
 73
4
 74
0
 40
0
 40
0
 40
0
 40
0
 40
1
 40
1
 40
1
 40
1
 10
-26.564508
 20
27.177414
 30
0.0
 10
-26.564508
 20
27.690126
 30
0.0
 10
-26.838036
 20
28.163891
 30
0.0
 10
-27.282058
 20
28.420247
 30
0.0
  0
SPLINE
  5
346
100
AcDbEntity
  8
Card_Locations
 62
7
100
AcDbSpline
 70
8
 71
3
 72
8
 73
4
 74
0
 40
0
 40
0
 40
0
 40
0
 40
1
 40
1
 40
1
 40
1
 10
-27.282058
 20
28.420247
 30
0.0
 10
-27.726079
 20
28.676603
 30
0.0
 10
-28.273136
 20
28.676603
 30
0.0
 10
-28.717158
 20
28.420247
 30
0.0
  0
SPLINE
  5
347
100
AcDbEntity
  8
Card_Locations
 62
7
100
AcDbSpline
 70
8
 71
3
 72
8
 73
4
 74
0
 40
0
 40
0
 40
0
 40
0
 40
1
 40
1
 40
1
 40
1
 10
-28.717158
 20
28.420247
 30
0.0
 10
-29.161179
 20
28.163891
 30
0.0
 10
-29.434708
 20
27.690126
 30
0.0
 10
-29.434708
 20
27.177414
 30
0.0
  0
SPLINE
  5
348
100
AcDbEntity
  8
Card_Locations
 62
7
100
AcDbSpline
 70
8
 71
3
 72
8
 73
4
 74
0
 40
0
 40
0
 40
0
 40
0
 40
1
 40
1
 40
1
 40
1
 10
-29.434708
 20
27.177414
 30
0.0
 10
-29.434708
 20
26.664702
 30
0.0
 10
-29.161179
 20
26.190937
 30
0.0
 10
-28.717158
 20
25.934581
 30
0.0
  0
SPLINE
  5
349
100
AcDbEntity
  8
Card_Locations
 62
7
100
AcDbSpline
 70
8
 71
3
 72
8
 73
4
 74
0
 40
0
 40
0
 40
0
 40
0
 40
1
 40
1
 40
1
 40
1
 10
-28.717158
 20
25.934581
 30
0.0
 10
-28.273136
 20
25.678225
 30
0.0
 10
-27.726079
 20
25.678225
 30
0.0
 10
-27.282058
 20
25.934581
 30
0.0
  0
SPLINE
  5
34a
100
AcDbEntity
  8
Card_Locations
 62
7
100
AcDbSpline
 70
8
 71
3
 72
8
 73
4
 74
0
 40
0
 40
0
 40
0
 40
0
 40
1
 40
1
 40
1
 40
1
 10
-27.282058
 20
25.934581
 30
0.0
 10
-26.838036
 20
26.190937
 30
0.0
 10
-26.564508
 20
26.664702
 30
0.0
 10
-26.564508
 20
27.177414
 30
0.0
  0
SPLINE
  5
34b
100
AcDbEntity
  8
Card_Locations
 62
7
100
AcDbSpline
 70
8
 71
3
 72
8
 73
4
 74
0
 40
0
 40
0
 40
0
 40
0
 40
1
 40
1
 40
1
 40
1
 10
-32.564509
 20
97.177393
 30
0.0
 10
-32.564509
 20
97.690105
 30
0.0
 10
-32.838038
 20
98.163870
 30
0.0
 10
-33.282059
 20
98.420226
 30
0.0
  0
SPLINE
  5
34c
100
AcDbEntity
  8
Card_Locations
 62
7
100
AcDbSpline
 70
8
 71
3
 72
8
 73
4
 74
0
 40
0
 40
0
 40
0
 40
0
 40
1
 40
1
 40
1
 40
1
 10
-33.282059
 20
98.420226
 30
0.0
 10
-33.726081
 20
98.676582
 30
0.0
 10
-34.273138
 20
98.676582
 30
0.0
 10
-34.717159
 20
98.420226
 30
0.0
  0
SPLINE
  5
34d
100
AcDbEntity
  8
Card_Locations
 62
7
100
AcDbSpline
 70
8
 71
3
 72
8
 73
4
 74
0
 40
0
 40
0
 40
0
 40
0
 40
1
 40
1
 40
1
 40
1
 10
-34.717159
 20
98.420226
 30
0.0
 10
-35.161181
 20
98.163870
 30
0.0
 10
-35.434709
 20
97.690105
 30
0.0
 10
-35.434709
 20
97.177393
 30
0.0
  0
SPLINE
  5
34e
100
AcDbEntity
  8
Card_Locations
 62
7
100
AcDbSpline
 70
8
 71
3
 72
8
 73
4
 74
0
 40
0
 40
0
 40
0
 40
0
 40
1
 40
1
 40
1
 40
1
 10
-35.434709
 20
97.177393
 30
0.0
 10
-35.434709
 20
96.664681
 30
0.0
 10
-35.161181
 20
96.190916
 30
0.0
 10
-34.717159
 20
95.934560
 30
0.0
  0
SPLINE
  5
34f
100
AcDbEntity
  8
Card_Locations
 62
7
100
AcDbSpline
 70
8
 71
3
 72
8
 73
4
 74
0
 40
0
 40
0
 40
0
 40
0
 40
1
 40
1
 40
1
 40
1
 10
-34.717159
 20
95.934560
 30
0.0
 10
-34.273138
 20
95.678204
 30
0.0
 10
-33.726081
 20
95.678204
 30
0.0
 10
-33.282059
 20
95.934560
 30
0.0
  0
SPLINE
  5
350
100
AcDbEntity
  8
Card_Locations
 62
7
100
AcDbSpline
 70
8
 71
3
 72
8
 73
4
 74
0
 40
0
 40
0
 40
0
 40
0
 40
1
 40
1
 40
1
 40
1
 10
-33.282059
 20
95.934560
 30
0.0
 10
-32.838038
 20
96.190916
 30
0.0
 10
-32.564509
 20
96.664681
 30
0.0
 10
-32.564509
 20
97.177393
 30
0.0
  0
SPLINE
  5
351
100
AcDbEntity
  8
Card_Locations
 62
7
100
AcDbSpline
 70
8
 71
3
 72
8
 73
4
 74
0
 40
0
 40
0
 40
0
 40
0
 40
1
 40
1
 40
1
 40
1
 10
-32.564509
 20
87.177392
 30
0.0
 10
-32.564509
 20
87.690104
 30
0.0
 10
-32.838038
 20
88.163869
 30
0.0
 10
-33.282059
 20
88.420225
 30
0.0
  0
SPLINE
  5
352
100
AcDbEntity
  8
Card_Locations
 62
7
100
AcDbSpline
 70
8
 71
3
 72
8
 73
4
 74
0
 40
0
 40
0
 40
0
 40
0
 40
1
 40
1
 40
1
 40
1
 10
-33.282059
 20
88.420225
 30
0.0
 10
-33.726081
 20
88.676581
 30
0.0
 10
-34.273138
 20
88.676581
 30
0.0
 10
-34.717159
 20
88.420225
 30
0.0
  0
SPLINE
  5
353
100
AcDbEntity
  8
Card_Locations
 62
7
100
AcDbSpline
 70
8
 71
3
 72
8
 73
4
 74
0
 40
0
 40
0
 40
0
 40
0
 40
1
 40
1
 40
1
 40
1
 10
-34.717159
 20
88.420225
 30
0.0
 10
-35.161181
 20
88.163869
 30
0.0
 10
-35.434709
 20
87.690104
 30
0.0
 10
-35.434709
 20
87.177392
 30
0.0
  0
SPLINE
  5
354
100
AcDbEntity
  8
Card_Locations
 62
7
100
AcDbSpline
 70
8
 71
3
 72
8
 73
4
 74
0
 40
0
 40
0
 40
0
 40
0
 40
1
 40
1
 40
1
 40
1
 10
-35.434709
 20
87.177392
 30
0.0
 10
-35.434709
 20
86.664680
 30
0.0
 10
-35.161181
 20
86.190915
 30
0.0
 10
-34.717159
 20
85.934559
 30
0.0
  0
SPLINE
  5
355
100
AcDbEntity
  8
Card_Locations
 62
7
100
AcDbSpline
 70
8
 71
3
 72
8
 73
4
 74
0
 40
0
 40
0
 40
0
 40
0
 40
1
 40
1
 40
1
 40
1
 10
-34.717159
 20
85.934559
 30
0.0
 10
-34.273138
 20
85.678203
 30
0.0
 10
-33.726081
 20
85.678203
 30
0.0
 10
-33.282059
 20
85.934559
 30
0.0
  0
SPLINE
  5
356
100
AcDbEntity
  8
Card_Locations
 62
7
100
AcDbSpline
 70
8
 71
3
 72
8
 73
4
 74
0
 40
0
 40
0
 40
0
 40
0
 40
1
 40
1
 40
1
 40
1
 10
-33.282059
 20
85.934559
 30
0.0
 10
-32.838038
 20
86.190915
 30
0.0
 10
-32.564509
 20
86.664680
 30
0.0
 10
-32.564509
 20
87.177392
 30
0.0
  0
SPLINE
  5
357
100
AcDbEntity
  8
Card_Locations
 62
7
100
AcDbSpline
 70
8
 71
3
 72
8
 73
4
 74
0
 40
0
 40
0
 40
0
 40
0
 40
1
 40
1
 40
1
 40
1
 10
-32.564509
 20
77.177393
 30
0.0
 10
-32.564509
 20
77.690105
 30
0.0
 10
-32.838038
 20
78.163870
 30
0.0
 10
-33.282059
 20
78.420226
 30
0.0
  0
SPLINE
  5
358
100
AcDbEntity
  8
Card_Locations
 62
7
100
AcDbSpline
 70
8
 71
3
 72
8
 73
4
 74
0
 40
0
 40
0
 40
0
 40
0
 40
1
 40
1
 40
1
 40
1
 10
-33.282059
 20
78.420226
 30
0.0
 10
-33.726081
 20
78.676582
 30
0.0
 10
-34.273138
 20
78.676582
 30
0.0
 10
-34.717159
 20
78.420226
 30
0.0
  0
SPLINE
  5
359
100
AcDbEntity
  8
Card_Locations
 62
7
100
AcDbSpline
 70
8
 71
3
 72
8
 73
4
 74
0
 40
0
 40
0
 40
0
 40
0
 40
1
 40
1
 40
1
 40
1
 10
-34.717159
 20
78.420226
 30
0.0
 10
-35.161181
 20
78.163870
 30
0.0
 10
-35.434709
 20
77.690105
 30
0.0
 10
-35.434709
 20
77.177393
 30
0.0
  0
SPLINE
  5
35a
100
AcDbEntity
  8
Card_Locations
 62
7
100
AcDbSpline
 70
8
 71
3
 72
8
 73
4
 74
0
 40
0
 40
0
 40
0
 40
0
 40
1
 40
1
 40
1
 40
1
 10
-35.434709
 20
77.177393
 30
0.0
 10
-35.434709
 20
76.664681
 30
0.0
 10
-35.161181
 20
76.190916
 30
0.0
 10
-34.717159
 20
75.934560
 30
0.0
  0
SPLINE
  5
35b
100
AcDbEntity
  8
Card_Locations
 62
7
100
AcDbSpline
 70
8
 71
3
 72
8
 73
4
 74
0
 40
0
 40
0
 40
0
 40
0
 40
1
 40
1
 40
1
 40
1
 10
-34.717159
 20
75.934560
 30
0.0
 10
-34.273138
 20
75.678204
 30
0.0
 10
-33.726081
 20
75.678204
 30
0.0
 10
-33.282059
 20
75.934560
 30
0.0
  0
SPLINE
  5
35c
100
AcDbEntity
  8
Card_Locations
 62
7
100
AcDbSpline
 70
8
 71
3
 72
8
 73
4
 74
0
 40
0
 40
0
 40
0
 40
0
 40
1
 40
1
 40
1
 40
1
 10
-33.282059
 20
75.934560
 30
0.0
 10
-32.838038
 20
76.190916
 30
0.0
 10
-32.564509
 20
76.664681
 30
0.0
 10
-32.564509
 20
77.177393
 30
0.0
  0
SPLINE
  5
35d
100
AcDbEntity
  8
Card_Locations
 62
7
100
AcDbSpline
 70
8
 71
3
 72
8
 73
4
 74
0
 40
0
 40
0
 40
0
 40
0
 40
1
 40
1
 40
1
 40
1
 10
-32.564509
 20
67.177390
 30
0.0
 10
-32.564509
 20
67.690101
 30
0.0
 10
-32.838038
 20
68.163867
 30
0.0
 10
-33.282059
 20
68.420223
 30
0.0
  0
SPLINE
  5
35e
100
AcDbEntity
  8
Card_Locations
 62
7
100
AcDbSpline
 70
8
 71
3
 72
8
 73
4
 74
0
 40
0
 40
0
 40
0
 40
0
 40
1
 40
1
 40
1
 40
1
 10
-33.282059
 20
68.420223
 30
0.0
 10
-33.726081
 20
68.676579
 30
0.0
 10
-34.273138
 20
68.676579
 30
0.0
 10
-34.717159
 20
68.420223
 30
0.0
  0
SPLINE
  5
35f
100
AcDbEntity
  8
Card_Locations
 62
7
100
AcDbSpline
 70
8
 71
3
 72
8
 73
4
 74
0
 40
0
 40
0
 40
0
 40
0
 40
1
 40
1
 40
1
 40
1
 10
-34.717159
 20
68.420223
 30
0.0
 10
-35.161181
 20
68.163867
 30
0.0
 10
-35.434709
 20
67.690101
 30
0.0
 10
-35.434709
 20
67.177390
 30
0.0
  0
SPLINE
  5
360
100
AcDbEntity
  8
Card_Locations
 62
7
100
AcDbSpline
 70
8
 71
3
 72
8
 73
4
 74
0
 40
0
 40
0
 40
0
 40
0
 40
1
 40
1
 40
1
 40
1
 10
-35.434709
 20
67.177390
 30
0.0
 10
-35.434709
 20
66.664678
 30
0.0
 10
-35.161181
 20
66.190912
 30
0.0
 10
-34.717159
 20
65.934556
 30
0.0
  0
SPLINE
  5
361
100
AcDbEntity
  8
Card_Locations
 62
7
100
AcDbSpline
 70
8
 71
3
 72
8
 73
4
 74
0
 40
0
 40
0
 40
0
 40
0
 40
1
 40
1
 40
1
 40
1
 10
-34.717159
 20
65.934556
 30
0.0
 10
-34.273138
 20
65.678201
 30
0.0
 10
-33.726081
 20
65.678201
 30
0.0
 10
-33.282059
 20
65.934556
 30
0.0
  0
SPLINE
  5
362
100
AcDbEntity
  8
Card_Locations
 62
7
100
AcDbSpline
 70
8
 71
3
 72
8
 73
4
 74
0
 40
0
 40
0
 40
0
 40
0
 40
1
 40
1
 40
1
 40
1
 10
-33.282059
 20
65.934556
 30
0.0
 10
-32.838038
 20
66.190912
 30
0.0
 10
-32.564509
 20
66.664678
 30
0.0
 10
-32.564509
 20
67.177390
 30
0.0
  0
SPLINE
  5
363
100
AcDbEntity
  8
Card_Locations
 62
7
100
AcDbSpline
 70
8
 71
3
 72
8
 73
4
 74
0
 40
0
 40
0
 40
0
 40
0
 40
1
 40
1
 40
1
 40
1
 10
-32.564509
 20
57.177391
 30
0.0
 10
-32.564509
 20
57.690103
 30
0.0
 10
-32.838038
 20
58.163868
 30
0.0
 10
-33.282059
 20
58.420224
 30
0.0
  0
SPLINE
  5
364
100
AcDbEntity
  8
Card_Locations
 62
7
100
AcDbSpline
 70
8
 71
3
 72
8
 73
4
 74
0
 40
0
 40
0
 40
0
 40
0
 40
1
 40
1
 40
1
 40
1
 10
-33.282059
 20
58.420224
 30
0.0
 10
-33.726081
 20
58.676580
 30
0.0
 10
-34.273138
 20
58.676580
 30
0.0
 10
-34.717159
 20
58.420224
 30
0.0
  0
SPLINE
  5
365
100
AcDbEntity
  8
Card_Locations
 62
7
100
AcDbSpline
 70
8
 71
3
 72
8
 73
4
 74
0
 40
0
 40
0
 40
0
 40
0
 40
1
 40
1
 40
1
 40
1
 10
-34.717159
 20
58.420224
 30
0.0
 10
-35.161181
 20
58.163868
 30
0.0
 10
-35.434709
 20
57.690103
 30
0.0
 10
-35.434709
 20
57.177391
 30
0.0
  0
SPLINE
  5
366
100
AcDbEntity
  8
Card_Locations
 62
7
100
AcDbSpline
 70
8
 71
3
 72
8
 73
4
 74
0
 40
0
 40
0
 40
0
 40
0
 40
1
 40
1
 40
1
 40
1
 10
-35.434709
 20
57.177391
 30
0.0
 10
-35.434709
 20
56.664679
 30
0.0
 10
-35.161181
 20
56.190914
 30
0.0
 10
-34.717159
 20
55.934558
 30
0.0
  0
SPLINE
  5
367
100
AcDbEntity
  8
Card_Locations
 62
7
100
AcDbSpline
 70
8
 71
3
 72
8
 73
4
 74
0
 40
0
 40
0
 40
0
 40
0
 40
1
 40
1
 40
1
 40
1
 10
-34.717159
 20
55.934558
 30
0.0
 10
-34.273138
 20
55.678202
 30
0.0
 10
-33.726081
 20
55.678202
 30
0.0
 10
-33.282059
 20
55.934558
 30
0.0
  0
SPLINE
  5
368
100
AcDbEntity
  8
Card_Locations
 62
7
100
AcDbSpline
 70
8
 71
3
 72
8
 73
4
 74
0
 40
0
 40
0
 40
0
 40
0
 40
1
 40
1
 40
1
 40
1
 10
-33.282059
 20
55.934558
 30
0.0
 10
-32.838038
 20
56.190914
 30
0.0
 10
-32.564509
 20
56.664679
 30
0.0
 10
-32.564509
 20
57.177391
 30
0.0
  0
SPLINE
  5
369
100
AcDbEntity
  8
Card_Locations
 62
7
100
AcDbSpline
 70
8
 71
3
 72
8
 73
4
 74
0
 40
0
 40
0
 40
0
 40
0
 40
1
 40
1
 40
1
 40
1
 10
-26.564508
 20
-85.222587
 30
0.0
 10
-26.564508
 20
-84.709875
 30
0.0
 10
-26.838036
 20
-84.236110
 30
0.0
 10
-27.282058
 20
-83.979754
 30
0.0
  0
SPLINE
  5
36a
100
AcDbEntity
  8
Card_Locations
 62
7
100
AcDbSpline
 70
8
 71
3
 72
8
 73
4
 74
0
 40
0
 40
0
 40
0
 40
0
 40
1
 40
1
 40
1
 40
1
 10
-27.282058
 20
-83.979754
 30
0.0
 10
-27.726079
 20
-83.723398
 30
0.0
 10
-28.273136
 20
-83.723398
 30
0.0
 10
-28.717158
 20
-83.979754
 30
0.0
  0
SPLINE
  5
36b
100
AcDbEntity
  8
Card_Locations
 62
7
100
AcDbSpline
 70
8
 71
3
 72
8
 73
4
 74
0
 40
0
 40
0
 40
0
 40
0
 40
1
 40
1
 40
1
 40
1
 10
-28.717158
 20
-83.979754
 30
0.0
 10
-29.161179
 20
-84.236110
 30
0.0
 10
-29.434708
 20
-84.709875
 30
0.0
 10
-29.434708
 20
-85.222587
 30
0.0
  0
SPLINE
  5
36c
100
AcDbEntity
  8
Card_Locations
 62
7
100
AcDbSpline
 70
8
 71
3
 72
8
 73
4
 74
0
 40
0
 40
0
 40
0
 40
0
 40
1
 40
1
 40
1
 40
1
 10
-29.434708
 20
-85.222587
 30
0.0
 10
-29.434708
 20
-85.735299
 30
0.0
 10
-29.161179
 20
-86.209064
 30
0.0
 10
-28.717158
 20
-86.465420
 30
0.0
  0
SPLINE
  5
36d
100
AcDbEntity
  8
Card_Locations
 62
7
100
AcDbSpline
 70
8
 71
3
 72
8
 73
4
 74
0
 40
0
 40
0
 40
0
 40
0
 40
1
 40
1
 40
1
 40
1
 10
-28.717158
 20
-86.465420
 30
0.0
 10
-28.273136
 20
-86.721776
 30
0.0
 10
-27.726079
 20
-86.721776
 30
0.0
 10
-27.282058
 20
-86.465420
 30
0.0
  0
SPLINE
  5
36e
100
AcDbEntity
  8
Card_Locations
 62
7
100
AcDbSpline
 70
8
 71
3
 72
8
 73
4
 74
0
 40
0
 40
0
 40
0
 40
0
 40
1
 40
1
 40
1
 40
1
 10
-27.282058
 20
-86.465420
 30
0.0
 10
-26.838036
 20
-86.209064
 30
0.0
 10
-26.564508
 20
-85.735299
 30
0.0
 10
-26.564508
 20
-85.222587
 30
0.0
  0
SPLINE
  5
36f
100
AcDbEntity
  8
Card_Locations
 62
7
100
AcDbSpline
 70
8
 71
3
 72
8
 73
4
 74
0
 40
0
 40
0
 40
0
 40
0
 40
1
 40
1
 40
1
 40
1
 10
-26.564508
 20
-95.222593
 30
0.0
 10
-26.564508
 20
-94.709881
 30
0.0
 10
-26.838036
 20
-94.236116
 30
0.0
 10
-27.282058
 20
-93.979760
 30
0.0
  0
SPLINE
  5
370
100
AcDbEntity
  8
Card_Locations
 62
7
100
AcDbSpline
 70
8
 71
3
 72
8
 73
4
 74
0
 40
0
 40
0
 40
0
 40
0
 40
1
 40
1
 40
1
 40
1
 10
-27.282058
 20
-93.979760
 30
0.0
 10
-27.726079
 20
-93.723404
 30
0.0
 10
-28.273136
 20
-93.723404
 30
0.0
 10
-28.717158
 20
-93.979760
 30
0.0
  0
SPLINE
  5
371
100
AcDbEntity
  8
Card_Locations
 62
7
100
AcDbSpline
 70
8
 71
3
 72
8
 73
4
 74
0
 40
0
 40
0
 40
0
 40
0
 40
1
 40
1
 40
1
 40
1
 10
-28.717158
 20
-93.979760
 30
0.0
 10
-29.161179
 20
-94.236116
 30
0.0
 10
-29.434708
 20
-94.709881
 30
0.0
 10
-29.434708
 20
-95.222593
 30
0.0
  0
SPLINE
  5
372
100
AcDbEntity
  8
Card_Locations
 62
7
100
AcDbSpline
 70
8
 71
3
 72
8
 73
4
 74
0
 40
0
 40
0
 40
0
 40
0
 40
1
 40
1
 40
1
 40
1
 10
-29.434708
 20
-95.222593
 30
0.0
 10
-29.434708
 20
-95.735305
 30
0.0
 10
-29.161179
 20
-96.209070
 30
0.0
 10
-28.717158
 20
-96.465426
 30
0.0
  0
SPLINE
  5
373
100
AcDbEntity
  8
Card_Locations
 62
7
100
AcDbSpline
 70
8
 71
3
 72
8
 73
4
 74
0
 40
0
 40
0
 40
0
 40
0
 40
1
 40
1
 40
1
 40
1
 10
-28.717158
 20
-96.465426
 30
0.0
 10
-28.273136
 20
-96.721782
 30
0.0
 10
-27.726079
 20
-96.721782
 30
0.0
 10
-27.282058
 20
-96.465426
 30
0.0
  0
SPLINE
  5
374
100
AcDbEntity
  8
Card_Locations
 62
7
100
AcDbSpline
 70
8
 71
3
 72
8
 73
4
 74
0
 40
0
 40
0
 40
0
 40
0
 40
1
 40
1
 40
1
 40
1
 10
-27.282058
 20
-96.465426
 30
0.0
 10
-26.838036
 20
-96.209070
 30
0.0
 10
-26.564508
 20
-95.735305
 30
0.0
 10
-26.564508
 20
-95.222593
 30
0.0
  0
SPLINE
  5
375
100
AcDbEntity
  8
Card_Locations
 62
7
100
AcDbSpline
 70
8
 71
3
 72
8
 73
4
 74
0
 40
0
 40
0
 40
0
 40
0
 40
1
 40
1
 40
1
 40
1
 10
-32.564509
 20
-15.222594
 30
0.0
 10
-32.564509
 20
-14.709883
 30
0.0
 10
-32.838038
 20
-14.236117
 30
0.0
 10
-33.282059
 20
-13.979761
 30
0.0
  0
SPLINE
  5
376
100
AcDbEntity
  8
Card_Locations
 62
7
100
AcDbSpline
 70
8
 71
3
 72
8
 73
4
 74
0
 40
0
 40
0
 40
0
 40
0
 40
1
 40
1
 40
1
 40
1
 10
-33.282059
 20
-13.979761
 30
0.0
 10
-33.726081
 20
-13.723405
 30
0.0
 10
-34.273138
 20
-13.723405
 30
0.0
 10
-34.717159
 20
-13.979761
 30
0.0
  0
SPLINE
  5
377
100
AcDbEntity
  8
Card_Locations
 62
7
100
AcDbSpline
 70
8
 71
3
 72
8
 73
4
 74
0
 40
0
 40
0
 40
0
 40
0
 40
1
 40
1
 40
1
 40
1
 10
-34.717159
 20
-13.979761
 30
0.0
 10
-35.161181
 20
-14.236117
 30
0.0
 10
-35.434709
 20
-14.709883
 30
0.0
 10
-35.434709
 20
-15.222594
 30
0.0
  0
SPLINE
  5
378
100
AcDbEntity
  8
Card_Locations
 62
7
100
AcDbSpline
 70
8
 71
3
 72
8
 73
4
 74
0
 40
0
 40
0
 40
0
 40
0
 40
1
 40
1
 40
1
 40
1
 10
-35.434709
 20
-15.222594
 30
0.0
 10
-35.434709
 20
-15.735306
 30
0.0
 10
-35.161181
 20
-16.209072
 30
0.0
 10
-34.717159
 20
-16.465427
 30
0.0
  0
SPLINE
  5
379
100
AcDbEntity
  8
Card_Locations
 62
7
100
AcDbSpline
 70
8
 71
3
 72
8
 73
4
 74
0
 40
0
 40
0
 40
0
 40
0
 40
1
 40
1
 40
1
 40
1
 10
-34.717159
 20
-16.465427
 30
0.0
 10
-34.273138
 20
-16.721783
 30
0.0
 10
-33.726081
 20
-16.721783
 30
0.0
 10
-33.282059
 20
-16.465427
 30
0.0
  0
SPLINE
  5
37a
100
AcDbEntity
  8
Card_Locations
 62
7
100
AcDbSpline
 70
8
 71
3
 72
8
 73
4
 74
0
 40
0
 40
0
 40
0
 40
0
 40
1
 40
1
 40
1
 40
1
 10
-33.282059
 20
-16.465427
 30
0.0
 10
-32.838038
 20
-16.209072
 30
0.0
 10
-32.564509
 20
-15.735306
 30
0.0
 10
-32.564509
 20
-15.222594
 30
0.0
  0
SPLINE
  5
37b
100
AcDbEntity
  8
Card_Locations
 62
7
100
AcDbSpline
 70
8
 71
3
 72
8
 73
4
 74
0
 40
0
 40
0
 40
0
 40
0
 40
1
 40
1
 40
1
 40
1
 10
-32.564509
 20
-25.222601
 30
0.0
 10
-32.564509
 20
-24.709889
 30
0.0
 10
-32.838038
 20
-24.236124
 30
0.0
 10
-33.282059
 20
-23.979768
 30
0.0
  0
SPLINE
  5
37c
100
AcDbEntity
  8
Card_Locations
 62
7
100
AcDbSpline
 70
8
 71
3
 72
8
 73
4
 74
0
 40
0
 40
0
 40
0
 40
0
 40
1
 40
1
 40
1
 40
1
 10
-33.282059
 20
-23.979768
 30
0.0
 10
-33.726081
 20
-23.723412
 30
0.0
 10
-34.273138
 20
-23.723412
 30
0.0
 10
-34.717159
 20
-23.979768
 30
0.0
  0
SPLINE
  5
37d
100
AcDbEntity
  8
Card_Locations
 62
7
100
AcDbSpline
 70
8
 71
3
 72
8
 73
4
 74
0
 40
0
 40
0
 40
0
 40
0
 40
1
 40
1
 40
1
 40
1
 10
-34.717159
 20
-23.979768
 30
0.0
 10
-35.161181
 20
-24.236124
 30
0.0
 10
-35.434709
 20
-24.709889
 30
0.0
 10
-35.434709
 20
-25.222601
 30
0.0
  0
SPLINE
  5
37e
100
AcDbEntity
  8
Card_Locations
 62
7
100
AcDbSpline
 70
8
 71
3
 72
8
 73
4
 74
0
 40
0
 40
0
 40
0
 40
0
 40
1
 40
1
 40
1
 40
1
 10
-35.434709
 20
-25.222601
 30
0.0
 10
-35.434709
 20
-25.735313
 30
0.0
 10
-35.161181
 20
-26.209078
 30
0.0
 10
-34.717159
 20
-26.465434
 30
0.0
  0
SPLINE
  5
37f
100
AcDbEntity
  8
Card_Locations
 62
7
100
AcDbSpline
 70
8
 71
3
 72
8
 73
4
 74
0
 40
0
 40
0
 40
0
 40
0
 40
1
 40
1
 40
1
 40
1
 10
-34.717159
 20
-26.465434
 30
0.0
 10
-34.273138
 20
-26.721790
 30
0.0
 10
-33.726081
 20
-26.721790
 30
0.0
 10
-33.282059
 20
-26.465434
 30
0.0
  0
SPLINE
  5
380
100
AcDbEntity
  8
Card_Locations
 62
7
100
AcDbSpline
 70
8
 71
3
 72
8
 73
4
 74
0
 40
0
 40
0
 40
0
 40
0
 40
1
 40
1
 40
1
 40
1
 10
-33.282059
 20
-26.465434
 30
0.0
 10
-32.838038
 20
-26.209078
 30
0.0
 10
-32.564509
 20
-25.735313
 30
0.0
 10
-32.564509
 20
-25.222601
 30
0.0
  0
SPLINE
  5
381
100
AcDbEntity
  8
Card_Locations
 62
7
100
AcDbSpline
 70
8
 71
3
 72
8
 73
4
 74
0
 40
0
 40
0
 40
0
 40
0
 40
1
 40
1
 40
1
 40
1
 10
-32.564509
 20
-35.222607
 30
0.0
 10
-32.564509
 20
-34.709895
 30
0.0
 10
-32.838038
 20
-34.236130
 30
0.0
 10
-33.282059
 20
-33.979774
 30
0.0
  0
SPLINE
  5
382
100
AcDbEntity
  8
Card_Locations
 62
7
100
AcDbSpline
 70
8
 71
3
 72
8
 73
4
 74
0
 40
0
 40
0
 40
0
 40
0
 40
1
 40
1
 40
1
 40
1
 10
-33.282059
 20
-33.979774
 30
0.0
 10
-33.726081
 20
-33.723418
 30
0.0
 10
-34.273138
 20
-33.723418
 30
0.0
 10
-34.717159
 20
-33.979774
 30
0.0
  0
SPLINE
  5
383
100
AcDbEntity
  8
Card_Locations
 62
7
100
AcDbSpline
 70
8
 71
3
 72
8
 73
4
 74
0
 40
0
 40
0
 40
0
 40
0
 40
1
 40
1
 40
1
 40
1
 10
-34.717159
 20
-33.979774
 30
0.0
 10
-35.161181
 20
-34.236130
 30
0.0
 10
-35.434709
 20
-34.709895
 30
0.0
 10
-35.434709
 20
-35.222607
 30
0.0
  0
SPLINE
  5
384
100
AcDbEntity
  8
Card_Locations
 62
7
100
AcDbSpline
 70
8
 71
3
 72
8
 73
4
 74
0
 40
0
 40
0
 40
0
 40
0
 40
1
 40
1
 40
1
 40
1
 10
-35.434709
 20
-35.222607
 30
0.0
 10
-35.434709
 20
-35.735319
 30
0.0
 10
-35.161181
 20
-36.209084
 30
0.0
 10
-34.717159
 20
-36.465440
 30
0.0
  0
SPLINE
  5
385
100
AcDbEntity
  8
Card_Locations
 62
7
100
AcDbSpline
 70
8
 71
3
 72
8
 73
4
 74
0
 40
0
 40
0
 40
0
 40
0
 40
1
 40
1
 40
1
 40
1
 10
-34.717159
 20
-36.465440
 30
0.0
 10
-34.273138
 20
-36.721796
 30
0.0
 10
-33.726081
 20
-36.721796
 30
0.0
 10
-33.282059
 20
-36.465440
 30
0.0
  0
SPLINE
  5
386
100
AcDbEntity
  8
Card_Locations
 62
7
100
AcDbSpline
 70
8
 71
3
 72
8
 73
4
 74
0
 40
0
 40
0
 40
0
 40
0
 40
1
 40
1
 40
1
 40
1
 10
-33.282059
 20
-36.465440
 30
0.0
 10
-32.838038
 20
-36.209084
 30
0.0
 10
-32.564509
 20
-35.735319
 30
0.0
 10
-32.564509
 20
-35.222607
 30
0.0
  0
SPLINE
  5
387
100
AcDbEntity
  8
Card_Locations
 62
7
100
AcDbSpline
 70
8
 71
3
 72
8
 73
4
 74
0
 40
0
 40
0
 40
0
 40
0
 40
1
 40
1
 40
1
 40
1
 10
-32.564509
 20
-45.222587
 30
0.0
 10
-32.564509
 20
-44.709875
 30
0.0
 10
-32.838038
 20
-44.236110
 30
0.0
 10
-33.282059
 20
-43.979754
 30
0.0
  0
SPLINE
  5
388
100
AcDbEntity
  8
Card_Locations
 62
7
100
AcDbSpline
 70
8
 71
3
 72
8
 73
4
 74
0
 40
0
 40
0
 40
0
 40
0
 40
1
 40
1
 40
1
 40
1
 10
-33.282059
 20
-43.979754
 30
0.0
 10
-33.726081
 20
-43.723398
 30
0.0
 10
-34.273138
 20
-43.723398
 30
0.0
 10
-34.717159
 20
-43.979754
 30
0.0
  0
SPLINE
  5
389
100
AcDbEntity
  8
Card_Locations
 62
7
100
AcDbSpline
 70
8
 71
3
 72
8
 73
4
 74
0
 40
0
 40
0
 40
0
 40
0
 40
1
 40
1
 40
1
 40
1
 10
-34.717159
 20
-43.979754
 30
0.0
 10
-35.161181
 20
-44.236110
 30
0.0
 10
-35.434709
 20
-44.709875
 30
0.0
 10
-35.434709
 20
-45.222587
 30
0.0
  0
LWPOLYLINE
  5
38a
100
AcDbEntity
  8
Card_Locations
 62
7
100
AcDbPolyline
 90
2
 70
0
 10
33.943994
 20
100.720693
 30
0.0
 10
33.943994
 20
98.993493
 30
0.0
  0
ENDSEC
  0
SECTION
  2
OBJECTS
  0
DICTIONARY
  5
C
330
0
100
AcDbDictionary
  3
ACAD_GROUP
350
D
  3
ACAD_MLINESTYLE
350
17
  0
DICTIONARY
  5
D
330
C
100
AcDbDictionary
  0
DICTIONARY
  5
1A
330
C
100
AcDbDictionary
  0
DICTIONARY
  5
17
330
C
100
AcDbDictionary
  3
STANDARD
350
18
  0
DICTIONARY
  5
19
330
C
100
AcDbDictionary
  0
ENDSEC
  0
EOF
